<?xml version="1.0" encoding="utf-8" standalone="no"?>
<!DOCTYPE svg PUBLIC "-//W3C//DTD SVG 1.1//EN"
  "http://www.w3.org/Graphics/SVG/1.1/DTD/svg11.dtd">
<svg height="345.6pt" version="1.1" viewBox="0 0 460.8 345.6" width="460.8pt" xmlns="http://www.w3.org/2000/svg" xmlns:xlink="http://www.w3.org/1999/xlink">
 <metadata>
  <rdf:RDF xmlns:cc="http://creativecommons.org/ns#" xmlns:dc="http://purl.org/dc/elements/1.1/" xmlns:rdf="http://www.w3.org/1999/02/22-rdf-syntax-ns#">
   <cc:Work>
    <dc:type rdf:resource="http://purl.org/dc/dcmitype/StillImage"/>
    <dc:date>2021-07-21T00:30:29.933580</dc:date>
    <dc:format>image/svg+xml</dc:format>
    <dc:creator>
     <cc:Agent>
      <dc:title>Matplotlib v3.4.2, https://matplotlib.org/</dc:title>
     </cc:Agent>
    </dc:creator>
   </cc:Work>
  </rdf:RDF>
 </metadata>
 <defs>
  <style type="text/css">*{stroke-linecap:butt;stroke-linejoin:round;}</style>
 </defs>
 <g id="figure_1">
  <g id="patch_1">
   <path d="M 0 345.6 
L 460.8 345.6 
L 460.8 0 
L 0 0 
z
" style="fill:#ffffff;"/>
  </g>
  <g id="axes_1">
   <g id="patch_2">
    <path d="M 47.72 303.64 
L 400.48 303.64 
L 400.48 21.72 
L 47.72 21.72 
z
" style="fill:#ffffff;"/>
   </g>
   <g id="matplotlib.axis_1">
    <g id="xtick_1">
     <g id="line2d_1">
      <defs>
       <path d="M 0 0 
L 0 3.5 
" id="mf989ac456a" style="stroke:#000000;stroke-width:0.8;"/>
      </defs>
      <g>
       <use style="stroke:#000000;stroke-width:0.8;" x="60.515243" xlink:href="#mf989ac456a" y="303.64"/>
      </g>
     </g>
     <g id="text_1">
      <!-- 0.0 -->
      <g transform="translate(52.563681 318.238437)scale(0.1 -0.1)">
       <defs>
        <path d="M 2034 4250 
Q 1547 4250 1301 3770 
Q 1056 3291 1056 2328 
Q 1056 1369 1301 889 
Q 1547 409 2034 409 
Q 2525 409 2770 889 
Q 3016 1369 3016 2328 
Q 3016 3291 2770 3770 
Q 2525 4250 2034 4250 
z
M 2034 4750 
Q 2819 4750 3233 4129 
Q 3647 3509 3647 2328 
Q 3647 1150 3233 529 
Q 2819 -91 2034 -91 
Q 1250 -91 836 529 
Q 422 1150 422 2328 
Q 422 3509 836 4129 
Q 1250 4750 2034 4750 
z
" id="DejaVuSans-30" transform="scale(0.015625)"/>
        <path d="M 684 794 
L 1344 794 
L 1344 0 
L 684 0 
L 684 794 
z
" id="DejaVuSans-2e" transform="scale(0.015625)"/>
       </defs>
       <use xlink:href="#DejaVuSans-30"/>
       <use x="63.623047" xlink:href="#DejaVuSans-2e"/>
       <use x="95.410156" xlink:href="#DejaVuSans-30"/>
      </g>
     </g>
    </g>
    <g id="xtick_2">
     <g id="line2d_2">
      <g>
       <use style="stroke:#000000;stroke-width:0.8;" x="125.301286" xlink:href="#mf989ac456a" y="303.64"/>
      </g>
     </g>
     <g id="text_2">
      <!-- 0.2 -->
      <g transform="translate(117.349723 318.238437)scale(0.1 -0.1)">
       <defs>
        <path d="M 1228 531 
L 3431 531 
L 3431 0 
L 469 0 
L 469 531 
Q 828 903 1448 1529 
Q 2069 2156 2228 2338 
Q 2531 2678 2651 2914 
Q 2772 3150 2772 3378 
Q 2772 3750 2511 3984 
Q 2250 4219 1831 4219 
Q 1534 4219 1204 4116 
Q 875 4013 500 3803 
L 500 4441 
Q 881 4594 1212 4672 
Q 1544 4750 1819 4750 
Q 2544 4750 2975 4387 
Q 3406 4025 3406 3419 
Q 3406 3131 3298 2873 
Q 3191 2616 2906 2266 
Q 2828 2175 2409 1742 
Q 1991 1309 1228 531 
z
" id="DejaVuSans-32" transform="scale(0.015625)"/>
       </defs>
       <use xlink:href="#DejaVuSans-30"/>
       <use x="63.623047" xlink:href="#DejaVuSans-2e"/>
       <use x="95.410156" xlink:href="#DejaVuSans-32"/>
      </g>
     </g>
    </g>
    <g id="xtick_3">
     <g id="line2d_3">
      <g>
       <use style="stroke:#000000;stroke-width:0.8;" x="190.087328" xlink:href="#mf989ac456a" y="303.64"/>
      </g>
     </g>
     <g id="text_3">
      <!-- 0.4 -->
      <g transform="translate(182.135765 318.238437)scale(0.1 -0.1)">
       <defs>
        <path d="M 2419 4116 
L 825 1625 
L 2419 1625 
L 2419 4116 
z
M 2253 4666 
L 3047 4666 
L 3047 1625 
L 3713 1625 
L 3713 1100 
L 3047 1100 
L 3047 0 
L 2419 0 
L 2419 1100 
L 313 1100 
L 313 1709 
L 2253 4666 
z
" id="DejaVuSans-34" transform="scale(0.015625)"/>
       </defs>
       <use xlink:href="#DejaVuSans-30"/>
       <use x="63.623047" xlink:href="#DejaVuSans-2e"/>
       <use x="95.410156" xlink:href="#DejaVuSans-34"/>
      </g>
     </g>
    </g>
    <g id="xtick_4">
     <g id="line2d_4">
      <g>
       <use style="stroke:#000000;stroke-width:0.8;" x="254.87337" xlink:href="#mf989ac456a" y="303.64"/>
      </g>
     </g>
     <g id="text_4">
      <!-- 0.6 -->
      <g transform="translate(246.921808 318.238437)scale(0.1 -0.1)">
       <defs>
        <path d="M 2113 2584 
Q 1688 2584 1439 2293 
Q 1191 2003 1191 1497 
Q 1191 994 1439 701 
Q 1688 409 2113 409 
Q 2538 409 2786 701 
Q 3034 994 3034 1497 
Q 3034 2003 2786 2293 
Q 2538 2584 2113 2584 
z
M 3366 4563 
L 3366 3988 
Q 3128 4100 2886 4159 
Q 2644 4219 2406 4219 
Q 1781 4219 1451 3797 
Q 1122 3375 1075 2522 
Q 1259 2794 1537 2939 
Q 1816 3084 2150 3084 
Q 2853 3084 3261 2657 
Q 3669 2231 3669 1497 
Q 3669 778 3244 343 
Q 2819 -91 2113 -91 
Q 1303 -91 875 529 
Q 447 1150 447 2328 
Q 447 3434 972 4092 
Q 1497 4750 2381 4750 
Q 2619 4750 2861 4703 
Q 3103 4656 3366 4563 
z
" id="DejaVuSans-36" transform="scale(0.015625)"/>
       </defs>
       <use xlink:href="#DejaVuSans-30"/>
       <use x="63.623047" xlink:href="#DejaVuSans-2e"/>
       <use x="95.410156" xlink:href="#DejaVuSans-36"/>
      </g>
     </g>
    </g>
    <g id="xtick_5">
     <g id="line2d_5">
      <g>
       <use style="stroke:#000000;stroke-width:0.8;" x="319.659412" xlink:href="#mf989ac456a" y="303.64"/>
      </g>
     </g>
     <g id="text_5">
      <!-- 0.8 -->
      <g transform="translate(311.70785 318.238437)scale(0.1 -0.1)">
       <defs>
        <path d="M 2034 2216 
Q 1584 2216 1326 1975 
Q 1069 1734 1069 1313 
Q 1069 891 1326 650 
Q 1584 409 2034 409 
Q 2484 409 2743 651 
Q 3003 894 3003 1313 
Q 3003 1734 2745 1975 
Q 2488 2216 2034 2216 
z
M 1403 2484 
Q 997 2584 770 2862 
Q 544 3141 544 3541 
Q 544 4100 942 4425 
Q 1341 4750 2034 4750 
Q 2731 4750 3128 4425 
Q 3525 4100 3525 3541 
Q 3525 3141 3298 2862 
Q 3072 2584 2669 2484 
Q 3125 2378 3379 2068 
Q 3634 1759 3634 1313 
Q 3634 634 3220 271 
Q 2806 -91 2034 -91 
Q 1263 -91 848 271 
Q 434 634 434 1313 
Q 434 1759 690 2068 
Q 947 2378 1403 2484 
z
M 1172 3481 
Q 1172 3119 1398 2916 
Q 1625 2713 2034 2713 
Q 2441 2713 2670 2916 
Q 2900 3119 2900 3481 
Q 2900 3844 2670 4047 
Q 2441 4250 2034 4250 
Q 1625 4250 1398 4047 
Q 1172 3844 1172 3481 
z
" id="DejaVuSans-38" transform="scale(0.015625)"/>
       </defs>
       <use xlink:href="#DejaVuSans-30"/>
       <use x="63.623047" xlink:href="#DejaVuSans-2e"/>
       <use x="95.410156" xlink:href="#DejaVuSans-38"/>
      </g>
     </g>
    </g>
    <g id="xtick_6">
     <g id="line2d_6">
      <g>
       <use style="stroke:#000000;stroke-width:0.8;" x="384.445455" xlink:href="#mf989ac456a" y="303.64"/>
      </g>
     </g>
     <g id="text_6">
      <!-- 1.0 -->
      <g transform="translate(376.493892 318.238437)scale(0.1 -0.1)">
       <defs>
        <path d="M 794 531 
L 1825 531 
L 1825 4091 
L 703 3866 
L 703 4441 
L 1819 4666 
L 2450 4666 
L 2450 531 
L 3481 531 
L 3481 0 
L 794 0 
L 794 531 
z
" id="DejaVuSans-31" transform="scale(0.015625)"/>
       </defs>
       <use xlink:href="#DejaVuSans-31"/>
       <use x="63.623047" xlink:href="#DejaVuSans-2e"/>
       <use x="95.410156" xlink:href="#DejaVuSans-30"/>
      </g>
     </g>
    </g>
    <g id="text_7">
     <!-- Requetes -->
     <g transform="translate(200.713281 331.916562)scale(0.1 -0.1)">
      <defs>
       <path d="M 2841 2188 
Q 3044 2119 3236 1894 
Q 3428 1669 3622 1275 
L 4263 0 
L 3584 0 
L 2988 1197 
Q 2756 1666 2539 1819 
Q 2322 1972 1947 1972 
L 1259 1972 
L 1259 0 
L 628 0 
L 628 4666 
L 2053 4666 
Q 2853 4666 3247 4331 
Q 3641 3997 3641 3322 
Q 3641 2881 3436 2590 
Q 3231 2300 2841 2188 
z
M 1259 4147 
L 1259 2491 
L 2053 2491 
Q 2509 2491 2742 2702 
Q 2975 2913 2975 3322 
Q 2975 3731 2742 3939 
Q 2509 4147 2053 4147 
L 1259 4147 
z
" id="DejaVuSans-52" transform="scale(0.015625)"/>
       <path d="M 3597 1894 
L 3597 1613 
L 953 1613 
Q 991 1019 1311 708 
Q 1631 397 2203 397 
Q 2534 397 2845 478 
Q 3156 559 3463 722 
L 3463 178 
Q 3153 47 2828 -22 
Q 2503 -91 2169 -91 
Q 1331 -91 842 396 
Q 353 884 353 1716 
Q 353 2575 817 3079 
Q 1281 3584 2069 3584 
Q 2775 3584 3186 3129 
Q 3597 2675 3597 1894 
z
M 3022 2063 
Q 3016 2534 2758 2815 
Q 2500 3097 2075 3097 
Q 1594 3097 1305 2825 
Q 1016 2553 972 2059 
L 3022 2063 
z
" id="DejaVuSans-65" transform="scale(0.015625)"/>
       <path d="M 947 1747 
Q 947 1113 1208 752 
Q 1469 391 1925 391 
Q 2381 391 2643 752 
Q 2906 1113 2906 1747 
Q 2906 2381 2643 2742 
Q 2381 3103 1925 3103 
Q 1469 3103 1208 2742 
Q 947 2381 947 1747 
z
M 2906 525 
Q 2725 213 2448 61 
Q 2172 -91 1784 -91 
Q 1150 -91 751 415 
Q 353 922 353 1747 
Q 353 2572 751 3078 
Q 1150 3584 1784 3584 
Q 2172 3584 2448 3432 
Q 2725 3281 2906 2969 
L 2906 3500 
L 3481 3500 
L 3481 -1331 
L 2906 -1331 
L 2906 525 
z
" id="DejaVuSans-71" transform="scale(0.015625)"/>
       <path d="M 544 1381 
L 544 3500 
L 1119 3500 
L 1119 1403 
Q 1119 906 1312 657 
Q 1506 409 1894 409 
Q 2359 409 2629 706 
Q 2900 1003 2900 1516 
L 2900 3500 
L 3475 3500 
L 3475 0 
L 2900 0 
L 2900 538 
Q 2691 219 2414 64 
Q 2138 -91 1772 -91 
Q 1169 -91 856 284 
Q 544 659 544 1381 
z
M 1991 3584 
L 1991 3584 
z
" id="DejaVuSans-75" transform="scale(0.015625)"/>
       <path d="M 1172 4494 
L 1172 3500 
L 2356 3500 
L 2356 3053 
L 1172 3053 
L 1172 1153 
Q 1172 725 1289 603 
Q 1406 481 1766 481 
L 2356 481 
L 2356 0 
L 1766 0 
Q 1100 0 847 248 
Q 594 497 594 1153 
L 594 3053 
L 172 3053 
L 172 3500 
L 594 3500 
L 594 4494 
L 1172 4494 
z
" id="DejaVuSans-74" transform="scale(0.015625)"/>
       <path d="M 2834 3397 
L 2834 2853 
Q 2591 2978 2328 3040 
Q 2066 3103 1784 3103 
Q 1356 3103 1142 2972 
Q 928 2841 928 2578 
Q 928 2378 1081 2264 
Q 1234 2150 1697 2047 
L 1894 2003 
Q 2506 1872 2764 1633 
Q 3022 1394 3022 966 
Q 3022 478 2636 193 
Q 2250 -91 1575 -91 
Q 1294 -91 989 -36 
Q 684 19 347 128 
L 347 722 
Q 666 556 975 473 
Q 1284 391 1588 391 
Q 1994 391 2212 530 
Q 2431 669 2431 922 
Q 2431 1156 2273 1281 
Q 2116 1406 1581 1522 
L 1381 1569 
Q 847 1681 609 1914 
Q 372 2147 372 2553 
Q 372 3047 722 3315 
Q 1072 3584 1716 3584 
Q 2034 3584 2315 3537 
Q 2597 3491 2834 3397 
z
" id="DejaVuSans-73" transform="scale(0.015625)"/>
      </defs>
      <use xlink:href="#DejaVuSans-52"/>
      <use x="64.982422" xlink:href="#DejaVuSans-65"/>
      <use x="126.505859" xlink:href="#DejaVuSans-71"/>
      <use x="189.982422" xlink:href="#DejaVuSans-75"/>
      <use x="253.361328" xlink:href="#DejaVuSans-65"/>
      <use x="314.884766" xlink:href="#DejaVuSans-74"/>
      <use x="354.09375" xlink:href="#DejaVuSans-65"/>
      <use x="415.617188" xlink:href="#DejaVuSans-73"/>
     </g>
    </g>
    <g id="text_8">
     <!-- 1e9 -->
     <g transform="translate(381.601875 330.916562)scale(0.1 -0.1)">
      <defs>
       <path d="M 703 97 
L 703 672 
Q 941 559 1184 500 
Q 1428 441 1663 441 
Q 2288 441 2617 861 
Q 2947 1281 2994 2138 
Q 2813 1869 2534 1725 
Q 2256 1581 1919 1581 
Q 1219 1581 811 2004 
Q 403 2428 403 3163 
Q 403 3881 828 4315 
Q 1253 4750 1959 4750 
Q 2769 4750 3195 4129 
Q 3622 3509 3622 2328 
Q 3622 1225 3098 567 
Q 2575 -91 1691 -91 
Q 1453 -91 1209 -44 
Q 966 3 703 97 
z
M 1959 2075 
Q 2384 2075 2632 2365 
Q 2881 2656 2881 3163 
Q 2881 3666 2632 3958 
Q 2384 4250 1959 4250 
Q 1534 4250 1286 3958 
Q 1038 3666 1038 3163 
Q 1038 2656 1286 2365 
Q 1534 2075 1959 2075 
z
" id="DejaVuSans-39" transform="scale(0.015625)"/>
      </defs>
      <use xlink:href="#DejaVuSans-31"/>
      <use x="63.623047" xlink:href="#DejaVuSans-65"/>
      <use x="125.146484" xlink:href="#DejaVuSans-39"/>
     </g>
    </g>
   </g>
   <g id="matplotlib.axis_2">
    <g id="ytick_1">
     <g id="line2d_7">
      <defs>
       <path d="M 0 0 
L -3.5 0 
" id="m9f0418d803" style="stroke:#000000;stroke-width:0.8;"/>
      </defs>
      <g>
       <use style="stroke:#000000;stroke-width:0.8;" x="47.72" xlink:href="#m9f0418d803" y="293.15652"/>
      </g>
     </g>
     <g id="text_9">
      <!-- 0.0 -->
      <g transform="translate(24.816875 296.955738)scale(0.1 -0.1)">
       <use xlink:href="#DejaVuSans-30"/>
       <use x="63.623047" xlink:href="#DejaVuSans-2e"/>
       <use x="95.410156" xlink:href="#DejaVuSans-30"/>
      </g>
     </g>
    </g>
    <g id="ytick_2">
     <g id="line2d_8">
      <g>
       <use style="stroke:#000000;stroke-width:0.8;" x="47.72" xlink:href="#m9f0418d803" y="257.291222"/>
      </g>
     </g>
     <g id="text_10">
      <!-- 0.2 -->
      <g transform="translate(24.816875 261.09044)scale(0.1 -0.1)">
       <use xlink:href="#DejaVuSans-30"/>
       <use x="63.623047" xlink:href="#DejaVuSans-2e"/>
       <use x="95.410156" xlink:href="#DejaVuSans-32"/>
      </g>
     </g>
    </g>
    <g id="ytick_3">
     <g id="line2d_9">
      <g>
       <use style="stroke:#000000;stroke-width:0.8;" x="47.72" xlink:href="#m9f0418d803" y="221.425924"/>
      </g>
     </g>
     <g id="text_11">
      <!-- 0.4 -->
      <g transform="translate(24.816875 225.225142)scale(0.1 -0.1)">
       <use xlink:href="#DejaVuSans-30"/>
       <use x="63.623047" xlink:href="#DejaVuSans-2e"/>
       <use x="95.410156" xlink:href="#DejaVuSans-34"/>
      </g>
     </g>
    </g>
    <g id="ytick_4">
     <g id="line2d_10">
      <g>
       <use style="stroke:#000000;stroke-width:0.8;" x="47.72" xlink:href="#m9f0418d803" y="185.560626"/>
      </g>
     </g>
     <g id="text_12">
      <!-- 0.6 -->
      <g transform="translate(24.816875 189.359844)scale(0.1 -0.1)">
       <use xlink:href="#DejaVuSans-30"/>
       <use x="63.623047" xlink:href="#DejaVuSans-2e"/>
       <use x="95.410156" xlink:href="#DejaVuSans-36"/>
      </g>
     </g>
    </g>
    <g id="ytick_5">
     <g id="line2d_11">
      <g>
       <use style="stroke:#000000;stroke-width:0.8;" x="47.72" xlink:href="#m9f0418d803" y="149.695328"/>
      </g>
     </g>
     <g id="text_13">
      <!-- 0.8 -->
      <g transform="translate(24.816875 153.494546)scale(0.1 -0.1)">
       <use xlink:href="#DejaVuSans-30"/>
       <use x="63.623047" xlink:href="#DejaVuSans-2e"/>
       <use x="95.410156" xlink:href="#DejaVuSans-38"/>
      </g>
     </g>
    </g>
    <g id="ytick_6">
     <g id="line2d_12">
      <g>
       <use style="stroke:#000000;stroke-width:0.8;" x="47.72" xlink:href="#m9f0418d803" y="113.830029"/>
      </g>
     </g>
     <g id="text_14">
      <!-- 1.0 -->
      <g transform="translate(24.816875 117.629248)scale(0.1 -0.1)">
       <use xlink:href="#DejaVuSans-31"/>
       <use x="63.623047" xlink:href="#DejaVuSans-2e"/>
       <use x="95.410156" xlink:href="#DejaVuSans-30"/>
      </g>
     </g>
    </g>
    <g id="ytick_7">
     <g id="line2d_13">
      <g>
       <use style="stroke:#000000;stroke-width:0.8;" x="47.72" xlink:href="#m9f0418d803" y="77.964731"/>
      </g>
     </g>
     <g id="text_15">
      <!-- 1.2 -->
      <g transform="translate(24.816875 81.76395)scale(0.1 -0.1)">
       <use xlink:href="#DejaVuSans-31"/>
       <use x="63.623047" xlink:href="#DejaVuSans-2e"/>
       <use x="95.410156" xlink:href="#DejaVuSans-32"/>
      </g>
     </g>
    </g>
    <g id="ytick_8">
     <g id="line2d_14">
      <g>
       <use style="stroke:#000000;stroke-width:0.8;" x="47.72" xlink:href="#m9f0418d803" y="42.099433"/>
      </g>
     </g>
     <g id="text_16">
      <!-- 1.4 -->
      <g transform="translate(24.816875 45.898652)scale(0.1 -0.1)">
       <use xlink:href="#DejaVuSans-31"/>
       <use x="63.623047" xlink:href="#DejaVuSans-2e"/>
       <use x="95.410156" xlink:href="#DejaVuSans-34"/>
      </g>
     </g>
    </g>
    <g id="text_17">
     <!-- NB d'entrees -->
     <g transform="translate(18.737188 194.894844)rotate(-90)scale(0.1 -0.1)">
      <defs>
       <path d="M 628 4666 
L 1478 4666 
L 3547 763 
L 3547 4666 
L 4159 4666 
L 4159 0 
L 3309 0 
L 1241 3903 
L 1241 0 
L 628 0 
L 628 4666 
z
" id="DejaVuSans-4e" transform="scale(0.015625)"/>
       <path d="M 1259 2228 
L 1259 519 
L 2272 519 
Q 2781 519 3026 730 
Q 3272 941 3272 1375 
Q 3272 1813 3026 2020 
Q 2781 2228 2272 2228 
L 1259 2228 
z
M 1259 4147 
L 1259 2741 
L 2194 2741 
Q 2656 2741 2882 2914 
Q 3109 3088 3109 3444 
Q 3109 3797 2882 3972 
Q 2656 4147 2194 4147 
L 1259 4147 
z
M 628 4666 
L 2241 4666 
Q 2963 4666 3353 4366 
Q 3744 4066 3744 3513 
Q 3744 3084 3544 2831 
Q 3344 2578 2956 2516 
Q 3422 2416 3680 2098 
Q 3938 1781 3938 1306 
Q 3938 681 3513 340 
Q 3088 0 2303 0 
L 628 0 
L 628 4666 
z
" id="DejaVuSans-42" transform="scale(0.015625)"/>
       <path id="DejaVuSans-20" transform="scale(0.015625)"/>
       <path d="M 2906 2969 
L 2906 4863 
L 3481 4863 
L 3481 0 
L 2906 0 
L 2906 525 
Q 2725 213 2448 61 
Q 2172 -91 1784 -91 
Q 1150 -91 751 415 
Q 353 922 353 1747 
Q 353 2572 751 3078 
Q 1150 3584 1784 3584 
Q 2172 3584 2448 3432 
Q 2725 3281 2906 2969 
z
M 947 1747 
Q 947 1113 1208 752 
Q 1469 391 1925 391 
Q 2381 391 2643 752 
Q 2906 1113 2906 1747 
Q 2906 2381 2643 2742 
Q 2381 3103 1925 3103 
Q 1469 3103 1208 2742 
Q 947 2381 947 1747 
z
" id="DejaVuSans-64" transform="scale(0.015625)"/>
       <path d="M 1147 4666 
L 1147 2931 
L 616 2931 
L 616 4666 
L 1147 4666 
z
" id="DejaVuSans-27" transform="scale(0.015625)"/>
       <path d="M 3513 2113 
L 3513 0 
L 2938 0 
L 2938 2094 
Q 2938 2591 2744 2837 
Q 2550 3084 2163 3084 
Q 1697 3084 1428 2787 
Q 1159 2491 1159 1978 
L 1159 0 
L 581 0 
L 581 3500 
L 1159 3500 
L 1159 2956 
Q 1366 3272 1645 3428 
Q 1925 3584 2291 3584 
Q 2894 3584 3203 3211 
Q 3513 2838 3513 2113 
z
" id="DejaVuSans-6e" transform="scale(0.015625)"/>
       <path d="M 2631 2963 
Q 2534 3019 2420 3045 
Q 2306 3072 2169 3072 
Q 1681 3072 1420 2755 
Q 1159 2438 1159 1844 
L 1159 0 
L 581 0 
L 581 3500 
L 1159 3500 
L 1159 2956 
Q 1341 3275 1631 3429 
Q 1922 3584 2338 3584 
Q 2397 3584 2469 3576 
Q 2541 3569 2628 3553 
L 2631 2963 
z
" id="DejaVuSans-72" transform="scale(0.015625)"/>
      </defs>
      <use xlink:href="#DejaVuSans-4e"/>
      <use x="74.804688" xlink:href="#DejaVuSans-42"/>
      <use x="143.408203" xlink:href="#DejaVuSans-20"/>
      <use x="175.195312" xlink:href="#DejaVuSans-64"/>
      <use x="238.671875" xlink:href="#DejaVuSans-27"/>
      <use x="266.162109" xlink:href="#DejaVuSans-65"/>
      <use x="327.685547" xlink:href="#DejaVuSans-6e"/>
      <use x="391.064453" xlink:href="#DejaVuSans-74"/>
      <use x="430.273438" xlink:href="#DejaVuSans-72"/>
      <use x="469.136719" xlink:href="#DejaVuSans-65"/>
      <use x="530.660156" xlink:href="#DejaVuSans-65"/>
      <use x="592.183594" xlink:href="#DejaVuSans-73"/>
     </g>
    </g>
    <g id="text_18">
     <!-- 1e6 -->
     <g transform="translate(47.72 18.72)scale(0.1 -0.1)">
      <use xlink:href="#DejaVuSans-31"/>
      <use x="63.623047" xlink:href="#DejaVuSans-65"/>
      <use x="125.146484" xlink:href="#DejaVuSans-36"/>
     </g>
    </g>
   </g>
   <g id="line2d_15">
    <path clip-path="url(#pe762980ea5)" d="M 63.754545 165.119199 
L 66.993848 136.145059 
L 70.23315 121.977011 
L 73.472452 113.270352 
L 76.711754 107.403327 
L 79.951056 103.311993 
L 83.190358 100.33069 
L 86.42966 98.166219 
L 89.668962 96.59765 
L 92.908264 95.418937 
L 96.147567 94.498096 
L 99.386869 93.839968 
L 102.626171 93.444015 
L 105.865473 93.343413 
L 109.104775 93.347358 
L 112.344077 93.330142 
L 115.583379 93.305395 
L 118.822681 93.320638 
L 122.061983 93.313824 
L 125.301286 93.364394 
L 128.540588 93.355965 
L 131.77989 93.388065 
L 135.019192 93.373181 
L 138.258494 93.363676 
L 141.497796 93.282083 
L 144.737098 93.292305 
L 147.9764 93.366187 
L 151.215702 93.364214 
L 154.455005 93.33068 
L 157.694307 93.307189 
L 160.933609 93.331218 
L 164.172911 93.308623 
L 167.412213 93.355248 
L 170.651515 93.370312 
L 173.890817 93.350586 
L 177.130119 93.394162 
L 180.369421 93.367263 
L 183.608724 93.279931 
L 186.848026 93.281545 
L 190.087328 93.322969 
L 193.32663 93.366008 
L 196.565932 93.345385 
L 199.805234 93.328708 
L 203.044536 93.316155 
L 206.283838 93.312748 
L 209.52314 93.348434 
L 212.762443 93.3574 
L 216.001745 93.328349 
L 219.241047 93.398824 
L 222.480349 93.390755 
L 225.719651 93.337495 
L 228.958953 93.281724 
L 232.198255 93.288359 
L 235.437557 93.363318 
L 238.67686 93.340005 
L 241.916162 93.319204 
L 245.155464 93.29625 
L 248.394766 93.331936 
L 251.634068 93.332294 
L 254.87337 93.364394 
L 258.112672 93.374795 
L 261.351974 93.368698 
L 264.591276 93.371029 
L 267.830579 93.364394 
L 271.069881 93.267199 
L 274.309183 93.266123 
L 277.548485 93.341261 
L 280.787787 93.37067 
L 284.027089 93.360987 
L 287.266391 93.321714 
L 290.505693 93.325839 
L 293.744995 93.327991 
L 296.984298 93.38125 
L 300.2236 93.357579 
L 303.462902 93.353455 
L 306.702204 93.393265 
L 309.941506 93.375512 
L 313.180808 93.314182 
L 316.42011 93.279572 
L 319.659412 93.308444 
L 322.898714 93.335881 
L 326.138017 93.357579 
L 329.377319 93.321355 
L 332.616621 93.298222 
L 335.855923 93.326377 
L 339.095225 93.320997 
L 342.334527 93.363318 
L 345.573829 93.368518 
L 348.813131 93.379457 
L 352.052433 93.372463 
L 355.291736 93.373181 
L 358.531038 93.268992 
L 361.77034 93.279572 
L 365.009642 93.352558 
L 368.248944 93.367084 
L 371.488246 93.349151 
L 374.727548 93.331218 
L 377.96685 93.327453 
L 381.206152 93.310596 
L 384.445455 93.373539 
" style="fill:none;stroke:#1f77b4;stroke-linecap:square;stroke-width:1.5;"/>
   </g>
   <g id="line2d_16">
    <path clip-path="url(#pe762980ea5)" d="M 63.754545 224.171412 
L 66.993848 194.599757 
L 70.23315 178.307766 
L 73.472452 167.287615 
L 76.711754 158.753109 
L 79.951056 151.52643 
L 83.190358 145.144021 
L 86.42966 139.311965 
L 89.668962 133.965884 
L 92.908264 128.986884 
L 96.147567 124.391463 
L 99.386869 120.123493 
L 102.626171 116.170778 
L 105.865473 114.6101 
L 109.104775 114.605079 
L 112.344077 114.640227 
L 115.583379 114.666229 
L 118.822681 114.646862 
L 122.061983 114.639509 
L 125.301286 114.572441 
L 128.540588 114.540521 
L 131.77989 114.538728 
L 135.019192 114.55684 
L 138.258494 114.512546 
L 141.497796 114.581228 
L 144.737098 114.595395 
L 147.9764 114.564192 
L 151.215702 114.611355 
L 154.455005 114.617811 
L 157.694307 114.663001 
L 160.933609 114.650628 
L 164.172911 114.66856 
L 167.412213 114.591988 
L 170.651515 114.558095 
L 173.890817 114.545901 
L 177.130119 114.540162 
L 180.369421 114.515953 
L 183.608724 114.579973 
L 186.848026 114.558095 
L 190.087328 114.582663 
L 193.32663 114.600057 
L 196.565932 114.605437 
L 199.805234 114.644172 
L 203.044536 114.659414 
L 206.283838 114.650628 
L 209.52314 114.603644 
L 212.762443 114.590912 
L 216.001745 114.557019 
L 219.241047 114.525278 
L 222.480349 114.528685 
L 225.719651 114.534245 
L 228.958953 114.576566 
L 232.198255 114.586967 
L 235.437557 114.57818 
L 238.67686 114.623908 
L 241.916162 114.639509 
L 245.155464 114.669636 
L 248.394766 114.659594 
L 251.634068 114.649014 
L 254.87337 114.581766 
L 258.112672 114.542494 
L 261.351974 114.537114 
L 264.591276 114.565447 
L 267.830579 114.528327 
L 271.069881 114.581228 
L 274.309183 114.579256 
L 277.548485 114.555764 
L 280.787787 114.600057 
L 284.027089 114.58876 
L 287.266391 114.657621 
L 290.505693 114.653497 
L 293.744995 114.645068 
L 296.984298 114.562578 
L 300.2236 114.592167 
L 303.462902 114.516133 
L 306.702204 114.548232 
L 309.941506 114.548949 
L 313.180808 114.562399 
L 316.42011 114.566703 
L 319.659412 114.576207 
L 322.898714 114.612431 
L 326.138017 114.59414 
L 329.377319 114.648834 
L 332.616621 114.66605 
L 335.855923 114.653317 
L 339.095225 114.650628 
L 342.334527 114.569931 
L 345.573829 114.535321 
L 348.813131 114.539086 
L 352.052433 114.582483 
L 355.291736 114.510215 
L 358.531038 114.588043 
L 361.77034 114.587863 
L 365.009642 114.552177 
L 368.248944 114.603465 
L 371.488246 114.597547 
L 374.727548 114.653497 
L 377.96685 114.643813 
L 381.206152 114.668201 
L 384.445455 114.576924 
" style="fill:none;stroke:#ff7f0e;stroke-linecap:square;stroke-width:1.5;"/>
   </g>
   <g id="line2d_17">
    <path clip-path="url(#pe762980ea5)" d="M 63.754545 220.122758 
L 66.993848 188.114773 
L 70.23315 172.465847 
L 73.472452 164.894323 
L 76.711754 161.359798 
L 79.951056 159.917117 
L 83.190358 159.584107 
L 86.42966 159.830502 
L 89.668962 160.352163 
L 92.908264 161.04257 
L 96.147567 161.783188 
L 99.386869 162.441675 
L 102.626171 162.955087 
L 105.865473 163.085816 
L 109.104775 163.086892 
L 112.344077 163.068959 
L 115.583379 163.067525 
L 118.822681 163.071649 
L 122.061983 163.085637 
L 125.301286 163.102135 
L 128.540588 163.142483 
L 131.77989 163.112356 
L 135.019192 163.109308 
L 138.258494 163.163106 
L 141.497796 163.176376 
L 144.737098 163.152346 
L 147.9764 163.109128 
L 151.215702 163.063759 
L 154.455005 163.090658 
L 157.694307 163.068959 
L 160.933609 163.057482 
L 164.172911 163.061965 
L 167.412213 163.091734 
L 170.651515 163.110563 
L 173.890817 163.142662 
L 177.130119 163.105004 
L 180.369421 163.156112 
L 183.608724 163.179783 
L 186.848026 163.200047 
L 190.087328 163.134234 
L 193.32663 163.073263 
L 196.565932 163.088506 
L 199.805234 163.066449 
L 203.044536 163.063759 
L 206.283838 163.075774 
L 209.52314 163.086892 
L 212.762443 163.090658 
L 216.001745 163.153601 
L 219.241047 163.115225 
L 222.480349 163.119888 
L 225.719651 163.167589 
L 228.958953 163.181397 
L 232.198255 163.16472 
L 235.437557 163.097831 
L 238.67686 163.075415 
L 241.916162 163.080615 
L 245.155464 163.073263 
L 248.394766 163.047619 
L 251.634068 163.057841 
L 254.87337 163.09281 
L 258.112672 163.121681 
L 261.351974 163.133337 
L 264.591276 163.102852 
L 267.830579 163.146608 
L 271.069881 163.19126 
L 274.309183 163.194488 
L 277.548485 163.142662 
L 280.787787 163.068601 
L 284.027089 163.089582 
L 287.266391 163.060172 
L 290.505693 163.060172 
L 293.744995 163.06609 
L 296.984298 163.095141 
L 300.2236 163.089223 
L 303.462902 163.169561 
L 306.702204 163.097831 
L 309.941506 163.114867 
L 313.180808 163.162926 
L 316.42011 163.193412 
L 319.659412 163.155395 
L 322.898714 163.091016 
L 326.138017 163.087609 
L 329.377319 163.069138 
L 332.616621 163.074877 
L 335.855923 163.059455 
L 339.095225 163.067525 
L 342.334527 163.105721 
L 345.573829 163.135131 
L 348.813131 163.120605 
L 352.052433 163.084381 
L 355.291736 163.155933 
L 358.531038 163.182652 
L 361.77034 163.172431 
L 365.009642 163.134951 
L 368.248944 163.06878 
L 371.488246 163.092451 
L 374.727548 163.054613 
L 377.96685 163.068063 
L 381.206152 163.060351 
L 384.445455 163.088506 
" style="fill:none;stroke:#2ca02c;stroke-linecap:square;stroke-width:1.5;"/>
   </g>
   <g id="line2d_18">
    <path clip-path="url(#pe762980ea5)" d="M 63.754545 239.023591 
L 66.993848 215.20706 
L 70.23315 204.209325 
L 73.472452 199.717735 
L 76.711754 198.774477 
L 79.951056 199.763104 
L 83.190358 201.854948 
L 86.42966 204.55148 
L 89.668962 207.562731 
L 92.908264 210.637463 
L 96.147567 213.776931 
L 99.386869 216.86583 
L 102.626171 219.867038 
L 105.865473 221.106722 
L 109.104775 221.106722 
L 112.344077 221.106722 
L 115.583379 221.106902 
L 118.822681 221.106902 
L 122.061983 221.107081 
L 125.301286 221.107081 
L 128.540588 221.107081 
L 131.77989 221.106902 
L 135.019192 221.106722 
L 138.258494 221.106722 
L 141.497796 221.106364 
L 144.737098 221.106005 
L 147.9764 221.106543 
L 151.215702 221.106722 
L 154.455005 221.106902 
L 157.694307 221.106902 
L 160.933609 221.106722 
L 164.172911 221.106902 
L 167.412213 221.107081 
L 170.651515 221.107081 
L 173.890817 221.106902 
L 177.130119 221.106722 
L 180.369421 221.106722 
L 183.608724 221.106364 
L 186.848026 221.106364 
L 190.087328 221.106184 
L 193.32663 221.106722 
L 196.565932 221.106722 
L 199.805234 221.106722 
L 203.044536 221.106722 
L 206.283838 221.106902 
L 209.52314 221.107081 
L 212.762443 221.107081 
L 216.001745 221.107081 
L 219.241047 221.106722 
L 222.480349 221.106722 
L 225.719651 221.106722 
L 228.958953 221.106364 
L 232.198255 221.106005 
L 235.437557 221.106722 
L 238.67686 221.106722 
L 241.916162 221.106722 
L 245.155464 221.106902 
L 248.394766 221.106902 
L 251.634068 221.106902 
L 254.87337 221.107081 
L 258.112672 221.107081 
L 261.351974 221.106902 
L 264.591276 221.106722 
L 267.830579 221.106722 
L 271.069881 221.106364 
L 274.309183 221.106184 
L 277.548485 221.106364 
L 280.787787 221.106722 
L 284.027089 221.106722 
L 287.266391 221.106543 
L 290.505693 221.106543 
L 293.744995 221.106902 
L 296.984298 221.107081 
L 300.2236 221.107081 
L 303.462902 221.106902 
L 306.702204 221.106722 
L 309.941506 221.106722 
L 313.180808 221.106543 
L 316.42011 221.106364 
L 319.659412 221.106005 
L 322.898714 221.106722 
L 326.138017 221.106722 
L 329.377319 221.106722 
L 332.616621 221.106902 
L 335.855923 221.106902 
L 339.095225 221.106902 
L 342.334527 221.107081 
L 345.573829 221.107081 
L 348.813131 221.106902 
L 352.052433 221.106722 
L 355.291736 221.106722 
L 358.531038 221.106364 
L 361.77034 221.106184 
L 365.009642 221.106364 
L 368.248944 221.106722 
L 371.488246 221.106902 
L 374.727548 221.106722 
L 377.96685 221.106722 
L 381.206152 221.106902 
L 384.445455 221.107081 
" style="fill:none;stroke:#d62728;stroke-linecap:square;stroke-width:1.5;"/>
   </g>
   <g id="line2d_19">
    <path clip-path="url(#pe762980ea5)" d="M 63.754545 34.534545 
L 66.993848 148.904856 
L 70.23315 206.011556 
L 73.472452 237.801481 
L 76.711754 256.680794 
L 79.951056 268.452861 
L 83.190358 276.057739 
L 86.42966 281.111339 
L 89.668962 284.493078 
L 92.908264 286.885652 
L 96.147567 288.521826 
L 99.386869 289.700539 
L 102.626171 290.534587 
L 105.865473 290.825455 
L 109.104775 290.825455 
L 112.344077 290.825455 
L 115.583379 290.825455 
L 118.822681 290.825455 
L 122.061983 290.825455 
L 125.301286 290.825455 
L 128.540588 290.825455 
L 131.77989 290.825455 
L 135.019192 290.825455 
L 138.258494 290.825455 
L 141.497796 290.825455 
L 144.737098 290.825455 
L 147.9764 290.825455 
L 151.215702 290.825455 
L 154.455005 290.825455 
L 157.694307 290.825455 
L 160.933609 290.825455 
L 164.172911 290.825455 
L 167.412213 290.825455 
L 170.651515 290.825455 
L 173.890817 290.825455 
L 177.130119 290.825455 
L 180.369421 290.825455 
L 183.608724 290.825455 
L 186.848026 290.825455 
L 190.087328 290.825455 
L 193.32663 290.825455 
L 196.565932 290.825455 
L 199.805234 290.825455 
L 203.044536 290.825455 
L 206.283838 290.825455 
L 209.52314 290.825455 
L 212.762443 290.825455 
L 216.001745 290.825455 
L 219.241047 290.825455 
L 222.480349 290.825455 
L 225.719651 290.825455 
L 228.958953 290.825455 
L 232.198255 290.825455 
L 235.437557 290.825455 
L 238.67686 290.825455 
L 241.916162 290.825455 
L 245.155464 290.825455 
L 248.394766 290.825455 
L 251.634068 290.825455 
L 254.87337 290.825455 
L 258.112672 290.825455 
L 261.351974 290.825455 
L 264.591276 290.825455 
L 267.830579 290.825455 
L 271.069881 290.825455 
L 274.309183 290.825455 
L 277.548485 290.825455 
L 280.787787 290.825455 
L 284.027089 290.825455 
L 287.266391 290.825455 
L 290.505693 290.825455 
L 293.744995 290.825455 
L 296.984298 290.825455 
L 300.2236 290.825455 
L 303.462902 290.825455 
L 306.702204 290.825455 
L 309.941506 290.825455 
L 313.180808 290.825455 
L 316.42011 290.825455 
L 319.659412 290.825455 
L 322.898714 290.825455 
L 326.138017 290.825455 
L 329.377319 290.825455 
L 332.616621 290.825455 
L 335.855923 290.825455 
L 339.095225 290.825455 
L 342.334527 290.825455 
L 345.573829 290.825455 
L 348.813131 290.825455 
L 352.052433 290.825455 
L 355.291736 290.825455 
L 358.531038 290.825455 
L 361.77034 290.825455 
L 365.009642 290.825455 
L 368.248944 290.825455 
L 371.488246 290.825455 
L 374.727548 290.825455 
L 377.96685 290.825455 
L 381.206152 290.825455 
L 384.445455 290.825455 
" style="fill:none;stroke:#9467bd;stroke-linecap:square;stroke-width:1.5;"/>
   </g>
   <g id="patch_3">
    <path d="M 47.72 303.64 
L 47.72 21.72 
" style="fill:none;stroke:#000000;stroke-linecap:square;stroke-linejoin:miter;stroke-width:0.8;"/>
   </g>
   <g id="patch_4">
    <path d="M 400.48 303.64 
L 400.48 21.72 
" style="fill:none;stroke:#000000;stroke-linecap:square;stroke-linejoin:miter;stroke-width:0.8;"/>
   </g>
   <g id="patch_5">
    <path d="M 47.72 303.64 
L 400.48 303.64 
" style="fill:none;stroke:#000000;stroke-linecap:square;stroke-linejoin:miter;stroke-width:0.8;"/>
   </g>
   <g id="patch_6">
    <path d="M 47.72 21.72 
L 400.48 21.72 
" style="fill:none;stroke:#000000;stroke-linecap:square;stroke-linejoin:miter;stroke-width:0.8;"/>
   </g>
   <g id="legend_1">
    <g id="patch_7">
     <path d="M 54.72 103.110625 
L 119.912188 103.110625 
Q 121.912188 103.110625 121.912188 101.110625 
L 121.912188 28.72 
Q 121.912188 26.72 119.912188 26.72 
L 54.72 26.72 
Q 52.72 26.72 52.72 28.72 
L 52.72 101.110625 
Q 52.72 103.110625 54.72 103.110625 
z
" style="fill:#ffffff;opacity:0.8;stroke:#cccccc;stroke-linejoin:miter;"/>
    </g>
    <g id="line2d_20">
     <path d="M 56.72 34.818438 
L 76.72 34.818438 
" style="fill:none;stroke:#1f77b4;stroke-linecap:square;stroke-width:1.5;"/>
    </g>
    <g id="line2d_21"/>
    <g id="text_19">
     <!-- HOT -->
     <g transform="translate(84.72 38.318438)scale(0.1 -0.1)">
      <defs>
       <path d="M 628 4666 
L 1259 4666 
L 1259 2753 
L 3553 2753 
L 3553 4666 
L 4184 4666 
L 4184 0 
L 3553 0 
L 3553 2222 
L 1259 2222 
L 1259 0 
L 628 0 
L 628 4666 
z
" id="DejaVuSans-48" transform="scale(0.015625)"/>
       <path d="M 2522 4238 
Q 1834 4238 1429 3725 
Q 1025 3213 1025 2328 
Q 1025 1447 1429 934 
Q 1834 422 2522 422 
Q 3209 422 3611 934 
Q 4013 1447 4013 2328 
Q 4013 3213 3611 3725 
Q 3209 4238 2522 4238 
z
M 2522 4750 
Q 3503 4750 4090 4092 
Q 4678 3434 4678 2328 
Q 4678 1225 4090 567 
Q 3503 -91 2522 -91 
Q 1538 -91 948 565 
Q 359 1222 359 2328 
Q 359 3434 948 4092 
Q 1538 4750 2522 4750 
z
" id="DejaVuSans-4f" transform="scale(0.015625)"/>
       <path d="M -19 4666 
L 3928 4666 
L 3928 4134 
L 2272 4134 
L 2272 0 
L 1638 0 
L 1638 4134 
L -19 4134 
L -19 4666 
z
" id="DejaVuSans-54" transform="scale(0.015625)"/>
      </defs>
      <use xlink:href="#DejaVuSans-48"/>
      <use x="75.195312" xlink:href="#DejaVuSans-4f"/>
      <use x="153.90625" xlink:href="#DejaVuSans-54"/>
     </g>
    </g>
    <g id="line2d_22">
     <path d="M 56.72 49.496563 
L 76.72 49.496563 
" style="fill:none;stroke:#ff7f0e;stroke-linecap:square;stroke-width:1.5;"/>
    </g>
    <g id="line2d_23"/>
    <g id="text_20">
     <!-- WARM -->
     <g transform="translate(84.72 52.996563)scale(0.1 -0.1)">
      <defs>
       <path d="M 213 4666 
L 850 4666 
L 1831 722 
L 2809 4666 
L 3519 4666 
L 4500 722 
L 5478 4666 
L 6119 4666 
L 4947 0 
L 4153 0 
L 3169 4050 
L 2175 0 
L 1381 0 
L 213 4666 
z
" id="DejaVuSans-57" transform="scale(0.015625)"/>
       <path d="M 2188 4044 
L 1331 1722 
L 3047 1722 
L 2188 4044 
z
M 1831 4666 
L 2547 4666 
L 4325 0 
L 3669 0 
L 3244 1197 
L 1141 1197 
L 716 0 
L 50 0 
L 1831 4666 
z
" id="DejaVuSans-41" transform="scale(0.015625)"/>
       <path d="M 628 4666 
L 1569 4666 
L 2759 1491 
L 3956 4666 
L 4897 4666 
L 4897 0 
L 4281 0 
L 4281 4097 
L 3078 897 
L 2444 897 
L 1241 4097 
L 1241 0 
L 628 0 
L 628 4666 
z
" id="DejaVuSans-4d" transform="scale(0.015625)"/>
      </defs>
      <use xlink:href="#DejaVuSans-57"/>
      <use x="93.376953" xlink:href="#DejaVuSans-41"/>
      <use x="161.785156" xlink:href="#DejaVuSans-52"/>
      <use x="231.267578" xlink:href="#DejaVuSans-4d"/>
     </g>
    </g>
    <g id="line2d_24">
     <path d="M 56.72 64.174688 
L 76.72 64.174688 
" style="fill:none;stroke:#2ca02c;stroke-linecap:square;stroke-width:1.5;"/>
    </g>
    <g id="line2d_25"/>
    <g id="text_21">
     <!-- MILD -->
     <g transform="translate(84.72 67.674688)scale(0.1 -0.1)">
      <defs>
       <path d="M 628 4666 
L 1259 4666 
L 1259 0 
L 628 0 
L 628 4666 
z
" id="DejaVuSans-49" transform="scale(0.015625)"/>
       <path d="M 628 4666 
L 1259 4666 
L 1259 531 
L 3531 531 
L 3531 0 
L 628 0 
L 628 4666 
z
" id="DejaVuSans-4c" transform="scale(0.015625)"/>
       <path d="M 1259 4147 
L 1259 519 
L 2022 519 
Q 2988 519 3436 956 
Q 3884 1394 3884 2338 
Q 3884 3275 3436 3711 
Q 2988 4147 2022 4147 
L 1259 4147 
z
M 628 4666 
L 1925 4666 
Q 3281 4666 3915 4102 
Q 4550 3538 4550 2338 
Q 4550 1131 3912 565 
Q 3275 0 1925 0 
L 628 0 
L 628 4666 
z
" id="DejaVuSans-44" transform="scale(0.015625)"/>
      </defs>
      <use xlink:href="#DejaVuSans-4d"/>
      <use x="86.279297" xlink:href="#DejaVuSans-49"/>
      <use x="115.771484" xlink:href="#DejaVuSans-4c"/>
      <use x="171.484375" xlink:href="#DejaVuSans-44"/>
     </g>
    </g>
    <g id="line2d_26">
     <path d="M 56.72 78.852813 
L 76.72 78.852813 
" style="fill:none;stroke:#d62728;stroke-linecap:square;stroke-width:1.5;"/>
    </g>
    <g id="line2d_27"/>
    <g id="text_22">
     <!-- COLD -->
     <g transform="translate(84.72 82.352813)scale(0.1 -0.1)">
      <defs>
       <path d="M 4122 4306 
L 4122 3641 
Q 3803 3938 3442 4084 
Q 3081 4231 2675 4231 
Q 1875 4231 1450 3742 
Q 1025 3253 1025 2328 
Q 1025 1406 1450 917 
Q 1875 428 2675 428 
Q 3081 428 3442 575 
Q 3803 722 4122 1019 
L 4122 359 
Q 3791 134 3420 21 
Q 3050 -91 2638 -91 
Q 1578 -91 968 557 
Q 359 1206 359 2328 
Q 359 3453 968 4101 
Q 1578 4750 2638 4750 
Q 3056 4750 3426 4639 
Q 3797 4528 4122 4306 
z
" id="DejaVuSans-43" transform="scale(0.015625)"/>
      </defs>
      <use xlink:href="#DejaVuSans-43"/>
      <use x="69.824219" xlink:href="#DejaVuSans-4f"/>
      <use x="148.535156" xlink:href="#DejaVuSans-4c"/>
      <use x="204.248047" xlink:href="#DejaVuSans-44"/>
     </g>
    </g>
    <g id="line2d_28">
     <path d="M 56.72 93.530938 
L 76.72 93.530938 
" style="fill:none;stroke:#9467bd;stroke-linecap:square;stroke-width:1.5;"/>
    </g>
    <g id="line2d_29"/>
    <g id="text_23">
     <!-- EMPTY -->
     <g transform="translate(84.72 97.030938)scale(0.1 -0.1)">
      <defs>
       <path d="M 628 4666 
L 3578 4666 
L 3578 4134 
L 1259 4134 
L 1259 2753 
L 3481 2753 
L 3481 2222 
L 1259 2222 
L 1259 531 
L 3634 531 
L 3634 0 
L 628 0 
L 628 4666 
z
" id="DejaVuSans-45" transform="scale(0.015625)"/>
       <path d="M 1259 4147 
L 1259 2394 
L 2053 2394 
Q 2494 2394 2734 2622 
Q 2975 2850 2975 3272 
Q 2975 3691 2734 3919 
Q 2494 4147 2053 4147 
L 1259 4147 
z
M 628 4666 
L 2053 4666 
Q 2838 4666 3239 4311 
Q 3641 3956 3641 3272 
Q 3641 2581 3239 2228 
Q 2838 1875 2053 1875 
L 1259 1875 
L 1259 0 
L 628 0 
L 628 4666 
z
" id="DejaVuSans-50" transform="scale(0.015625)"/>
       <path d="M -13 4666 
L 666 4666 
L 1959 2747 
L 3244 4666 
L 3922 4666 
L 2272 2222 
L 2272 0 
L 1638 0 
L 1638 2222 
L -13 4666 
z
" id="DejaVuSans-59" transform="scale(0.015625)"/>
      </defs>
      <use xlink:href="#DejaVuSans-45"/>
      <use x="63.183594" xlink:href="#DejaVuSans-4d"/>
      <use x="149.462891" xlink:href="#DejaVuSans-50"/>
      <use x="209.765625" xlink:href="#DejaVuSans-54"/>
      <use x="270.849609" xlink:href="#DejaVuSans-59"/>
     </g>
    </g>
   </g>
  </g>
  <g id="axes_2">
   <g id="matplotlib.axis_3">
    <g id="ytick_9">
     <g id="line2d_30">
      <defs>
       <path d="M 0 0 
L 3.5 0 
" id="m43e4b30248" style="stroke:#000000;stroke-width:0.8;"/>
      </defs>
      <g>
       <use style="stroke:#000000;stroke-width:0.8;" x="400.48" xlink:href="#m43e4b30248" y="302.963229"/>
      </g>
     </g>
     <g id="text_24">
      <!-- 0.600 -->
      <g transform="translate(407.48 306.762448)scale(0.1 -0.1)">
       <use xlink:href="#DejaVuSans-30"/>
       <use x="63.623047" xlink:href="#DejaVuSans-2e"/>
       <use x="95.410156" xlink:href="#DejaVuSans-36"/>
       <use x="159.033203" xlink:href="#DejaVuSans-30"/>
       <use x="222.65625" xlink:href="#DejaVuSans-30"/>
      </g>
     </g>
    </g>
    <g id="ytick_10">
     <g id="line2d_31">
      <g>
       <use style="stroke:#000000;stroke-width:0.8;" x="400.48" xlink:href="#m43e4b30248" y="271.308599"/>
      </g>
     </g>
     <g id="text_25">
      <!-- 0.625 -->
      <g transform="translate(407.48 275.107818)scale(0.1 -0.1)">
       <defs>
        <path d="M 691 4666 
L 3169 4666 
L 3169 4134 
L 1269 4134 
L 1269 2991 
Q 1406 3038 1543 3061 
Q 1681 3084 1819 3084 
Q 2600 3084 3056 2656 
Q 3513 2228 3513 1497 
Q 3513 744 3044 326 
Q 2575 -91 1722 -91 
Q 1428 -91 1123 -41 
Q 819 9 494 109 
L 494 744 
Q 775 591 1075 516 
Q 1375 441 1709 441 
Q 2250 441 2565 725 
Q 2881 1009 2881 1497 
Q 2881 1984 2565 2268 
Q 2250 2553 1709 2553 
Q 1456 2553 1204 2497 
Q 953 2441 691 2322 
L 691 4666 
z
" id="DejaVuSans-35" transform="scale(0.015625)"/>
       </defs>
       <use xlink:href="#DejaVuSans-30"/>
       <use x="63.623047" xlink:href="#DejaVuSans-2e"/>
       <use x="95.410156" xlink:href="#DejaVuSans-36"/>
       <use x="159.033203" xlink:href="#DejaVuSans-32"/>
       <use x="222.65625" xlink:href="#DejaVuSans-35"/>
      </g>
     </g>
    </g>
    <g id="ytick_11">
     <g id="line2d_32">
      <g>
       <use style="stroke:#000000;stroke-width:0.8;" x="400.48" xlink:href="#m43e4b30248" y="239.65397"/>
      </g>
     </g>
     <g id="text_26">
      <!-- 0.650 -->
      <g transform="translate(407.48 243.453188)scale(0.1 -0.1)">
       <use xlink:href="#DejaVuSans-30"/>
       <use x="63.623047" xlink:href="#DejaVuSans-2e"/>
       <use x="95.410156" xlink:href="#DejaVuSans-36"/>
       <use x="159.033203" xlink:href="#DejaVuSans-35"/>
       <use x="222.65625" xlink:href="#DejaVuSans-30"/>
      </g>
     </g>
    </g>
    <g id="ytick_12">
     <g id="line2d_33">
      <g>
       <use style="stroke:#000000;stroke-width:0.8;" x="400.48" xlink:href="#m43e4b30248" y="207.99934"/>
      </g>
     </g>
     <g id="text_27">
      <!-- 0.675 -->
      <g transform="translate(407.48 211.798559)scale(0.1 -0.1)">
       <defs>
        <path d="M 525 4666 
L 3525 4666 
L 3525 4397 
L 1831 0 
L 1172 0 
L 2766 4134 
L 525 4134 
L 525 4666 
z
" id="DejaVuSans-37" transform="scale(0.015625)"/>
       </defs>
       <use xlink:href="#DejaVuSans-30"/>
       <use x="63.623047" xlink:href="#DejaVuSans-2e"/>
       <use x="95.410156" xlink:href="#DejaVuSans-36"/>
       <use x="159.033203" xlink:href="#DejaVuSans-37"/>
       <use x="222.65625" xlink:href="#DejaVuSans-35"/>
      </g>
     </g>
    </g>
    <g id="ytick_13">
     <g id="line2d_34">
      <g>
       <use style="stroke:#000000;stroke-width:0.8;" x="400.48" xlink:href="#m43e4b30248" y="176.34471"/>
      </g>
     </g>
     <g id="text_28">
      <!-- 0.700 -->
      <g transform="translate(407.48 180.143929)scale(0.1 -0.1)">
       <use xlink:href="#DejaVuSans-30"/>
       <use x="63.623047" xlink:href="#DejaVuSans-2e"/>
       <use x="95.410156" xlink:href="#DejaVuSans-37"/>
       <use x="159.033203" xlink:href="#DejaVuSans-30"/>
       <use x="222.65625" xlink:href="#DejaVuSans-30"/>
      </g>
     </g>
    </g>
    <g id="ytick_14">
     <g id="line2d_35">
      <g>
       <use style="stroke:#000000;stroke-width:0.8;" x="400.48" xlink:href="#m43e4b30248" y="144.69008"/>
      </g>
     </g>
     <g id="text_29">
      <!-- 0.725 -->
      <g transform="translate(407.48 148.489299)scale(0.1 -0.1)">
       <use xlink:href="#DejaVuSans-30"/>
       <use x="63.623047" xlink:href="#DejaVuSans-2e"/>
       <use x="95.410156" xlink:href="#DejaVuSans-37"/>
       <use x="159.033203" xlink:href="#DejaVuSans-32"/>
       <use x="222.65625" xlink:href="#DejaVuSans-35"/>
      </g>
     </g>
    </g>
    <g id="ytick_15">
     <g id="line2d_36">
      <g>
       <use style="stroke:#000000;stroke-width:0.8;" x="400.48" xlink:href="#m43e4b30248" y="113.035451"/>
      </g>
     </g>
     <g id="text_30">
      <!-- 0.750 -->
      <g transform="translate(407.48 116.834669)scale(0.1 -0.1)">
       <use xlink:href="#DejaVuSans-30"/>
       <use x="63.623047" xlink:href="#DejaVuSans-2e"/>
       <use x="95.410156" xlink:href="#DejaVuSans-37"/>
       <use x="159.033203" xlink:href="#DejaVuSans-35"/>
       <use x="222.65625" xlink:href="#DejaVuSans-30"/>
      </g>
     </g>
    </g>
    <g id="ytick_16">
     <g id="line2d_37">
      <g>
       <use style="stroke:#000000;stroke-width:0.8;" x="400.48" xlink:href="#m43e4b30248" y="81.380821"/>
      </g>
     </g>
     <g id="text_31">
      <!-- 0.775 -->
      <g transform="translate(407.48 85.18004)scale(0.1 -0.1)">
       <use xlink:href="#DejaVuSans-30"/>
       <use x="63.623047" xlink:href="#DejaVuSans-2e"/>
       <use x="95.410156" xlink:href="#DejaVuSans-37"/>
       <use x="159.033203" xlink:href="#DejaVuSans-37"/>
       <use x="222.65625" xlink:href="#DejaVuSans-35"/>
      </g>
     </g>
    </g>
    <g id="ytick_17">
     <g id="line2d_38">
      <g>
       <use style="stroke:#000000;stroke-width:0.8;" x="400.48" xlink:href="#m43e4b30248" y="49.726191"/>
      </g>
     </g>
     <g id="text_32">
      <!-- 0.800 -->
      <g transform="translate(407.48 53.52541)scale(0.1 -0.1)">
       <use xlink:href="#DejaVuSans-30"/>
       <use x="63.623047" xlink:href="#DejaVuSans-2e"/>
       <use x="95.410156" xlink:href="#DejaVuSans-38"/>
       <use x="159.033203" xlink:href="#DejaVuSans-30"/>
       <use x="222.65625" xlink:href="#DejaVuSans-30"/>
      </g>
     </g>
    </g>
    <g id="text_33">
     <!-- Taux de HIT -->
     <g transform="translate(447.706563 191.819062)rotate(-90)scale(0.1 -0.1)">
      <defs>
       <path d="M 2194 1759 
Q 1497 1759 1228 1600 
Q 959 1441 959 1056 
Q 959 750 1161 570 
Q 1363 391 1709 391 
Q 2188 391 2477 730 
Q 2766 1069 2766 1631 
L 2766 1759 
L 2194 1759 
z
M 3341 1997 
L 3341 0 
L 2766 0 
L 2766 531 
Q 2569 213 2275 61 
Q 1981 -91 1556 -91 
Q 1019 -91 701 211 
Q 384 513 384 1019 
Q 384 1609 779 1909 
Q 1175 2209 1959 2209 
L 2766 2209 
L 2766 2266 
Q 2766 2663 2505 2880 
Q 2244 3097 1772 3097 
Q 1472 3097 1187 3025 
Q 903 2953 641 2809 
L 641 3341 
Q 956 3463 1253 3523 
Q 1550 3584 1831 3584 
Q 2591 3584 2966 3190 
Q 3341 2797 3341 1997 
z
" id="DejaVuSans-61" transform="scale(0.015625)"/>
       <path d="M 3513 3500 
L 2247 1797 
L 3578 0 
L 2900 0 
L 1881 1375 
L 863 0 
L 184 0 
L 1544 1831 
L 300 3500 
L 978 3500 
L 1906 2253 
L 2834 3500 
L 3513 3500 
z
" id="DejaVuSans-78" transform="scale(0.015625)"/>
      </defs>
      <use xlink:href="#DejaVuSans-54"/>
      <use x="44.583984" xlink:href="#DejaVuSans-61"/>
      <use x="105.863281" xlink:href="#DejaVuSans-75"/>
      <use x="169.242188" xlink:href="#DejaVuSans-78"/>
      <use x="228.421875" xlink:href="#DejaVuSans-20"/>
      <use x="260.208984" xlink:href="#DejaVuSans-64"/>
      <use x="323.685547" xlink:href="#DejaVuSans-65"/>
      <use x="385.208984" xlink:href="#DejaVuSans-20"/>
      <use x="416.996094" xlink:href="#DejaVuSans-48"/>
      <use x="492.191406" xlink:href="#DejaVuSans-49"/>
      <use x="521.683594" xlink:href="#DejaVuSans-54"/>
     </g>
    </g>
   </g>
   <g id="line2d_39">
    <path clip-path="url(#pe762980ea5)" d="M 63.754545 290.825455 
L 66.993848 169.207009 
L 70.23315 142.646114 
L 73.472452 130.023068 
L 76.711754 122.657245 
L 79.951056 117.386835 
L 83.190358 113.845036 
L 86.42966 111.194306 
L 89.668962 108.902876 
L 92.908264 107.351574 
L 96.147567 105.125124 
L 99.386869 104.167908 
L 102.626171 102.91628 
L 105.865473 58.380545 
L 109.104775 46.898652 
L 112.344077 61.594057 
L 115.583379 70.474381 
L 118.822681 76.496033 
L 122.061983 80.180964 
L 125.301286 82.028123 
L 128.540588 83.707007 
L 131.77989 84.71696 
L 135.019192 86.228811 
L 138.258494 86.350612 
L 141.497796 87.235155 
L 144.737098 88.760158 
L 147.9764 79.587011 
L 151.215702 37.378429 
L 154.455005 56.498527 
L 157.694307 67.235841 
L 160.933609 74.301192 
L 164.172911 78.910171 
L 167.412213 81.181777 
L 170.651515 82.930412 
L 173.890817 84.648648 
L 177.130119 85.462299 
L 180.369421 86.34086 
L 183.608724 86.694896 
L 186.848026 88.186638 
L 190.087328 89.916342 
L 193.32663 45.936685 
L 196.565932 49.944533 
L 199.805234 62.977936 
L 203.044536 71.692332 
L 206.283838 77.311375 
L 209.52314 80.337493 
L 212.762443 82.201383 
L 216.001745 84.070332 
L 219.241047 84.939494 
L 222.480349 86.242577 
L 225.719651 86.359026 
L 228.958953 87.746478 
L 232.198255 88.856841 
L 235.437557 69.400524 
L 238.67686 41.292939 
L 241.916162 58.384049 
L 245.155464 68.701151 
L 248.394766 75.065596 
L 251.634068 79.348761 
L 254.87337 81.565968 
L 258.112672 83.183858 
L 261.351974 84.746921 
L 264.591276 85.641294 
L 267.830579 86.358644 
L 271.069881 87.006987 
L 274.309183 88.304529 
L 277.548485 90.383871 
L 280.787787 38.340695 
L 284.027089 52.482979 
L 287.266391 64.721439 
L 290.505693 72.769015 
L 293.744995 77.68325 
L 296.984298 80.739111 
L 300.2236 82.607012 
L 303.462902 84.367447 
L 306.702204 85.156364 
L 309.941506 86.321355 
L 313.180808 86.3095 
L 316.42011 87.762953 
L 319.659412 89.300508 
L 322.898714 60.14003 
L 326.138017 44.76687 
L 329.377319 60.18735 
L 332.616621 69.789568 
L 335.855923 75.979993 
L 339.095225 79.886017 
L 342.334527 81.807942 
L 345.573829 83.488827 
L 348.813131 84.637772 
L 352.052433 86.101866 
L 355.291736 86.488881 
L 358.531038 86.833035 
L 361.77034 88.849359 
L 365.009642 87.152838 
L 368.248944 34.534545 
L 371.488246 54.874422 
L 374.727548 66.401638 
L 377.96685 73.607329 
L 381.206152 78.362803 
L 384.445455 81.09934 
" style="fill:none;stroke:#1f77b4;stroke-linecap:square;stroke-width:1.5;"/>
   </g>
   <g id="patch_8">
    <path d="M 47.72 303.64 
L 47.72 21.72 
" style="fill:none;stroke:#000000;stroke-linecap:square;stroke-linejoin:miter;stroke-width:0.8;"/>
   </g>
   <g id="patch_9">
    <path d="M 400.48 303.64 
L 400.48 21.72 
" style="fill:none;stroke:#000000;stroke-linecap:square;stroke-linejoin:miter;stroke-width:0.8;"/>
   </g>
   <g id="patch_10">
    <path d="M 47.72 303.64 
L 400.48 303.64 
" style="fill:none;stroke:#000000;stroke-linecap:square;stroke-linejoin:miter;stroke-width:0.8;"/>
   </g>
   <g id="patch_11">
    <path d="M 47.72 21.72 
L 400.48 21.72 
" style="fill:none;stroke:#000000;stroke-linecap:square;stroke-linejoin:miter;stroke-width:0.8;"/>
   </g>
   <g id="legend_2">
    <g id="patch_12">
     <path d="M 54.72 44.398125 
L 103.298125 44.398125 
Q 105.298125 44.398125 105.298125 42.398125 
L 105.298125 28.72 
Q 105.298125 26.72 103.298125 26.72 
L 54.72 26.72 
Q 52.72 26.72 52.72 28.72 
L 52.72 42.398125 
Q 52.72 44.398125 54.72 44.398125 
z
" style="fill:#ffffff;opacity:0.8;stroke:#cccccc;stroke-linejoin:miter;"/>
    </g>
    <g id="line2d_40">
     <path d="M 56.72 34.818438 
L 76.72 34.818438 
" style="fill:none;stroke:#1f77b4;stroke-linecap:square;stroke-width:1.5;"/>
    </g>
    <g id="line2d_41"/>
    <g id="text_34">
     <!-- HIT -->
     <g transform="translate(84.72 38.318438)scale(0.1 -0.1)">
      <use xlink:href="#DejaVuSans-48"/>
      <use x="75.195312" xlink:href="#DejaVuSans-49"/>
      <use x="104.6875" xlink:href="#DejaVuSans-54"/>
     </g>
    </g>
   </g>
  </g>
 </g>
 <defs>
  <clipPath id="pe762980ea5">
   <rect height="281.92" width="352.76" x="47.72" y="21.72"/>
  </clipPath>
 </defs>
</svg>
