<?xml version="1.0" encoding="utf-8" standalone="no"?>
<!DOCTYPE svg PUBLIC "-//W3C//DTD SVG 1.1//EN"
  "http://www.w3.org/Graphics/SVG/1.1/DTD/svg11.dtd">
<svg height="345.6pt" version="1.1" viewBox="0 0 460.8 345.6" width="460.8pt" xmlns="http://www.w3.org/2000/svg" xmlns:xlink="http://www.w3.org/1999/xlink">
 <metadata>
  <rdf:RDF xmlns:cc="http://creativecommons.org/ns#" xmlns:dc="http://purl.org/dc/elements/1.1/" xmlns:rdf="http://www.w3.org/1999/02/22-rdf-syntax-ns#">
   <cc:Work>
    <dc:type rdf:resource="http://purl.org/dc/dcmitype/StillImage"/>
    <dc:date>2021-07-22T16:57:07.966520</dc:date>
    <dc:format>image/svg+xml</dc:format>
    <dc:creator>
     <cc:Agent>
      <dc:title>Matplotlib v3.4.2, https://matplotlib.org/</dc:title>
     </cc:Agent>
    </dc:creator>
   </cc:Work>
  </rdf:RDF>
 </metadata>
 <defs>
  <style type="text/css">*{stroke-linecap:butt;stroke-linejoin:round;}</style>
 </defs>
 <g id="figure_1">
  <g id="patch_1">
   <path d="M 0 345.6 
L 460.8 345.6 
L 460.8 0 
L 0 0 
z
" style="fill:#ffffff;"/>
  </g>
  <g id="axes_1">
   <g id="patch_2">
    <path d="M 47.72 303.64 
L 406.78 303.64 
L 406.78 21.72 
L 47.72 21.72 
z
" style="fill:#ffffff;"/>
   </g>
   <g id="matplotlib.axis_1">
    <g id="xtick_1">
     <g id="line2d_1">
      <defs>
       <path d="M 0 0 
L 0 3.5 
" id="m33aac37ee4" style="stroke:#000000;stroke-width:0.8;"/>
      </defs>
      <g>
       <use style="stroke:#000000;stroke-width:0.8;" x="60.743756" xlink:href="#m33aac37ee4" y="303.64"/>
      </g>
     </g>
     <g id="text_1">
      <!-- 0.0 -->
      <g transform="translate(52.792193 318.238437)scale(0.1 -0.1)">
       <defs>
        <path d="M 2034 4250 
Q 1547 4250 1301 3770 
Q 1056 3291 1056 2328 
Q 1056 1369 1301 889 
Q 1547 409 2034 409 
Q 2525 409 2770 889 
Q 3016 1369 3016 2328 
Q 3016 3291 2770 3770 
Q 2525 4250 2034 4250 
z
M 2034 4750 
Q 2819 4750 3233 4129 
Q 3647 3509 3647 2328 
Q 3647 1150 3233 529 
Q 2819 -91 2034 -91 
Q 1250 -91 836 529 
Q 422 1150 422 2328 
Q 422 3509 836 4129 
Q 1250 4750 2034 4750 
z
" id="DejaVuSans-30" transform="scale(0.015625)"/>
        <path d="M 684 794 
L 1344 794 
L 1344 0 
L 684 0 
L 684 794 
z
" id="DejaVuSans-2e" transform="scale(0.015625)"/>
       </defs>
       <use xlink:href="#DejaVuSans-30"/>
       <use x="63.623047" xlink:href="#DejaVuSans-2e"/>
       <use x="95.410156" xlink:href="#DejaVuSans-30"/>
      </g>
     </g>
    </g>
    <g id="xtick_2">
     <g id="line2d_2">
      <g>
       <use style="stroke:#000000;stroke-width:0.8;" x="126.686823" xlink:href="#m33aac37ee4" y="303.64"/>
      </g>
     </g>
     <g id="text_2">
      <!-- 0.2 -->
      <g transform="translate(118.73526 318.238437)scale(0.1 -0.1)">
       <defs>
        <path d="M 1228 531 
L 3431 531 
L 3431 0 
L 469 0 
L 469 531 
Q 828 903 1448 1529 
Q 2069 2156 2228 2338 
Q 2531 2678 2651 2914 
Q 2772 3150 2772 3378 
Q 2772 3750 2511 3984 
Q 2250 4219 1831 4219 
Q 1534 4219 1204 4116 
Q 875 4013 500 3803 
L 500 4441 
Q 881 4594 1212 4672 
Q 1544 4750 1819 4750 
Q 2544 4750 2975 4387 
Q 3406 4025 3406 3419 
Q 3406 3131 3298 2873 
Q 3191 2616 2906 2266 
Q 2828 2175 2409 1742 
Q 1991 1309 1228 531 
z
" id="DejaVuSans-32" transform="scale(0.015625)"/>
       </defs>
       <use xlink:href="#DejaVuSans-30"/>
       <use x="63.623047" xlink:href="#DejaVuSans-2e"/>
       <use x="95.410156" xlink:href="#DejaVuSans-32"/>
      </g>
     </g>
    </g>
    <g id="xtick_3">
     <g id="line2d_3">
      <g>
       <use style="stroke:#000000;stroke-width:0.8;" x="192.62989" xlink:href="#m33aac37ee4" y="303.64"/>
      </g>
     </g>
     <g id="text_3">
      <!-- 0.4 -->
      <g transform="translate(184.678327 318.238437)scale(0.1 -0.1)">
       <defs>
        <path d="M 2419 4116 
L 825 1625 
L 2419 1625 
L 2419 4116 
z
M 2253 4666 
L 3047 4666 
L 3047 1625 
L 3713 1625 
L 3713 1100 
L 3047 1100 
L 3047 0 
L 2419 0 
L 2419 1100 
L 313 1100 
L 313 1709 
L 2253 4666 
z
" id="DejaVuSans-34" transform="scale(0.015625)"/>
       </defs>
       <use xlink:href="#DejaVuSans-30"/>
       <use x="63.623047" xlink:href="#DejaVuSans-2e"/>
       <use x="95.410156" xlink:href="#DejaVuSans-34"/>
      </g>
     </g>
    </g>
    <g id="xtick_4">
     <g id="line2d_4">
      <g>
       <use style="stroke:#000000;stroke-width:0.8;" x="258.572957" xlink:href="#m33aac37ee4" y="303.64"/>
      </g>
     </g>
     <g id="text_4">
      <!-- 0.6 -->
      <g transform="translate(250.621394 318.238437)scale(0.1 -0.1)">
       <defs>
        <path d="M 2113 2584 
Q 1688 2584 1439 2293 
Q 1191 2003 1191 1497 
Q 1191 994 1439 701 
Q 1688 409 2113 409 
Q 2538 409 2786 701 
Q 3034 994 3034 1497 
Q 3034 2003 2786 2293 
Q 2538 2584 2113 2584 
z
M 3366 4563 
L 3366 3988 
Q 3128 4100 2886 4159 
Q 2644 4219 2406 4219 
Q 1781 4219 1451 3797 
Q 1122 3375 1075 2522 
Q 1259 2794 1537 2939 
Q 1816 3084 2150 3084 
Q 2853 3084 3261 2657 
Q 3669 2231 3669 1497 
Q 3669 778 3244 343 
Q 2819 -91 2113 -91 
Q 1303 -91 875 529 
Q 447 1150 447 2328 
Q 447 3434 972 4092 
Q 1497 4750 2381 4750 
Q 2619 4750 2861 4703 
Q 3103 4656 3366 4563 
z
" id="DejaVuSans-36" transform="scale(0.015625)"/>
       </defs>
       <use xlink:href="#DejaVuSans-30"/>
       <use x="63.623047" xlink:href="#DejaVuSans-2e"/>
       <use x="95.410156" xlink:href="#DejaVuSans-36"/>
      </g>
     </g>
    </g>
    <g id="xtick_5">
     <g id="line2d_5">
      <g>
       <use style="stroke:#000000;stroke-width:0.8;" x="324.516024" xlink:href="#m33aac37ee4" y="303.64"/>
      </g>
     </g>
     <g id="text_5">
      <!-- 0.8 -->
      <g transform="translate(316.564461 318.238437)scale(0.1 -0.1)">
       <defs>
        <path d="M 2034 2216 
Q 1584 2216 1326 1975 
Q 1069 1734 1069 1313 
Q 1069 891 1326 650 
Q 1584 409 2034 409 
Q 2484 409 2743 651 
Q 3003 894 3003 1313 
Q 3003 1734 2745 1975 
Q 2488 2216 2034 2216 
z
M 1403 2484 
Q 997 2584 770 2862 
Q 544 3141 544 3541 
Q 544 4100 942 4425 
Q 1341 4750 2034 4750 
Q 2731 4750 3128 4425 
Q 3525 4100 3525 3541 
Q 3525 3141 3298 2862 
Q 3072 2584 2669 2484 
Q 3125 2378 3379 2068 
Q 3634 1759 3634 1313 
Q 3634 634 3220 271 
Q 2806 -91 2034 -91 
Q 1263 -91 848 271 
Q 434 634 434 1313 
Q 434 1759 690 2068 
Q 947 2378 1403 2484 
z
M 1172 3481 
Q 1172 3119 1398 2916 
Q 1625 2713 2034 2713 
Q 2441 2713 2670 2916 
Q 2900 3119 2900 3481 
Q 2900 3844 2670 4047 
Q 2441 4250 2034 4250 
Q 1625 4250 1398 4047 
Q 1172 3844 1172 3481 
z
" id="DejaVuSans-38" transform="scale(0.015625)"/>
       </defs>
       <use xlink:href="#DejaVuSans-30"/>
       <use x="63.623047" xlink:href="#DejaVuSans-2e"/>
       <use x="95.410156" xlink:href="#DejaVuSans-38"/>
      </g>
     </g>
    </g>
    <g id="xtick_6">
     <g id="line2d_6">
      <g>
       <use style="stroke:#000000;stroke-width:0.8;" x="390.459091" xlink:href="#m33aac37ee4" y="303.64"/>
      </g>
     </g>
     <g id="text_6">
      <!-- 1.0 -->
      <g transform="translate(382.507528 318.238437)scale(0.1 -0.1)">
       <defs>
        <path d="M 794 531 
L 1825 531 
L 1825 4091 
L 703 3866 
L 703 4441 
L 1819 4666 
L 2450 4666 
L 2450 531 
L 3481 531 
L 3481 0 
L 794 0 
L 794 531 
z
" id="DejaVuSans-31" transform="scale(0.015625)"/>
       </defs>
       <use xlink:href="#DejaVuSans-31"/>
       <use x="63.623047" xlink:href="#DejaVuSans-2e"/>
       <use x="95.410156" xlink:href="#DejaVuSans-30"/>
      </g>
     </g>
    </g>
    <g id="text_7">
     <!-- Requetes -->
     <g transform="translate(203.863281 331.916562)scale(0.1 -0.1)">
      <defs>
       <path d="M 2841 2188 
Q 3044 2119 3236 1894 
Q 3428 1669 3622 1275 
L 4263 0 
L 3584 0 
L 2988 1197 
Q 2756 1666 2539 1819 
Q 2322 1972 1947 1972 
L 1259 1972 
L 1259 0 
L 628 0 
L 628 4666 
L 2053 4666 
Q 2853 4666 3247 4331 
Q 3641 3997 3641 3322 
Q 3641 2881 3436 2590 
Q 3231 2300 2841 2188 
z
M 1259 4147 
L 1259 2491 
L 2053 2491 
Q 2509 2491 2742 2702 
Q 2975 2913 2975 3322 
Q 2975 3731 2742 3939 
Q 2509 4147 2053 4147 
L 1259 4147 
z
" id="DejaVuSans-52" transform="scale(0.015625)"/>
       <path d="M 3597 1894 
L 3597 1613 
L 953 1613 
Q 991 1019 1311 708 
Q 1631 397 2203 397 
Q 2534 397 2845 478 
Q 3156 559 3463 722 
L 3463 178 
Q 3153 47 2828 -22 
Q 2503 -91 2169 -91 
Q 1331 -91 842 396 
Q 353 884 353 1716 
Q 353 2575 817 3079 
Q 1281 3584 2069 3584 
Q 2775 3584 3186 3129 
Q 3597 2675 3597 1894 
z
M 3022 2063 
Q 3016 2534 2758 2815 
Q 2500 3097 2075 3097 
Q 1594 3097 1305 2825 
Q 1016 2553 972 2059 
L 3022 2063 
z
" id="DejaVuSans-65" transform="scale(0.015625)"/>
       <path d="M 947 1747 
Q 947 1113 1208 752 
Q 1469 391 1925 391 
Q 2381 391 2643 752 
Q 2906 1113 2906 1747 
Q 2906 2381 2643 2742 
Q 2381 3103 1925 3103 
Q 1469 3103 1208 2742 
Q 947 2381 947 1747 
z
M 2906 525 
Q 2725 213 2448 61 
Q 2172 -91 1784 -91 
Q 1150 -91 751 415 
Q 353 922 353 1747 
Q 353 2572 751 3078 
Q 1150 3584 1784 3584 
Q 2172 3584 2448 3432 
Q 2725 3281 2906 2969 
L 2906 3500 
L 3481 3500 
L 3481 -1331 
L 2906 -1331 
L 2906 525 
z
" id="DejaVuSans-71" transform="scale(0.015625)"/>
       <path d="M 544 1381 
L 544 3500 
L 1119 3500 
L 1119 1403 
Q 1119 906 1312 657 
Q 1506 409 1894 409 
Q 2359 409 2629 706 
Q 2900 1003 2900 1516 
L 2900 3500 
L 3475 3500 
L 3475 0 
L 2900 0 
L 2900 538 
Q 2691 219 2414 64 
Q 2138 -91 1772 -91 
Q 1169 -91 856 284 
Q 544 659 544 1381 
z
M 1991 3584 
L 1991 3584 
z
" id="DejaVuSans-75" transform="scale(0.015625)"/>
       <path d="M 1172 4494 
L 1172 3500 
L 2356 3500 
L 2356 3053 
L 1172 3053 
L 1172 1153 
Q 1172 725 1289 603 
Q 1406 481 1766 481 
L 2356 481 
L 2356 0 
L 1766 0 
Q 1100 0 847 248 
Q 594 497 594 1153 
L 594 3053 
L 172 3053 
L 172 3500 
L 594 3500 
L 594 4494 
L 1172 4494 
z
" id="DejaVuSans-74" transform="scale(0.015625)"/>
       <path d="M 2834 3397 
L 2834 2853 
Q 2591 2978 2328 3040 
Q 2066 3103 1784 3103 
Q 1356 3103 1142 2972 
Q 928 2841 928 2578 
Q 928 2378 1081 2264 
Q 1234 2150 1697 2047 
L 1894 2003 
Q 2506 1872 2764 1633 
Q 3022 1394 3022 966 
Q 3022 478 2636 193 
Q 2250 -91 1575 -91 
Q 1294 -91 989 -36 
Q 684 19 347 128 
L 347 722 
Q 666 556 975 473 
Q 1284 391 1588 391 
Q 1994 391 2212 530 
Q 2431 669 2431 922 
Q 2431 1156 2273 1281 
Q 2116 1406 1581 1522 
L 1381 1569 
Q 847 1681 609 1914 
Q 372 2147 372 2553 
Q 372 3047 722 3315 
Q 1072 3584 1716 3584 
Q 2034 3584 2315 3537 
Q 2597 3491 2834 3397 
z
" id="DejaVuSans-73" transform="scale(0.015625)"/>
      </defs>
      <use xlink:href="#DejaVuSans-52"/>
      <use x="64.982422" xlink:href="#DejaVuSans-65"/>
      <use x="126.505859" xlink:href="#DejaVuSans-71"/>
      <use x="189.982422" xlink:href="#DejaVuSans-75"/>
      <use x="253.361328" xlink:href="#DejaVuSans-65"/>
      <use x="314.884766" xlink:href="#DejaVuSans-74"/>
      <use x="354.09375" xlink:href="#DejaVuSans-65"/>
      <use x="415.617188" xlink:href="#DejaVuSans-73"/>
     </g>
    </g>
    <g id="text_8">
     <!-- 1e9 -->
     <g transform="translate(387.901875 330.916562)scale(0.1 -0.1)">
      <defs>
       <path d="M 703 97 
L 703 672 
Q 941 559 1184 500 
Q 1428 441 1663 441 
Q 2288 441 2617 861 
Q 2947 1281 2994 2138 
Q 2813 1869 2534 1725 
Q 2256 1581 1919 1581 
Q 1219 1581 811 2004 
Q 403 2428 403 3163 
Q 403 3881 828 4315 
Q 1253 4750 1959 4750 
Q 2769 4750 3195 4129 
Q 3622 3509 3622 2328 
Q 3622 1225 3098 567 
Q 2575 -91 1691 -91 
Q 1453 -91 1209 -44 
Q 966 3 703 97 
z
M 1959 2075 
Q 2384 2075 2632 2365 
Q 2881 2656 2881 3163 
Q 2881 3666 2632 3958 
Q 2384 4250 1959 4250 
Q 1534 4250 1286 3958 
Q 1038 3666 1038 3163 
Q 1038 2656 1286 2365 
Q 1534 2075 1959 2075 
z
" id="DejaVuSans-39" transform="scale(0.015625)"/>
      </defs>
      <use xlink:href="#DejaVuSans-31"/>
      <use x="63.623047" xlink:href="#DejaVuSans-65"/>
      <use x="125.146484" xlink:href="#DejaVuSans-39"/>
     </g>
    </g>
   </g>
   <g id="matplotlib.axis_2">
    <g id="ytick_1">
     <g id="line2d_7">
      <defs>
       <path d="M 0 0 
L -3.5 0 
" id="m575d4e933d" style="stroke:#000000;stroke-width:0.8;"/>
      </defs>
      <g>
       <use style="stroke:#000000;stroke-width:0.8;" x="47.72" xlink:href="#m575d4e933d" y="293.15652"/>
      </g>
     </g>
     <g id="text_9">
      <!-- 0.0 -->
      <g transform="translate(24.816875 296.955738)scale(0.1 -0.1)">
       <use xlink:href="#DejaVuSans-30"/>
       <use x="63.623047" xlink:href="#DejaVuSans-2e"/>
       <use x="95.410156" xlink:href="#DejaVuSans-30"/>
      </g>
     </g>
    </g>
    <g id="ytick_2">
     <g id="line2d_8">
      <g>
       <use style="stroke:#000000;stroke-width:0.8;" x="47.72" xlink:href="#m575d4e933d" y="257.291222"/>
      </g>
     </g>
     <g id="text_10">
      <!-- 0.2 -->
      <g transform="translate(24.816875 261.09044)scale(0.1 -0.1)">
       <use xlink:href="#DejaVuSans-30"/>
       <use x="63.623047" xlink:href="#DejaVuSans-2e"/>
       <use x="95.410156" xlink:href="#DejaVuSans-32"/>
      </g>
     </g>
    </g>
    <g id="ytick_3">
     <g id="line2d_9">
      <g>
       <use style="stroke:#000000;stroke-width:0.8;" x="47.72" xlink:href="#m575d4e933d" y="221.425924"/>
      </g>
     </g>
     <g id="text_11">
      <!-- 0.4 -->
      <g transform="translate(24.816875 225.225142)scale(0.1 -0.1)">
       <use xlink:href="#DejaVuSans-30"/>
       <use x="63.623047" xlink:href="#DejaVuSans-2e"/>
       <use x="95.410156" xlink:href="#DejaVuSans-34"/>
      </g>
     </g>
    </g>
    <g id="ytick_4">
     <g id="line2d_10">
      <g>
       <use style="stroke:#000000;stroke-width:0.8;" x="47.72" xlink:href="#m575d4e933d" y="185.560626"/>
      </g>
     </g>
     <g id="text_12">
      <!-- 0.6 -->
      <g transform="translate(24.816875 189.359844)scale(0.1 -0.1)">
       <use xlink:href="#DejaVuSans-30"/>
       <use x="63.623047" xlink:href="#DejaVuSans-2e"/>
       <use x="95.410156" xlink:href="#DejaVuSans-36"/>
      </g>
     </g>
    </g>
    <g id="ytick_5">
     <g id="line2d_11">
      <g>
       <use style="stroke:#000000;stroke-width:0.8;" x="47.72" xlink:href="#m575d4e933d" y="149.695328"/>
      </g>
     </g>
     <g id="text_13">
      <!-- 0.8 -->
      <g transform="translate(24.816875 153.494546)scale(0.1 -0.1)">
       <use xlink:href="#DejaVuSans-30"/>
       <use x="63.623047" xlink:href="#DejaVuSans-2e"/>
       <use x="95.410156" xlink:href="#DejaVuSans-38"/>
      </g>
     </g>
    </g>
    <g id="ytick_6">
     <g id="line2d_12">
      <g>
       <use style="stroke:#000000;stroke-width:0.8;" x="47.72" xlink:href="#m575d4e933d" y="113.830029"/>
      </g>
     </g>
     <g id="text_14">
      <!-- 1.0 -->
      <g transform="translate(24.816875 117.629248)scale(0.1 -0.1)">
       <use xlink:href="#DejaVuSans-31"/>
       <use x="63.623047" xlink:href="#DejaVuSans-2e"/>
       <use x="95.410156" xlink:href="#DejaVuSans-30"/>
      </g>
     </g>
    </g>
    <g id="ytick_7">
     <g id="line2d_13">
      <g>
       <use style="stroke:#000000;stroke-width:0.8;" x="47.72" xlink:href="#m575d4e933d" y="77.964731"/>
      </g>
     </g>
     <g id="text_15">
      <!-- 1.2 -->
      <g transform="translate(24.816875 81.76395)scale(0.1 -0.1)">
       <use xlink:href="#DejaVuSans-31"/>
       <use x="63.623047" xlink:href="#DejaVuSans-2e"/>
       <use x="95.410156" xlink:href="#DejaVuSans-32"/>
      </g>
     </g>
    </g>
    <g id="ytick_8">
     <g id="line2d_14">
      <g>
       <use style="stroke:#000000;stroke-width:0.8;" x="47.72" xlink:href="#m575d4e933d" y="42.099433"/>
      </g>
     </g>
     <g id="text_16">
      <!-- 1.4 -->
      <g transform="translate(24.816875 45.898652)scale(0.1 -0.1)">
       <use xlink:href="#DejaVuSans-31"/>
       <use x="63.623047" xlink:href="#DejaVuSans-2e"/>
       <use x="95.410156" xlink:href="#DejaVuSans-34"/>
      </g>
     </g>
    </g>
    <g id="text_17">
     <!-- NB d'entrees -->
     <g transform="translate(18.737188 194.894844)rotate(-90)scale(0.1 -0.1)">
      <defs>
       <path d="M 628 4666 
L 1478 4666 
L 3547 763 
L 3547 4666 
L 4159 4666 
L 4159 0 
L 3309 0 
L 1241 3903 
L 1241 0 
L 628 0 
L 628 4666 
z
" id="DejaVuSans-4e" transform="scale(0.015625)"/>
       <path d="M 1259 2228 
L 1259 519 
L 2272 519 
Q 2781 519 3026 730 
Q 3272 941 3272 1375 
Q 3272 1813 3026 2020 
Q 2781 2228 2272 2228 
L 1259 2228 
z
M 1259 4147 
L 1259 2741 
L 2194 2741 
Q 2656 2741 2882 2914 
Q 3109 3088 3109 3444 
Q 3109 3797 2882 3972 
Q 2656 4147 2194 4147 
L 1259 4147 
z
M 628 4666 
L 2241 4666 
Q 2963 4666 3353 4366 
Q 3744 4066 3744 3513 
Q 3744 3084 3544 2831 
Q 3344 2578 2956 2516 
Q 3422 2416 3680 2098 
Q 3938 1781 3938 1306 
Q 3938 681 3513 340 
Q 3088 0 2303 0 
L 628 0 
L 628 4666 
z
" id="DejaVuSans-42" transform="scale(0.015625)"/>
       <path id="DejaVuSans-20" transform="scale(0.015625)"/>
       <path d="M 2906 2969 
L 2906 4863 
L 3481 4863 
L 3481 0 
L 2906 0 
L 2906 525 
Q 2725 213 2448 61 
Q 2172 -91 1784 -91 
Q 1150 -91 751 415 
Q 353 922 353 1747 
Q 353 2572 751 3078 
Q 1150 3584 1784 3584 
Q 2172 3584 2448 3432 
Q 2725 3281 2906 2969 
z
M 947 1747 
Q 947 1113 1208 752 
Q 1469 391 1925 391 
Q 2381 391 2643 752 
Q 2906 1113 2906 1747 
Q 2906 2381 2643 2742 
Q 2381 3103 1925 3103 
Q 1469 3103 1208 2742 
Q 947 2381 947 1747 
z
" id="DejaVuSans-64" transform="scale(0.015625)"/>
       <path d="M 1147 4666 
L 1147 2931 
L 616 2931 
L 616 4666 
L 1147 4666 
z
" id="DejaVuSans-27" transform="scale(0.015625)"/>
       <path d="M 3513 2113 
L 3513 0 
L 2938 0 
L 2938 2094 
Q 2938 2591 2744 2837 
Q 2550 3084 2163 3084 
Q 1697 3084 1428 2787 
Q 1159 2491 1159 1978 
L 1159 0 
L 581 0 
L 581 3500 
L 1159 3500 
L 1159 2956 
Q 1366 3272 1645 3428 
Q 1925 3584 2291 3584 
Q 2894 3584 3203 3211 
Q 3513 2838 3513 2113 
z
" id="DejaVuSans-6e" transform="scale(0.015625)"/>
       <path d="M 2631 2963 
Q 2534 3019 2420 3045 
Q 2306 3072 2169 3072 
Q 1681 3072 1420 2755 
Q 1159 2438 1159 1844 
L 1159 0 
L 581 0 
L 581 3500 
L 1159 3500 
L 1159 2956 
Q 1341 3275 1631 3429 
Q 1922 3584 2338 3584 
Q 2397 3584 2469 3576 
Q 2541 3569 2628 3553 
L 2631 2963 
z
" id="DejaVuSans-72" transform="scale(0.015625)"/>
      </defs>
      <use xlink:href="#DejaVuSans-4e"/>
      <use x="74.804688" xlink:href="#DejaVuSans-42"/>
      <use x="143.408203" xlink:href="#DejaVuSans-20"/>
      <use x="175.195312" xlink:href="#DejaVuSans-64"/>
      <use x="238.671875" xlink:href="#DejaVuSans-27"/>
      <use x="266.162109" xlink:href="#DejaVuSans-65"/>
      <use x="327.685547" xlink:href="#DejaVuSans-6e"/>
      <use x="391.064453" xlink:href="#DejaVuSans-74"/>
      <use x="430.273438" xlink:href="#DejaVuSans-72"/>
      <use x="469.136719" xlink:href="#DejaVuSans-65"/>
      <use x="530.660156" xlink:href="#DejaVuSans-65"/>
      <use x="592.183594" xlink:href="#DejaVuSans-73"/>
     </g>
    </g>
    <g id="text_18">
     <!-- 1e6 -->
     <g transform="translate(47.72 18.72)scale(0.1 -0.1)">
      <use xlink:href="#DejaVuSans-31"/>
      <use x="63.623047" xlink:href="#DejaVuSans-65"/>
      <use x="125.146484" xlink:href="#DejaVuSans-36"/>
     </g>
    </g>
   </g>
   <g id="line2d_15">
    <path clip-path="url(#pc401bd364a)" d="M 64.040909 172.237385 
L 67.338062 153.831493 
L 70.635216 148.758167 
L 73.932369 147.171845 
L 77.229522 146.618444 
L 80.526676 146.422978 
L 83.823829 146.342639 
L 87.120983 146.293145 
L 90.418136 146.263018 
L 93.715289 146.234147 
L 97.012443 146.207248 
L 100.309596 146.174073 
L 103.606749 146.143587 
L 106.903903 146.127986 
L 110.201056 146.127986 
L 113.498209 146.127986 
L 116.795363 146.127986 
L 120.092516 146.127986 
L 123.389669 146.127986 
L 126.686823 146.127986 
L 129.983976 146.127986 
L 133.281129 146.127986 
L 136.578283 146.127986 
L 139.875436 146.127986 
L 143.17259 146.127986 
L 146.469743 146.127986 
L 149.766896 146.127986 
L 153.06405 146.127986 
L 156.361203 146.127986 
L 159.658356 146.127986 
L 162.95551 146.127986 
L 166.252663 146.127986 
L 169.549816 146.127986 
L 172.84697 146.127986 
L 176.144123 146.127986 
L 179.441276 146.127986 
L 182.73843 146.127986 
L 186.035583 146.127986 
L 189.332736 146.127986 
L 192.62989 146.127986 
L 195.927043 146.127986 
L 199.224197 146.127986 
L 202.52135 146.127986 
L 205.818503 146.127986 
L 209.115657 146.127986 
L 212.41281 146.127986 
L 215.709963 146.127986 
L 219.007117 146.127986 
L 222.30427 146.127986 
L 225.601423 146.127986 
L 228.898577 146.127986 
L 232.19573 146.127986 
L 235.492883 146.127986 
L 238.790037 146.127986 
L 242.08719 146.127986 
L 245.384343 146.127986 
L 248.681497 146.127986 
L 251.97865 146.127986 
L 255.275803 146.127986 
L 258.572957 146.127986 
L 261.87011 146.127986 
L 265.167264 146.127986 
L 268.464417 146.127986 
L 271.76157 146.127986 
L 275.058724 146.127986 
L 278.355877 146.127986 
L 281.65303 146.127986 
L 284.950184 146.127986 
L 288.247337 146.127986 
L 291.54449 146.127986 
L 294.841644 146.127986 
L 298.138797 146.127986 
L 301.43595 146.127986 
L 304.733104 146.127986 
L 308.030257 146.127986 
L 311.32741 146.127986 
L 314.624564 146.127986 
L 317.921717 146.127986 
L 321.218871 146.127986 
L 324.516024 146.127986 
L 327.813177 146.127986 
L 331.110331 146.127986 
L 334.407484 146.127986 
L 337.704637 146.127986 
L 341.001791 146.127986 
L 344.298944 146.127986 
L 347.596097 146.127986 
L 350.893251 146.127986 
L 354.190404 146.127986 
L 357.487557 146.127986 
L 360.784711 146.127986 
L 364.081864 146.127986 
L 367.379017 146.127986 
L 370.676171 146.127986 
L 373.973324 146.127986 
L 377.270478 146.127986 
L 380.567631 146.127986 
L 383.864784 146.127986 
L 387.161938 146.127986 
L 390.459091 146.127986 
" style="fill:none;stroke:#1f77b4;stroke-linecap:square;stroke-width:1.5;"/>
   </g>
   <g id="line2d_16">
    <path clip-path="url(#pc401bd364a)" d="M 64.040909 222.552273 
L 67.338062 192.676121 
L 70.635216 178.342376 
L 73.932369 171.015095 
L 77.229522 167.146664 
L 80.526676 165.073829 
L 83.823829 163.936899 
L 87.120983 163.267653 
L 90.418136 162.933209 
L 93.715289 162.740971 
L 97.012443 162.631761 
L 100.309596 162.573839 
L 103.606749 162.547298 
L 106.903903 162.543533 
L 110.201056 162.543533 
L 113.498209 162.543533 
L 116.795363 162.543533 
L 120.092516 162.543533 
L 123.389669 162.543533 
L 126.686823 162.543533 
L 129.983976 162.543533 
L 133.281129 162.543533 
L 136.578283 162.543533 
L 139.875436 162.543533 
L 143.17259 162.543533 
L 146.469743 162.543533 
L 149.766896 162.543533 
L 153.06405 162.543533 
L 156.361203 162.543533 
L 159.658356 162.543533 
L 162.95551 162.543533 
L 166.252663 162.543533 
L 169.549816 162.543533 
L 172.84697 162.543533 
L 176.144123 162.543533 
L 179.441276 162.543533 
L 182.73843 162.543533 
L 186.035583 162.543533 
L 189.332736 162.543533 
L 192.62989 162.543533 
L 195.927043 162.543533 
L 199.224197 162.543533 
L 202.52135 162.543533 
L 205.818503 162.543533 
L 209.115657 162.543533 
L 212.41281 162.543533 
L 215.709963 162.543533 
L 219.007117 162.543533 
L 222.30427 162.543533 
L 225.601423 162.543533 
L 228.898577 162.543533 
L 232.19573 162.543533 
L 235.492883 162.543533 
L 238.790037 162.543533 
L 242.08719 162.543533 
L 245.384343 162.543533 
L 248.681497 162.543533 
L 251.97865 162.543533 
L 255.275803 162.543533 
L 258.572957 162.543533 
L 261.87011 162.543533 
L 265.167264 162.543533 
L 268.464417 162.543533 
L 271.76157 162.543533 
L 275.058724 162.543533 
L 278.355877 162.543533 
L 281.65303 162.543533 
L 284.950184 162.543533 
L 288.247337 162.543533 
L 291.54449 162.543533 
L 294.841644 162.543533 
L 298.138797 162.543533 
L 301.43595 162.543533 
L 304.733104 162.543533 
L 308.030257 162.543533 
L 311.32741 162.543533 
L 314.624564 162.543533 
L 317.921717 162.543533 
L 321.218871 162.543533 
L 324.516024 162.543533 
L 327.813177 162.543533 
L 331.110331 162.543533 
L 334.407484 162.543533 
L 337.704637 162.543533 
L 341.001791 162.543533 
L 344.298944 162.543533 
L 347.596097 162.543533 
L 350.893251 162.543533 
L 354.190404 162.543533 
L 357.487557 162.543533 
L 360.784711 162.543533 
L 364.081864 162.543533 
L 367.379017 162.543533 
L 370.676171 162.543533 
L 373.973324 162.543533 
L 377.270478 162.543533 
L 380.567631 162.543533 
L 383.864784 162.543533 
L 387.161938 162.543533 
L 390.459091 162.543533 
" style="fill:none;stroke:#ff7f0e;stroke-linecap:square;stroke-width:1.5;"/>
   </g>
   <g id="line2d_17">
    <path clip-path="url(#pc401bd364a)" d="M 64.040909 217.08156 
L 67.338062 179.770173 
L 70.635216 158.818204 
L 73.932369 146.356448 
L 77.229522 138.581748 
L 80.526676 133.555585 
L 83.823829 130.230513 
L 87.120983 128.02139 
L 90.418136 126.515227 
L 93.715289 125.472443 
L 97.012443 124.752447 
L 100.309596 124.255534 
L 103.606749 123.916607 
L 106.903903 123.793409 
L 110.201056 123.793409 
L 113.498209 123.793409 
L 116.795363 123.793409 
L 120.092516 123.793409 
L 123.389669 123.793409 
L 126.686823 123.793409 
L 129.983976 123.793409 
L 133.281129 123.793409 
L 136.578283 123.793409 
L 139.875436 123.793409 
L 143.17259 123.793409 
L 146.469743 123.793409 
L 149.766896 123.793409 
L 153.06405 123.793409 
L 156.361203 123.793409 
L 159.658356 123.793409 
L 162.95551 123.793409 
L 166.252663 123.793409 
L 169.549816 123.793409 
L 172.84697 123.793409 
L 176.144123 123.793409 
L 179.441276 123.793409 
L 182.73843 123.793409 
L 186.035583 123.793409 
L 189.332736 123.793409 
L 192.62989 123.793409 
L 195.927043 123.793409 
L 199.224197 123.793409 
L 202.52135 123.793409 
L 205.818503 123.793409 
L 209.115657 123.793409 
L 212.41281 123.793409 
L 215.709963 123.793409 
L 219.007117 123.793409 
L 222.30427 123.793409 
L 225.601423 123.793409 
L 228.898577 123.793409 
L 232.19573 123.793409 
L 235.492883 123.793409 
L 238.790037 123.793409 
L 242.08719 123.793409 
L 245.384343 123.793409 
L 248.681497 123.793409 
L 251.97865 123.793409 
L 255.275803 123.793409 
L 258.572957 123.793409 
L 261.87011 123.793409 
L 265.167264 123.793409 
L 268.464417 123.793409 
L 271.76157 123.793409 
L 275.058724 123.793409 
L 278.355877 123.793409 
L 281.65303 123.793409 
L 284.950184 123.793409 
L 288.247337 123.793409 
L 291.54449 123.793409 
L 294.841644 123.793409 
L 298.138797 123.793409 
L 301.43595 123.793409 
L 304.733104 123.793409 
L 308.030257 123.793409 
L 311.32741 123.793409 
L 314.624564 123.793409 
L 317.921717 123.793409 
L 321.218871 123.793409 
L 324.516024 123.793409 
L 327.813177 123.793409 
L 331.110331 123.793409 
L 334.407484 123.793409 
L 337.704637 123.793409 
L 341.001791 123.793409 
L 344.298944 123.793409 
L 347.596097 123.793409 
L 350.893251 123.793409 
L 354.190404 123.793409 
L 357.487557 123.793409 
L 360.784711 123.793409 
L 364.081864 123.793409 
L 367.379017 123.793409 
L 370.676171 123.793409 
L 373.973324 123.793409 
L 377.270478 123.793409 
L 380.567631 123.793409 
L 383.864784 123.793409 
L 387.161938 123.793409 
L 390.459091 123.793409 
" style="fill:none;stroke:#2ca02c;stroke-linecap:square;stroke-width:1.5;"/>
   </g>
   <g id="line2d_18">
    <path clip-path="url(#pc401bd364a)" d="M 64.040909 236.565742 
L 67.338062 207.788861 
L 70.635216 191.041202 
L 73.932369 180.626636 
L 77.229522 173.943855 
L 80.526676 169.466252 
L 83.823829 166.403715 
L 87.120983 164.277978 
L 90.418136 162.766973 
L 93.715289 161.638292 
L 97.012443 160.858222 
L 100.309596 160.267521 
L 103.606749 159.829426 
L 106.903903 159.681123 
L 110.201056 159.681123 
L 113.498209 159.681123 
L 116.795363 159.681123 
L 120.092516 159.681123 
L 123.389669 159.681123 
L 126.686823 159.681123 
L 129.983976 159.681123 
L 133.281129 159.681123 
L 136.578283 159.681123 
L 139.875436 159.681123 
L 143.17259 159.681123 
L 146.469743 159.681123 
L 149.766896 159.681123 
L 153.06405 159.681123 
L 156.361203 159.681123 
L 159.658356 159.681123 
L 162.95551 159.681123 
L 166.252663 159.681123 
L 169.549816 159.681123 
L 172.84697 159.681123 
L 176.144123 159.681123 
L 179.441276 159.681123 
L 182.73843 159.681123 
L 186.035583 159.681123 
L 189.332736 159.681123 
L 192.62989 159.681123 
L 195.927043 159.681123 
L 199.224197 159.681123 
L 202.52135 159.681123 
L 205.818503 159.681123 
L 209.115657 159.681123 
L 212.41281 159.681123 
L 215.709963 159.681123 
L 219.007117 159.681123 
L 222.30427 159.681123 
L 225.601423 159.681123 
L 228.898577 159.681123 
L 232.19573 159.681123 
L 235.492883 159.681123 
L 238.790037 159.681123 
L 242.08719 159.681123 
L 245.384343 159.681123 
L 248.681497 159.681123 
L 251.97865 159.681123 
L 255.275803 159.681123 
L 258.572957 159.681123 
L 261.87011 159.681123 
L 265.167264 159.681123 
L 268.464417 159.681123 
L 271.76157 159.681123 
L 275.058724 159.681123 
L 278.355877 159.681123 
L 281.65303 159.681123 
L 284.950184 159.681123 
L 288.247337 159.681123 
L 291.54449 159.681123 
L 294.841644 159.681123 
L 298.138797 159.681123 
L 301.43595 159.681123 
L 304.733104 159.681123 
L 308.030257 159.681123 
L 311.32741 159.681123 
L 314.624564 159.681123 
L 317.921717 159.681123 
L 321.218871 159.681123 
L 324.516024 159.681123 
L 327.813177 159.681123 
L 331.110331 159.681123 
L 334.407484 159.681123 
L 337.704637 159.681123 
L 341.001791 159.681123 
L 344.298944 159.681123 
L 347.596097 159.681123 
L 350.893251 159.681123 
L 354.190404 159.681123 
L 357.487557 159.681123 
L 360.784711 159.681123 
L 364.081864 159.681123 
L 367.379017 159.681123 
L 370.676171 159.681123 
L 373.973324 159.681123 
L 377.270478 159.681123 
L 380.567631 159.681123 
L 383.864784 159.681123 
L 387.161938 159.681123 
L 390.459091 159.681123 
" style="fill:none;stroke:#d62728;stroke-linecap:square;stroke-width:1.5;"/>
   </g>
   <g id="line2d_19">
    <path clip-path="url(#pc401bd364a)" d="M 64.040909 34.534545 
L 67.338062 148.904856 
L 70.635216 206.011556 
L 73.932369 237.801481 
L 77.229522 256.680794 
L 80.526676 268.452861 
L 83.823829 276.057739 
L 87.120983 281.111339 
L 90.418136 284.493078 
L 93.715289 286.885652 
L 97.012443 288.521826 
L 100.309596 289.700539 
L 103.606749 290.534587 
L 106.903903 290.825455 
L 110.201056 290.825455 
L 113.498209 290.825455 
L 116.795363 290.825455 
L 120.092516 290.825455 
L 123.389669 290.825455 
L 126.686823 290.825455 
L 129.983976 290.825455 
L 133.281129 290.825455 
L 136.578283 290.825455 
L 139.875436 290.825455 
L 143.17259 290.825455 
L 146.469743 290.825455 
L 149.766896 290.825455 
L 153.06405 290.825455 
L 156.361203 290.825455 
L 159.658356 290.825455 
L 162.95551 290.825455 
L 166.252663 290.825455 
L 169.549816 290.825455 
L 172.84697 290.825455 
L 176.144123 290.825455 
L 179.441276 290.825455 
L 182.73843 290.825455 
L 186.035583 290.825455 
L 189.332736 290.825455 
L 192.62989 290.825455 
L 195.927043 290.825455 
L 199.224197 290.825455 
L 202.52135 290.825455 
L 205.818503 290.825455 
L 209.115657 290.825455 
L 212.41281 290.825455 
L 215.709963 290.825455 
L 219.007117 290.825455 
L 222.30427 290.825455 
L 225.601423 290.825455 
L 228.898577 290.825455 
L 232.19573 290.825455 
L 235.492883 290.825455 
L 238.790037 290.825455 
L 242.08719 290.825455 
L 245.384343 290.825455 
L 248.681497 290.825455 
L 251.97865 290.825455 
L 255.275803 290.825455 
L 258.572957 290.825455 
L 261.87011 290.825455 
L 265.167264 290.825455 
L 268.464417 290.825455 
L 271.76157 290.825455 
L 275.058724 290.825455 
L 278.355877 290.825455 
L 281.65303 290.825455 
L 284.950184 290.825455 
L 288.247337 290.825455 
L 291.54449 290.825455 
L 294.841644 290.825455 
L 298.138797 290.825455 
L 301.43595 290.825455 
L 304.733104 290.825455 
L 308.030257 290.825455 
L 311.32741 290.825455 
L 314.624564 290.825455 
L 317.921717 290.825455 
L 321.218871 290.825455 
L 324.516024 290.825455 
L 327.813177 290.825455 
L 331.110331 290.825455 
L 334.407484 290.825455 
L 337.704637 290.825455 
L 341.001791 290.825455 
L 344.298944 290.825455 
L 347.596097 290.825455 
L 350.893251 290.825455 
L 354.190404 290.825455 
L 357.487557 290.825455 
L 360.784711 290.825455 
L 364.081864 290.825455 
L 367.379017 290.825455 
L 370.676171 290.825455 
L 373.973324 290.825455 
L 377.270478 290.825455 
L 380.567631 290.825455 
L 383.864784 290.825455 
L 387.161938 290.825455 
L 390.459091 290.825455 
" style="fill:none;stroke:#9467bd;stroke-linecap:square;stroke-width:1.5;"/>
   </g>
   <g id="patch_3">
    <path d="M 47.72 303.64 
L 47.72 21.72 
" style="fill:none;stroke:#000000;stroke-linecap:square;stroke-linejoin:miter;stroke-width:0.8;"/>
   </g>
   <g id="patch_4">
    <path d="M 406.78 303.64 
L 406.78 21.72 
" style="fill:none;stroke:#000000;stroke-linecap:square;stroke-linejoin:miter;stroke-width:0.8;"/>
   </g>
   <g id="patch_5">
    <path d="M 47.72 303.64 
L 406.78 303.64 
" style="fill:none;stroke:#000000;stroke-linecap:square;stroke-linejoin:miter;stroke-width:0.8;"/>
   </g>
   <g id="patch_6">
    <path d="M 47.72 21.72 
L 406.78 21.72 
" style="fill:none;stroke:#000000;stroke-linecap:square;stroke-linejoin:miter;stroke-width:0.8;"/>
   </g>
   <g id="legend_1">
    <g id="patch_7">
     <path d="M 334.587813 103.110625 
L 399.78 103.110625 
Q 401.78 103.110625 401.78 101.110625 
L 401.78 28.72 
Q 401.78 26.72 399.78 26.72 
L 334.587813 26.72 
Q 332.587813 26.72 332.587813 28.72 
L 332.587813 101.110625 
Q 332.587813 103.110625 334.587813 103.110625 
z
" style="fill:#ffffff;opacity:0.8;stroke:#cccccc;stroke-linejoin:miter;"/>
    </g>
    <g id="line2d_20">
     <path d="M 336.587813 34.818438 
L 356.587813 34.818438 
" style="fill:none;stroke:#1f77b4;stroke-linecap:square;stroke-width:1.5;"/>
    </g>
    <g id="line2d_21"/>
    <g id="text_19">
     <!-- HOT -->
     <g transform="translate(364.587813 38.318438)scale(0.1 -0.1)">
      <defs>
       <path d="M 628 4666 
L 1259 4666 
L 1259 2753 
L 3553 2753 
L 3553 4666 
L 4184 4666 
L 4184 0 
L 3553 0 
L 3553 2222 
L 1259 2222 
L 1259 0 
L 628 0 
L 628 4666 
z
" id="DejaVuSans-48" transform="scale(0.015625)"/>
       <path d="M 2522 4238 
Q 1834 4238 1429 3725 
Q 1025 3213 1025 2328 
Q 1025 1447 1429 934 
Q 1834 422 2522 422 
Q 3209 422 3611 934 
Q 4013 1447 4013 2328 
Q 4013 3213 3611 3725 
Q 3209 4238 2522 4238 
z
M 2522 4750 
Q 3503 4750 4090 4092 
Q 4678 3434 4678 2328 
Q 4678 1225 4090 567 
Q 3503 -91 2522 -91 
Q 1538 -91 948 565 
Q 359 1222 359 2328 
Q 359 3434 948 4092 
Q 1538 4750 2522 4750 
z
" id="DejaVuSans-4f" transform="scale(0.015625)"/>
       <path d="M -19 4666 
L 3928 4666 
L 3928 4134 
L 2272 4134 
L 2272 0 
L 1638 0 
L 1638 4134 
L -19 4134 
L -19 4666 
z
" id="DejaVuSans-54" transform="scale(0.015625)"/>
      </defs>
      <use xlink:href="#DejaVuSans-48"/>
      <use x="75.195312" xlink:href="#DejaVuSans-4f"/>
      <use x="153.90625" xlink:href="#DejaVuSans-54"/>
     </g>
    </g>
    <g id="line2d_22">
     <path d="M 336.587813 49.496563 
L 356.587813 49.496563 
" style="fill:none;stroke:#ff7f0e;stroke-linecap:square;stroke-width:1.5;"/>
    </g>
    <g id="line2d_23"/>
    <g id="text_20">
     <!-- WARM -->
     <g transform="translate(364.587813 52.996563)scale(0.1 -0.1)">
      <defs>
       <path d="M 213 4666 
L 850 4666 
L 1831 722 
L 2809 4666 
L 3519 4666 
L 4500 722 
L 5478 4666 
L 6119 4666 
L 4947 0 
L 4153 0 
L 3169 4050 
L 2175 0 
L 1381 0 
L 213 4666 
z
" id="DejaVuSans-57" transform="scale(0.015625)"/>
       <path d="M 2188 4044 
L 1331 1722 
L 3047 1722 
L 2188 4044 
z
M 1831 4666 
L 2547 4666 
L 4325 0 
L 3669 0 
L 3244 1197 
L 1141 1197 
L 716 0 
L 50 0 
L 1831 4666 
z
" id="DejaVuSans-41" transform="scale(0.015625)"/>
       <path d="M 628 4666 
L 1569 4666 
L 2759 1491 
L 3956 4666 
L 4897 4666 
L 4897 0 
L 4281 0 
L 4281 4097 
L 3078 897 
L 2444 897 
L 1241 4097 
L 1241 0 
L 628 0 
L 628 4666 
z
" id="DejaVuSans-4d" transform="scale(0.015625)"/>
      </defs>
      <use xlink:href="#DejaVuSans-57"/>
      <use x="93.376953" xlink:href="#DejaVuSans-41"/>
      <use x="161.785156" xlink:href="#DejaVuSans-52"/>
      <use x="231.267578" xlink:href="#DejaVuSans-4d"/>
     </g>
    </g>
    <g id="line2d_24">
     <path d="M 336.587813 64.174688 
L 356.587813 64.174688 
" style="fill:none;stroke:#2ca02c;stroke-linecap:square;stroke-width:1.5;"/>
    </g>
    <g id="line2d_25"/>
    <g id="text_21">
     <!-- MILD -->
     <g transform="translate(364.587813 67.674688)scale(0.1 -0.1)">
      <defs>
       <path d="M 628 4666 
L 1259 4666 
L 1259 0 
L 628 0 
L 628 4666 
z
" id="DejaVuSans-49" transform="scale(0.015625)"/>
       <path d="M 628 4666 
L 1259 4666 
L 1259 531 
L 3531 531 
L 3531 0 
L 628 0 
L 628 4666 
z
" id="DejaVuSans-4c" transform="scale(0.015625)"/>
       <path d="M 1259 4147 
L 1259 519 
L 2022 519 
Q 2988 519 3436 956 
Q 3884 1394 3884 2338 
Q 3884 3275 3436 3711 
Q 2988 4147 2022 4147 
L 1259 4147 
z
M 628 4666 
L 1925 4666 
Q 3281 4666 3915 4102 
Q 4550 3538 4550 2338 
Q 4550 1131 3912 565 
Q 3275 0 1925 0 
L 628 0 
L 628 4666 
z
" id="DejaVuSans-44" transform="scale(0.015625)"/>
      </defs>
      <use xlink:href="#DejaVuSans-4d"/>
      <use x="86.279297" xlink:href="#DejaVuSans-49"/>
      <use x="115.771484" xlink:href="#DejaVuSans-4c"/>
      <use x="171.484375" xlink:href="#DejaVuSans-44"/>
     </g>
    </g>
    <g id="line2d_26">
     <path d="M 336.587813 78.852813 
L 356.587813 78.852813 
" style="fill:none;stroke:#d62728;stroke-linecap:square;stroke-width:1.5;"/>
    </g>
    <g id="line2d_27"/>
    <g id="text_22">
     <!-- COLD -->
     <g transform="translate(364.587813 82.352813)scale(0.1 -0.1)">
      <defs>
       <path d="M 4122 4306 
L 4122 3641 
Q 3803 3938 3442 4084 
Q 3081 4231 2675 4231 
Q 1875 4231 1450 3742 
Q 1025 3253 1025 2328 
Q 1025 1406 1450 917 
Q 1875 428 2675 428 
Q 3081 428 3442 575 
Q 3803 722 4122 1019 
L 4122 359 
Q 3791 134 3420 21 
Q 3050 -91 2638 -91 
Q 1578 -91 968 557 
Q 359 1206 359 2328 
Q 359 3453 968 4101 
Q 1578 4750 2638 4750 
Q 3056 4750 3426 4639 
Q 3797 4528 4122 4306 
z
" id="DejaVuSans-43" transform="scale(0.015625)"/>
      </defs>
      <use xlink:href="#DejaVuSans-43"/>
      <use x="69.824219" xlink:href="#DejaVuSans-4f"/>
      <use x="148.535156" xlink:href="#DejaVuSans-4c"/>
      <use x="204.248047" xlink:href="#DejaVuSans-44"/>
     </g>
    </g>
    <g id="line2d_28">
     <path d="M 336.587813 93.530938 
L 356.587813 93.530938 
" style="fill:none;stroke:#9467bd;stroke-linecap:square;stroke-width:1.5;"/>
    </g>
    <g id="line2d_29"/>
    <g id="text_23">
     <!-- EMPTY -->
     <g transform="translate(364.587813 97.030938)scale(0.1 -0.1)">
      <defs>
       <path d="M 628 4666 
L 3578 4666 
L 3578 4134 
L 1259 4134 
L 1259 2753 
L 3481 2753 
L 3481 2222 
L 1259 2222 
L 1259 531 
L 3634 531 
L 3634 0 
L 628 0 
L 628 4666 
z
" id="DejaVuSans-45" transform="scale(0.015625)"/>
       <path d="M 1259 4147 
L 1259 2394 
L 2053 2394 
Q 2494 2394 2734 2622 
Q 2975 2850 2975 3272 
Q 2975 3691 2734 3919 
Q 2494 4147 2053 4147 
L 1259 4147 
z
M 628 4666 
L 2053 4666 
Q 2838 4666 3239 4311 
Q 3641 3956 3641 3272 
Q 3641 2581 3239 2228 
Q 2838 1875 2053 1875 
L 1259 1875 
L 1259 0 
L 628 0 
L 628 4666 
z
" id="DejaVuSans-50" transform="scale(0.015625)"/>
       <path d="M -13 4666 
L 666 4666 
L 1959 2747 
L 3244 4666 
L 3922 4666 
L 2272 2222 
L 2272 0 
L 1638 0 
L 1638 2222 
L -13 4666 
z
" id="DejaVuSans-59" transform="scale(0.015625)"/>
      </defs>
      <use xlink:href="#DejaVuSans-45"/>
      <use x="63.183594" xlink:href="#DejaVuSans-4d"/>
      <use x="149.462891" xlink:href="#DejaVuSans-50"/>
      <use x="209.765625" xlink:href="#DejaVuSans-54"/>
      <use x="270.849609" xlink:href="#DejaVuSans-59"/>
     </g>
    </g>
   </g>
  </g>
  <g id="axes_2">
   <g id="matplotlib.axis_3">
    <g id="ytick_9">
     <g id="line2d_30">
      <defs>
       <path d="M 0 0 
L 3.5 0 
" id="mcf34fe57a7" style="stroke:#000000;stroke-width:0.8;"/>
      </defs>
      <g>
       <use style="stroke:#000000;stroke-width:0.8;" x="406.78" xlink:href="#mcf34fe57a7" y="283.914523"/>
      </g>
     </g>
     <g id="text_24">
      <!-- 0.60 -->
      <g transform="translate(413.78 287.713742)scale(0.1 -0.1)">
       <use xlink:href="#DejaVuSans-30"/>
       <use x="63.623047" xlink:href="#DejaVuSans-2e"/>
       <use x="95.410156" xlink:href="#DejaVuSans-36"/>
       <use x="159.033203" xlink:href="#DejaVuSans-30"/>
      </g>
     </g>
    </g>
    <g id="ytick_10">
     <g id="line2d_31">
      <g>
       <use style="stroke:#000000;stroke-width:0.8;" x="406.78" xlink:href="#mcf34fe57a7" y="238.283696"/>
      </g>
     </g>
     <g id="text_25">
      <!-- 0.65 -->
      <g transform="translate(413.78 242.082915)scale(0.1 -0.1)">
       <defs>
        <path d="M 691 4666 
L 3169 4666 
L 3169 4134 
L 1269 4134 
L 1269 2991 
Q 1406 3038 1543 3061 
Q 1681 3084 1819 3084 
Q 2600 3084 3056 2656 
Q 3513 2228 3513 1497 
Q 3513 744 3044 326 
Q 2575 -91 1722 -91 
Q 1428 -91 1123 -41 
Q 819 9 494 109 
L 494 744 
Q 775 591 1075 516 
Q 1375 441 1709 441 
Q 2250 441 2565 725 
Q 2881 1009 2881 1497 
Q 2881 1984 2565 2268 
Q 2250 2553 1709 2553 
Q 1456 2553 1204 2497 
Q 953 2441 691 2322 
L 691 4666 
z
" id="DejaVuSans-35" transform="scale(0.015625)"/>
       </defs>
       <use xlink:href="#DejaVuSans-30"/>
       <use x="63.623047" xlink:href="#DejaVuSans-2e"/>
       <use x="95.410156" xlink:href="#DejaVuSans-36"/>
       <use x="159.033203" xlink:href="#DejaVuSans-35"/>
      </g>
     </g>
    </g>
    <g id="ytick_11">
     <g id="line2d_32">
      <g>
       <use style="stroke:#000000;stroke-width:0.8;" x="406.78" xlink:href="#mcf34fe57a7" y="192.652869"/>
      </g>
     </g>
     <g id="text_26">
      <!-- 0.70 -->
      <g transform="translate(413.78 196.452088)scale(0.1 -0.1)">
       <defs>
        <path d="M 525 4666 
L 3525 4666 
L 3525 4397 
L 1831 0 
L 1172 0 
L 2766 4134 
L 525 4134 
L 525 4666 
z
" id="DejaVuSans-37" transform="scale(0.015625)"/>
       </defs>
       <use xlink:href="#DejaVuSans-30"/>
       <use x="63.623047" xlink:href="#DejaVuSans-2e"/>
       <use x="95.410156" xlink:href="#DejaVuSans-37"/>
       <use x="159.033203" xlink:href="#DejaVuSans-30"/>
      </g>
     </g>
    </g>
    <g id="ytick_12">
     <g id="line2d_33">
      <g>
       <use style="stroke:#000000;stroke-width:0.8;" x="406.78" xlink:href="#mcf34fe57a7" y="147.022042"/>
      </g>
     </g>
     <g id="text_27">
      <!-- 0.75 -->
      <g transform="translate(413.78 150.82126)scale(0.1 -0.1)">
       <use xlink:href="#DejaVuSans-30"/>
       <use x="63.623047" xlink:href="#DejaVuSans-2e"/>
       <use x="95.410156" xlink:href="#DejaVuSans-37"/>
       <use x="159.033203" xlink:href="#DejaVuSans-35"/>
      </g>
     </g>
    </g>
    <g id="ytick_13">
     <g id="line2d_34">
      <g>
       <use style="stroke:#000000;stroke-width:0.8;" x="406.78" xlink:href="#mcf34fe57a7" y="101.391215"/>
      </g>
     </g>
     <g id="text_28">
      <!-- 0.80 -->
      <g transform="translate(413.78 105.190433)scale(0.1 -0.1)">
       <use xlink:href="#DejaVuSans-30"/>
       <use x="63.623047" xlink:href="#DejaVuSans-2e"/>
       <use x="95.410156" xlink:href="#DejaVuSans-38"/>
       <use x="159.033203" xlink:href="#DejaVuSans-30"/>
      </g>
     </g>
    </g>
    <g id="ytick_14">
     <g id="line2d_35">
      <g>
       <use style="stroke:#000000;stroke-width:0.8;" x="406.78" xlink:href="#mcf34fe57a7" y="55.760387"/>
      </g>
     </g>
     <g id="text_29">
      <!-- 0.85 -->
      <g transform="translate(413.78 59.559606)scale(0.1 -0.1)">
       <use xlink:href="#DejaVuSans-30"/>
       <use x="63.623047" xlink:href="#DejaVuSans-2e"/>
       <use x="95.410156" xlink:href="#DejaVuSans-38"/>
       <use x="159.033203" xlink:href="#DejaVuSans-35"/>
      </g>
     </g>
    </g>
    <g id="text_30">
     <!-- Taux de HIT -->
     <g transform="translate(447.644063 191.819062)rotate(-90)scale(0.1 -0.1)">
      <defs>
       <path d="M 2194 1759 
Q 1497 1759 1228 1600 
Q 959 1441 959 1056 
Q 959 750 1161 570 
Q 1363 391 1709 391 
Q 2188 391 2477 730 
Q 2766 1069 2766 1631 
L 2766 1759 
L 2194 1759 
z
M 3341 1997 
L 3341 0 
L 2766 0 
L 2766 531 
Q 2569 213 2275 61 
Q 1981 -91 1556 -91 
Q 1019 -91 701 211 
Q 384 513 384 1019 
Q 384 1609 779 1909 
Q 1175 2209 1959 2209 
L 2766 2209 
L 2766 2266 
Q 2766 2663 2505 2880 
Q 2244 3097 1772 3097 
Q 1472 3097 1187 3025 
Q 903 2953 641 2809 
L 641 3341 
Q 956 3463 1253 3523 
Q 1550 3584 1831 3584 
Q 2591 3584 2966 3190 
Q 3341 2797 3341 1997 
z
" id="DejaVuSans-61" transform="scale(0.015625)"/>
       <path d="M 3513 3500 
L 2247 1797 
L 3578 0 
L 2900 0 
L 1881 1375 
L 863 0 
L 184 0 
L 1544 1831 
L 300 3500 
L 978 3500 
L 1906 2253 
L 2834 3500 
L 3513 3500 
z
" id="DejaVuSans-78" transform="scale(0.015625)"/>
      </defs>
      <use xlink:href="#DejaVuSans-54"/>
      <use x="44.583984" xlink:href="#DejaVuSans-61"/>
      <use x="105.863281" xlink:href="#DejaVuSans-75"/>
      <use x="169.242188" xlink:href="#DejaVuSans-78"/>
      <use x="228.421875" xlink:href="#DejaVuSans-20"/>
      <use x="260.208984" xlink:href="#DejaVuSans-64"/>
      <use x="323.685547" xlink:href="#DejaVuSans-65"/>
      <use x="385.208984" xlink:href="#DejaVuSans-20"/>
      <use x="416.996094" xlink:href="#DejaVuSans-48"/>
      <use x="492.191406" xlink:href="#DejaVuSans-49"/>
      <use x="521.683594" xlink:href="#DejaVuSans-54"/>
     </g>
    </g>
   </g>
   <g id="line2d_36">
    <path clip-path="url(#pc401bd364a)" d="M 64.040909 290.825455 
L 67.338062 216.001062 
L 70.635216 204.117744 
L 73.932369 199.792525 
L 77.229522 197.504677 
L 80.526676 196.075982 
L 83.823829 195.11933 
L 87.120983 194.72221 
L 90.418136 194.023986 
L 93.715289 193.796784 
L 97.012443 192.5148 
L 100.309596 192.75956 
L 103.606749 192.144998 
L 106.903903 71.298023 
L 110.201056 91.412163 
L 113.498209 140.880718 
L 116.795363 163.418228 
L 120.092516 175.130068 
L 123.389669 181.718299 
L 126.686823 185.212879 
L 129.983976 187.537039 
L 133.281129 189.081868 
L 136.578283 190.449396 
L 139.875436 190.216494 
L 143.17259 190.792772 
L 146.469743 191.280664 
L 149.766896 146.225627 
L 153.06405 49.910594 
L 156.361203 125.10002 
L 159.658356 155.747146 
L 162.95551 171.129634 
L 166.252663 179.467932 
L 169.549816 183.880205 
L 172.84697 186.613452 
L 176.144123 188.699189 
L 179.441276 189.687733 
L 182.73843 190.51993 
L 186.035583 190.473675 
L 189.332736 191.138346 
L 192.62989 191.246966 
L 195.927043 52.2193 
L 199.224197 102.493376 
L 202.52135 145.449521 
L 205.818503 165.800063 
L 209.115657 176.420193 
L 212.41281 182.310732 
L 215.709963 185.648629 
L 219.007117 187.919426 
L 222.30427 189.258655 
L 225.601423 190.519008 
L 228.898577 190.235079 
L 232.19573 191.004676 
L 235.492883 191.152038 
L 238.790037 112.729249 
L 242.08719 68.018102 
L 245.384343 131.424331 
L 248.681497 159.036658 
L 251.97865 172.534336 
L 255.275803 180.449254 
L 258.572957 184.373673 
L 261.87011 187.019072 
L 265.167264 188.888888 
L 268.464417 189.819265 
L 271.76157 190.435567 
L 275.058724 190.677164 
L 278.355877 191.132193 
L 281.65303 191.398083 
L 284.950184 36.368762 
L 288.247337 111.88045 
L 291.54449 149.600437 
L 294.841644 168.076196 
L 298.138797 177.432191 
L 301.43595 182.977345 
L 304.733104 186.112767 
L 308.030257 188.317523 
L 311.32741 189.40359 
L 314.624564 190.540216 
L 317.921717 190.256431 
L 321.218871 191.003907 
L 324.516024 191.206808 
L 327.813177 86.346483 
L 331.110331 82.684571 
L 334.407484 137.206062 
L 337.704637 161.688584 
L 341.001791 174.109489 
L 344.298944 181.202547 
L 347.596097 184.958891 
L 350.893251 187.336462 
L 354.190404 188.933181 
L 357.487557 190.236001 
L 360.784711 190.391623 
L 364.081864 190.548669 
L 367.379017 191.422862 
L 370.676171 175.925718 
L 373.973324 34.534545 
L 377.270478 120.092292 
L 380.567631 153.375388 
L 383.864784 169.965688 
L 387.161938 178.604352 
L 390.459091 183.526094 
" style="fill:none;stroke:#1f77b4;stroke-linecap:square;stroke-width:1.5;"/>
   </g>
   <g id="patch_8">
    <path d="M 47.72 303.64 
L 47.72 21.72 
" style="fill:none;stroke:#000000;stroke-linecap:square;stroke-linejoin:miter;stroke-width:0.8;"/>
   </g>
   <g id="patch_9">
    <path d="M 406.78 303.64 
L 406.78 21.72 
" style="fill:none;stroke:#000000;stroke-linecap:square;stroke-linejoin:miter;stroke-width:0.8;"/>
   </g>
   <g id="patch_10">
    <path d="M 47.72 303.64 
L 406.78 303.64 
" style="fill:none;stroke:#000000;stroke-linecap:square;stroke-linejoin:miter;stroke-width:0.8;"/>
   </g>
   <g id="patch_11">
    <path d="M 47.72 21.72 
L 406.78 21.72 
" style="fill:none;stroke:#000000;stroke-linecap:square;stroke-linejoin:miter;stroke-width:0.8;"/>
   </g>
   <g id="legend_2">
    <g id="patch_12">
     <path d="M 54.72 44.398125 
L 103.298125 44.398125 
Q 105.298125 44.398125 105.298125 42.398125 
L 105.298125 28.72 
Q 105.298125 26.72 103.298125 26.72 
L 54.72 26.72 
Q 52.72 26.72 52.72 28.72 
L 52.72 42.398125 
Q 52.72 44.398125 54.72 44.398125 
z
" style="fill:#ffffff;opacity:0.8;stroke:#cccccc;stroke-linejoin:miter;"/>
    </g>
    <g id="line2d_37">
     <path d="M 56.72 34.818438 
L 76.72 34.818438 
" style="fill:none;stroke:#1f77b4;stroke-linecap:square;stroke-width:1.5;"/>
    </g>
    <g id="line2d_38"/>
    <g id="text_31">
     <!-- HIT -->
     <g transform="translate(84.72 38.318438)scale(0.1 -0.1)">
      <use xlink:href="#DejaVuSans-48"/>
      <use x="75.195312" xlink:href="#DejaVuSans-49"/>
      <use x="104.6875" xlink:href="#DejaVuSans-54"/>
     </g>
    </g>
   </g>
  </g>
 </g>
 <defs>
  <clipPath id="pc401bd364a">
   <rect height="281.92" width="359.06" x="47.72" y="21.72"/>
  </clipPath>
 </defs>
</svg>
