<?xml version="1.0" encoding="utf-8" standalone="no"?>
<!DOCTYPE svg PUBLIC "-//W3C//DTD SVG 1.1//EN"
  "http://www.w3.org/Graphics/SVG/1.1/DTD/svg11.dtd">
<svg height="345.6pt" version="1.1" viewBox="0 0 460.8 345.6" width="460.8pt" xmlns="http://www.w3.org/2000/svg" xmlns:xlink="http://www.w3.org/1999/xlink">
 <metadata>
  <rdf:RDF xmlns:cc="http://creativecommons.org/ns#" xmlns:dc="http://purl.org/dc/elements/1.1/" xmlns:rdf="http://www.w3.org/1999/02/22-rdf-syntax-ns#">
   <cc:Work>
    <dc:type rdf:resource="http://purl.org/dc/dcmitype/StillImage"/>
    <dc:date>2021-07-21T00:30:20.902586</dc:date>
    <dc:format>image/svg+xml</dc:format>
    <dc:creator>
     <cc:Agent>
      <dc:title>Matplotlib v3.4.2, https://matplotlib.org/</dc:title>
     </cc:Agent>
    </dc:creator>
   </cc:Work>
  </rdf:RDF>
 </metadata>
 <defs>
  <style type="text/css">*{stroke-linecap:butt;stroke-linejoin:round;}</style>
 </defs>
 <g id="figure_1">
  <g id="patch_1">
   <path d="M 0 345.6 
L 460.8 345.6 
L 460.8 0 
L 0 0 
z
" style="fill:#ffffff;"/>
  </g>
  <g id="axes_1">
   <g id="patch_2">
    <path d="M 47.72 303.64 
L 406.69 303.64 
L 406.69 21.72 
L 47.72 21.72 
z
" style="fill:#ffffff;"/>
   </g>
   <g id="matplotlib.axis_1">
    <g id="xtick_1">
     <g id="line2d_1">
      <defs>
       <path d="M 0 0 
L 0 3.5 
" id="m0021c7a9b9" style="stroke:#000000;stroke-width:0.8;"/>
      </defs>
      <g>
       <use style="stroke:#000000;stroke-width:0.8;" x="60.740491" xlink:href="#m0021c7a9b9" y="303.64"/>
      </g>
     </g>
     <g id="text_1">
      <!-- 0.0 -->
      <g transform="translate(52.788929 318.238437)scale(0.1 -0.1)">
       <defs>
        <path d="M 2034 4250 
Q 1547 4250 1301 3770 
Q 1056 3291 1056 2328 
Q 1056 1369 1301 889 
Q 1547 409 2034 409 
Q 2525 409 2770 889 
Q 3016 1369 3016 2328 
Q 3016 3291 2770 3770 
Q 2525 4250 2034 4250 
z
M 2034 4750 
Q 2819 4750 3233 4129 
Q 3647 3509 3647 2328 
Q 3647 1150 3233 529 
Q 2819 -91 2034 -91 
Q 1250 -91 836 529 
Q 422 1150 422 2328 
Q 422 3509 836 4129 
Q 1250 4750 2034 4750 
z
" id="DejaVuSans-30" transform="scale(0.015625)"/>
        <path d="M 684 794 
L 1344 794 
L 1344 0 
L 684 0 
L 684 794 
z
" id="DejaVuSans-2e" transform="scale(0.015625)"/>
       </defs>
       <use xlink:href="#DejaVuSans-30"/>
       <use x="63.623047" xlink:href="#DejaVuSans-2e"/>
       <use x="95.410156" xlink:href="#DejaVuSans-30"/>
      </g>
     </g>
    </g>
    <g id="xtick_2">
     <g id="line2d_2">
      <g>
       <use style="stroke:#000000;stroke-width:0.8;" x="126.667029" xlink:href="#m0021c7a9b9" y="303.64"/>
      </g>
     </g>
     <g id="text_2">
      <!-- 0.2 -->
      <g transform="translate(118.715467 318.238437)scale(0.1 -0.1)">
       <defs>
        <path d="M 1228 531 
L 3431 531 
L 3431 0 
L 469 0 
L 469 531 
Q 828 903 1448 1529 
Q 2069 2156 2228 2338 
Q 2531 2678 2651 2914 
Q 2772 3150 2772 3378 
Q 2772 3750 2511 3984 
Q 2250 4219 1831 4219 
Q 1534 4219 1204 4116 
Q 875 4013 500 3803 
L 500 4441 
Q 881 4594 1212 4672 
Q 1544 4750 1819 4750 
Q 2544 4750 2975 4387 
Q 3406 4025 3406 3419 
Q 3406 3131 3298 2873 
Q 3191 2616 2906 2266 
Q 2828 2175 2409 1742 
Q 1991 1309 1228 531 
z
" id="DejaVuSans-32" transform="scale(0.015625)"/>
       </defs>
       <use xlink:href="#DejaVuSans-30"/>
       <use x="63.623047" xlink:href="#DejaVuSans-2e"/>
       <use x="95.410156" xlink:href="#DejaVuSans-32"/>
      </g>
     </g>
    </g>
    <g id="xtick_3">
     <g id="line2d_3">
      <g>
       <use style="stroke:#000000;stroke-width:0.8;" x="192.593567" xlink:href="#m0021c7a9b9" y="303.64"/>
      </g>
     </g>
     <g id="text_3">
      <!-- 0.4 -->
      <g transform="translate(184.642005 318.238437)scale(0.1 -0.1)">
       <defs>
        <path d="M 2419 4116 
L 825 1625 
L 2419 1625 
L 2419 4116 
z
M 2253 4666 
L 3047 4666 
L 3047 1625 
L 3713 1625 
L 3713 1100 
L 3047 1100 
L 3047 0 
L 2419 0 
L 2419 1100 
L 313 1100 
L 313 1709 
L 2253 4666 
z
" id="DejaVuSans-34" transform="scale(0.015625)"/>
       </defs>
       <use xlink:href="#DejaVuSans-30"/>
       <use x="63.623047" xlink:href="#DejaVuSans-2e"/>
       <use x="95.410156" xlink:href="#DejaVuSans-34"/>
      </g>
     </g>
    </g>
    <g id="xtick_4">
     <g id="line2d_4">
      <g>
       <use style="stroke:#000000;stroke-width:0.8;" x="258.520106" xlink:href="#m0021c7a9b9" y="303.64"/>
      </g>
     </g>
     <g id="text_4">
      <!-- 0.6 -->
      <g transform="translate(250.568543 318.238437)scale(0.1 -0.1)">
       <defs>
        <path d="M 2113 2584 
Q 1688 2584 1439 2293 
Q 1191 2003 1191 1497 
Q 1191 994 1439 701 
Q 1688 409 2113 409 
Q 2538 409 2786 701 
Q 3034 994 3034 1497 
Q 3034 2003 2786 2293 
Q 2538 2584 2113 2584 
z
M 3366 4563 
L 3366 3988 
Q 3128 4100 2886 4159 
Q 2644 4219 2406 4219 
Q 1781 4219 1451 3797 
Q 1122 3375 1075 2522 
Q 1259 2794 1537 2939 
Q 1816 3084 2150 3084 
Q 2853 3084 3261 2657 
Q 3669 2231 3669 1497 
Q 3669 778 3244 343 
Q 2819 -91 2113 -91 
Q 1303 -91 875 529 
Q 447 1150 447 2328 
Q 447 3434 972 4092 
Q 1497 4750 2381 4750 
Q 2619 4750 2861 4703 
Q 3103 4656 3366 4563 
z
" id="DejaVuSans-36" transform="scale(0.015625)"/>
       </defs>
       <use xlink:href="#DejaVuSans-30"/>
       <use x="63.623047" xlink:href="#DejaVuSans-2e"/>
       <use x="95.410156" xlink:href="#DejaVuSans-36"/>
      </g>
     </g>
    </g>
    <g id="xtick_5">
     <g id="line2d_5">
      <g>
       <use style="stroke:#000000;stroke-width:0.8;" x="324.446644" xlink:href="#m0021c7a9b9" y="303.64"/>
      </g>
     </g>
     <g id="text_5">
      <!-- 0.8 -->
      <g transform="translate(316.495081 318.238437)scale(0.1 -0.1)">
       <defs>
        <path d="M 2034 2216 
Q 1584 2216 1326 1975 
Q 1069 1734 1069 1313 
Q 1069 891 1326 650 
Q 1584 409 2034 409 
Q 2484 409 2743 651 
Q 3003 894 3003 1313 
Q 3003 1734 2745 1975 
Q 2488 2216 2034 2216 
z
M 1403 2484 
Q 997 2584 770 2862 
Q 544 3141 544 3541 
Q 544 4100 942 4425 
Q 1341 4750 2034 4750 
Q 2731 4750 3128 4425 
Q 3525 4100 3525 3541 
Q 3525 3141 3298 2862 
Q 3072 2584 2669 2484 
Q 3125 2378 3379 2068 
Q 3634 1759 3634 1313 
Q 3634 634 3220 271 
Q 2806 -91 2034 -91 
Q 1263 -91 848 271 
Q 434 634 434 1313 
Q 434 1759 690 2068 
Q 947 2378 1403 2484 
z
M 1172 3481 
Q 1172 3119 1398 2916 
Q 1625 2713 2034 2713 
Q 2441 2713 2670 2916 
Q 2900 3119 2900 3481 
Q 2900 3844 2670 4047 
Q 2441 4250 2034 4250 
Q 1625 4250 1398 4047 
Q 1172 3844 1172 3481 
z
" id="DejaVuSans-38" transform="scale(0.015625)"/>
       </defs>
       <use xlink:href="#DejaVuSans-30"/>
       <use x="63.623047" xlink:href="#DejaVuSans-2e"/>
       <use x="95.410156" xlink:href="#DejaVuSans-38"/>
      </g>
     </g>
    </g>
    <g id="xtick_6">
     <g id="line2d_6">
      <g>
       <use style="stroke:#000000;stroke-width:0.8;" x="390.373182" xlink:href="#m0021c7a9b9" y="303.64"/>
      </g>
     </g>
     <g id="text_6">
      <!-- 1.0 -->
      <g transform="translate(382.421619 318.238437)scale(0.1 -0.1)">
       <defs>
        <path d="M 794 531 
L 1825 531 
L 1825 4091 
L 703 3866 
L 703 4441 
L 1819 4666 
L 2450 4666 
L 2450 531 
L 3481 531 
L 3481 0 
L 794 0 
L 794 531 
z
" id="DejaVuSans-31" transform="scale(0.015625)"/>
       </defs>
       <use xlink:href="#DejaVuSans-31"/>
       <use x="63.623047" xlink:href="#DejaVuSans-2e"/>
       <use x="95.410156" xlink:href="#DejaVuSans-30"/>
      </g>
     </g>
    </g>
    <g id="text_7">
     <!-- Requetes -->
     <g transform="translate(203.818281 331.916562)scale(0.1 -0.1)">
      <defs>
       <path d="M 2841 2188 
Q 3044 2119 3236 1894 
Q 3428 1669 3622 1275 
L 4263 0 
L 3584 0 
L 2988 1197 
Q 2756 1666 2539 1819 
Q 2322 1972 1947 1972 
L 1259 1972 
L 1259 0 
L 628 0 
L 628 4666 
L 2053 4666 
Q 2853 4666 3247 4331 
Q 3641 3997 3641 3322 
Q 3641 2881 3436 2590 
Q 3231 2300 2841 2188 
z
M 1259 4147 
L 1259 2491 
L 2053 2491 
Q 2509 2491 2742 2702 
Q 2975 2913 2975 3322 
Q 2975 3731 2742 3939 
Q 2509 4147 2053 4147 
L 1259 4147 
z
" id="DejaVuSans-52" transform="scale(0.015625)"/>
       <path d="M 3597 1894 
L 3597 1613 
L 953 1613 
Q 991 1019 1311 708 
Q 1631 397 2203 397 
Q 2534 397 2845 478 
Q 3156 559 3463 722 
L 3463 178 
Q 3153 47 2828 -22 
Q 2503 -91 2169 -91 
Q 1331 -91 842 396 
Q 353 884 353 1716 
Q 353 2575 817 3079 
Q 1281 3584 2069 3584 
Q 2775 3584 3186 3129 
Q 3597 2675 3597 1894 
z
M 3022 2063 
Q 3016 2534 2758 2815 
Q 2500 3097 2075 3097 
Q 1594 3097 1305 2825 
Q 1016 2553 972 2059 
L 3022 2063 
z
" id="DejaVuSans-65" transform="scale(0.015625)"/>
       <path d="M 947 1747 
Q 947 1113 1208 752 
Q 1469 391 1925 391 
Q 2381 391 2643 752 
Q 2906 1113 2906 1747 
Q 2906 2381 2643 2742 
Q 2381 3103 1925 3103 
Q 1469 3103 1208 2742 
Q 947 2381 947 1747 
z
M 2906 525 
Q 2725 213 2448 61 
Q 2172 -91 1784 -91 
Q 1150 -91 751 415 
Q 353 922 353 1747 
Q 353 2572 751 3078 
Q 1150 3584 1784 3584 
Q 2172 3584 2448 3432 
Q 2725 3281 2906 2969 
L 2906 3500 
L 3481 3500 
L 3481 -1331 
L 2906 -1331 
L 2906 525 
z
" id="DejaVuSans-71" transform="scale(0.015625)"/>
       <path d="M 544 1381 
L 544 3500 
L 1119 3500 
L 1119 1403 
Q 1119 906 1312 657 
Q 1506 409 1894 409 
Q 2359 409 2629 706 
Q 2900 1003 2900 1516 
L 2900 3500 
L 3475 3500 
L 3475 0 
L 2900 0 
L 2900 538 
Q 2691 219 2414 64 
Q 2138 -91 1772 -91 
Q 1169 -91 856 284 
Q 544 659 544 1381 
z
M 1991 3584 
L 1991 3584 
z
" id="DejaVuSans-75" transform="scale(0.015625)"/>
       <path d="M 1172 4494 
L 1172 3500 
L 2356 3500 
L 2356 3053 
L 1172 3053 
L 1172 1153 
Q 1172 725 1289 603 
Q 1406 481 1766 481 
L 2356 481 
L 2356 0 
L 1766 0 
Q 1100 0 847 248 
Q 594 497 594 1153 
L 594 3053 
L 172 3053 
L 172 3500 
L 594 3500 
L 594 4494 
L 1172 4494 
z
" id="DejaVuSans-74" transform="scale(0.015625)"/>
       <path d="M 2834 3397 
L 2834 2853 
Q 2591 2978 2328 3040 
Q 2066 3103 1784 3103 
Q 1356 3103 1142 2972 
Q 928 2841 928 2578 
Q 928 2378 1081 2264 
Q 1234 2150 1697 2047 
L 1894 2003 
Q 2506 1872 2764 1633 
Q 3022 1394 3022 966 
Q 3022 478 2636 193 
Q 2250 -91 1575 -91 
Q 1294 -91 989 -36 
Q 684 19 347 128 
L 347 722 
Q 666 556 975 473 
Q 1284 391 1588 391 
Q 1994 391 2212 530 
Q 2431 669 2431 922 
Q 2431 1156 2273 1281 
Q 2116 1406 1581 1522 
L 1381 1569 
Q 847 1681 609 1914 
Q 372 2147 372 2553 
Q 372 3047 722 3315 
Q 1072 3584 1716 3584 
Q 2034 3584 2315 3537 
Q 2597 3491 2834 3397 
z
" id="DejaVuSans-73" transform="scale(0.015625)"/>
      </defs>
      <use xlink:href="#DejaVuSans-52"/>
      <use x="64.982422" xlink:href="#DejaVuSans-65"/>
      <use x="126.505859" xlink:href="#DejaVuSans-71"/>
      <use x="189.982422" xlink:href="#DejaVuSans-75"/>
      <use x="253.361328" xlink:href="#DejaVuSans-65"/>
      <use x="314.884766" xlink:href="#DejaVuSans-74"/>
      <use x="354.09375" xlink:href="#DejaVuSans-65"/>
      <use x="415.617188" xlink:href="#DejaVuSans-73"/>
     </g>
    </g>
    <g id="text_8">
     <!-- 1e9 -->
     <g transform="translate(387.811875 330.916562)scale(0.1 -0.1)">
      <defs>
       <path d="M 703 97 
L 703 672 
Q 941 559 1184 500 
Q 1428 441 1663 441 
Q 2288 441 2617 861 
Q 2947 1281 2994 2138 
Q 2813 1869 2534 1725 
Q 2256 1581 1919 1581 
Q 1219 1581 811 2004 
Q 403 2428 403 3163 
Q 403 3881 828 4315 
Q 1253 4750 1959 4750 
Q 2769 4750 3195 4129 
Q 3622 3509 3622 2328 
Q 3622 1225 3098 567 
Q 2575 -91 1691 -91 
Q 1453 -91 1209 -44 
Q 966 3 703 97 
z
M 1959 2075 
Q 2384 2075 2632 2365 
Q 2881 2656 2881 3163 
Q 2881 3666 2632 3958 
Q 2384 4250 1959 4250 
Q 1534 4250 1286 3958 
Q 1038 3666 1038 3163 
Q 1038 2656 1286 2365 
Q 1534 2075 1959 2075 
z
" id="DejaVuSans-39" transform="scale(0.015625)"/>
      </defs>
      <use xlink:href="#DejaVuSans-31"/>
      <use x="63.623047" xlink:href="#DejaVuSans-65"/>
      <use x="125.146484" xlink:href="#DejaVuSans-39"/>
     </g>
    </g>
   </g>
   <g id="matplotlib.axis_2">
    <g id="ytick_1">
     <g id="line2d_7">
      <defs>
       <path d="M 0 0 
L -3.5 0 
" id="mfddb9fce40" style="stroke:#000000;stroke-width:0.8;"/>
      </defs>
      <g>
       <use style="stroke:#000000;stroke-width:0.8;" x="47.72" xlink:href="#mfddb9fce40" y="293.15652"/>
      </g>
     </g>
     <g id="text_9">
      <!-- 0.0 -->
      <g transform="translate(24.816875 296.955738)scale(0.1 -0.1)">
       <use xlink:href="#DejaVuSans-30"/>
       <use x="63.623047" xlink:href="#DejaVuSans-2e"/>
       <use x="95.410156" xlink:href="#DejaVuSans-30"/>
      </g>
     </g>
    </g>
    <g id="ytick_2">
     <g id="line2d_8">
      <g>
       <use style="stroke:#000000;stroke-width:0.8;" x="47.72" xlink:href="#mfddb9fce40" y="257.291222"/>
      </g>
     </g>
     <g id="text_10">
      <!-- 0.2 -->
      <g transform="translate(24.816875 261.09044)scale(0.1 -0.1)">
       <use xlink:href="#DejaVuSans-30"/>
       <use x="63.623047" xlink:href="#DejaVuSans-2e"/>
       <use x="95.410156" xlink:href="#DejaVuSans-32"/>
      </g>
     </g>
    </g>
    <g id="ytick_3">
     <g id="line2d_9">
      <g>
       <use style="stroke:#000000;stroke-width:0.8;" x="47.72" xlink:href="#mfddb9fce40" y="221.425924"/>
      </g>
     </g>
     <g id="text_11">
      <!-- 0.4 -->
      <g transform="translate(24.816875 225.225142)scale(0.1 -0.1)">
       <use xlink:href="#DejaVuSans-30"/>
       <use x="63.623047" xlink:href="#DejaVuSans-2e"/>
       <use x="95.410156" xlink:href="#DejaVuSans-34"/>
      </g>
     </g>
    </g>
    <g id="ytick_4">
     <g id="line2d_10">
      <g>
       <use style="stroke:#000000;stroke-width:0.8;" x="47.72" xlink:href="#mfddb9fce40" y="185.560626"/>
      </g>
     </g>
     <g id="text_12">
      <!-- 0.6 -->
      <g transform="translate(24.816875 189.359844)scale(0.1 -0.1)">
       <use xlink:href="#DejaVuSans-30"/>
       <use x="63.623047" xlink:href="#DejaVuSans-2e"/>
       <use x="95.410156" xlink:href="#DejaVuSans-36"/>
      </g>
     </g>
    </g>
    <g id="ytick_5">
     <g id="line2d_11">
      <g>
       <use style="stroke:#000000;stroke-width:0.8;" x="47.72" xlink:href="#mfddb9fce40" y="149.695328"/>
      </g>
     </g>
     <g id="text_13">
      <!-- 0.8 -->
      <g transform="translate(24.816875 153.494546)scale(0.1 -0.1)">
       <use xlink:href="#DejaVuSans-30"/>
       <use x="63.623047" xlink:href="#DejaVuSans-2e"/>
       <use x="95.410156" xlink:href="#DejaVuSans-38"/>
      </g>
     </g>
    </g>
    <g id="ytick_6">
     <g id="line2d_12">
      <g>
       <use style="stroke:#000000;stroke-width:0.8;" x="47.72" xlink:href="#mfddb9fce40" y="113.830029"/>
      </g>
     </g>
     <g id="text_14">
      <!-- 1.0 -->
      <g transform="translate(24.816875 117.629248)scale(0.1 -0.1)">
       <use xlink:href="#DejaVuSans-31"/>
       <use x="63.623047" xlink:href="#DejaVuSans-2e"/>
       <use x="95.410156" xlink:href="#DejaVuSans-30"/>
      </g>
     </g>
    </g>
    <g id="ytick_7">
     <g id="line2d_13">
      <g>
       <use style="stroke:#000000;stroke-width:0.8;" x="47.72" xlink:href="#mfddb9fce40" y="77.964731"/>
      </g>
     </g>
     <g id="text_15">
      <!-- 1.2 -->
      <g transform="translate(24.816875 81.76395)scale(0.1 -0.1)">
       <use xlink:href="#DejaVuSans-31"/>
       <use x="63.623047" xlink:href="#DejaVuSans-2e"/>
       <use x="95.410156" xlink:href="#DejaVuSans-32"/>
      </g>
     </g>
    </g>
    <g id="ytick_8">
     <g id="line2d_14">
      <g>
       <use style="stroke:#000000;stroke-width:0.8;" x="47.72" xlink:href="#mfddb9fce40" y="42.099433"/>
      </g>
     </g>
     <g id="text_16">
      <!-- 1.4 -->
      <g transform="translate(24.816875 45.898652)scale(0.1 -0.1)">
       <use xlink:href="#DejaVuSans-31"/>
       <use x="63.623047" xlink:href="#DejaVuSans-2e"/>
       <use x="95.410156" xlink:href="#DejaVuSans-34"/>
      </g>
     </g>
    </g>
    <g id="text_17">
     <!-- NB d'entrees -->
     <g transform="translate(18.737188 194.894844)rotate(-90)scale(0.1 -0.1)">
      <defs>
       <path d="M 628 4666 
L 1478 4666 
L 3547 763 
L 3547 4666 
L 4159 4666 
L 4159 0 
L 3309 0 
L 1241 3903 
L 1241 0 
L 628 0 
L 628 4666 
z
" id="DejaVuSans-4e" transform="scale(0.015625)"/>
       <path d="M 1259 2228 
L 1259 519 
L 2272 519 
Q 2781 519 3026 730 
Q 3272 941 3272 1375 
Q 3272 1813 3026 2020 
Q 2781 2228 2272 2228 
L 1259 2228 
z
M 1259 4147 
L 1259 2741 
L 2194 2741 
Q 2656 2741 2882 2914 
Q 3109 3088 3109 3444 
Q 3109 3797 2882 3972 
Q 2656 4147 2194 4147 
L 1259 4147 
z
M 628 4666 
L 2241 4666 
Q 2963 4666 3353 4366 
Q 3744 4066 3744 3513 
Q 3744 3084 3544 2831 
Q 3344 2578 2956 2516 
Q 3422 2416 3680 2098 
Q 3938 1781 3938 1306 
Q 3938 681 3513 340 
Q 3088 0 2303 0 
L 628 0 
L 628 4666 
z
" id="DejaVuSans-42" transform="scale(0.015625)"/>
       <path id="DejaVuSans-20" transform="scale(0.015625)"/>
       <path d="M 2906 2969 
L 2906 4863 
L 3481 4863 
L 3481 0 
L 2906 0 
L 2906 525 
Q 2725 213 2448 61 
Q 2172 -91 1784 -91 
Q 1150 -91 751 415 
Q 353 922 353 1747 
Q 353 2572 751 3078 
Q 1150 3584 1784 3584 
Q 2172 3584 2448 3432 
Q 2725 3281 2906 2969 
z
M 947 1747 
Q 947 1113 1208 752 
Q 1469 391 1925 391 
Q 2381 391 2643 752 
Q 2906 1113 2906 1747 
Q 2906 2381 2643 2742 
Q 2381 3103 1925 3103 
Q 1469 3103 1208 2742 
Q 947 2381 947 1747 
z
" id="DejaVuSans-64" transform="scale(0.015625)"/>
       <path d="M 1147 4666 
L 1147 2931 
L 616 2931 
L 616 4666 
L 1147 4666 
z
" id="DejaVuSans-27" transform="scale(0.015625)"/>
       <path d="M 3513 2113 
L 3513 0 
L 2938 0 
L 2938 2094 
Q 2938 2591 2744 2837 
Q 2550 3084 2163 3084 
Q 1697 3084 1428 2787 
Q 1159 2491 1159 1978 
L 1159 0 
L 581 0 
L 581 3500 
L 1159 3500 
L 1159 2956 
Q 1366 3272 1645 3428 
Q 1925 3584 2291 3584 
Q 2894 3584 3203 3211 
Q 3513 2838 3513 2113 
z
" id="DejaVuSans-6e" transform="scale(0.015625)"/>
       <path d="M 2631 2963 
Q 2534 3019 2420 3045 
Q 2306 3072 2169 3072 
Q 1681 3072 1420 2755 
Q 1159 2438 1159 1844 
L 1159 0 
L 581 0 
L 581 3500 
L 1159 3500 
L 1159 2956 
Q 1341 3275 1631 3429 
Q 1922 3584 2338 3584 
Q 2397 3584 2469 3576 
Q 2541 3569 2628 3553 
L 2631 2963 
z
" id="DejaVuSans-72" transform="scale(0.015625)"/>
      </defs>
      <use xlink:href="#DejaVuSans-4e"/>
      <use x="74.804688" xlink:href="#DejaVuSans-42"/>
      <use x="143.408203" xlink:href="#DejaVuSans-20"/>
      <use x="175.195312" xlink:href="#DejaVuSans-64"/>
      <use x="238.671875" xlink:href="#DejaVuSans-27"/>
      <use x="266.162109" xlink:href="#DejaVuSans-65"/>
      <use x="327.685547" xlink:href="#DejaVuSans-6e"/>
      <use x="391.064453" xlink:href="#DejaVuSans-74"/>
      <use x="430.273438" xlink:href="#DejaVuSans-72"/>
      <use x="469.136719" xlink:href="#DejaVuSans-65"/>
      <use x="530.660156" xlink:href="#DejaVuSans-65"/>
      <use x="592.183594" xlink:href="#DejaVuSans-73"/>
     </g>
    </g>
    <g id="text_18">
     <!-- 1e6 -->
     <g transform="translate(47.72 18.72)scale(0.1 -0.1)">
      <use xlink:href="#DejaVuSans-31"/>
      <use x="63.623047" xlink:href="#DejaVuSans-65"/>
      <use x="125.146484" xlink:href="#DejaVuSans-36"/>
     </g>
    </g>
   </g>
   <g id="line2d_15">
    <path clip-path="url(#pf0fbaa924e)" d="M 64.036818 172.264104 
L 67.333145 153.902327 
L 70.629472 148.809634 
L 73.925799 147.211476 
L 77.222126 146.832201 
L 80.518453 146.53416 
L 83.81478 146.444497 
L 87.111107 146.306057 
L 90.407433 146.533084 
L 93.70376 146.5182 
L 97.000087 146.391237 
L 100.296414 146.382988 
L 103.592741 146.290993 
L 106.889068 146.42495 
L 110.185395 146.445035 
L 113.481722 146.419929 
L 116.778049 146.402176 
L 120.074376 146.445394 
L 123.370702 146.440552 
L 126.667029 146.395899 
L 129.963356 146.369359 
L 133.259683 146.399486 
L 136.55601 146.435889 
L 139.852337 146.461533 
L 143.148664 146.359855 
L 146.444991 146.485025 
L 149.741318 146.430868 
L 153.037645 146.463685 
L 156.333972 146.396617 
L 159.630298 146.489149 
L 162.926625 146.391416 
L 166.222952 146.618982 
L 169.519279 146.391058 
L 172.815606 146.4384 
L 176.111933 146.310719 
L 179.40826 146.520173 
L 182.704587 146.510848 
L 186.000914 146.404866 
L 189.297241 146.46763 
L 192.593567 146.347302 
L 195.889894 146.440372 
L 199.186221 146.483052 
L 202.482548 146.405045 
L 205.778875 146.402176 
L 209.075202 146.481797 
L 212.371529 146.385857 
L 215.667856 146.380836 
L 218.964183 146.262481 
L 222.26051 146.502419 
L 225.556837 146.509234 
L 228.853163 146.39303 
L 232.14949 146.417598 
L 235.445817 146.542051 
L 238.742144 146.399307 
L 242.038471 146.517483 
L 245.334798 146.427999 
L 248.631125 146.487177 
L 251.927452 146.447187 
L 255.223779 146.623823 
L 258.520106 146.299242 
L 261.816433 146.364697 
L 265.112759 146.407556 
L 268.409086 146.490046 
L 271.705413 146.445752 
L 275.00174 146.465299 
L 278.298067 146.445394 
L 281.594394 146.362724 
L 284.890721 146.448442 
L 288.187048 146.502778 
L 291.483375 146.405224 
L 294.779702 146.41437 
L 298.076028 146.483769 
L 301.372355 146.373125 
L 304.668682 146.387471 
L 307.965009 146.24652 
L 311.261336 146.565004 
L 314.557663 146.536133 
L 317.85399 146.387112 
L 321.150317 146.405942 
L 324.446644 146.475341 
L 327.742971 146.394823 
L 331.039298 146.435351 
L 334.335624 146.366131 
L 337.631951 146.372946 
L 340.928278 146.444138 
L 344.224605 146.518559 
L 347.520932 146.395899 
L 350.817259 146.330804 
L 354.113586 146.346764 
L 357.409913 146.464402 
L 360.70624 146.541692 
L 364.002567 146.337798 
L 367.298893 146.488253 
L 370.59522 146.373663 
L 373.891547 146.449877 
L 377.187874 146.42495 
L 380.484201 146.416163 
L 383.780528 146.357882 
L 387.076855 146.582758 
L 390.373182 146.450773 
" style="fill:none;stroke:#1f77b4;stroke-linecap:square;stroke-width:1.5;"/>
   </g>
   <g id="line2d_16">
    <path clip-path="url(#pf0fbaa924e)" d="M 64.036818 222.537748 
L 67.333145 192.678273 
L 70.629472 178.4159 
L 73.925799 170.858902 
L 77.222126 167.168183 
L 80.518453 165.082975 
L 83.81478 163.809578 
L 87.111107 163.133517 
L 90.407433 162.790824 
L 93.70376 162.673544 
L 97.000087 162.56021 
L 100.296414 162.678745 
L 103.592741 162.612394 
L 106.889068 162.567383 
L 110.185395 162.395588 
L 113.481722 162.663143 
L 116.778049 162.259479 
L 120.074376 162.365641 
L 123.370702 162.495832 
L 126.667029 162.40043 
L 129.963356 162.305925 
L 133.259683 162.468215 
L 136.55601 162.690401 
L 139.852337 162.542098 
L 143.148664 162.593744 
L 146.444991 162.527035 
L 149.741318 162.515378 
L 153.037645 162.433605 
L 156.333972 162.531876 
L 159.630298 162.496728 
L 162.926625 162.327623 
L 166.222952 162.456021 
L 169.519279 162.503901 
L 172.815606 162.401865 
L 176.111933 162.39254 
L 179.40826 162.456918 
L 182.704587 162.414776 
L 186.000914 162.570073 
L 189.297241 162.641983 
L 192.593567 162.605042 
L 195.889894 162.509461 
L 199.186221 162.423384 
L 202.482548 162.585854 
L 205.778875 162.28602 
L 209.075202 162.360261 
L 212.371529 162.499777 
L 215.667856 162.430198 
L 218.964183 162.331569 
L 222.26051 162.419259 
L 225.556837 162.538511 
L 228.853163 162.548374 
L 232.14949 162.619208 
L 235.445817 162.489735 
L 238.742144 162.499777 
L 242.038471 162.421053 
L 245.334798 162.572583 
L 248.631125 162.410472 
L 251.927452 162.260376 
L 255.223779 162.505874 
L 258.520106 162.518427 
L 261.816433 162.347887 
L 265.112759 162.436475 
L 268.409086 162.525421 
L 271.705413 162.48292 
L 275.00174 162.569176 
L 278.298067 162.647004 
L 281.594394 162.492245 
L 284.890721 162.464988 
L 288.187048 162.466781 
L 291.483375 162.529545 
L 294.779702 162.306463 
L 298.076028 162.473595 
L 301.372355 162.527214 
L 304.668682 162.44831 
L 307.965009 162.367613 
L 311.261336 162.422846 
L 314.557663 162.505157 
L 317.85399 162.432529 
L 321.150317 162.595717 
L 324.446644 162.555547 
L 327.742971 162.544071 
L 331.039298 162.415314 
L 334.335624 162.524524 
L 337.631951 162.400968 
L 340.928278 162.276874 
L 344.224605 162.522551 
L 347.520932 162.38178 
L 350.817259 162.352371 
L 354.113586 162.52811 
L 357.409913 162.608628 
L 360.70624 162.463015 
L 364.002567 162.592847 
L 367.298893 162.584419 
L 370.59522 162.498522 
L 373.891547 162.467319 
L 377.187874 162.536897 
L 380.484201 162.603966 
L 383.780528 162.340894 
L 387.076855 162.455125 
L 390.373182 162.449207 
" style="fill:none;stroke:#ff7f0e;stroke-linecap:square;stroke-width:1.5;"/>
   </g>
   <g id="line2d_17">
    <path clip-path="url(#pf0fbaa924e)" d="M 64.036818 217.090706 
L 67.333145 179.797251 
L 70.629472 158.778394 
L 73.925799 146.389264 
L 77.222126 138.396324 
L 80.518453 133.473095 
L 83.81478 130.201462 
L 87.111107 128.027128 
L 90.407433 126.472009 
L 93.70376 125.591337 
L 97.000087 124.808397 
L 100.296414 124.172147 
L 103.592741 123.727776 
L 106.889068 123.403195 
L 110.185395 123.67613 
L 113.481722 123.497521 
L 116.778049 123.855277 
L 120.074376 123.555802 
L 123.370702 123.640623 
L 126.667029 123.663577 
L 129.963356 123.773145 
L 133.259683 123.717196 
L 136.55601 123.729569 
L 139.852337 123.749116 
L 143.148664 123.75055 
L 146.444991 123.523882 
L 149.741318 123.533745 
L 153.037645 123.543607 
L 156.333972 123.57768 
L 159.630298 123.571044 
L 162.926625 123.690117 
L 166.222952 123.470084 
L 169.519279 123.658914 
L 172.815606 123.587722 
L 176.111933 123.750909 
L 179.40826 123.616952 
L 182.704587 123.871237 
L 186.000914 123.728852 
L 189.297241 123.687786 
L 192.593567 123.546835 
L 195.889894 123.53482 
L 199.186221 123.695676 
L 202.482548 123.546835 
L 205.778875 123.8386 
L 209.075202 123.649051 
L 212.371529 123.672902 
L 215.667856 123.665549 
L 218.964183 123.804169 
L 222.26051 123.662322 
L 225.556837 123.775297 
L 228.853163 123.798789 
L 232.14949 123.743198 
L 235.445817 123.476001 
L 238.742144 123.482636 
L 242.038471 123.560643 
L 245.334798 123.532669 
L 248.631125 123.696932 
L 251.927452 123.60422 
L 255.223779 123.436729 
L 258.520106 123.656762 
L 261.816433 123.735487 
L 265.112759 123.762924 
L 268.409086 123.708767 
L 271.705413 123.802196 
L 275.00174 123.670391 
L 278.298067 123.691014 
L 281.594394 123.626277 
L 284.890721 123.556698 
L 288.187048 123.635243 
L 291.483375 123.611752 
L 294.779702 123.746605 
L 298.076028 123.59884 
L 301.372355 123.66537 
L 304.668682 123.683841 
L 307.965009 123.739611 
L 311.261336 123.627712 
L 314.557663 123.820667 
L 317.85399 123.790899 
L 321.150317 123.6946 
L 324.446644 123.536255 
L 327.742971 123.486223 
L 331.039298 123.639188 
L 334.335624 123.583059 
L 337.631951 123.740329 
L 340.928278 123.570148 
L 344.224605 123.51097 
L 347.520932 123.64421 
L 350.817259 123.789464 
L 354.113586 123.739253 
L 357.409913 123.741405 
L 360.70624 123.774042 
L 364.002567 123.788388 
L 367.298893 123.605116 
L 370.59522 123.586825 
L 373.891547 123.508101 
L 377.187874 123.602068 
L 380.484201 123.562437 
L 383.780528 123.685096 
L 387.076855 123.516708 
L 390.373182 123.620359 
" style="fill:none;stroke:#2ca02c;stroke-linecap:square;stroke-width:1.5;"/>
   </g>
   <g id="line2d_18">
    <path clip-path="url(#pf0fbaa924e)" d="M 64.036818 236.544402 
L 67.333145 207.688797 
L 70.629472 190.956022 
L 73.925799 180.710382 
L 77.222126 173.894003 
L 80.518453 169.428414 
L 83.81478 166.45823 
L 87.111107 164.393465 
L 90.407433 162.682511 
L 93.70376 161.302773 
L 97.000087 160.689835 
L 100.296414 160.037086 
L 103.592741 159.805755 
L 106.889068 159.750522 
L 110.185395 159.629298 
L 113.481722 159.565458 
L 116.778049 159.629118 
L 120.074376 159.779215 
L 123.370702 159.569044 
L 126.667029 159.686144 
L 129.963356 159.697621 
L 133.259683 159.561154 
L 136.55601 159.290191 
L 139.852337 159.393304 
L 143.148664 159.441902 
L 146.444991 159.61011 
L 149.741318 159.66606 
L 153.037645 159.705153 
L 156.333972 159.639878 
L 159.630298 159.589129 
L 162.926625 159.736894 
L 166.222952 159.600964 
L 169.519279 159.592177 
L 172.815606 159.718064 
L 176.111933 159.691883 
L 179.40826 159.552008 
L 182.704587 159.34919 
L 186.000914 159.44226 
L 189.297241 159.348652 
L 192.593567 159.646872 
L 195.889894 159.661397 
L 199.186221 159.543938 
L 202.482548 159.608317 
L 205.778875 159.619255 
L 209.075202 159.654941 
L 212.371529 159.587515 
L 215.667856 159.669467 
L 218.964183 159.747833 
L 222.26051 159.56205 
L 225.556837 159.323008 
L 228.853163 159.405857 
L 232.14949 159.366046 
L 235.445817 159.638264 
L 238.742144 159.764331 
L 242.038471 159.646872 
L 245.334798 159.6128 
L 248.631125 159.55147 
L 251.927452 159.834268 
L 255.223779 159.579624 
L 258.520106 159.671619 
L 261.816433 159.69798 
L 265.112759 159.539097 
L 268.409086 159.421817 
L 271.705413 159.415182 
L 275.00174 159.441184 
L 278.298067 159.362639 
L 281.594394 159.664804 
L 284.890721 159.675923 
L 288.187048 159.541248 
L 291.483375 159.59953 
L 294.779702 159.678613 
L 298.076028 159.589846 
L 301.372355 159.580342 
L 304.668682 159.626429 
L 307.965009 159.792306 
L 311.261336 159.530489 
L 314.557663 159.284094 
L 317.85399 159.53551 
L 321.150317 159.449792 
L 324.446644 159.578907 
L 327.742971 159.720934 
L 331.039298 159.656197 
L 334.335624 159.672336 
L 337.631951 159.631808 
L 340.928278 159.85489 
L 344.224605 159.59397 
L 347.520932 159.724161 
L 350.817259 159.673412 
L 354.113586 159.531923 
L 357.409913 159.331616 
L 360.70624 159.367302 
L 364.002567 159.427017 
L 367.298893 159.468263 
L 370.59522 159.687041 
L 373.891547 159.720754 
L 377.187874 159.582135 
L 380.484201 159.563485 
L 383.780528 159.762179 
L 387.076855 159.59146 
L 390.373182 159.625711 
" style="fill:none;stroke:#d62728;stroke-linecap:square;stroke-width:1.5;"/>
   </g>
   <g id="line2d_19">
    <path clip-path="url(#pf0fbaa924e)" d="M 64.036818 34.534545 
L 67.333145 148.904856 
L 70.629472 206.011556 
L 73.925799 237.801481 
L 77.222126 256.680794 
L 80.518453 268.452861 
L 83.81478 276.057739 
L 87.111107 281.111339 
L 90.407433 284.493078 
L 93.70376 286.885652 
L 97.000087 288.521826 
L 100.296414 289.700539 
L 103.592741 290.534587 
L 106.889068 290.825455 
L 110.185395 290.825455 
L 113.481722 290.825455 
L 116.778049 290.825455 
L 120.074376 290.825455 
L 123.370702 290.825455 
L 126.667029 290.825455 
L 129.963356 290.825455 
L 133.259683 290.825455 
L 136.55601 290.825455 
L 139.852337 290.825455 
L 143.148664 290.825455 
L 146.444991 290.825455 
L 149.741318 290.825455 
L 153.037645 290.825455 
L 156.333972 290.825455 
L 159.630298 290.825455 
L 162.926625 290.825455 
L 166.222952 290.825455 
L 169.519279 290.825455 
L 172.815606 290.825455 
L 176.111933 290.825455 
L 179.40826 290.825455 
L 182.704587 290.825455 
L 186.000914 290.825455 
L 189.297241 290.825455 
L 192.593567 290.825455 
L 195.889894 290.825455 
L 199.186221 290.825455 
L 202.482548 290.825455 
L 205.778875 290.825455 
L 209.075202 290.825455 
L 212.371529 290.825455 
L 215.667856 290.825455 
L 218.964183 290.825455 
L 222.26051 290.825455 
L 225.556837 290.825455 
L 228.853163 290.825455 
L 232.14949 290.825455 
L 235.445817 290.825455 
L 238.742144 290.825455 
L 242.038471 290.825455 
L 245.334798 290.825455 
L 248.631125 290.825455 
L 251.927452 290.825455 
L 255.223779 290.825455 
L 258.520106 290.825455 
L 261.816433 290.825455 
L 265.112759 290.825455 
L 268.409086 290.825455 
L 271.705413 290.825455 
L 275.00174 290.825455 
L 278.298067 290.825455 
L 281.594394 290.825455 
L 284.890721 290.825455 
L 288.187048 290.825455 
L 291.483375 290.825455 
L 294.779702 290.825455 
L 298.076028 290.825455 
L 301.372355 290.825455 
L 304.668682 290.825455 
L 307.965009 290.825455 
L 311.261336 290.825455 
L 314.557663 290.825455 
L 317.85399 290.825455 
L 321.150317 290.825455 
L 324.446644 290.825455 
L 327.742971 290.825455 
L 331.039298 290.825455 
L 334.335624 290.825455 
L 337.631951 290.825455 
L 340.928278 290.825455 
L 344.224605 290.825455 
L 347.520932 290.825455 
L 350.817259 290.825455 
L 354.113586 290.825455 
L 357.409913 290.825455 
L 360.70624 290.825455 
L 364.002567 290.825455 
L 367.298893 290.825455 
L 370.59522 290.825455 
L 373.891547 290.825455 
L 377.187874 290.825455 
L 380.484201 290.825455 
L 383.780528 290.825455 
L 387.076855 290.825455 
L 390.373182 290.825455 
" style="fill:none;stroke:#9467bd;stroke-linecap:square;stroke-width:1.5;"/>
   </g>
   <g id="patch_3">
    <path d="M 47.72 303.64 
L 47.72 21.72 
" style="fill:none;stroke:#000000;stroke-linecap:square;stroke-linejoin:miter;stroke-width:0.8;"/>
   </g>
   <g id="patch_4">
    <path d="M 406.69 303.64 
L 406.69 21.72 
" style="fill:none;stroke:#000000;stroke-linecap:square;stroke-linejoin:miter;stroke-width:0.8;"/>
   </g>
   <g id="patch_5">
    <path d="M 47.72 303.64 
L 406.69 303.64 
" style="fill:none;stroke:#000000;stroke-linecap:square;stroke-linejoin:miter;stroke-width:0.8;"/>
   </g>
   <g id="patch_6">
    <path d="M 47.72 21.72 
L 406.69 21.72 
" style="fill:none;stroke:#000000;stroke-linecap:square;stroke-linejoin:miter;stroke-width:0.8;"/>
   </g>
   <g id="legend_1">
    <g id="patch_7">
     <path d="M 334.497813 103.110625 
L 399.69 103.110625 
Q 401.69 103.110625 401.69 101.110625 
L 401.69 28.72 
Q 401.69 26.72 399.69 26.72 
L 334.497813 26.72 
Q 332.497813 26.72 332.497813 28.72 
L 332.497813 101.110625 
Q 332.497813 103.110625 334.497813 103.110625 
z
" style="fill:#ffffff;opacity:0.8;stroke:#cccccc;stroke-linejoin:miter;"/>
    </g>
    <g id="line2d_20">
     <path d="M 336.497813 34.818438 
L 356.497813 34.818438 
" style="fill:none;stroke:#1f77b4;stroke-linecap:square;stroke-width:1.5;"/>
    </g>
    <g id="line2d_21"/>
    <g id="text_19">
     <!-- HOT -->
     <g transform="translate(364.497813 38.318438)scale(0.1 -0.1)">
      <defs>
       <path d="M 628 4666 
L 1259 4666 
L 1259 2753 
L 3553 2753 
L 3553 4666 
L 4184 4666 
L 4184 0 
L 3553 0 
L 3553 2222 
L 1259 2222 
L 1259 0 
L 628 0 
L 628 4666 
z
" id="DejaVuSans-48" transform="scale(0.015625)"/>
       <path d="M 2522 4238 
Q 1834 4238 1429 3725 
Q 1025 3213 1025 2328 
Q 1025 1447 1429 934 
Q 1834 422 2522 422 
Q 3209 422 3611 934 
Q 4013 1447 4013 2328 
Q 4013 3213 3611 3725 
Q 3209 4238 2522 4238 
z
M 2522 4750 
Q 3503 4750 4090 4092 
Q 4678 3434 4678 2328 
Q 4678 1225 4090 567 
Q 3503 -91 2522 -91 
Q 1538 -91 948 565 
Q 359 1222 359 2328 
Q 359 3434 948 4092 
Q 1538 4750 2522 4750 
z
" id="DejaVuSans-4f" transform="scale(0.015625)"/>
       <path d="M -19 4666 
L 3928 4666 
L 3928 4134 
L 2272 4134 
L 2272 0 
L 1638 0 
L 1638 4134 
L -19 4134 
L -19 4666 
z
" id="DejaVuSans-54" transform="scale(0.015625)"/>
      </defs>
      <use xlink:href="#DejaVuSans-48"/>
      <use x="75.195312" xlink:href="#DejaVuSans-4f"/>
      <use x="153.90625" xlink:href="#DejaVuSans-54"/>
     </g>
    </g>
    <g id="line2d_22">
     <path d="M 336.497813 49.496563 
L 356.497813 49.496563 
" style="fill:none;stroke:#ff7f0e;stroke-linecap:square;stroke-width:1.5;"/>
    </g>
    <g id="line2d_23"/>
    <g id="text_20">
     <!-- WARM -->
     <g transform="translate(364.497813 52.996563)scale(0.1 -0.1)">
      <defs>
       <path d="M 213 4666 
L 850 4666 
L 1831 722 
L 2809 4666 
L 3519 4666 
L 4500 722 
L 5478 4666 
L 6119 4666 
L 4947 0 
L 4153 0 
L 3169 4050 
L 2175 0 
L 1381 0 
L 213 4666 
z
" id="DejaVuSans-57" transform="scale(0.015625)"/>
       <path d="M 2188 4044 
L 1331 1722 
L 3047 1722 
L 2188 4044 
z
M 1831 4666 
L 2547 4666 
L 4325 0 
L 3669 0 
L 3244 1197 
L 1141 1197 
L 716 0 
L 50 0 
L 1831 4666 
z
" id="DejaVuSans-41" transform="scale(0.015625)"/>
       <path d="M 628 4666 
L 1569 4666 
L 2759 1491 
L 3956 4666 
L 4897 4666 
L 4897 0 
L 4281 0 
L 4281 4097 
L 3078 897 
L 2444 897 
L 1241 4097 
L 1241 0 
L 628 0 
L 628 4666 
z
" id="DejaVuSans-4d" transform="scale(0.015625)"/>
      </defs>
      <use xlink:href="#DejaVuSans-57"/>
      <use x="93.376953" xlink:href="#DejaVuSans-41"/>
      <use x="161.785156" xlink:href="#DejaVuSans-52"/>
      <use x="231.267578" xlink:href="#DejaVuSans-4d"/>
     </g>
    </g>
    <g id="line2d_24">
     <path d="M 336.497813 64.174688 
L 356.497813 64.174688 
" style="fill:none;stroke:#2ca02c;stroke-linecap:square;stroke-width:1.5;"/>
    </g>
    <g id="line2d_25"/>
    <g id="text_21">
     <!-- MILD -->
     <g transform="translate(364.497813 67.674688)scale(0.1 -0.1)">
      <defs>
       <path d="M 628 4666 
L 1259 4666 
L 1259 0 
L 628 0 
L 628 4666 
z
" id="DejaVuSans-49" transform="scale(0.015625)"/>
       <path d="M 628 4666 
L 1259 4666 
L 1259 531 
L 3531 531 
L 3531 0 
L 628 0 
L 628 4666 
z
" id="DejaVuSans-4c" transform="scale(0.015625)"/>
       <path d="M 1259 4147 
L 1259 519 
L 2022 519 
Q 2988 519 3436 956 
Q 3884 1394 3884 2338 
Q 3884 3275 3436 3711 
Q 2988 4147 2022 4147 
L 1259 4147 
z
M 628 4666 
L 1925 4666 
Q 3281 4666 3915 4102 
Q 4550 3538 4550 2338 
Q 4550 1131 3912 565 
Q 3275 0 1925 0 
L 628 0 
L 628 4666 
z
" id="DejaVuSans-44" transform="scale(0.015625)"/>
      </defs>
      <use xlink:href="#DejaVuSans-4d"/>
      <use x="86.279297" xlink:href="#DejaVuSans-49"/>
      <use x="115.771484" xlink:href="#DejaVuSans-4c"/>
      <use x="171.484375" xlink:href="#DejaVuSans-44"/>
     </g>
    </g>
    <g id="line2d_26">
     <path d="M 336.497813 78.852813 
L 356.497813 78.852813 
" style="fill:none;stroke:#d62728;stroke-linecap:square;stroke-width:1.5;"/>
    </g>
    <g id="line2d_27"/>
    <g id="text_22">
     <!-- COLD -->
     <g transform="translate(364.497813 82.352813)scale(0.1 -0.1)">
      <defs>
       <path d="M 4122 4306 
L 4122 3641 
Q 3803 3938 3442 4084 
Q 3081 4231 2675 4231 
Q 1875 4231 1450 3742 
Q 1025 3253 1025 2328 
Q 1025 1406 1450 917 
Q 1875 428 2675 428 
Q 3081 428 3442 575 
Q 3803 722 4122 1019 
L 4122 359 
Q 3791 134 3420 21 
Q 3050 -91 2638 -91 
Q 1578 -91 968 557 
Q 359 1206 359 2328 
Q 359 3453 968 4101 
Q 1578 4750 2638 4750 
Q 3056 4750 3426 4639 
Q 3797 4528 4122 4306 
z
" id="DejaVuSans-43" transform="scale(0.015625)"/>
      </defs>
      <use xlink:href="#DejaVuSans-43"/>
      <use x="69.824219" xlink:href="#DejaVuSans-4f"/>
      <use x="148.535156" xlink:href="#DejaVuSans-4c"/>
      <use x="204.248047" xlink:href="#DejaVuSans-44"/>
     </g>
    </g>
    <g id="line2d_28">
     <path d="M 336.497813 93.530938 
L 356.497813 93.530938 
" style="fill:none;stroke:#9467bd;stroke-linecap:square;stroke-width:1.5;"/>
    </g>
    <g id="line2d_29"/>
    <g id="text_23">
     <!-- EMPTY -->
     <g transform="translate(364.497813 97.030938)scale(0.1 -0.1)">
      <defs>
       <path d="M 628 4666 
L 3578 4666 
L 3578 4134 
L 1259 4134 
L 1259 2753 
L 3481 2753 
L 3481 2222 
L 1259 2222 
L 1259 531 
L 3634 531 
L 3634 0 
L 628 0 
L 628 4666 
z
" id="DejaVuSans-45" transform="scale(0.015625)"/>
       <path d="M 1259 4147 
L 1259 2394 
L 2053 2394 
Q 2494 2394 2734 2622 
Q 2975 2850 2975 3272 
Q 2975 3691 2734 3919 
Q 2494 4147 2053 4147 
L 1259 4147 
z
M 628 4666 
L 2053 4666 
Q 2838 4666 3239 4311 
Q 3641 3956 3641 3272 
Q 3641 2581 3239 2228 
Q 2838 1875 2053 1875 
L 1259 1875 
L 1259 0 
L 628 0 
L 628 4666 
z
" id="DejaVuSans-50" transform="scale(0.015625)"/>
       <path d="M -13 4666 
L 666 4666 
L 1959 2747 
L 3244 4666 
L 3922 4666 
L 2272 2222 
L 2272 0 
L 1638 0 
L 1638 2222 
L -13 4666 
z
" id="DejaVuSans-59" transform="scale(0.015625)"/>
      </defs>
      <use xlink:href="#DejaVuSans-45"/>
      <use x="63.183594" xlink:href="#DejaVuSans-4d"/>
      <use x="149.462891" xlink:href="#DejaVuSans-50"/>
      <use x="209.765625" xlink:href="#DejaVuSans-54"/>
      <use x="270.849609" xlink:href="#DejaVuSans-59"/>
     </g>
    </g>
   </g>
  </g>
  <g id="axes_2">
   <g id="matplotlib.axis_3">
    <g id="ytick_9">
     <g id="line2d_30">
      <defs>
       <path d="M 0 0 
L 3.5 0 
" id="mc5d25c4bb9" style="stroke:#000000;stroke-width:0.8;"/>
      </defs>
      <g>
       <use style="stroke:#000000;stroke-width:0.8;" x="406.69" xlink:href="#mc5d25c4bb9" y="270.142945"/>
      </g>
     </g>
     <g id="text_24">
      <!-- 0.60 -->
      <g transform="translate(413.69 273.942163)scale(0.1 -0.1)">
       <use xlink:href="#DejaVuSans-30"/>
       <use x="63.623047" xlink:href="#DejaVuSans-2e"/>
       <use x="95.410156" xlink:href="#DejaVuSans-36"/>
       <use x="159.033203" xlink:href="#DejaVuSans-30"/>
      </g>
     </g>
    </g>
    <g id="ytick_10">
     <g id="line2d_31">
      <g>
       <use style="stroke:#000000;stroke-width:0.8;" x="406.69" xlink:href="#mc5d25c4bb9" y="220.730397"/>
      </g>
     </g>
     <g id="text_25">
      <!-- 0.62 -->
      <g transform="translate(413.69 224.529615)scale(0.1 -0.1)">
       <use xlink:href="#DejaVuSans-30"/>
       <use x="63.623047" xlink:href="#DejaVuSans-2e"/>
       <use x="95.410156" xlink:href="#DejaVuSans-36"/>
       <use x="159.033203" xlink:href="#DejaVuSans-32"/>
      </g>
     </g>
    </g>
    <g id="ytick_11">
     <g id="line2d_32">
      <g>
       <use style="stroke:#000000;stroke-width:0.8;" x="406.69" xlink:href="#mc5d25c4bb9" y="171.317849"/>
      </g>
     </g>
     <g id="text_26">
      <!-- 0.64 -->
      <g transform="translate(413.69 175.117067)scale(0.1 -0.1)">
       <use xlink:href="#DejaVuSans-30"/>
       <use x="63.623047" xlink:href="#DejaVuSans-2e"/>
       <use x="95.410156" xlink:href="#DejaVuSans-36"/>
       <use x="159.033203" xlink:href="#DejaVuSans-34"/>
      </g>
     </g>
    </g>
    <g id="ytick_12">
     <g id="line2d_33">
      <g>
       <use style="stroke:#000000;stroke-width:0.8;" x="406.69" xlink:href="#mc5d25c4bb9" y="121.905301"/>
      </g>
     </g>
     <g id="text_27">
      <!-- 0.66 -->
      <g transform="translate(413.69 125.704519)scale(0.1 -0.1)">
       <use xlink:href="#DejaVuSans-30"/>
       <use x="63.623047" xlink:href="#DejaVuSans-2e"/>
       <use x="95.410156" xlink:href="#DejaVuSans-36"/>
       <use x="159.033203" xlink:href="#DejaVuSans-36"/>
      </g>
     </g>
    </g>
    <g id="ytick_13">
     <g id="line2d_34">
      <g>
       <use style="stroke:#000000;stroke-width:0.8;" x="406.69" xlink:href="#mc5d25c4bb9" y="72.492752"/>
      </g>
     </g>
     <g id="text_28">
      <!-- 0.68 -->
      <g transform="translate(413.69 76.291971)scale(0.1 -0.1)">
       <use xlink:href="#DejaVuSans-30"/>
       <use x="63.623047" xlink:href="#DejaVuSans-2e"/>
       <use x="95.410156" xlink:href="#DejaVuSans-36"/>
       <use x="159.033203" xlink:href="#DejaVuSans-38"/>
      </g>
     </g>
    </g>
    <g id="ytick_14">
     <g id="line2d_35">
      <g>
       <use style="stroke:#000000;stroke-width:0.8;" x="406.69" xlink:href="#mc5d25c4bb9" y="23.080204"/>
      </g>
     </g>
     <g id="text_29">
      <!-- 0.70 -->
      <g transform="translate(413.69 26.879423)scale(0.1 -0.1)">
       <defs>
        <path d="M 525 4666 
L 3525 4666 
L 3525 4397 
L 1831 0 
L 1172 0 
L 2766 4134 
L 525 4134 
L 525 4666 
z
" id="DejaVuSans-37" transform="scale(0.015625)"/>
       </defs>
       <use xlink:href="#DejaVuSans-30"/>
       <use x="63.623047" xlink:href="#DejaVuSans-2e"/>
       <use x="95.410156" xlink:href="#DejaVuSans-37"/>
       <use x="159.033203" xlink:href="#DejaVuSans-30"/>
      </g>
     </g>
    </g>
    <g id="text_30">
     <!-- Taux de HIT -->
     <g transform="translate(447.554062 191.819062)rotate(-90)scale(0.1 -0.1)">
      <defs>
       <path d="M 2194 1759 
Q 1497 1759 1228 1600 
Q 959 1441 959 1056 
Q 959 750 1161 570 
Q 1363 391 1709 391 
Q 2188 391 2477 730 
Q 2766 1069 2766 1631 
L 2766 1759 
L 2194 1759 
z
M 3341 1997 
L 3341 0 
L 2766 0 
L 2766 531 
Q 2569 213 2275 61 
Q 1981 -91 1556 -91 
Q 1019 -91 701 211 
Q 384 513 384 1019 
Q 384 1609 779 1909 
Q 1175 2209 1959 2209 
L 2766 2209 
L 2766 2266 
Q 2766 2663 2505 2880 
Q 2244 3097 1772 3097 
Q 1472 3097 1187 3025 
Q 903 2953 641 2809 
L 641 3341 
Q 956 3463 1253 3523 
Q 1550 3584 1831 3584 
Q 2591 3584 2966 3190 
Q 3341 2797 3341 1997 
z
" id="DejaVuSans-61" transform="scale(0.015625)"/>
       <path d="M 3513 3500 
L 2247 1797 
L 3578 0 
L 2900 0 
L 1881 1375 
L 863 0 
L 184 0 
L 1544 1831 
L 300 3500 
L 978 3500 
L 1906 2253 
L 2834 3500 
L 3513 3500 
z
" id="DejaVuSans-78" transform="scale(0.015625)"/>
      </defs>
      <use xlink:href="#DejaVuSans-54"/>
      <use x="44.583984" xlink:href="#DejaVuSans-61"/>
      <use x="105.863281" xlink:href="#DejaVuSans-75"/>
      <use x="169.242188" xlink:href="#DejaVuSans-78"/>
      <use x="228.421875" xlink:href="#DejaVuSans-20"/>
      <use x="260.208984" xlink:href="#DejaVuSans-64"/>
      <use x="323.685547" xlink:href="#DejaVuSans-65"/>
      <use x="385.208984" xlink:href="#DejaVuSans-20"/>
      <use x="416.996094" xlink:href="#DejaVuSans-48"/>
      <use x="492.191406" xlink:href="#DejaVuSans-49"/>
      <use x="521.683594" xlink:href="#DejaVuSans-54"/>
     </g>
    </g>
   </g>
   <g id="line2d_36">
    <path clip-path="url(#pf0fbaa924e)" d="M 64.036818 290.825455 
L 67.333145 90.476436 
L 70.629472 59.169987 
L 73.925799 48.475509 
L 77.222126 43.716598 
L 80.518453 41.036671 
L 83.81478 39.833377 
L 87.111107 39.628345 
L 90.407433 38.598938 
L 93.70376 38.497341 
L 97.000087 36.456624 
L 100.296414 37.298465 
L 103.592741 36.613251 
L 106.889068 36.582935 
L 110.185395 36.707151 
L 113.481722 36.129945 
L 116.778049 36.108056 
L 120.074376 35.943481 
L 123.370702 36.551777 
L 126.667029 36.478096 
L 129.963356 35.68676 
L 133.259683 36.27349 
L 136.55601 37.329216 
L 139.852337 34.997183 
L 143.148664 35.250849 
L 146.444991 35.660249 
L 149.741318 35.366968 
L 153.037645 36.37158 
L 156.333972 36.686939 
L 159.630298 35.810486 
L 162.926625 35.987675 
L 166.222952 36.533252 
L 169.519279 36.272227 
L 172.815606 35.833212 
L 176.111933 36.606935 
L 179.40826 36.214976 
L 182.704587 36.576619 
L 186.000914 34.902121 
L 189.297241 35.579875 
L 192.593567 35.248325 
L 195.889894 36.2255 
L 199.186221 36.912654 
L 202.482548 35.59839 
L 205.778875 36.022189 
L 209.075202 36.323166 
L 212.371529 36.305063 
L 215.667856 35.99946 
L 218.964183 36.308852 
L 222.26051 36.436836 
L 225.556837 36.958138 
L 228.853163 34.853751 
L 232.14949 35.637525 
L 235.445817 35.218876 
L 238.742144 35.555049 
L 242.038471 36.813689 
L 245.334798 36.142573 
L 248.631125 36.268438 
L 251.927452 35.910652 
L 255.223779 36.125314 
L 258.520106 36.747576 
L 261.816433 35.765034 
L 265.112759 36.23855 
L 268.409086 36.559777 
L 271.705413 36.180037 
L 275.00174 35.312274 
L 278.298067 35.2925 
L 281.594394 35.281982 
L 284.890721 36.359371 
L 288.187048 36.785896 
L 291.483375 35.628267 
L 294.779702 36.233077 
L 298.076028 35.840367 
L 301.372355 36.46757 
L 304.668682 36.073961 
L 307.965009 36.942977 
L 311.261336 36.151833 
L 314.557663 36.643989 
L 317.85399 34.714958 
L 321.150317 35.401048 
L 324.446644 35.420824 
L 327.742971 35.804594 
L 331.039298 36.853696 
L 334.335624 36.019663 
L 337.631951 35.975468 
L 340.928278 36.043655 
L 344.224605 36.432205 
L 347.520932 36.734943 
L 350.817259 35.516758 
L 354.113586 36.1371 
L 357.409913 37.274875 
L 360.70624 35.815536 
L 364.002567 34.534545 
L 367.298893 36.134996 
L 370.59522 34.957644 
L 373.891547 36.516831 
L 377.187874 36.677675 
L 380.484201 35.83237 
L 383.780528 36.151412 
L 387.076855 35.916544 
L 390.373182 36.496621 
" style="fill:none;stroke:#1f77b4;stroke-linecap:square;stroke-width:1.5;"/>
   </g>
   <g id="patch_8">
    <path d="M 47.72 303.64 
L 47.72 21.72 
" style="fill:none;stroke:#000000;stroke-linecap:square;stroke-linejoin:miter;stroke-width:0.8;"/>
   </g>
   <g id="patch_9">
    <path d="M 406.69 303.64 
L 406.69 21.72 
" style="fill:none;stroke:#000000;stroke-linecap:square;stroke-linejoin:miter;stroke-width:0.8;"/>
   </g>
   <g id="patch_10">
    <path d="M 47.72 303.64 
L 406.69 303.64 
" style="fill:none;stroke:#000000;stroke-linecap:square;stroke-linejoin:miter;stroke-width:0.8;"/>
   </g>
   <g id="patch_11">
    <path d="M 47.72 21.72 
L 406.69 21.72 
" style="fill:none;stroke:#000000;stroke-linecap:square;stroke-linejoin:miter;stroke-width:0.8;"/>
   </g>
   <g id="legend_2">
    <g id="patch_12">
     <path d="M 351.111875 298.64 
L 399.69 298.64 
Q 401.69 298.64 401.69 296.64 
L 401.69 282.961875 
Q 401.69 280.961875 399.69 280.961875 
L 351.111875 280.961875 
Q 349.111875 280.961875 349.111875 282.961875 
L 349.111875 296.64 
Q 349.111875 298.64 351.111875 298.64 
z
" style="fill:#ffffff;opacity:0.8;stroke:#cccccc;stroke-linejoin:miter;"/>
    </g>
    <g id="line2d_37">
     <path d="M 353.111875 289.060312 
L 373.111875 289.060312 
" style="fill:none;stroke:#1f77b4;stroke-linecap:square;stroke-width:1.5;"/>
    </g>
    <g id="line2d_38"/>
    <g id="text_31">
     <!-- HIT -->
     <g transform="translate(381.111875 292.560312)scale(0.1 -0.1)">
      <use xlink:href="#DejaVuSans-48"/>
      <use x="75.195312" xlink:href="#DejaVuSans-49"/>
      <use x="104.6875" xlink:href="#DejaVuSans-54"/>
     </g>
    </g>
   </g>
  </g>
 </g>
 <defs>
  <clipPath id="pf0fbaa924e">
   <rect height="281.92" width="358.97" x="47.72" y="21.72"/>
  </clipPath>
 </defs>
</svg>
