<?xml version="1.0" encoding="utf-8" standalone="no"?>
<!DOCTYPE svg PUBLIC "-//W3C//DTD SVG 1.1//EN"
  "http://www.w3.org/Graphics/SVG/1.1/DTD/svg11.dtd">
<svg height="345.6pt" version="1.1" viewBox="0 0 460.8 345.6" width="460.8pt" xmlns="http://www.w3.org/2000/svg" xmlns:xlink="http://www.w3.org/1999/xlink">
 <metadata>
  <rdf:RDF xmlns:cc="http://creativecommons.org/ns#" xmlns:dc="http://purl.org/dc/elements/1.1/" xmlns:rdf="http://www.w3.org/1999/02/22-rdf-syntax-ns#">
   <cc:Work>
    <dc:type rdf:resource="http://purl.org/dc/dcmitype/StillImage"/>
    <dc:date>2021-08-06T15:21:13.223416</dc:date>
    <dc:format>image/svg+xml</dc:format>
    <dc:creator>
     <cc:Agent>
      <dc:title>Matplotlib v3.4.2, https://matplotlib.org/</dc:title>
     </cc:Agent>
    </dc:creator>
   </cc:Work>
  </rdf:RDF>
 </metadata>
 <defs>
  <style type="text/css">*{stroke-linecap:butt;stroke-linejoin:round;}</style>
 </defs>
 <g id="figure_1">
  <g id="patch_1">
   <path d="M 0 345.6 
L 460.8 345.6 
L 460.8 0 
L 0 0 
z
" style="fill:#ffffff;"/>
  </g>
  <g id="axes_1">
   <g id="patch_2">
    <path d="M 47.72 303.64 
L 412.99 303.64 
L 412.99 21.72 
L 47.72 21.72 
z
" style="fill:#ffffff;"/>
   </g>
   <g id="matplotlib.axis_1">
    <g id="xtick_1">
     <g id="line2d_1">
      <defs>
       <path d="M 0 0 
L 0 3.5 
" id="m28cfc58ec6" style="stroke:#000000;stroke-width:0.8;"/>
      </defs>
      <g>
       <use style="stroke:#000000;stroke-width:0.8;" x="60.969004" xlink:href="#m28cfc58ec6" y="303.64"/>
      </g>
     </g>
     <g id="text_1">
      <!-- 0.0 -->
      <g transform="translate(53.017441 318.238437)scale(0.1 -0.1)">
       <defs>
        <path d="M 2034 4250 
Q 1547 4250 1301 3770 
Q 1056 3291 1056 2328 
Q 1056 1369 1301 889 
Q 1547 409 2034 409 
Q 2525 409 2770 889 
Q 3016 1369 3016 2328 
Q 3016 3291 2770 3770 
Q 2525 4250 2034 4250 
z
M 2034 4750 
Q 2819 4750 3233 4129 
Q 3647 3509 3647 2328 
Q 3647 1150 3233 529 
Q 2819 -91 2034 -91 
Q 1250 -91 836 529 
Q 422 1150 422 2328 
Q 422 3509 836 4129 
Q 1250 4750 2034 4750 
z
" id="DejaVuSans-30" transform="scale(0.015625)"/>
        <path d="M 684 794 
L 1344 794 
L 1344 0 
L 684 0 
L 684 794 
z
" id="DejaVuSans-2e" transform="scale(0.015625)"/>
       </defs>
       <use xlink:href="#DejaVuSans-30"/>
       <use x="63.623047" xlink:href="#DejaVuSans-2e"/>
       <use x="95.410156" xlink:href="#DejaVuSans-30"/>
      </g>
     </g>
    </g>
    <g id="xtick_2">
     <g id="line2d_2">
      <g>
       <use style="stroke:#000000;stroke-width:0.8;" x="128.052567" xlink:href="#m28cfc58ec6" y="303.64"/>
      </g>
     </g>
     <g id="text_2">
      <!-- 0.2 -->
      <g transform="translate(120.101004 318.238437)scale(0.1 -0.1)">
       <defs>
        <path d="M 1228 531 
L 3431 531 
L 3431 0 
L 469 0 
L 469 531 
Q 828 903 1448 1529 
Q 2069 2156 2228 2338 
Q 2531 2678 2651 2914 
Q 2772 3150 2772 3378 
Q 2772 3750 2511 3984 
Q 2250 4219 1831 4219 
Q 1534 4219 1204 4116 
Q 875 4013 500 3803 
L 500 4441 
Q 881 4594 1212 4672 
Q 1544 4750 1819 4750 
Q 2544 4750 2975 4387 
Q 3406 4025 3406 3419 
Q 3406 3131 3298 2873 
Q 3191 2616 2906 2266 
Q 2828 2175 2409 1742 
Q 1991 1309 1228 531 
z
" id="DejaVuSans-32" transform="scale(0.015625)"/>
       </defs>
       <use xlink:href="#DejaVuSans-30"/>
       <use x="63.623047" xlink:href="#DejaVuSans-2e"/>
       <use x="95.410156" xlink:href="#DejaVuSans-32"/>
      </g>
     </g>
    </g>
    <g id="xtick_3">
     <g id="line2d_3">
      <g>
       <use style="stroke:#000000;stroke-width:0.8;" x="195.136129" xlink:href="#m28cfc58ec6" y="303.64"/>
      </g>
     </g>
     <g id="text_3">
      <!-- 0.4 -->
      <g transform="translate(187.184567 318.238437)scale(0.1 -0.1)">
       <defs>
        <path d="M 2419 4116 
L 825 1625 
L 2419 1625 
L 2419 4116 
z
M 2253 4666 
L 3047 4666 
L 3047 1625 
L 3713 1625 
L 3713 1100 
L 3047 1100 
L 3047 0 
L 2419 0 
L 2419 1100 
L 313 1100 
L 313 1709 
L 2253 4666 
z
" id="DejaVuSans-34" transform="scale(0.015625)"/>
       </defs>
       <use xlink:href="#DejaVuSans-30"/>
       <use x="63.623047" xlink:href="#DejaVuSans-2e"/>
       <use x="95.410156" xlink:href="#DejaVuSans-34"/>
      </g>
     </g>
    </g>
    <g id="xtick_4">
     <g id="line2d_4">
      <g>
       <use style="stroke:#000000;stroke-width:0.8;" x="262.219692" xlink:href="#m28cfc58ec6" y="303.64"/>
      </g>
     </g>
     <g id="text_4">
      <!-- 0.6 -->
      <g transform="translate(254.26813 318.238437)scale(0.1 -0.1)">
       <defs>
        <path d="M 2113 2584 
Q 1688 2584 1439 2293 
Q 1191 2003 1191 1497 
Q 1191 994 1439 701 
Q 1688 409 2113 409 
Q 2538 409 2786 701 
Q 3034 994 3034 1497 
Q 3034 2003 2786 2293 
Q 2538 2584 2113 2584 
z
M 3366 4563 
L 3366 3988 
Q 3128 4100 2886 4159 
Q 2644 4219 2406 4219 
Q 1781 4219 1451 3797 
Q 1122 3375 1075 2522 
Q 1259 2794 1537 2939 
Q 1816 3084 2150 3084 
Q 2853 3084 3261 2657 
Q 3669 2231 3669 1497 
Q 3669 778 3244 343 
Q 2819 -91 2113 -91 
Q 1303 -91 875 529 
Q 447 1150 447 2328 
Q 447 3434 972 4092 
Q 1497 4750 2381 4750 
Q 2619 4750 2861 4703 
Q 3103 4656 3366 4563 
z
" id="DejaVuSans-36" transform="scale(0.015625)"/>
       </defs>
       <use xlink:href="#DejaVuSans-30"/>
       <use x="63.623047" xlink:href="#DejaVuSans-2e"/>
       <use x="95.410156" xlink:href="#DejaVuSans-36"/>
      </g>
     </g>
    </g>
    <g id="xtick_5">
     <g id="line2d_5">
      <g>
       <use style="stroke:#000000;stroke-width:0.8;" x="329.303255" xlink:href="#m28cfc58ec6" y="303.64"/>
      </g>
     </g>
     <g id="text_5">
      <!-- 0.8 -->
      <g transform="translate(321.351693 318.238437)scale(0.1 -0.1)">
       <defs>
        <path d="M 2034 2216 
Q 1584 2216 1326 1975 
Q 1069 1734 1069 1313 
Q 1069 891 1326 650 
Q 1584 409 2034 409 
Q 2484 409 2743 651 
Q 3003 894 3003 1313 
Q 3003 1734 2745 1975 
Q 2488 2216 2034 2216 
z
M 1403 2484 
Q 997 2584 770 2862 
Q 544 3141 544 3541 
Q 544 4100 942 4425 
Q 1341 4750 2034 4750 
Q 2731 4750 3128 4425 
Q 3525 4100 3525 3541 
Q 3525 3141 3298 2862 
Q 3072 2584 2669 2484 
Q 3125 2378 3379 2068 
Q 3634 1759 3634 1313 
Q 3634 634 3220 271 
Q 2806 -91 2034 -91 
Q 1263 -91 848 271 
Q 434 634 434 1313 
Q 434 1759 690 2068 
Q 947 2378 1403 2484 
z
M 1172 3481 
Q 1172 3119 1398 2916 
Q 1625 2713 2034 2713 
Q 2441 2713 2670 2916 
Q 2900 3119 2900 3481 
Q 2900 3844 2670 4047 
Q 2441 4250 2034 4250 
Q 1625 4250 1398 4047 
Q 1172 3844 1172 3481 
z
" id="DejaVuSans-38" transform="scale(0.015625)"/>
       </defs>
       <use xlink:href="#DejaVuSans-30"/>
       <use x="63.623047" xlink:href="#DejaVuSans-2e"/>
       <use x="95.410156" xlink:href="#DejaVuSans-38"/>
      </g>
     </g>
    </g>
    <g id="xtick_6">
     <g id="line2d_6">
      <g>
       <use style="stroke:#000000;stroke-width:0.8;" x="396.386818" xlink:href="#m28cfc58ec6" y="303.64"/>
      </g>
     </g>
     <g id="text_6">
      <!-- 1.0 -->
      <g transform="translate(388.435256 318.238437)scale(0.1 -0.1)">
       <defs>
        <path d="M 794 531 
L 1825 531 
L 1825 4091 
L 703 3866 
L 703 4441 
L 1819 4666 
L 2450 4666 
L 2450 531 
L 3481 531 
L 3481 0 
L 794 0 
L 794 531 
z
" id="DejaVuSans-31" transform="scale(0.015625)"/>
       </defs>
       <use xlink:href="#DejaVuSans-31"/>
       <use x="63.623047" xlink:href="#DejaVuSans-2e"/>
       <use x="95.410156" xlink:href="#DejaVuSans-30"/>
      </g>
     </g>
    </g>
    <g id="text_7">
     <!-- Requetes -->
     <g transform="translate(206.968281 331.916562)scale(0.1 -0.1)">
      <defs>
       <path d="M 2841 2188 
Q 3044 2119 3236 1894 
Q 3428 1669 3622 1275 
L 4263 0 
L 3584 0 
L 2988 1197 
Q 2756 1666 2539 1819 
Q 2322 1972 1947 1972 
L 1259 1972 
L 1259 0 
L 628 0 
L 628 4666 
L 2053 4666 
Q 2853 4666 3247 4331 
Q 3641 3997 3641 3322 
Q 3641 2881 3436 2590 
Q 3231 2300 2841 2188 
z
M 1259 4147 
L 1259 2491 
L 2053 2491 
Q 2509 2491 2742 2702 
Q 2975 2913 2975 3322 
Q 2975 3731 2742 3939 
Q 2509 4147 2053 4147 
L 1259 4147 
z
" id="DejaVuSans-52" transform="scale(0.015625)"/>
       <path d="M 3597 1894 
L 3597 1613 
L 953 1613 
Q 991 1019 1311 708 
Q 1631 397 2203 397 
Q 2534 397 2845 478 
Q 3156 559 3463 722 
L 3463 178 
Q 3153 47 2828 -22 
Q 2503 -91 2169 -91 
Q 1331 -91 842 396 
Q 353 884 353 1716 
Q 353 2575 817 3079 
Q 1281 3584 2069 3584 
Q 2775 3584 3186 3129 
Q 3597 2675 3597 1894 
z
M 3022 2063 
Q 3016 2534 2758 2815 
Q 2500 3097 2075 3097 
Q 1594 3097 1305 2825 
Q 1016 2553 972 2059 
L 3022 2063 
z
" id="DejaVuSans-65" transform="scale(0.015625)"/>
       <path d="M 947 1747 
Q 947 1113 1208 752 
Q 1469 391 1925 391 
Q 2381 391 2643 752 
Q 2906 1113 2906 1747 
Q 2906 2381 2643 2742 
Q 2381 3103 1925 3103 
Q 1469 3103 1208 2742 
Q 947 2381 947 1747 
z
M 2906 525 
Q 2725 213 2448 61 
Q 2172 -91 1784 -91 
Q 1150 -91 751 415 
Q 353 922 353 1747 
Q 353 2572 751 3078 
Q 1150 3584 1784 3584 
Q 2172 3584 2448 3432 
Q 2725 3281 2906 2969 
L 2906 3500 
L 3481 3500 
L 3481 -1331 
L 2906 -1331 
L 2906 525 
z
" id="DejaVuSans-71" transform="scale(0.015625)"/>
       <path d="M 544 1381 
L 544 3500 
L 1119 3500 
L 1119 1403 
Q 1119 906 1312 657 
Q 1506 409 1894 409 
Q 2359 409 2629 706 
Q 2900 1003 2900 1516 
L 2900 3500 
L 3475 3500 
L 3475 0 
L 2900 0 
L 2900 538 
Q 2691 219 2414 64 
Q 2138 -91 1772 -91 
Q 1169 -91 856 284 
Q 544 659 544 1381 
z
M 1991 3584 
L 1991 3584 
z
" id="DejaVuSans-75" transform="scale(0.015625)"/>
       <path d="M 1172 4494 
L 1172 3500 
L 2356 3500 
L 2356 3053 
L 1172 3053 
L 1172 1153 
Q 1172 725 1289 603 
Q 1406 481 1766 481 
L 2356 481 
L 2356 0 
L 1766 0 
Q 1100 0 847 248 
Q 594 497 594 1153 
L 594 3053 
L 172 3053 
L 172 3500 
L 594 3500 
L 594 4494 
L 1172 4494 
z
" id="DejaVuSans-74" transform="scale(0.015625)"/>
       <path d="M 2834 3397 
L 2834 2853 
Q 2591 2978 2328 3040 
Q 2066 3103 1784 3103 
Q 1356 3103 1142 2972 
Q 928 2841 928 2578 
Q 928 2378 1081 2264 
Q 1234 2150 1697 2047 
L 1894 2003 
Q 2506 1872 2764 1633 
Q 3022 1394 3022 966 
Q 3022 478 2636 193 
Q 2250 -91 1575 -91 
Q 1294 -91 989 -36 
Q 684 19 347 128 
L 347 722 
Q 666 556 975 473 
Q 1284 391 1588 391 
Q 1994 391 2212 530 
Q 2431 669 2431 922 
Q 2431 1156 2273 1281 
Q 2116 1406 1581 1522 
L 1381 1569 
Q 847 1681 609 1914 
Q 372 2147 372 2553 
Q 372 3047 722 3315 
Q 1072 3584 1716 3584 
Q 2034 3584 2315 3537 
Q 2597 3491 2834 3397 
z
" id="DejaVuSans-73" transform="scale(0.015625)"/>
      </defs>
      <use xlink:href="#DejaVuSans-52"/>
      <use x="64.982422" xlink:href="#DejaVuSans-65"/>
      <use x="126.505859" xlink:href="#DejaVuSans-71"/>
      <use x="189.982422" xlink:href="#DejaVuSans-75"/>
      <use x="253.361328" xlink:href="#DejaVuSans-65"/>
      <use x="314.884766" xlink:href="#DejaVuSans-74"/>
      <use x="354.09375" xlink:href="#DejaVuSans-65"/>
      <use x="415.617188" xlink:href="#DejaVuSans-73"/>
     </g>
    </g>
    <g id="text_8">
     <!-- 1e9 -->
     <g transform="translate(394.111875 330.916562)scale(0.1 -0.1)">
      <defs>
       <path d="M 703 97 
L 703 672 
Q 941 559 1184 500 
Q 1428 441 1663 441 
Q 2288 441 2617 861 
Q 2947 1281 2994 2138 
Q 2813 1869 2534 1725 
Q 2256 1581 1919 1581 
Q 1219 1581 811 2004 
Q 403 2428 403 3163 
Q 403 3881 828 4315 
Q 1253 4750 1959 4750 
Q 2769 4750 3195 4129 
Q 3622 3509 3622 2328 
Q 3622 1225 3098 567 
Q 2575 -91 1691 -91 
Q 1453 -91 1209 -44 
Q 966 3 703 97 
z
M 1959 2075 
Q 2384 2075 2632 2365 
Q 2881 2656 2881 3163 
Q 2881 3666 2632 3958 
Q 2384 4250 1959 4250 
Q 1534 4250 1286 3958 
Q 1038 3666 1038 3163 
Q 1038 2656 1286 2365 
Q 1534 2075 1959 2075 
z
" id="DejaVuSans-39" transform="scale(0.015625)"/>
      </defs>
      <use xlink:href="#DejaVuSans-31"/>
      <use x="63.623047" xlink:href="#DejaVuSans-65"/>
      <use x="125.146484" xlink:href="#DejaVuSans-39"/>
     </g>
    </g>
   </g>
   <g id="matplotlib.axis_2">
    <g id="ytick_1">
     <g id="line2d_7">
      <defs>
       <path d="M 0 0 
L -3.5 0 
" id="m67d82a405c" style="stroke:#000000;stroke-width:0.8;"/>
      </defs>
      <g>
       <use style="stroke:#000000;stroke-width:0.8;" x="47.72" xlink:href="#m67d82a405c" y="292.08249"/>
      </g>
     </g>
     <g id="text_9">
      <!-- 0.0 -->
      <g transform="translate(24.816875 295.881709)scale(0.1 -0.1)">
       <use xlink:href="#DejaVuSans-30"/>
       <use x="63.623047" xlink:href="#DejaVuSans-2e"/>
       <use x="95.410156" xlink:href="#DejaVuSans-30"/>
      </g>
     </g>
    </g>
    <g id="ytick_2">
     <g id="line2d_8">
      <g>
       <use style="stroke:#000000;stroke-width:0.8;" x="47.72" xlink:href="#m67d82a405c" y="243.731261"/>
      </g>
     </g>
     <g id="text_10">
      <!-- 0.5 -->
      <g transform="translate(24.816875 247.53048)scale(0.1 -0.1)">
       <defs>
        <path d="M 691 4666 
L 3169 4666 
L 3169 4134 
L 1269 4134 
L 1269 2991 
Q 1406 3038 1543 3061 
Q 1681 3084 1819 3084 
Q 2600 3084 3056 2656 
Q 3513 2228 3513 1497 
Q 3513 744 3044 326 
Q 2575 -91 1722 -91 
Q 1428 -91 1123 -41 
Q 819 9 494 109 
L 494 744 
Q 775 591 1075 516 
Q 1375 441 1709 441 
Q 2250 441 2565 725 
Q 2881 1009 2881 1497 
Q 2881 1984 2565 2268 
Q 2250 2553 1709 2553 
Q 1456 2553 1204 2497 
Q 953 2441 691 2322 
L 691 4666 
z
" id="DejaVuSans-35" transform="scale(0.015625)"/>
       </defs>
       <use xlink:href="#DejaVuSans-30"/>
       <use x="63.623047" xlink:href="#DejaVuSans-2e"/>
       <use x="95.410156" xlink:href="#DejaVuSans-35"/>
      </g>
     </g>
    </g>
    <g id="ytick_3">
     <g id="line2d_9">
      <g>
       <use style="stroke:#000000;stroke-width:0.8;" x="47.72" xlink:href="#m67d82a405c" y="195.380033"/>
      </g>
     </g>
     <g id="text_11">
      <!-- 1.0 -->
      <g transform="translate(24.816875 199.179251)scale(0.1 -0.1)">
       <use xlink:href="#DejaVuSans-31"/>
       <use x="63.623047" xlink:href="#DejaVuSans-2e"/>
       <use x="95.410156" xlink:href="#DejaVuSans-30"/>
      </g>
     </g>
    </g>
    <g id="ytick_4">
     <g id="line2d_10">
      <g>
       <use style="stroke:#000000;stroke-width:0.8;" x="47.72" xlink:href="#m67d82a405c" y="147.028804"/>
      </g>
     </g>
     <g id="text_12">
      <!-- 1.5 -->
      <g transform="translate(24.816875 150.828023)scale(0.1 -0.1)">
       <use xlink:href="#DejaVuSans-31"/>
       <use x="63.623047" xlink:href="#DejaVuSans-2e"/>
       <use x="95.410156" xlink:href="#DejaVuSans-35"/>
      </g>
     </g>
    </g>
    <g id="ytick_5">
     <g id="line2d_11">
      <g>
       <use style="stroke:#000000;stroke-width:0.8;" x="47.72" xlink:href="#m67d82a405c" y="98.677575"/>
      </g>
     </g>
     <g id="text_13">
      <!-- 2.0 -->
      <g transform="translate(24.816875 102.476794)scale(0.1 -0.1)">
       <use xlink:href="#DejaVuSans-32"/>
       <use x="63.623047" xlink:href="#DejaVuSans-2e"/>
       <use x="95.410156" xlink:href="#DejaVuSans-30"/>
      </g>
     </g>
    </g>
    <g id="ytick_6">
     <g id="line2d_12">
      <g>
       <use style="stroke:#000000;stroke-width:0.8;" x="47.72" xlink:href="#m67d82a405c" y="50.326347"/>
      </g>
     </g>
     <g id="text_14">
      <!-- 2.5 -->
      <g transform="translate(24.816875 54.125566)scale(0.1 -0.1)">
       <use xlink:href="#DejaVuSans-32"/>
       <use x="63.623047" xlink:href="#DejaVuSans-2e"/>
       <use x="95.410156" xlink:href="#DejaVuSans-35"/>
      </g>
     </g>
    </g>
    <g id="text_15">
     <!-- NB d'entrees -->
     <g transform="translate(18.737188 194.894844)rotate(-90)scale(0.1 -0.1)">
      <defs>
       <path d="M 628 4666 
L 1478 4666 
L 3547 763 
L 3547 4666 
L 4159 4666 
L 4159 0 
L 3309 0 
L 1241 3903 
L 1241 0 
L 628 0 
L 628 4666 
z
" id="DejaVuSans-4e" transform="scale(0.015625)"/>
       <path d="M 1259 2228 
L 1259 519 
L 2272 519 
Q 2781 519 3026 730 
Q 3272 941 3272 1375 
Q 3272 1813 3026 2020 
Q 2781 2228 2272 2228 
L 1259 2228 
z
M 1259 4147 
L 1259 2741 
L 2194 2741 
Q 2656 2741 2882 2914 
Q 3109 3088 3109 3444 
Q 3109 3797 2882 3972 
Q 2656 4147 2194 4147 
L 1259 4147 
z
M 628 4666 
L 2241 4666 
Q 2963 4666 3353 4366 
Q 3744 4066 3744 3513 
Q 3744 3084 3544 2831 
Q 3344 2578 2956 2516 
Q 3422 2416 3680 2098 
Q 3938 1781 3938 1306 
Q 3938 681 3513 340 
Q 3088 0 2303 0 
L 628 0 
L 628 4666 
z
" id="DejaVuSans-42" transform="scale(0.015625)"/>
       <path id="DejaVuSans-20" transform="scale(0.015625)"/>
       <path d="M 2906 2969 
L 2906 4863 
L 3481 4863 
L 3481 0 
L 2906 0 
L 2906 525 
Q 2725 213 2448 61 
Q 2172 -91 1784 -91 
Q 1150 -91 751 415 
Q 353 922 353 1747 
Q 353 2572 751 3078 
Q 1150 3584 1784 3584 
Q 2172 3584 2448 3432 
Q 2725 3281 2906 2969 
z
M 947 1747 
Q 947 1113 1208 752 
Q 1469 391 1925 391 
Q 2381 391 2643 752 
Q 2906 1113 2906 1747 
Q 2906 2381 2643 2742 
Q 2381 3103 1925 3103 
Q 1469 3103 1208 2742 
Q 947 2381 947 1747 
z
" id="DejaVuSans-64" transform="scale(0.015625)"/>
       <path d="M 1147 4666 
L 1147 2931 
L 616 2931 
L 616 4666 
L 1147 4666 
z
" id="DejaVuSans-27" transform="scale(0.015625)"/>
       <path d="M 3513 2113 
L 3513 0 
L 2938 0 
L 2938 2094 
Q 2938 2591 2744 2837 
Q 2550 3084 2163 3084 
Q 1697 3084 1428 2787 
Q 1159 2491 1159 1978 
L 1159 0 
L 581 0 
L 581 3500 
L 1159 3500 
L 1159 2956 
Q 1366 3272 1645 3428 
Q 1925 3584 2291 3584 
Q 2894 3584 3203 3211 
Q 3513 2838 3513 2113 
z
" id="DejaVuSans-6e" transform="scale(0.015625)"/>
       <path d="M 2631 2963 
Q 2534 3019 2420 3045 
Q 2306 3072 2169 3072 
Q 1681 3072 1420 2755 
Q 1159 2438 1159 1844 
L 1159 0 
L 581 0 
L 581 3500 
L 1159 3500 
L 1159 2956 
Q 1341 3275 1631 3429 
Q 1922 3584 2338 3584 
Q 2397 3584 2469 3576 
Q 2541 3569 2628 3553 
L 2631 2963 
z
" id="DejaVuSans-72" transform="scale(0.015625)"/>
      </defs>
      <use xlink:href="#DejaVuSans-4e"/>
      <use x="74.804688" xlink:href="#DejaVuSans-42"/>
      <use x="143.408203" xlink:href="#DejaVuSans-20"/>
      <use x="175.195312" xlink:href="#DejaVuSans-64"/>
      <use x="238.671875" xlink:href="#DejaVuSans-27"/>
      <use x="266.162109" xlink:href="#DejaVuSans-65"/>
      <use x="327.685547" xlink:href="#DejaVuSans-6e"/>
      <use x="391.064453" xlink:href="#DejaVuSans-74"/>
      <use x="430.273438" xlink:href="#DejaVuSans-72"/>
      <use x="469.136719" xlink:href="#DejaVuSans-65"/>
      <use x="530.660156" xlink:href="#DejaVuSans-65"/>
      <use x="592.183594" xlink:href="#DejaVuSans-73"/>
     </g>
    </g>
    <g id="text_16">
     <!-- 1e6 -->
     <g transform="translate(47.72 18.72)scale(0.1 -0.1)">
      <use xlink:href="#DejaVuSans-31"/>
      <use x="63.623047" xlink:href="#DejaVuSans-65"/>
      <use x="125.146484" xlink:href="#DejaVuSans-36"/>
     </g>
    </g>
   </g>
   <g id="line2d_13">
    <path clip-path="url(#p082ceee43a)" d="M 64.323182 268.941012 
L 67.67736 256.064306 
L 71.031538 246.214387 
L 74.385716 238.086932 
L 77.739894 231.102887 
L 81.094073 225.041674 
L 84.448251 219.710177 
L 87.802429 214.92563 
L 91.156607 210.624788 
L 94.510785 206.751081 
L 97.864963 203.248615 
L 101.219141 200.081029 
L 104.57332 197.188078 
L 107.927498 194.86867 
L 111.281676 193.235849 
L 114.635854 192.038673 
L 117.990032 191.121933 
L 121.34421 190.461262 
L 124.698388 189.981134 
L 128.052567 189.638808 
L 131.406745 189.386608 
L 134.760923 189.210609 
L 138.115101 189.098338 
L 141.469279 189.020492 
L 144.823457 188.970014 
L 148.177635 188.939552 
L 151.531814 188.920405 
L 154.885992 188.911025 
L 158.24017 188.904353 
L 161.594348 188.900968 
L 164.948526 188.897197 
L 168.302704 188.896906 
L 171.656882 188.890621 
L 175.011061 188.888397 
L 178.365239 188.8883 
L 181.719417 188.892942 
L 185.073595 188.892361 
L 188.427773 188.888783 
L 191.781951 188.890137 
L 195.136129 188.890137 
L 198.490308 188.890331 
L 201.844486 188.893038 
L 205.198664 188.891685 
L 208.552842 188.889364 
L 211.90702 188.891201 
L 215.261198 188.88772 
L 218.615376 188.886076 
L 221.969555 188.885302 
L 225.323733 188.886849 
L 228.677911 188.890814 
L 232.032089 188.890911 
L 235.386267 188.888783 
L 238.740445 188.888783 
L 242.094624 188.889944 
L 245.448802 188.891878 
L 248.80298 188.891298 
L 252.157158 188.890911 
L 255.511336 188.889654 
L 258.865514 188.891104 
L 262.219692 188.887333 
L 265.573871 188.885012 
L 268.928049 188.88743 
L 272.282227 188.890814 
L 275.636405 188.891685 
L 278.990583 188.887526 
L 282.344761 188.88975 
L 285.698939 188.88888 
L 289.053118 188.889847 
L 292.407296 188.891878 
L 295.761474 188.890621 
L 299.115652 188.88975 
L 302.46983 188.891104 
L 305.824008 188.887043 
L 309.178186 188.885399 
L 312.532365 188.884915 
L 315.886543 188.88743 
L 319.240721 188.891201 
L 322.594899 188.890137 
L 325.949077 188.889364 
L 329.303255 188.88917 
L 332.657433 188.88946 
L 336.011612 188.891491 
L 339.36579 188.892168 
L 342.719968 188.890718 
L 346.074146 188.88946 
L 349.428324 188.891394 
L 352.782502 188.885689 
L 356.13668 188.885302 
L 359.490859 188.88772 
L 362.845037 188.891878 
L 366.199215 188.891975 
L 369.553393 188.88917 
L 372.907571 188.88917 
L 376.261749 188.889267 
L 379.615927 188.891781 
L 382.970106 188.891685 
L 386.324284 188.890718 
L 389.678462 188.889267 
L 393.03264 188.889557 
L 396.386818 188.886463 
" style="fill:none;stroke:#1f77b4;stroke-linecap:square;stroke-width:1.5;"/>
   </g>
   <g id="line2d_14">
    <path clip-path="url(#p082ceee43a)" d="M 64.323182 286.530705 
L 67.67736 283.781454 
L 71.031538 282.093223 
L 74.385716 280.85282 
L 77.739894 279.794315 
L 81.094073 278.804759 
L 84.448251 277.788223 
L 87.802429 276.730008 
L 91.156607 275.632338 
L 94.510785 274.468137 
L 97.864963 273.254811 
L 101.219141 271.970119 
L 104.57332 270.636979 
L 107.927498 269.320665 
L 111.281676 268.178706 
L 114.635854 267.219514 
L 117.990032 266.421236 
L 121.34421 265.784837 
L 124.698388 265.315733 
L 128.052567 264.96422 
L 131.406745 264.716468 
L 134.760923 264.549269 
L 138.115101 264.437385 
L 141.469279 264.374238 
L 144.823457 264.343583 
L 148.177635 264.337975 
L 151.531814 264.340876 
L 154.885992 264.340102 
L 158.24017 264.341262 
L 161.594348 264.341456 
L 164.948526 264.341456 
L 168.302704 264.338942 
L 171.656882 264.341939 
L 175.011061 264.340489 
L 178.365239 264.339038 
L 181.719417 264.33372 
L 185.073595 264.333526 
L 188.427773 264.33517 
L 191.781951 264.33517 
L 195.136129 264.334687 
L 198.490308 264.335267 
L 201.844486 264.332366 
L 205.198664 264.33459 
L 208.552842 264.337975 
L 211.90702 264.336427 
L 215.261198 264.338265 
L 218.615376 264.339328 
L 221.969555 264.339909 
L 225.323733 264.338265 
L 228.677911 264.334397 
L 232.032089 264.331979 
L 235.386267 264.334783 
L 238.740445 264.334783 
L 242.094624 264.335557 
L 245.448802 264.333043 
L 248.80298 264.333913 
L 252.157158 264.336137 
L 255.511336 264.337104 
L 258.865514 264.334397 
L 262.219692 264.337588 
L 265.573871 264.338942 
L 268.928049 264.337394 
L 272.282227 264.3343 
L 275.636405 264.333139 
L 278.990583 264.33575 
L 282.344761 264.335654 
L 285.698939 264.335267 
L 289.053118 264.33517 
L 292.407296 264.334107 
L 295.761474 264.336137 
L 299.115652 264.337394 
L 302.46983 264.335557 
L 305.824008 264.337781 
L 309.178186 264.339135 
L 312.532365 264.338845 
L 315.886543 264.337394 
L 319.240721 264.332656 
L 322.594899 264.331882 
L 325.949077 264.33401 
L 329.303255 264.333816 
L 332.657433 264.335364 
L 336.011612 264.332849 
L 339.36579 264.332366 
L 342.719968 264.334977 
L 346.074146 264.337008 
L 349.428324 264.333623 
L 352.782502 264.337975 
L 356.13668 264.337684 
L 359.490859 264.335654 
L 362.845037 264.332172 
L 366.199215 264.330819 
L 369.553393 264.333139 
L 372.907571 264.33546 
L 376.261749 264.33575 
L 379.615927 264.333623 
L 382.970106 264.334397 
L 386.324284 264.336234 
L 389.678462 264.339038 
L 393.03264 264.337684 
L 396.386818 264.339909 
" style="fill:none;stroke:#ff7f0e;stroke-linecap:square;stroke-width:1.5;"/>
   </g>
   <g id="line2d_15">
    <path clip-path="url(#p082ceee43a)" d="M 64.323182 286.139157 
L 67.67736 282.814526 
L 71.031538 280.714342 
L 74.385716 279.315445 
L 77.739894 278.331787 
L 81.094073 277.630017 
L 84.448251 277.111886 
L 87.802429 276.729234 
L 91.156607 276.463496 
L 94.510785 276.242627 
L 97.864963 276.085099 
L 101.219141 275.956968 
L 104.57332 275.868679 
L 107.927498 275.747221 
L 111.281676 275.641331 
L 114.635854 275.554493 
L 117.990032 275.496858 
L 121.34421 275.451698 
L 124.698388 275.424718 
L 128.052567 275.412727 
L 131.406745 275.41321 
L 134.760923 275.417562 
L 138.115101 275.430037 
L 141.469279 275.450054 
L 144.823457 275.468621 
L 148.177635 275.48506 
L 151.531814 275.499179 
L 154.885992 275.509333 
L 158.24017 275.514845 
L 161.594348 275.518036 
L 164.948526 275.521807 
L 168.302704 275.524612 
L 171.656882 275.527899 
L 175.011061 275.531574 
L 178.365239 275.533121 
L 181.719417 275.533798 
L 185.073595 275.534572 
L 188.427773 275.536506 
L 191.781951 275.535152 
L 195.136129 275.535636 
L 198.490308 275.534862 
L 201.844486 275.535055 
L 205.198664 275.534185 
L 208.552842 275.533121 
L 211.90702 275.532831 
L 215.261198 275.534475 
L 218.615376 275.535055 
L 221.969555 275.535249 
L 225.323733 275.535346 
L 228.677911 275.535249 
L 232.032089 275.53757 
L 235.386267 275.536893 
L 238.740445 275.536893 
L 242.094624 275.534959 
L 245.448802 275.535539 
L 248.80298 275.535249 
L 252.157158 275.533411 
L 255.511336 275.533702 
L 258.865514 275.534959 
L 262.219692 275.535539 
L 265.573871 275.536506 
L 268.928049 275.535636 
L 272.282227 275.535346 
L 275.636405 275.535636 
L 278.990583 275.537183 
L 282.344761 275.535055 
L 285.698939 275.536313 
L 289.053118 275.535442 
L 292.407296 275.534475 
L 295.761474 275.533702 
L 299.115652 275.533315 
L 302.46983 275.533798 
L 305.824008 275.535636 
L 309.178186 275.535926 
L 312.532365 275.536699 
L 315.886543 275.535636 
L 319.240721 275.536603 
L 322.594899 275.53844 
L 325.949077 275.537086 
L 329.303255 275.537473 
L 332.657433 275.535636 
L 336.011612 275.536119 
L 339.36579 275.535926 
L 342.719968 275.534765 
L 346.074146 275.533992 
L 349.428324 275.535442 
L 352.782502 275.536796 
L 356.13668 275.537473 
L 359.490859 275.537086 
L 362.845037 275.536409 
L 366.199215 275.537666 
L 369.553393 275.53815 
L 372.907571 275.535829 
L 376.261749 275.535442 
L 379.615927 275.535055 
L 382.970106 275.534379 
L 386.324284 275.533508 
L 389.678462 275.532154 
L 393.03264 275.533218 
L 396.386818 275.534088 
" style="fill:none;stroke:#2ca02c;stroke-linecap:square;stroke-width:1.5;"/>
   </g>
   <g id="line2d_16">
    <path clip-path="url(#p082ceee43a)" d="M 64.323182 34.534545 
L 67.67736 45.67902 
L 71.031538 55.045814 
L 74.385716 63.181295 
L 77.739894 70.451966 
L 81.094073 77.00201 
L 84.448251 82.9906 
L 87.802429 88.553795 
L 91.156607 93.742172 
L 94.510785 98.620037 
L 97.864963 103.201703 
L 101.219141 107.549059 
L 104.57332 111.683089 
L 107.927498 115.367452 
L 111.281676 118.248122 
L 114.635854 120.491329 
L 117.990032 122.263982 
L 121.34421 123.606212 
L 124.698388 124.582423 
L 128.052567 125.288254 
L 131.406745 125.787722 
L 134.760923 126.126568 
L 138.115101 126.33825 
L 141.469279 126.459224 
L 144.823457 126.521791 
L 148.177635 126.541421 
L 151.531814 126.543549 
L 154.885992 126.543549 
L 158.24017 126.543549 
L 161.594348 126.543549 
L 164.948526 126.543549 
L 168.302704 126.543549 
L 171.656882 126.543549 
L 175.011061 126.543549 
L 178.365239 126.543549 
L 181.719417 126.543549 
L 185.073595 126.543549 
L 188.427773 126.543549 
L 191.781951 126.543549 
L 195.136129 126.543549 
L 198.490308 126.543549 
L 201.844486 126.543549 
L 205.198664 126.543549 
L 208.552842 126.543549 
L 211.90702 126.543549 
L 215.261198 126.543549 
L 218.615376 126.543549 
L 221.969555 126.543549 
L 225.323733 126.543549 
L 228.677911 126.543549 
L 232.032089 126.543549 
L 235.386267 126.543549 
L 238.740445 126.543549 
L 242.094624 126.543549 
L 245.448802 126.543549 
L 248.80298 126.543549 
L 252.157158 126.543549 
L 255.511336 126.543549 
L 258.865514 126.543549 
L 262.219692 126.543549 
L 265.573871 126.543549 
L 268.928049 126.543549 
L 272.282227 126.543549 
L 275.636405 126.543549 
L 278.990583 126.543549 
L 282.344761 126.543549 
L 285.698939 126.543549 
L 289.053118 126.543549 
L 292.407296 126.543549 
L 295.761474 126.543549 
L 299.115652 126.543549 
L 302.46983 126.543549 
L 305.824008 126.543549 
L 309.178186 126.543549 
L 312.532365 126.543549 
L 315.886543 126.543549 
L 319.240721 126.543549 
L 322.594899 126.543549 
L 325.949077 126.543549 
L 329.303255 126.543549 
L 332.657433 126.543549 
L 336.011612 126.543549 
L 339.36579 126.543549 
L 342.719968 126.543549 
L 346.074146 126.543549 
L 349.428324 126.543549 
L 352.782502 126.543549 
L 356.13668 126.543549 
L 359.490859 126.543549 
L 362.845037 126.543549 
L 366.199215 126.543549 
L 369.553393 126.543549 
L 372.907571 126.543549 
L 376.261749 126.543549 
L 379.615927 126.543549 
L 382.970106 126.543549 
L 386.324284 126.543549 
L 389.678462 126.543549 
L 393.03264 126.543549 
L 396.386818 126.543549 
" style="fill:none;stroke:#d62728;stroke-linecap:square;stroke-width:1.5;"/>
   </g>
   <g id="line2d_17">
    <path clip-path="url(#p082ceee43a)" d="M 64.323182 269.984044 
L 67.67736 277.790157 
L 71.031538 282.061698 
L 74.385716 284.692972 
L 77.739894 286.448508 
L 81.094073 287.651003 
L 84.448251 288.528578 
L 87.802429 289.190796 
L 91.156607 289.666669 
L 94.510785 290.04758 
L 97.864963 290.339235 
L 101.219141 290.572288 
L 104.57332 290.752638 
L 107.927498 290.825455 
L 111.281676 290.825455 
L 114.635854 290.825455 
L 117.990032 290.825455 
L 121.34421 290.825455 
L 124.698388 290.825455 
L 128.052567 290.825455 
L 131.406745 290.825455 
L 134.760923 290.825455 
L 138.115101 290.825455 
L 141.469279 290.825455 
L 144.823457 290.825455 
L 148.177635 290.825455 
L 151.531814 290.825455 
L 154.885992 290.825455 
L 158.24017 290.825455 
L 161.594348 290.825455 
L 164.948526 290.825455 
L 168.302704 290.825455 
L 171.656882 290.825455 
L 175.011061 290.825455 
L 178.365239 290.825455 
L 181.719417 290.825455 
L 185.073595 290.825455 
L 188.427773 290.825455 
L 191.781951 290.825455 
L 195.136129 290.825455 
L 198.490308 290.825455 
L 201.844486 290.825455 
L 205.198664 290.825455 
L 208.552842 290.825455 
L 211.90702 290.825455 
L 215.261198 290.825455 
L 218.615376 290.825455 
L 221.969555 290.825455 
L 225.323733 290.825455 
L 228.677911 290.825455 
L 232.032089 290.825455 
L 235.386267 290.825455 
L 238.740445 290.825455 
L 242.094624 290.825455 
L 245.448802 290.825455 
L 248.80298 290.825455 
L 252.157158 290.825455 
L 255.511336 290.825455 
L 258.865514 290.825455 
L 262.219692 290.825455 
L 265.573871 290.825455 
L 268.928049 290.825455 
L 272.282227 290.825455 
L 275.636405 290.825455 
L 278.990583 290.825455 
L 282.344761 290.825455 
L 285.698939 290.825455 
L 289.053118 290.825455 
L 292.407296 290.825455 
L 295.761474 290.825455 
L 299.115652 290.825455 
L 302.46983 290.825455 
L 305.824008 290.825455 
L 309.178186 290.825455 
L 312.532365 290.825455 
L 315.886543 290.825455 
L 319.240721 290.825455 
L 322.594899 290.825455 
L 325.949077 290.825455 
L 329.303255 290.825455 
L 332.657433 290.825455 
L 336.011612 290.825455 
L 339.36579 290.825455 
L 342.719968 290.825455 
L 346.074146 290.825455 
L 349.428324 290.825455 
L 352.782502 290.825455 
L 356.13668 290.825455 
L 359.490859 290.825455 
L 362.845037 290.825455 
L 366.199215 290.825455 
L 369.553393 290.825455 
L 372.907571 290.825455 
L 376.261749 290.825455 
L 379.615927 290.825455 
L 382.970106 290.825455 
L 386.324284 290.825455 
L 389.678462 290.825455 
L 393.03264 290.825455 
L 396.386818 290.825455 
" style="fill:none;stroke:#9467bd;stroke-linecap:square;stroke-width:1.5;"/>
   </g>
   <g id="patch_3">
    <path d="M 47.72 303.64 
L 47.72 21.72 
" style="fill:none;stroke:#000000;stroke-linecap:square;stroke-linejoin:miter;stroke-width:0.8;"/>
   </g>
   <g id="patch_4">
    <path d="M 412.99 303.64 
L 412.99 21.72 
" style="fill:none;stroke:#000000;stroke-linecap:square;stroke-linejoin:miter;stroke-width:0.8;"/>
   </g>
   <g id="patch_5">
    <path d="M 47.72 303.64 
L 412.99 303.64 
" style="fill:none;stroke:#000000;stroke-linecap:square;stroke-linejoin:miter;stroke-width:0.8;"/>
   </g>
   <g id="patch_6">
    <path d="M 47.72 21.72 
L 412.99 21.72 
" style="fill:none;stroke:#000000;stroke-linecap:square;stroke-linejoin:miter;stroke-width:0.8;"/>
   </g>
   <g id="legend_1">
    <g id="patch_7">
     <path d="M 340.797813 103.110625 
L 405.99 103.110625 
Q 407.99 103.110625 407.99 101.110625 
L 407.99 28.72 
Q 407.99 26.72 405.99 26.72 
L 340.797813 26.72 
Q 338.797813 26.72 338.797813 28.72 
L 338.797813 101.110625 
Q 338.797813 103.110625 340.797813 103.110625 
z
" style="fill:#ffffff;opacity:0.8;stroke:#cccccc;stroke-linejoin:miter;"/>
    </g>
    <g id="line2d_18">
     <path d="M 342.797813 34.818438 
L 362.797813 34.818438 
" style="fill:none;stroke:#1f77b4;stroke-linecap:square;stroke-width:1.5;"/>
    </g>
    <g id="line2d_19"/>
    <g id="text_17">
     <!-- HOT -->
     <g transform="translate(370.797813 38.318438)scale(0.1 -0.1)">
      <defs>
       <path d="M 628 4666 
L 1259 4666 
L 1259 2753 
L 3553 2753 
L 3553 4666 
L 4184 4666 
L 4184 0 
L 3553 0 
L 3553 2222 
L 1259 2222 
L 1259 0 
L 628 0 
L 628 4666 
z
" id="DejaVuSans-48" transform="scale(0.015625)"/>
       <path d="M 2522 4238 
Q 1834 4238 1429 3725 
Q 1025 3213 1025 2328 
Q 1025 1447 1429 934 
Q 1834 422 2522 422 
Q 3209 422 3611 934 
Q 4013 1447 4013 2328 
Q 4013 3213 3611 3725 
Q 3209 4238 2522 4238 
z
M 2522 4750 
Q 3503 4750 4090 4092 
Q 4678 3434 4678 2328 
Q 4678 1225 4090 567 
Q 3503 -91 2522 -91 
Q 1538 -91 948 565 
Q 359 1222 359 2328 
Q 359 3434 948 4092 
Q 1538 4750 2522 4750 
z
" id="DejaVuSans-4f" transform="scale(0.015625)"/>
       <path d="M -19 4666 
L 3928 4666 
L 3928 4134 
L 2272 4134 
L 2272 0 
L 1638 0 
L 1638 4134 
L -19 4134 
L -19 4666 
z
" id="DejaVuSans-54" transform="scale(0.015625)"/>
      </defs>
      <use xlink:href="#DejaVuSans-48"/>
      <use x="75.195312" xlink:href="#DejaVuSans-4f"/>
      <use x="153.90625" xlink:href="#DejaVuSans-54"/>
     </g>
    </g>
    <g id="line2d_20">
     <path d="M 342.797813 49.496563 
L 362.797813 49.496563 
" style="fill:none;stroke:#ff7f0e;stroke-linecap:square;stroke-width:1.5;"/>
    </g>
    <g id="line2d_21"/>
    <g id="text_18">
     <!-- WARM -->
     <g transform="translate(370.797813 52.996563)scale(0.1 -0.1)">
      <defs>
       <path d="M 213 4666 
L 850 4666 
L 1831 722 
L 2809 4666 
L 3519 4666 
L 4500 722 
L 5478 4666 
L 6119 4666 
L 4947 0 
L 4153 0 
L 3169 4050 
L 2175 0 
L 1381 0 
L 213 4666 
z
" id="DejaVuSans-57" transform="scale(0.015625)"/>
       <path d="M 2188 4044 
L 1331 1722 
L 3047 1722 
L 2188 4044 
z
M 1831 4666 
L 2547 4666 
L 4325 0 
L 3669 0 
L 3244 1197 
L 1141 1197 
L 716 0 
L 50 0 
L 1831 4666 
z
" id="DejaVuSans-41" transform="scale(0.015625)"/>
       <path d="M 628 4666 
L 1569 4666 
L 2759 1491 
L 3956 4666 
L 4897 4666 
L 4897 0 
L 4281 0 
L 4281 4097 
L 3078 897 
L 2444 897 
L 1241 4097 
L 1241 0 
L 628 0 
L 628 4666 
z
" id="DejaVuSans-4d" transform="scale(0.015625)"/>
      </defs>
      <use xlink:href="#DejaVuSans-57"/>
      <use x="93.376953" xlink:href="#DejaVuSans-41"/>
      <use x="161.785156" xlink:href="#DejaVuSans-52"/>
      <use x="231.267578" xlink:href="#DejaVuSans-4d"/>
     </g>
    </g>
    <g id="line2d_22">
     <path d="M 342.797813 64.174688 
L 362.797813 64.174688 
" style="fill:none;stroke:#2ca02c;stroke-linecap:square;stroke-width:1.5;"/>
    </g>
    <g id="line2d_23"/>
    <g id="text_19">
     <!-- MILD -->
     <g transform="translate(370.797813 67.674688)scale(0.1 -0.1)">
      <defs>
       <path d="M 628 4666 
L 1259 4666 
L 1259 0 
L 628 0 
L 628 4666 
z
" id="DejaVuSans-49" transform="scale(0.015625)"/>
       <path d="M 628 4666 
L 1259 4666 
L 1259 531 
L 3531 531 
L 3531 0 
L 628 0 
L 628 4666 
z
" id="DejaVuSans-4c" transform="scale(0.015625)"/>
       <path d="M 1259 4147 
L 1259 519 
L 2022 519 
Q 2988 519 3436 956 
Q 3884 1394 3884 2338 
Q 3884 3275 3436 3711 
Q 2988 4147 2022 4147 
L 1259 4147 
z
M 628 4666 
L 1925 4666 
Q 3281 4666 3915 4102 
Q 4550 3538 4550 2338 
Q 4550 1131 3912 565 
Q 3275 0 1925 0 
L 628 0 
L 628 4666 
z
" id="DejaVuSans-44" transform="scale(0.015625)"/>
      </defs>
      <use xlink:href="#DejaVuSans-4d"/>
      <use x="86.279297" xlink:href="#DejaVuSans-49"/>
      <use x="115.771484" xlink:href="#DejaVuSans-4c"/>
      <use x="171.484375" xlink:href="#DejaVuSans-44"/>
     </g>
    </g>
    <g id="line2d_24">
     <path d="M 342.797813 78.852813 
L 362.797813 78.852813 
" style="fill:none;stroke:#d62728;stroke-linecap:square;stroke-width:1.5;"/>
    </g>
    <g id="line2d_25"/>
    <g id="text_20">
     <!-- COLD -->
     <g transform="translate(370.797813 82.352813)scale(0.1 -0.1)">
      <defs>
       <path d="M 4122 4306 
L 4122 3641 
Q 3803 3938 3442 4084 
Q 3081 4231 2675 4231 
Q 1875 4231 1450 3742 
Q 1025 3253 1025 2328 
Q 1025 1406 1450 917 
Q 1875 428 2675 428 
Q 3081 428 3442 575 
Q 3803 722 4122 1019 
L 4122 359 
Q 3791 134 3420 21 
Q 3050 -91 2638 -91 
Q 1578 -91 968 557 
Q 359 1206 359 2328 
Q 359 3453 968 4101 
Q 1578 4750 2638 4750 
Q 3056 4750 3426 4639 
Q 3797 4528 4122 4306 
z
" id="DejaVuSans-43" transform="scale(0.015625)"/>
      </defs>
      <use xlink:href="#DejaVuSans-43"/>
      <use x="69.824219" xlink:href="#DejaVuSans-4f"/>
      <use x="148.535156" xlink:href="#DejaVuSans-4c"/>
      <use x="204.248047" xlink:href="#DejaVuSans-44"/>
     </g>
    </g>
    <g id="line2d_26">
     <path d="M 342.797813 93.530938 
L 362.797813 93.530938 
" style="fill:none;stroke:#9467bd;stroke-linecap:square;stroke-width:1.5;"/>
    </g>
    <g id="line2d_27"/>
    <g id="text_21">
     <!-- EMPTY -->
     <g transform="translate(370.797813 97.030938)scale(0.1 -0.1)">
      <defs>
       <path d="M 628 4666 
L 3578 4666 
L 3578 4134 
L 1259 4134 
L 1259 2753 
L 3481 2753 
L 3481 2222 
L 1259 2222 
L 1259 531 
L 3634 531 
L 3634 0 
L 628 0 
L 628 4666 
z
" id="DejaVuSans-45" transform="scale(0.015625)"/>
       <path d="M 1259 4147 
L 1259 2394 
L 2053 2394 
Q 2494 2394 2734 2622 
Q 2975 2850 2975 3272 
Q 2975 3691 2734 3919 
Q 2494 4147 2053 4147 
L 1259 4147 
z
M 628 4666 
L 2053 4666 
Q 2838 4666 3239 4311 
Q 3641 3956 3641 3272 
Q 3641 2581 3239 2228 
Q 2838 1875 2053 1875 
L 1259 1875 
L 1259 0 
L 628 0 
L 628 4666 
z
" id="DejaVuSans-50" transform="scale(0.015625)"/>
       <path d="M -13 4666 
L 666 4666 
L 1959 2747 
L 3244 4666 
L 3922 4666 
L 2272 2222 
L 2272 0 
L 1638 0 
L 1638 2222 
L -13 4666 
z
" id="DejaVuSans-59" transform="scale(0.015625)"/>
      </defs>
      <use xlink:href="#DejaVuSans-45"/>
      <use x="63.183594" xlink:href="#DejaVuSans-4d"/>
      <use x="149.462891" xlink:href="#DejaVuSans-50"/>
      <use x="209.765625" xlink:href="#DejaVuSans-54"/>
      <use x="270.849609" xlink:href="#DejaVuSans-59"/>
     </g>
    </g>
   </g>
  </g>
  <g id="axes_2">
   <g id="matplotlib.axis_3">
    <g id="ytick_7">
     <g id="line2d_28">
      <defs>
       <path d="M 0 0 
L 3.5 0 
" id="m3417f24de9" style="stroke:#000000;stroke-width:0.8;"/>
      </defs>
      <g>
       <use style="stroke:#000000;stroke-width:0.8;" x="412.99" xlink:href="#m3417f24de9" y="302.889608"/>
      </g>
     </g>
     <g id="text_22">
      <!-- 0.6 -->
      <g transform="translate(419.99 306.688827)scale(0.1 -0.1)">
       <use xlink:href="#DejaVuSans-30"/>
       <use x="63.623047" xlink:href="#DejaVuSans-2e"/>
       <use x="95.410156" xlink:href="#DejaVuSans-36"/>
      </g>
     </g>
    </g>
    <g id="ytick_8">
     <g id="line2d_29">
      <g>
       <use style="stroke:#000000;stroke-width:0.8;" x="412.99" xlink:href="#m3417f24de9" y="261.285613"/>
      </g>
     </g>
     <g id="text_23">
      <!-- 0.8 -->
      <g transform="translate(419.99 265.084832)scale(0.1 -0.1)">
       <use xlink:href="#DejaVuSans-30"/>
       <use x="63.623047" xlink:href="#DejaVuSans-2e"/>
       <use x="95.410156" xlink:href="#DejaVuSans-38"/>
      </g>
     </g>
    </g>
    <g id="ytick_9">
     <g id="line2d_30">
      <g>
       <use style="stroke:#000000;stroke-width:0.8;" x="412.99" xlink:href="#m3417f24de9" y="219.681619"/>
      </g>
     </g>
     <g id="text_24">
      <!-- 1.0 -->
      <g transform="translate(419.99 223.480838)scale(0.1 -0.1)">
       <use xlink:href="#DejaVuSans-31"/>
       <use x="63.623047" xlink:href="#DejaVuSans-2e"/>
       <use x="95.410156" xlink:href="#DejaVuSans-30"/>
      </g>
     </g>
    </g>
    <g id="ytick_10">
     <g id="line2d_31">
      <g>
       <use style="stroke:#000000;stroke-width:0.8;" x="412.99" xlink:href="#m3417f24de9" y="178.077625"/>
      </g>
     </g>
     <g id="text_25">
      <!-- 1.2 -->
      <g transform="translate(419.99 181.876843)scale(0.1 -0.1)">
       <use xlink:href="#DejaVuSans-31"/>
       <use x="63.623047" xlink:href="#DejaVuSans-2e"/>
       <use x="95.410156" xlink:href="#DejaVuSans-32"/>
      </g>
     </g>
    </g>
    <g id="ytick_11">
     <g id="line2d_32">
      <g>
       <use style="stroke:#000000;stroke-width:0.8;" x="412.99" xlink:href="#m3417f24de9" y="136.47363"/>
      </g>
     </g>
     <g id="text_26">
      <!-- 1.4 -->
      <g transform="translate(419.99 140.272849)scale(0.1 -0.1)">
       <use xlink:href="#DejaVuSans-31"/>
       <use x="63.623047" xlink:href="#DejaVuSans-2e"/>
       <use x="95.410156" xlink:href="#DejaVuSans-34"/>
      </g>
     </g>
    </g>
    <g id="ytick_12">
     <g id="line2d_33">
      <g>
       <use style="stroke:#000000;stroke-width:0.8;" x="412.99" xlink:href="#m3417f24de9" y="94.869636"/>
      </g>
     </g>
     <g id="text_27">
      <!-- 1.6 -->
      <g transform="translate(419.99 98.668854)scale(0.1 -0.1)">
       <use xlink:href="#DejaVuSans-31"/>
       <use x="63.623047" xlink:href="#DejaVuSans-2e"/>
       <use x="95.410156" xlink:href="#DejaVuSans-36"/>
      </g>
     </g>
    </g>
    <g id="ytick_13">
     <g id="line2d_34">
      <g>
       <use style="stroke:#000000;stroke-width:0.8;" x="412.99" xlink:href="#m3417f24de9" y="53.265641"/>
      </g>
     </g>
     <g id="text_28">
      <!-- 1.8 -->
      <g transform="translate(419.99 57.06486)scale(0.1 -0.1)">
       <use xlink:href="#DejaVuSans-31"/>
       <use x="63.623047" xlink:href="#DejaVuSans-2e"/>
       <use x="95.410156" xlink:href="#DejaVuSans-38"/>
      </g>
     </g>
    </g>
    <g id="text_29">
     <!-- Taux de HIT -->
     <g transform="translate(447.491562 191.819062)rotate(-90)scale(0.1 -0.1)">
      <defs>
       <path d="M 2194 1759 
Q 1497 1759 1228 1600 
Q 959 1441 959 1056 
Q 959 750 1161 570 
Q 1363 391 1709 391 
Q 2188 391 2477 730 
Q 2766 1069 2766 1631 
L 2766 1759 
L 2194 1759 
z
M 3341 1997 
L 3341 0 
L 2766 0 
L 2766 531 
Q 2569 213 2275 61 
Q 1981 -91 1556 -91 
Q 1019 -91 701 211 
Q 384 513 384 1019 
Q 384 1609 779 1909 
Q 1175 2209 1959 2209 
L 2766 2209 
L 2766 2266 
Q 2766 2663 2505 2880 
Q 2244 3097 1772 3097 
Q 1472 3097 1187 3025 
Q 903 2953 641 2809 
L 641 3341 
Q 956 3463 1253 3523 
Q 1550 3584 1831 3584 
Q 2591 3584 2966 3190 
Q 3341 2797 3341 1997 
z
" id="DejaVuSans-61" transform="scale(0.015625)"/>
       <path d="M 3513 3500 
L 2247 1797 
L 3578 0 
L 2900 0 
L 1881 1375 
L 863 0 
L 184 0 
L 1544 1831 
L 300 3500 
L 978 3500 
L 1906 2253 
L 2834 3500 
L 3513 3500 
z
" id="DejaVuSans-78" transform="scale(0.015625)"/>
      </defs>
      <use xlink:href="#DejaVuSans-54"/>
      <use x="44.583984" xlink:href="#DejaVuSans-61"/>
      <use x="105.863281" xlink:href="#DejaVuSans-75"/>
      <use x="169.242188" xlink:href="#DejaVuSans-78"/>
      <use x="228.421875" xlink:href="#DejaVuSans-20"/>
      <use x="260.208984" xlink:href="#DejaVuSans-64"/>
      <use x="323.685547" xlink:href="#DejaVuSans-65"/>
      <use x="385.208984" xlink:href="#DejaVuSans-20"/>
      <use x="416.996094" xlink:href="#DejaVuSans-48"/>
      <use x="492.191406" xlink:href="#DejaVuSans-49"/>
      <use x="521.683594" xlink:href="#DejaVuSans-54"/>
     </g>
    </g>
   </g>
   <g id="line2d_35">
    <path clip-path="url(#p082ceee43a)" d="M 64.323182 34.534545 
L 67.67736 290.825455 
L 71.031538 284.988077 
L 74.385716 282.256029 
L 77.739894 280.611998 
L 81.094073 279.50382 
L 84.448251 278.701653 
L 87.802429 278.045358 
L 91.156607 277.41747 
L 94.510785 276.900478 
L 97.864963 276.305474 
L 101.219141 275.92124 
L 104.57332 275.416301 
L 107.927498 268.412525 
L 111.281676 264.997099 
L 114.635854 266.102712 
L 117.990032 266.932135 
L 121.34421 267.711628 
L 124.698388 268.262941 
L 128.052567 268.762222 
L 131.406745 269.143847 
L 134.760923 269.463778 
L 138.115101 269.947445 
L 141.469279 270.023857 
L 144.823457 270.273589 
L 148.177635 270.521774 
L 151.531814 268.990354 
L 154.885992 261.679972 
L 158.24017 263.682615 
L 161.594348 265.042368 
L 164.948526 266.240782 
L 168.302704 267.172847 
L 171.656882 267.902827 
L 175.011061 268.513814 
L 178.365239 269.05034 
L 181.719417 269.505447 
L 185.073595 269.853707 
L 188.427773 270.060733 
L 191.781951 270.37751 
L 195.136129 270.560821 
L 198.490308 263.475558 
L 201.844486 262.952375 
L 205.198664 264.489857 
L 208.552842 265.733704 
L 211.90702 266.813405 
L 215.261198 267.602185 
L 218.615376 268.280668 
L 221.969555 268.832816 
L 225.323733 269.290758 
L 228.677911 269.774192 
L 232.032089 269.943821 
L 235.386267 270.268027 
L 238.740445 270.467314 
L 242.094624 267.358904 
L 245.448802 262.072404 
L 248.80298 263.884018 
L 252.157158 265.24728 
L 255.511336 266.395628 
L 258.865514 267.28318 
L 262.219692 268.008357 
L 265.573871 268.613881 
L 268.928049 269.096496 
L 272.282227 269.585276 
L 275.636405 269.872808 
L 278.990583 270.128959 
L 282.344761 270.399778 
L 285.698939 270.597238 
L 289.053118 262.159701 
L 292.407296 263.250218 
L 295.761474 264.68609 
L 299.115652 265.93638 
L 302.46983 266.903789 
L 305.824008 267.732399 
L 309.178186 268.389203 
L 312.532365 268.932591 
L 315.886543 269.360078 
L 319.240721 269.809426 
L 322.594899 269.973584 
L 325.949077 270.290115 
L 329.303255 270.501063 
L 332.657433 265.863825 
L 336.011612 262.405576 
L 339.36579 264.119166 
L 342.719968 265.416767 
L 346.074146 266.570058 
L 349.428324 267.410208 
L 352.782502 268.134906 
L 356.13668 268.668135 
L 359.490859 269.151942 
L 362.845037 269.705352 
L 366.199215 269.909095 
L 369.553393 270.111843 
L 372.907571 270.486023 
L 376.261749 270.096655 
L 379.615927 261.392428 
L 382.970106 263.511167 
L 386.324284 264.907135 
L 389.678462 266.107131 
L 393.03264 267.055711 
L 396.386818 267.847286 
" style="fill:none;stroke:#00ffff;stroke-linecap:square;stroke-width:1.5;"/>
   </g>
   <g id="patch_8">
    <path d="M 47.72 303.64 
L 47.72 21.72 
" style="fill:none;stroke:#000000;stroke-linecap:square;stroke-linejoin:miter;stroke-width:0.8;"/>
   </g>
   <g id="patch_9">
    <path d="M 412.99 303.64 
L 412.99 21.72 
" style="fill:none;stroke:#000000;stroke-linecap:square;stroke-linejoin:miter;stroke-width:0.8;"/>
   </g>
   <g id="patch_10">
    <path d="M 47.72 303.64 
L 412.99 303.64 
" style="fill:none;stroke:#000000;stroke-linecap:square;stroke-linejoin:miter;stroke-width:0.8;"/>
   </g>
   <g id="patch_11">
    <path d="M 47.72 21.72 
L 412.99 21.72 
" style="fill:none;stroke:#000000;stroke-linecap:square;stroke-linejoin:miter;stroke-width:0.8;"/>
   </g>
   <g id="legend_2">
    <g id="patch_12">
     <path d="M 357.411875 44.398125 
L 405.99 44.398125 
Q 407.99 44.398125 407.99 42.398125 
L 407.99 28.72 
Q 407.99 26.72 405.99 26.72 
L 357.411875 26.72 
Q 355.411875 26.72 355.411875 28.72 
L 355.411875 42.398125 
Q 355.411875 44.398125 357.411875 44.398125 
z
" style="fill:#ffffff;opacity:0.8;stroke:#cccccc;stroke-linejoin:miter;"/>
    </g>
    <g id="line2d_36">
     <path d="M 359.411875 34.818438 
L 379.411875 34.818438 
" style="fill:none;stroke:#00ffff;stroke-linecap:square;stroke-width:1.5;"/>
    </g>
    <g id="line2d_37"/>
    <g id="text_30">
     <!-- HIT -->
     <g transform="translate(387.411875 38.318438)scale(0.1 -0.1)">
      <use xlink:href="#DejaVuSans-48"/>
      <use x="75.195312" xlink:href="#DejaVuSans-49"/>
      <use x="104.6875" xlink:href="#DejaVuSans-54"/>
     </g>
    </g>
   </g>
  </g>
 </g>
 <defs>
  <clipPath id="p082ceee43a">
   <rect height="281.92" width="365.27" x="47.72" y="21.72"/>
  </clipPath>
 </defs>
</svg>
