<?xml version="1.0" encoding="utf-8" standalone="no"?>
<!DOCTYPE svg PUBLIC "-//W3C//DTD SVG 1.1//EN"
  "http://www.w3.org/Graphics/SVG/1.1/DTD/svg11.dtd">
<svg height="345.6pt" version="1.1" viewBox="0 0 460.8 345.6" width="460.8pt" xmlns="http://www.w3.org/2000/svg" xmlns:xlink="http://www.w3.org/1999/xlink">
 <metadata>
  <rdf:RDF xmlns:cc="http://creativecommons.org/ns#" xmlns:dc="http://purl.org/dc/elements/1.1/" xmlns:rdf="http://www.w3.org/1999/02/22-rdf-syntax-ns#">
   <cc:Work>
    <dc:type rdf:resource="http://purl.org/dc/dcmitype/StillImage"/>
    <dc:date>2021-08-05T03:37:02.388855</dc:date>
    <dc:format>image/svg+xml</dc:format>
    <dc:creator>
     <cc:Agent>
      <dc:title>Matplotlib v3.4.2, https://matplotlib.org/</dc:title>
     </cc:Agent>
    </dc:creator>
   </cc:Work>
  </rdf:RDF>
 </metadata>
 <defs>
  <style type="text/css">*{stroke-linecap:butt;stroke-linejoin:round;}</style>
 </defs>
 <g id="figure_1">
  <g id="patch_1">
   <path d="M 0 345.6 
L 460.8 345.6 
L 460.8 0 
L 0 0 
z
" style="fill:#ffffff;"/>
  </g>
  <g id="axes_1">
   <g id="patch_2">
    <path d="M 47.72 303.64 
L 412.99 303.64 
L 412.99 21.72 
L 47.72 21.72 
z
" style="fill:#ffffff;"/>
   </g>
   <g id="matplotlib.axis_1">
    <g id="xtick_1">
     <g id="line2d_1">
      <defs>
       <path d="M 0 0 
L 0 3.5 
" id="mc32c9964f6" style="stroke:#000000;stroke-width:0.8;"/>
      </defs>
      <g>
       <use style="stroke:#000000;stroke-width:0.8;" x="60.969004" xlink:href="#mc32c9964f6" y="303.64"/>
      </g>
     </g>
     <g id="text_1">
      <!-- 0.0 -->
      <g transform="translate(53.017441 318.238437)scale(0.1 -0.1)">
       <defs>
        <path d="M 2034 4250 
Q 1547 4250 1301 3770 
Q 1056 3291 1056 2328 
Q 1056 1369 1301 889 
Q 1547 409 2034 409 
Q 2525 409 2770 889 
Q 3016 1369 3016 2328 
Q 3016 3291 2770 3770 
Q 2525 4250 2034 4250 
z
M 2034 4750 
Q 2819 4750 3233 4129 
Q 3647 3509 3647 2328 
Q 3647 1150 3233 529 
Q 2819 -91 2034 -91 
Q 1250 -91 836 529 
Q 422 1150 422 2328 
Q 422 3509 836 4129 
Q 1250 4750 2034 4750 
z
" id="DejaVuSans-30" transform="scale(0.015625)"/>
        <path d="M 684 794 
L 1344 794 
L 1344 0 
L 684 0 
L 684 794 
z
" id="DejaVuSans-2e" transform="scale(0.015625)"/>
       </defs>
       <use xlink:href="#DejaVuSans-30"/>
       <use x="63.623047" xlink:href="#DejaVuSans-2e"/>
       <use x="95.410156" xlink:href="#DejaVuSans-30"/>
      </g>
     </g>
    </g>
    <g id="xtick_2">
     <g id="line2d_2">
      <g>
       <use style="stroke:#000000;stroke-width:0.8;" x="128.052567" xlink:href="#mc32c9964f6" y="303.64"/>
      </g>
     </g>
     <g id="text_2">
      <!-- 0.2 -->
      <g transform="translate(120.101004 318.238437)scale(0.1 -0.1)">
       <defs>
        <path d="M 1228 531 
L 3431 531 
L 3431 0 
L 469 0 
L 469 531 
Q 828 903 1448 1529 
Q 2069 2156 2228 2338 
Q 2531 2678 2651 2914 
Q 2772 3150 2772 3378 
Q 2772 3750 2511 3984 
Q 2250 4219 1831 4219 
Q 1534 4219 1204 4116 
Q 875 4013 500 3803 
L 500 4441 
Q 881 4594 1212 4672 
Q 1544 4750 1819 4750 
Q 2544 4750 2975 4387 
Q 3406 4025 3406 3419 
Q 3406 3131 3298 2873 
Q 3191 2616 2906 2266 
Q 2828 2175 2409 1742 
Q 1991 1309 1228 531 
z
" id="DejaVuSans-32" transform="scale(0.015625)"/>
       </defs>
       <use xlink:href="#DejaVuSans-30"/>
       <use x="63.623047" xlink:href="#DejaVuSans-2e"/>
       <use x="95.410156" xlink:href="#DejaVuSans-32"/>
      </g>
     </g>
    </g>
    <g id="xtick_3">
     <g id="line2d_3">
      <g>
       <use style="stroke:#000000;stroke-width:0.8;" x="195.136129" xlink:href="#mc32c9964f6" y="303.64"/>
      </g>
     </g>
     <g id="text_3">
      <!-- 0.4 -->
      <g transform="translate(187.184567 318.238437)scale(0.1 -0.1)">
       <defs>
        <path d="M 2419 4116 
L 825 1625 
L 2419 1625 
L 2419 4116 
z
M 2253 4666 
L 3047 4666 
L 3047 1625 
L 3713 1625 
L 3713 1100 
L 3047 1100 
L 3047 0 
L 2419 0 
L 2419 1100 
L 313 1100 
L 313 1709 
L 2253 4666 
z
" id="DejaVuSans-34" transform="scale(0.015625)"/>
       </defs>
       <use xlink:href="#DejaVuSans-30"/>
       <use x="63.623047" xlink:href="#DejaVuSans-2e"/>
       <use x="95.410156" xlink:href="#DejaVuSans-34"/>
      </g>
     </g>
    </g>
    <g id="xtick_4">
     <g id="line2d_4">
      <g>
       <use style="stroke:#000000;stroke-width:0.8;" x="262.219692" xlink:href="#mc32c9964f6" y="303.64"/>
      </g>
     </g>
     <g id="text_4">
      <!-- 0.6 -->
      <g transform="translate(254.26813 318.238437)scale(0.1 -0.1)">
       <defs>
        <path d="M 2113 2584 
Q 1688 2584 1439 2293 
Q 1191 2003 1191 1497 
Q 1191 994 1439 701 
Q 1688 409 2113 409 
Q 2538 409 2786 701 
Q 3034 994 3034 1497 
Q 3034 2003 2786 2293 
Q 2538 2584 2113 2584 
z
M 3366 4563 
L 3366 3988 
Q 3128 4100 2886 4159 
Q 2644 4219 2406 4219 
Q 1781 4219 1451 3797 
Q 1122 3375 1075 2522 
Q 1259 2794 1537 2939 
Q 1816 3084 2150 3084 
Q 2853 3084 3261 2657 
Q 3669 2231 3669 1497 
Q 3669 778 3244 343 
Q 2819 -91 2113 -91 
Q 1303 -91 875 529 
Q 447 1150 447 2328 
Q 447 3434 972 4092 
Q 1497 4750 2381 4750 
Q 2619 4750 2861 4703 
Q 3103 4656 3366 4563 
z
" id="DejaVuSans-36" transform="scale(0.015625)"/>
       </defs>
       <use xlink:href="#DejaVuSans-30"/>
       <use x="63.623047" xlink:href="#DejaVuSans-2e"/>
       <use x="95.410156" xlink:href="#DejaVuSans-36"/>
      </g>
     </g>
    </g>
    <g id="xtick_5">
     <g id="line2d_5">
      <g>
       <use style="stroke:#000000;stroke-width:0.8;" x="329.303255" xlink:href="#mc32c9964f6" y="303.64"/>
      </g>
     </g>
     <g id="text_5">
      <!-- 0.8 -->
      <g transform="translate(321.351693 318.238437)scale(0.1 -0.1)">
       <defs>
        <path d="M 2034 2216 
Q 1584 2216 1326 1975 
Q 1069 1734 1069 1313 
Q 1069 891 1326 650 
Q 1584 409 2034 409 
Q 2484 409 2743 651 
Q 3003 894 3003 1313 
Q 3003 1734 2745 1975 
Q 2488 2216 2034 2216 
z
M 1403 2484 
Q 997 2584 770 2862 
Q 544 3141 544 3541 
Q 544 4100 942 4425 
Q 1341 4750 2034 4750 
Q 2731 4750 3128 4425 
Q 3525 4100 3525 3541 
Q 3525 3141 3298 2862 
Q 3072 2584 2669 2484 
Q 3125 2378 3379 2068 
Q 3634 1759 3634 1313 
Q 3634 634 3220 271 
Q 2806 -91 2034 -91 
Q 1263 -91 848 271 
Q 434 634 434 1313 
Q 434 1759 690 2068 
Q 947 2378 1403 2484 
z
M 1172 3481 
Q 1172 3119 1398 2916 
Q 1625 2713 2034 2713 
Q 2441 2713 2670 2916 
Q 2900 3119 2900 3481 
Q 2900 3844 2670 4047 
Q 2441 4250 2034 4250 
Q 1625 4250 1398 4047 
Q 1172 3844 1172 3481 
z
" id="DejaVuSans-38" transform="scale(0.015625)"/>
       </defs>
       <use xlink:href="#DejaVuSans-30"/>
       <use x="63.623047" xlink:href="#DejaVuSans-2e"/>
       <use x="95.410156" xlink:href="#DejaVuSans-38"/>
      </g>
     </g>
    </g>
    <g id="xtick_6">
     <g id="line2d_6">
      <g>
       <use style="stroke:#000000;stroke-width:0.8;" x="396.386818" xlink:href="#mc32c9964f6" y="303.64"/>
      </g>
     </g>
     <g id="text_6">
      <!-- 1.0 -->
      <g transform="translate(388.435256 318.238437)scale(0.1 -0.1)">
       <defs>
        <path d="M 794 531 
L 1825 531 
L 1825 4091 
L 703 3866 
L 703 4441 
L 1819 4666 
L 2450 4666 
L 2450 531 
L 3481 531 
L 3481 0 
L 794 0 
L 794 531 
z
" id="DejaVuSans-31" transform="scale(0.015625)"/>
       </defs>
       <use xlink:href="#DejaVuSans-31"/>
       <use x="63.623047" xlink:href="#DejaVuSans-2e"/>
       <use x="95.410156" xlink:href="#DejaVuSans-30"/>
      </g>
     </g>
    </g>
    <g id="text_7">
     <!-- Requetes -->
     <g transform="translate(206.968281 331.916562)scale(0.1 -0.1)">
      <defs>
       <path d="M 2841 2188 
Q 3044 2119 3236 1894 
Q 3428 1669 3622 1275 
L 4263 0 
L 3584 0 
L 2988 1197 
Q 2756 1666 2539 1819 
Q 2322 1972 1947 1972 
L 1259 1972 
L 1259 0 
L 628 0 
L 628 4666 
L 2053 4666 
Q 2853 4666 3247 4331 
Q 3641 3997 3641 3322 
Q 3641 2881 3436 2590 
Q 3231 2300 2841 2188 
z
M 1259 4147 
L 1259 2491 
L 2053 2491 
Q 2509 2491 2742 2702 
Q 2975 2913 2975 3322 
Q 2975 3731 2742 3939 
Q 2509 4147 2053 4147 
L 1259 4147 
z
" id="DejaVuSans-52" transform="scale(0.015625)"/>
       <path d="M 3597 1894 
L 3597 1613 
L 953 1613 
Q 991 1019 1311 708 
Q 1631 397 2203 397 
Q 2534 397 2845 478 
Q 3156 559 3463 722 
L 3463 178 
Q 3153 47 2828 -22 
Q 2503 -91 2169 -91 
Q 1331 -91 842 396 
Q 353 884 353 1716 
Q 353 2575 817 3079 
Q 1281 3584 2069 3584 
Q 2775 3584 3186 3129 
Q 3597 2675 3597 1894 
z
M 3022 2063 
Q 3016 2534 2758 2815 
Q 2500 3097 2075 3097 
Q 1594 3097 1305 2825 
Q 1016 2553 972 2059 
L 3022 2063 
z
" id="DejaVuSans-65" transform="scale(0.015625)"/>
       <path d="M 947 1747 
Q 947 1113 1208 752 
Q 1469 391 1925 391 
Q 2381 391 2643 752 
Q 2906 1113 2906 1747 
Q 2906 2381 2643 2742 
Q 2381 3103 1925 3103 
Q 1469 3103 1208 2742 
Q 947 2381 947 1747 
z
M 2906 525 
Q 2725 213 2448 61 
Q 2172 -91 1784 -91 
Q 1150 -91 751 415 
Q 353 922 353 1747 
Q 353 2572 751 3078 
Q 1150 3584 1784 3584 
Q 2172 3584 2448 3432 
Q 2725 3281 2906 2969 
L 2906 3500 
L 3481 3500 
L 3481 -1331 
L 2906 -1331 
L 2906 525 
z
" id="DejaVuSans-71" transform="scale(0.015625)"/>
       <path d="M 544 1381 
L 544 3500 
L 1119 3500 
L 1119 1403 
Q 1119 906 1312 657 
Q 1506 409 1894 409 
Q 2359 409 2629 706 
Q 2900 1003 2900 1516 
L 2900 3500 
L 3475 3500 
L 3475 0 
L 2900 0 
L 2900 538 
Q 2691 219 2414 64 
Q 2138 -91 1772 -91 
Q 1169 -91 856 284 
Q 544 659 544 1381 
z
M 1991 3584 
L 1991 3584 
z
" id="DejaVuSans-75" transform="scale(0.015625)"/>
       <path d="M 1172 4494 
L 1172 3500 
L 2356 3500 
L 2356 3053 
L 1172 3053 
L 1172 1153 
Q 1172 725 1289 603 
Q 1406 481 1766 481 
L 2356 481 
L 2356 0 
L 1766 0 
Q 1100 0 847 248 
Q 594 497 594 1153 
L 594 3053 
L 172 3053 
L 172 3500 
L 594 3500 
L 594 4494 
L 1172 4494 
z
" id="DejaVuSans-74" transform="scale(0.015625)"/>
       <path d="M 2834 3397 
L 2834 2853 
Q 2591 2978 2328 3040 
Q 2066 3103 1784 3103 
Q 1356 3103 1142 2972 
Q 928 2841 928 2578 
Q 928 2378 1081 2264 
Q 1234 2150 1697 2047 
L 1894 2003 
Q 2506 1872 2764 1633 
Q 3022 1394 3022 966 
Q 3022 478 2636 193 
Q 2250 -91 1575 -91 
Q 1294 -91 989 -36 
Q 684 19 347 128 
L 347 722 
Q 666 556 975 473 
Q 1284 391 1588 391 
Q 1994 391 2212 530 
Q 2431 669 2431 922 
Q 2431 1156 2273 1281 
Q 2116 1406 1581 1522 
L 1381 1569 
Q 847 1681 609 1914 
Q 372 2147 372 2553 
Q 372 3047 722 3315 
Q 1072 3584 1716 3584 
Q 2034 3584 2315 3537 
Q 2597 3491 2834 3397 
z
" id="DejaVuSans-73" transform="scale(0.015625)"/>
      </defs>
      <use xlink:href="#DejaVuSans-52"/>
      <use x="64.982422" xlink:href="#DejaVuSans-65"/>
      <use x="126.505859" xlink:href="#DejaVuSans-71"/>
      <use x="189.982422" xlink:href="#DejaVuSans-75"/>
      <use x="253.361328" xlink:href="#DejaVuSans-65"/>
      <use x="314.884766" xlink:href="#DejaVuSans-74"/>
      <use x="354.09375" xlink:href="#DejaVuSans-65"/>
      <use x="415.617188" xlink:href="#DejaVuSans-73"/>
     </g>
    </g>
    <g id="text_8">
     <!-- 1e9 -->
     <g transform="translate(394.111875 330.916562)scale(0.1 -0.1)">
      <defs>
       <path d="M 703 97 
L 703 672 
Q 941 559 1184 500 
Q 1428 441 1663 441 
Q 2288 441 2617 861 
Q 2947 1281 2994 2138 
Q 2813 1869 2534 1725 
Q 2256 1581 1919 1581 
Q 1219 1581 811 2004 
Q 403 2428 403 3163 
Q 403 3881 828 4315 
Q 1253 4750 1959 4750 
Q 2769 4750 3195 4129 
Q 3622 3509 3622 2328 
Q 3622 1225 3098 567 
Q 2575 -91 1691 -91 
Q 1453 -91 1209 -44 
Q 966 3 703 97 
z
M 1959 2075 
Q 2384 2075 2632 2365 
Q 2881 2656 2881 3163 
Q 2881 3666 2632 3958 
Q 2384 4250 1959 4250 
Q 1534 4250 1286 3958 
Q 1038 3666 1038 3163 
Q 1038 2656 1286 2365 
Q 1534 2075 1959 2075 
z
" id="DejaVuSans-39" transform="scale(0.015625)"/>
      </defs>
      <use xlink:href="#DejaVuSans-31"/>
      <use x="63.623047" xlink:href="#DejaVuSans-65"/>
      <use x="125.146484" xlink:href="#DejaVuSans-39"/>
     </g>
    </g>
   </g>
   <g id="matplotlib.axis_2">
    <g id="ytick_1">
     <g id="line2d_7">
      <defs>
       <path d="M 0 0 
L -3.5 0 
" id="mf20476973f" style="stroke:#000000;stroke-width:0.8;"/>
      </defs>
      <g>
       <use style="stroke:#000000;stroke-width:0.8;" x="47.72" xlink:href="#mf20476973f" y="292.212632"/>
      </g>
     </g>
     <g id="text_9">
      <!-- 0.0 -->
      <g transform="translate(24.816875 296.011851)scale(0.1 -0.1)">
       <use xlink:href="#DejaVuSans-30"/>
       <use x="63.623047" xlink:href="#DejaVuSans-2e"/>
       <use x="95.410156" xlink:href="#DejaVuSans-30"/>
      </g>
     </g>
    </g>
    <g id="ytick_2">
     <g id="line2d_8">
      <g>
       <use style="stroke:#000000;stroke-width:0.8;" x="47.72" xlink:href="#mf20476973f" y="238.855532"/>
      </g>
     </g>
     <g id="text_10">
      <!-- 0.5 -->
      <g transform="translate(24.816875 242.65475)scale(0.1 -0.1)">
       <defs>
        <path d="M 691 4666 
L 3169 4666 
L 3169 4134 
L 1269 4134 
L 1269 2991 
Q 1406 3038 1543 3061 
Q 1681 3084 1819 3084 
Q 2600 3084 3056 2656 
Q 3513 2228 3513 1497 
Q 3513 744 3044 326 
Q 2575 -91 1722 -91 
Q 1428 -91 1123 -41 
Q 819 9 494 109 
L 494 744 
Q 775 591 1075 516 
Q 1375 441 1709 441 
Q 2250 441 2565 725 
Q 2881 1009 2881 1497 
Q 2881 1984 2565 2268 
Q 2250 2553 1709 2553 
Q 1456 2553 1204 2497 
Q 953 2441 691 2322 
L 691 4666 
z
" id="DejaVuSans-35" transform="scale(0.015625)"/>
       </defs>
       <use xlink:href="#DejaVuSans-30"/>
       <use x="63.623047" xlink:href="#DejaVuSans-2e"/>
       <use x="95.410156" xlink:href="#DejaVuSans-35"/>
      </g>
     </g>
    </g>
    <g id="ytick_3">
     <g id="line2d_9">
      <g>
       <use style="stroke:#000000;stroke-width:0.8;" x="47.72" xlink:href="#mf20476973f" y="185.498431"/>
      </g>
     </g>
     <g id="text_11">
      <!-- 1.0 -->
      <g transform="translate(24.816875 189.29765)scale(0.1 -0.1)">
       <use xlink:href="#DejaVuSans-31"/>
       <use x="63.623047" xlink:href="#DejaVuSans-2e"/>
       <use x="95.410156" xlink:href="#DejaVuSans-30"/>
      </g>
     </g>
    </g>
    <g id="ytick_4">
     <g id="line2d_10">
      <g>
       <use style="stroke:#000000;stroke-width:0.8;" x="47.72" xlink:href="#mf20476973f" y="132.14133"/>
      </g>
     </g>
     <g id="text_12">
      <!-- 1.5 -->
      <g transform="translate(24.816875 135.940549)scale(0.1 -0.1)">
       <use xlink:href="#DejaVuSans-31"/>
       <use x="63.623047" xlink:href="#DejaVuSans-2e"/>
       <use x="95.410156" xlink:href="#DejaVuSans-35"/>
      </g>
     </g>
    </g>
    <g id="ytick_5">
     <g id="line2d_11">
      <g>
       <use style="stroke:#000000;stroke-width:0.8;" x="47.72" xlink:href="#mf20476973f" y="78.784229"/>
      </g>
     </g>
     <g id="text_13">
      <!-- 2.0 -->
      <g transform="translate(24.816875 82.583448)scale(0.1 -0.1)">
       <use xlink:href="#DejaVuSans-32"/>
       <use x="63.623047" xlink:href="#DejaVuSans-2e"/>
       <use x="95.410156" xlink:href="#DejaVuSans-30"/>
      </g>
     </g>
    </g>
    <g id="ytick_6">
     <g id="line2d_12">
      <g>
       <use style="stroke:#000000;stroke-width:0.8;" x="47.72" xlink:href="#mf20476973f" y="25.427129"/>
      </g>
     </g>
     <g id="text_14">
      <!-- 2.5 -->
      <g transform="translate(24.816875 29.226347)scale(0.1 -0.1)">
       <use xlink:href="#DejaVuSans-32"/>
       <use x="63.623047" xlink:href="#DejaVuSans-2e"/>
       <use x="95.410156" xlink:href="#DejaVuSans-35"/>
      </g>
     </g>
    </g>
    <g id="text_15">
     <!-- NB d'entrees -->
     <g transform="translate(18.737188 194.894844)rotate(-90)scale(0.1 -0.1)">
      <defs>
       <path d="M 628 4666 
L 1478 4666 
L 3547 763 
L 3547 4666 
L 4159 4666 
L 4159 0 
L 3309 0 
L 1241 3903 
L 1241 0 
L 628 0 
L 628 4666 
z
" id="DejaVuSans-4e" transform="scale(0.015625)"/>
       <path d="M 1259 2228 
L 1259 519 
L 2272 519 
Q 2781 519 3026 730 
Q 3272 941 3272 1375 
Q 3272 1813 3026 2020 
Q 2781 2228 2272 2228 
L 1259 2228 
z
M 1259 4147 
L 1259 2741 
L 2194 2741 
Q 2656 2741 2882 2914 
Q 3109 3088 3109 3444 
Q 3109 3797 2882 3972 
Q 2656 4147 2194 4147 
L 1259 4147 
z
M 628 4666 
L 2241 4666 
Q 2963 4666 3353 4366 
Q 3744 4066 3744 3513 
Q 3744 3084 3544 2831 
Q 3344 2578 2956 2516 
Q 3422 2416 3680 2098 
Q 3938 1781 3938 1306 
Q 3938 681 3513 340 
Q 3088 0 2303 0 
L 628 0 
L 628 4666 
z
" id="DejaVuSans-42" transform="scale(0.015625)"/>
       <path id="DejaVuSans-20" transform="scale(0.015625)"/>
       <path d="M 2906 2969 
L 2906 4863 
L 3481 4863 
L 3481 0 
L 2906 0 
L 2906 525 
Q 2725 213 2448 61 
Q 2172 -91 1784 -91 
Q 1150 -91 751 415 
Q 353 922 353 1747 
Q 353 2572 751 3078 
Q 1150 3584 1784 3584 
Q 2172 3584 2448 3432 
Q 2725 3281 2906 2969 
z
M 947 1747 
Q 947 1113 1208 752 
Q 1469 391 1925 391 
Q 2381 391 2643 752 
Q 2906 1113 2906 1747 
Q 2906 2381 2643 2742 
Q 2381 3103 1925 3103 
Q 1469 3103 1208 2742 
Q 947 2381 947 1747 
z
" id="DejaVuSans-64" transform="scale(0.015625)"/>
       <path d="M 1147 4666 
L 1147 2931 
L 616 2931 
L 616 4666 
L 1147 4666 
z
" id="DejaVuSans-27" transform="scale(0.015625)"/>
       <path d="M 3513 2113 
L 3513 0 
L 2938 0 
L 2938 2094 
Q 2938 2591 2744 2837 
Q 2550 3084 2163 3084 
Q 1697 3084 1428 2787 
Q 1159 2491 1159 1978 
L 1159 0 
L 581 0 
L 581 3500 
L 1159 3500 
L 1159 2956 
Q 1366 3272 1645 3428 
Q 1925 3584 2291 3584 
Q 2894 3584 3203 3211 
Q 3513 2838 3513 2113 
z
" id="DejaVuSans-6e" transform="scale(0.015625)"/>
       <path d="M 2631 2963 
Q 2534 3019 2420 3045 
Q 2306 3072 2169 3072 
Q 1681 3072 1420 2755 
Q 1159 2438 1159 1844 
L 1159 0 
L 581 0 
L 581 3500 
L 1159 3500 
L 1159 2956 
Q 1341 3275 1631 3429 
Q 1922 3584 2338 3584 
Q 2397 3584 2469 3576 
Q 2541 3569 2628 3553 
L 2631 2963 
z
" id="DejaVuSans-72" transform="scale(0.015625)"/>
      </defs>
      <use xlink:href="#DejaVuSans-4e"/>
      <use x="74.804688" xlink:href="#DejaVuSans-42"/>
      <use x="143.408203" xlink:href="#DejaVuSans-20"/>
      <use x="175.195312" xlink:href="#DejaVuSans-64"/>
      <use x="238.671875" xlink:href="#DejaVuSans-27"/>
      <use x="266.162109" xlink:href="#DejaVuSans-65"/>
      <use x="327.685547" xlink:href="#DejaVuSans-6e"/>
      <use x="391.064453" xlink:href="#DejaVuSans-74"/>
      <use x="430.273438" xlink:href="#DejaVuSans-72"/>
      <use x="469.136719" xlink:href="#DejaVuSans-65"/>
      <use x="530.660156" xlink:href="#DejaVuSans-65"/>
      <use x="592.183594" xlink:href="#DejaVuSans-73"/>
     </g>
    </g>
    <g id="text_16">
     <!-- 1e6 -->
     <g transform="translate(47.72 18.72)scale(0.1 -0.1)">
      <use xlink:href="#DejaVuSans-31"/>
      <use x="63.623047" xlink:href="#DejaVuSans-65"/>
      <use x="125.146484" xlink:href="#DejaVuSans-36"/>
     </g>
    </g>
   </g>
   <g id="line2d_13">
    <path clip-path="url(#p697e6a724c)" d="M 64.323182 244.01623 
L 67.67736 220.256634 
L 71.031538 205.714689 
L 74.385716 196.150109 
L 77.739894 189.565416 
L 81.094073 184.918546 
L 84.448251 181.563131 
L 87.802429 179.127166 
L 91.156607 177.373745 
L 94.510785 176.055078 
L 97.864963 175.051751 
L 101.219141 174.331857 
L 104.57332 173.850576 
L 107.927498 173.626476 
L 111.281676 173.555511 
L 114.635854 173.520082 
L 117.990032 173.496605 
L 121.34421 173.502794 
L 124.698388 173.497779 
L 128.052567 173.527339 
L 131.406745 173.52211 
L 134.760923 173.541211 
L 138.115101 173.532354 
L 141.469279 173.526698 
L 144.823457 173.478143 
L 148.177635 173.484226 
L 151.531814 173.528192 
L 154.885992 173.527018 
L 158.24017 173.507063 
L 161.594348 173.493083 
L 164.948526 173.507383 
L 168.302704 173.493937 
L 171.656882 173.521683 
L 175.011061 173.530647 
L 178.365239 173.518908 
L 181.719417 173.54484 
L 185.073595 173.528833 
L 188.427773 173.476863 
L 191.781951 173.477823 
L 195.136129 173.502474 
L 198.490308 173.528086 
L 201.844486 173.515813 
L 205.198664 173.505889 
L 208.552842 173.498419 
L 211.90702 173.496391 
L 215.261198 173.517628 
L 218.615376 173.522963 
L 221.969555 173.505676 
L 225.323733 173.547614 
L 228.677911 173.542812 
L 232.032089 173.511118 
L 235.386267 173.47793 
L 238.740445 173.481878 
L 242.094624 173.526485 
L 245.448802 173.512612 
L 248.80298 173.500233 
L 252.157158 173.486574 
L 255.511336 173.50781 
L 258.865514 173.508023 
L 262.219692 173.527125 
L 265.573871 173.533315 
L 268.928049 173.529686 
L 272.282227 173.531074 
L 275.636405 173.527125 
L 278.990583 173.469286 
L 282.344761 173.468646 
L 285.698939 173.513359 
L 289.053118 173.53086 
L 292.407296 173.525098 
L 295.761474 173.501727 
L 299.115652 173.504182 
L 302.46983 173.505462 
L 305.824008 173.537156 
L 309.178186 173.52307 
L 312.532365 173.520616 
L 315.886543 173.544306 
L 319.240721 173.533741 
L 322.594899 173.497245 
L 325.949077 173.476649 
L 329.303255 173.49383 
L 332.657433 173.510158 
L 336.011612 173.52307 
L 339.36579 173.501514 
L 342.719968 173.487748 
L 346.074146 173.504502 
L 349.428324 173.5013 
L 352.782502 173.526485 
L 356.13668 173.52958 
L 359.490859 173.536089 
L 362.845037 173.531927 
L 366.199215 173.532354 
L 369.553393 173.470353 
L 372.907571 173.476649 
L 376.261749 173.520082 
L 379.615927 173.528726 
L 382.970106 173.518054 
L 386.324284 173.507383 
L 389.678462 173.505142 
L 393.03264 173.495111 
L 396.386818 173.532568 
" style="fill:none;stroke:#1f77b4;stroke-linecap:square;stroke-width:1.5;"/>
   </g>
   <g id="line2d_14">
    <path clip-path="url(#p697e6a724c)" d="M 64.323182 282.7251 
L 67.67736 273.035343 
L 71.031538 263.807019 
L 74.385716 255.135423 
L 77.739894 247.175078 
L 81.094073 239.85395 
L 84.448251 233.16393 
L 87.802429 227.05102 
L 91.156607 221.435719 
L 94.510785 216.283024 
L 97.864963 211.556118 
L 101.219141 207.211996 
L 104.57332 203.223126 
L 107.927498 200.356463 
L 111.281676 198.941219 
L 114.635854 198.170209 
L 117.990032 197.734708 
L 121.34421 197.459812 
L 124.698388 197.305504 
L 128.052567 197.179474 
L 131.406745 197.109149 
L 134.760923 197.082151 
L 138.115101 197.080017 
L 141.469279 197.045334 
L 144.823457 197.083858 
L 148.177635 197.091328 
L 151.531814 197.07276 
L 154.885992 197.100826 
L 158.24017 197.104667 
L 161.594348 197.131559 
L 164.948526 197.124196 
L 168.302704 197.134868 
L 171.656882 197.089301 
L 175.011061 197.069132 
L 178.365239 197.061875 
L 181.719417 197.05846 
L 185.073595 197.044054 
L 188.427773 197.082151 
L 191.781951 197.069132 
L 195.136129 197.083752 
L 198.490308 197.094103 
L 201.844486 197.097304 
L 205.198664 197.120354 
L 208.552842 197.129425 
L 211.90702 197.124196 
L 215.261198 197.096237 
L 218.615376 197.08866 
L 221.969555 197.068491 
L 225.323733 197.049603 
L 228.677911 197.051631 
L 232.032089 197.054939 
L 235.386267 197.080123 
L 238.740445 197.086313 
L 242.094624 197.081084 
L 245.448802 197.108296 
L 248.80298 197.11758 
L 252.157158 197.135508 
L 255.511336 197.129532 
L 258.865514 197.123236 
L 262.219692 197.083218 
L 265.573871 197.059848 
L 268.928049 197.056646 
L 272.282227 197.073507 
L 275.636405 197.051417 
L 278.990583 197.082898 
L 282.344761 197.081724 
L 285.698939 197.067744 
L 289.053118 197.094103 
L 292.407296 197.08738 
L 295.761474 197.128358 
L 299.115652 197.125904 
L 302.46983 197.120888 
L 305.824008 197.0718 
L 309.178186 197.089407 
L 312.532365 197.044161 
L 315.886543 197.063262 
L 319.240721 197.063689 
L 322.594899 197.071693 
L 325.949077 197.074254 
L 329.303255 197.07991 
L 332.657433 197.101466 
L 336.011612 197.090581 
L 339.36579 197.123129 
L 342.719968 197.133374 
L 346.074146 197.125797 
L 349.428324 197.124196 
L 352.782502 197.076175 
L 356.13668 197.055579 
L 359.490859 197.05782 
L 362.845037 197.083645 
L 366.199215 197.040639 
L 369.553393 197.086953 
L 372.907571 197.086846 
L 376.261749 197.06561 
L 379.615927 197.09613 
L 382.970106 197.092609 
L 386.324284 197.125904 
L 389.678462 197.120141 
L 393.03264 197.134654 
L 396.386818 197.080337 
" style="fill:none;stroke:#ff7f0e;stroke-linecap:square;stroke-width:1.5;"/>
   </g>
   <g id="line2d_15">
    <path clip-path="url(#p697e6a724c)" d="M 64.323182 285.139829 
L 67.67736 280.328405 
L 71.031538 276.513373 
L 74.385716 273.343641 
L 77.739894 270.589027 
L 81.094073 268.123929 
L 84.448251 265.893922 
L 87.802429 263.84565 
L 91.156607 261.932584 
L 94.510785 260.169346 
L 97.864963 258.513568 
L 101.219141 256.947431 
L 104.57332 255.418856 
L 107.927498 253.992408 
L 111.281676 253.060366 
L 114.635854 252.44025 
L 117.990032 252.038577 
L 121.34421 251.781396 
L 124.698388 251.627834 
L 128.052567 251.533499 
L 131.406745 251.493588 
L 134.760923 251.438523 
L 138.115101 251.414406 
L 141.469279 251.436709 
L 144.823457 251.43895 
L 148.177635 251.423263 
L 151.531814 251.397545 
L 154.885992 251.370546 
L 158.24017 251.386554 
L 161.594348 251.373641 
L 164.948526 251.366811 
L 168.302704 251.369479 
L 171.656882 251.387194 
L 175.011061 251.398399 
L 178.365239 251.417501 
L 181.719417 251.395091 
L 185.073595 251.425504 
L 188.427773 251.43959 
L 191.781951 251.451649 
L 195.136129 251.412485 
L 198.490308 251.376202 
L 201.844486 251.385273 
L 205.198664 251.372147 
L 208.552842 251.370546 
L 211.90702 251.377696 
L 215.261198 251.384313 
L 218.615376 251.386554 
L 221.969555 251.42401 
L 225.323733 251.401173 
L 228.677911 251.403948 
L 232.032089 251.432334 
L 235.386267 251.440551 
L 238.740445 251.430626 
L 242.094624 251.390822 
L 245.448802 251.377483 
L 248.80298 251.380578 
L 252.157158 251.376202 
L 255.511336 251.360942 
L 258.865514 251.367025 
L 262.219692 251.387834 
L 265.573871 251.405015 
L 268.928049 251.411951 
L 272.282227 251.39381 
L 275.636405 251.419848 
L 278.990583 251.44642 
L 282.344761 251.448341 
L 285.698939 251.417501 
L 289.053118 251.373428 
L 292.407296 251.385913 
L 295.761474 251.368412 
L 299.115652 251.368412 
L 302.46983 251.371934 
L 305.824008 251.389221 
L 309.178186 251.3857 
L 312.532365 251.433508 
L 315.886543 251.390822 
L 319.240721 251.40096 
L 322.594899 251.429559 
L 325.949077 251.447701 
L 329.303255 251.425077 
L 332.657433 251.386767 
L 336.011612 251.384739 
L 339.36579 251.373748 
L 342.719968 251.377163 
L 346.074146 251.367985 
L 349.428324 251.372787 
L 352.782502 251.395518 
L 356.13668 251.413019 
L 359.490859 251.404375 
L 362.845037 251.382819 
L 366.199215 251.425397 
L 369.553393 251.441298 
L 372.907571 251.435215 
L 376.261749 251.412912 
L 379.615927 251.373534 
L 382.970106 251.387621 
L 386.324284 251.365104 
L 389.678462 251.373108 
L 393.03264 251.368519 
L 396.386818 251.385273 
" style="fill:none;stroke:#2ca02c;stroke-linecap:square;stroke-width:1.5;"/>
   </g>
   <g id="line2d_16">
    <path clip-path="url(#p697e6a724c)" d="M 64.323182 34.534545 
L 67.67736 64.181031 
L 71.031538 87.052552 
L 74.385716 105.554767 
L 77.739894 120.91713 
L 81.094073 134.023235 
L 84.448251 145.330245 
L 87.802429 155.196613 
L 91.156607 163.95326 
L 94.510785 171.767515 
L 97.864963 178.831675 
L 101.219141 185.204647 
L 104.57332 191.00435 
L 107.927498 195.441207 
L 111.281676 197.859457 
L 114.635854 199.286012 
L 117.990032 200.146663 
L 121.34421 200.67255 
L 124.698388 200.985436 
L 128.052567 201.176241 
L 131.406745 201.291706 
L 134.760923 201.354667 
L 138.115101 201.389776 
L 141.469279 201.407811 
L 144.823457 201.415601 
L 148.177635 201.417735 
L 151.531814 201.418056 
L 154.885992 201.418162 
L 158.24017 201.418269 
L 161.594348 201.418269 
L 164.948526 201.418162 
L 168.302704 201.418269 
L 171.656882 201.418376 
L 175.011061 201.418376 
L 178.365239 201.418269 
L 181.719417 201.418162 
L 185.073595 201.418162 
L 188.427773 201.417949 
L 191.781951 201.417949 
L 195.136129 201.417842 
L 198.490308 201.418162 
L 201.844486 201.418162 
L 205.198664 201.418162 
L 208.552842 201.418162 
L 211.90702 201.418269 
L 215.261198 201.418376 
L 218.615376 201.418376 
L 221.969555 201.418376 
L 225.323733 201.418162 
L 228.677911 201.418162 
L 232.032089 201.418162 
L 235.386267 201.417949 
L 238.740445 201.417735 
L 242.094624 201.418162 
L 245.448802 201.418162 
L 248.80298 201.418162 
L 252.157158 201.418269 
L 255.511336 201.418269 
L 258.865514 201.418269 
L 262.219692 201.418376 
L 265.573871 201.418376 
L 268.928049 201.418269 
L 272.282227 201.418162 
L 275.636405 201.418162 
L 278.990583 201.417949 
L 282.344761 201.417842 
L 285.698939 201.417949 
L 289.053118 201.418162 
L 292.407296 201.418162 
L 295.761474 201.418056 
L 299.115652 201.418056 
L 302.46983 201.418269 
L 305.824008 201.418376 
L 309.178186 201.418376 
L 312.532365 201.418269 
L 315.886543 201.418162 
L 319.240721 201.418162 
L 322.594899 201.418056 
L 325.949077 201.417949 
L 329.303255 201.417735 
L 332.657433 201.418162 
L 336.011612 201.418162 
L 339.36579 201.418162 
L 342.719968 201.418269 
L 346.074146 201.418269 
L 349.428324 201.418269 
L 352.782502 201.418376 
L 356.13668 201.418376 
L 359.490859 201.418269 
L 362.845037 201.418162 
L 366.199215 201.418162 
L 369.553393 201.417949 
L 372.907571 201.417842 
L 376.261749 201.417949 
L 379.615927 201.418162 
L 382.970106 201.418269 
L 386.324284 201.418162 
L 389.678462 201.418162 
L 393.03264 201.418269 
L 396.386818 201.418376 
" style="fill:none;stroke:#d62728;stroke-linecap:square;stroke-width:1.5;"/>
   </g>
   <g id="line2d_17">
    <path clip-path="url(#p697e6a724c)" d="M 64.323182 267.826303 
L 67.67736 276.440594 
L 71.031538 281.154373 
L 74.385716 284.058067 
L 77.739894 285.995356 
L 81.094073 287.322347 
L 84.448251 288.290779 
L 87.802429 289.021558 
L 91.156607 289.546698 
L 94.510785 289.967046 
L 97.864963 290.288896 
L 101.219141 290.546077 
L 104.57332 290.745099 
L 107.927498 290.825455 
L 111.281676 290.825455 
L 114.635854 290.825455 
L 117.990032 290.825455 
L 121.34421 290.825455 
L 124.698388 290.825455 
L 128.052567 290.825455 
L 131.406745 290.825455 
L 134.760923 290.825455 
L 138.115101 290.825455 
L 141.469279 290.825455 
L 144.823457 290.825455 
L 148.177635 290.825455 
L 151.531814 290.825455 
L 154.885992 290.825455 
L 158.24017 290.825455 
L 161.594348 290.825455 
L 164.948526 290.825455 
L 168.302704 290.825455 
L 171.656882 290.825455 
L 175.011061 290.825455 
L 178.365239 290.825455 
L 181.719417 290.825455 
L 185.073595 290.825455 
L 188.427773 290.825455 
L 191.781951 290.825455 
L 195.136129 290.825455 
L 198.490308 290.825455 
L 201.844486 290.825455 
L 205.198664 290.825455 
L 208.552842 290.825455 
L 211.90702 290.825455 
L 215.261198 290.825455 
L 218.615376 290.825455 
L 221.969555 290.825455 
L 225.323733 290.825455 
L 228.677911 290.825455 
L 232.032089 290.825455 
L 235.386267 290.825455 
L 238.740445 290.825455 
L 242.094624 290.825455 
L 245.448802 290.825455 
L 248.80298 290.825455 
L 252.157158 290.825455 
L 255.511336 290.825455 
L 258.865514 290.825455 
L 262.219692 290.825455 
L 265.573871 290.825455 
L 268.928049 290.825455 
L 272.282227 290.825455 
L 275.636405 290.825455 
L 278.990583 290.825455 
L 282.344761 290.825455 
L 285.698939 290.825455 
L 289.053118 290.825455 
L 292.407296 290.825455 
L 295.761474 290.825455 
L 299.115652 290.825455 
L 302.46983 290.825455 
L 305.824008 290.825455 
L 309.178186 290.825455 
L 312.532365 290.825455 
L 315.886543 290.825455 
L 319.240721 290.825455 
L 322.594899 290.825455 
L 325.949077 290.825455 
L 329.303255 290.825455 
L 332.657433 290.825455 
L 336.011612 290.825455 
L 339.36579 290.825455 
L 342.719968 290.825455 
L 346.074146 290.825455 
L 349.428324 290.825455 
L 352.782502 290.825455 
L 356.13668 290.825455 
L 359.490859 290.825455 
L 362.845037 290.825455 
L 366.199215 290.825455 
L 369.553393 290.825455 
L 372.907571 290.825455 
L 376.261749 290.825455 
L 379.615927 290.825455 
L 382.970106 290.825455 
L 386.324284 290.825455 
L 389.678462 290.825455 
L 393.03264 290.825455 
L 396.386818 290.825455 
" style="fill:none;stroke:#9467bd;stroke-linecap:square;stroke-width:1.5;"/>
   </g>
   <g id="patch_3">
    <path d="M 47.72 303.64 
L 47.72 21.72 
" style="fill:none;stroke:#000000;stroke-linecap:square;stroke-linejoin:miter;stroke-width:0.8;"/>
   </g>
   <g id="patch_4">
    <path d="M 412.99 303.64 
L 412.99 21.72 
" style="fill:none;stroke:#000000;stroke-linecap:square;stroke-linejoin:miter;stroke-width:0.8;"/>
   </g>
   <g id="patch_5">
    <path d="M 47.72 303.64 
L 412.99 303.64 
" style="fill:none;stroke:#000000;stroke-linecap:square;stroke-linejoin:miter;stroke-width:0.8;"/>
   </g>
   <g id="patch_6">
    <path d="M 47.72 21.72 
L 412.99 21.72 
" style="fill:none;stroke:#000000;stroke-linecap:square;stroke-linejoin:miter;stroke-width:0.8;"/>
   </g>
   <g id="legend_1">
    <g id="patch_7">
     <path d="M 340.797813 103.110625 
L 405.99 103.110625 
Q 407.99 103.110625 407.99 101.110625 
L 407.99 28.72 
Q 407.99 26.72 405.99 26.72 
L 340.797813 26.72 
Q 338.797813 26.72 338.797813 28.72 
L 338.797813 101.110625 
Q 338.797813 103.110625 340.797813 103.110625 
z
" style="fill:#ffffff;opacity:0.8;stroke:#cccccc;stroke-linejoin:miter;"/>
    </g>
    <g id="line2d_18">
     <path d="M 342.797813 34.818438 
L 362.797813 34.818438 
" style="fill:none;stroke:#1f77b4;stroke-linecap:square;stroke-width:1.5;"/>
    </g>
    <g id="line2d_19"/>
    <g id="text_17">
     <!-- HOT -->
     <g transform="translate(370.797813 38.318438)scale(0.1 -0.1)">
      <defs>
       <path d="M 628 4666 
L 1259 4666 
L 1259 2753 
L 3553 2753 
L 3553 4666 
L 4184 4666 
L 4184 0 
L 3553 0 
L 3553 2222 
L 1259 2222 
L 1259 0 
L 628 0 
L 628 4666 
z
" id="DejaVuSans-48" transform="scale(0.015625)"/>
       <path d="M 2522 4238 
Q 1834 4238 1429 3725 
Q 1025 3213 1025 2328 
Q 1025 1447 1429 934 
Q 1834 422 2522 422 
Q 3209 422 3611 934 
Q 4013 1447 4013 2328 
Q 4013 3213 3611 3725 
Q 3209 4238 2522 4238 
z
M 2522 4750 
Q 3503 4750 4090 4092 
Q 4678 3434 4678 2328 
Q 4678 1225 4090 567 
Q 3503 -91 2522 -91 
Q 1538 -91 948 565 
Q 359 1222 359 2328 
Q 359 3434 948 4092 
Q 1538 4750 2522 4750 
z
" id="DejaVuSans-4f" transform="scale(0.015625)"/>
       <path d="M -19 4666 
L 3928 4666 
L 3928 4134 
L 2272 4134 
L 2272 0 
L 1638 0 
L 1638 4134 
L -19 4134 
L -19 4666 
z
" id="DejaVuSans-54" transform="scale(0.015625)"/>
      </defs>
      <use xlink:href="#DejaVuSans-48"/>
      <use x="75.195312" xlink:href="#DejaVuSans-4f"/>
      <use x="153.90625" xlink:href="#DejaVuSans-54"/>
     </g>
    </g>
    <g id="line2d_20">
     <path d="M 342.797813 49.496563 
L 362.797813 49.496563 
" style="fill:none;stroke:#ff7f0e;stroke-linecap:square;stroke-width:1.5;"/>
    </g>
    <g id="line2d_21"/>
    <g id="text_18">
     <!-- WARM -->
     <g transform="translate(370.797813 52.996563)scale(0.1 -0.1)">
      <defs>
       <path d="M 213 4666 
L 850 4666 
L 1831 722 
L 2809 4666 
L 3519 4666 
L 4500 722 
L 5478 4666 
L 6119 4666 
L 4947 0 
L 4153 0 
L 3169 4050 
L 2175 0 
L 1381 0 
L 213 4666 
z
" id="DejaVuSans-57" transform="scale(0.015625)"/>
       <path d="M 2188 4044 
L 1331 1722 
L 3047 1722 
L 2188 4044 
z
M 1831 4666 
L 2547 4666 
L 4325 0 
L 3669 0 
L 3244 1197 
L 1141 1197 
L 716 0 
L 50 0 
L 1831 4666 
z
" id="DejaVuSans-41" transform="scale(0.015625)"/>
       <path d="M 628 4666 
L 1569 4666 
L 2759 1491 
L 3956 4666 
L 4897 4666 
L 4897 0 
L 4281 0 
L 4281 4097 
L 3078 897 
L 2444 897 
L 1241 4097 
L 1241 0 
L 628 0 
L 628 4666 
z
" id="DejaVuSans-4d" transform="scale(0.015625)"/>
      </defs>
      <use xlink:href="#DejaVuSans-57"/>
      <use x="93.376953" xlink:href="#DejaVuSans-41"/>
      <use x="161.785156" xlink:href="#DejaVuSans-52"/>
      <use x="231.267578" xlink:href="#DejaVuSans-4d"/>
     </g>
    </g>
    <g id="line2d_22">
     <path d="M 342.797813 64.174688 
L 362.797813 64.174688 
" style="fill:none;stroke:#2ca02c;stroke-linecap:square;stroke-width:1.5;"/>
    </g>
    <g id="line2d_23"/>
    <g id="text_19">
     <!-- MILD -->
     <g transform="translate(370.797813 67.674688)scale(0.1 -0.1)">
      <defs>
       <path d="M 628 4666 
L 1259 4666 
L 1259 0 
L 628 0 
L 628 4666 
z
" id="DejaVuSans-49" transform="scale(0.015625)"/>
       <path d="M 628 4666 
L 1259 4666 
L 1259 531 
L 3531 531 
L 3531 0 
L 628 0 
L 628 4666 
z
" id="DejaVuSans-4c" transform="scale(0.015625)"/>
       <path d="M 1259 4147 
L 1259 519 
L 2022 519 
Q 2988 519 3436 956 
Q 3884 1394 3884 2338 
Q 3884 3275 3436 3711 
Q 2988 4147 2022 4147 
L 1259 4147 
z
M 628 4666 
L 1925 4666 
Q 3281 4666 3915 4102 
Q 4550 3538 4550 2338 
Q 4550 1131 3912 565 
Q 3275 0 1925 0 
L 628 0 
L 628 4666 
z
" id="DejaVuSans-44" transform="scale(0.015625)"/>
      </defs>
      <use xlink:href="#DejaVuSans-4d"/>
      <use x="86.279297" xlink:href="#DejaVuSans-49"/>
      <use x="115.771484" xlink:href="#DejaVuSans-4c"/>
      <use x="171.484375" xlink:href="#DejaVuSans-44"/>
     </g>
    </g>
    <g id="line2d_24">
     <path d="M 342.797813 78.852813 
L 362.797813 78.852813 
" style="fill:none;stroke:#d62728;stroke-linecap:square;stroke-width:1.5;"/>
    </g>
    <g id="line2d_25"/>
    <g id="text_20">
     <!-- COLD -->
     <g transform="translate(370.797813 82.352813)scale(0.1 -0.1)">
      <defs>
       <path d="M 4122 4306 
L 4122 3641 
Q 3803 3938 3442 4084 
Q 3081 4231 2675 4231 
Q 1875 4231 1450 3742 
Q 1025 3253 1025 2328 
Q 1025 1406 1450 917 
Q 1875 428 2675 428 
Q 3081 428 3442 575 
Q 3803 722 4122 1019 
L 4122 359 
Q 3791 134 3420 21 
Q 3050 -91 2638 -91 
Q 1578 -91 968 557 
Q 359 1206 359 2328 
Q 359 3453 968 4101 
Q 1578 4750 2638 4750 
Q 3056 4750 3426 4639 
Q 3797 4528 4122 4306 
z
" id="DejaVuSans-43" transform="scale(0.015625)"/>
      </defs>
      <use xlink:href="#DejaVuSans-43"/>
      <use x="69.824219" xlink:href="#DejaVuSans-4f"/>
      <use x="148.535156" xlink:href="#DejaVuSans-4c"/>
      <use x="204.248047" xlink:href="#DejaVuSans-44"/>
     </g>
    </g>
    <g id="line2d_26">
     <path d="M 342.797813 93.530938 
L 362.797813 93.530938 
" style="fill:none;stroke:#9467bd;stroke-linecap:square;stroke-width:1.5;"/>
    </g>
    <g id="line2d_27"/>
    <g id="text_21">
     <!-- EMPTY -->
     <g transform="translate(370.797813 97.030938)scale(0.1 -0.1)">
      <defs>
       <path d="M 628 4666 
L 3578 4666 
L 3578 4134 
L 1259 4134 
L 1259 2753 
L 3481 2753 
L 3481 2222 
L 1259 2222 
L 1259 531 
L 3634 531 
L 3634 0 
L 628 0 
L 628 4666 
z
" id="DejaVuSans-45" transform="scale(0.015625)"/>
       <path d="M 1259 4147 
L 1259 2394 
L 2053 2394 
Q 2494 2394 2734 2622 
Q 2975 2850 2975 3272 
Q 2975 3691 2734 3919 
Q 2494 4147 2053 4147 
L 1259 4147 
z
M 628 4666 
L 2053 4666 
Q 2838 4666 3239 4311 
Q 3641 3956 3641 3272 
Q 3641 2581 3239 2228 
Q 2838 1875 2053 1875 
L 1259 1875 
L 1259 0 
L 628 0 
L 628 4666 
z
" id="DejaVuSans-50" transform="scale(0.015625)"/>
       <path d="M -13 4666 
L 666 4666 
L 1959 2747 
L 3244 4666 
L 3922 4666 
L 2272 2222 
L 2272 0 
L 1638 0 
L 1638 2222 
L -13 4666 
z
" id="DejaVuSans-59" transform="scale(0.015625)"/>
      </defs>
      <use xlink:href="#DejaVuSans-45"/>
      <use x="63.183594" xlink:href="#DejaVuSans-4d"/>
      <use x="149.462891" xlink:href="#DejaVuSans-50"/>
      <use x="209.765625" xlink:href="#DejaVuSans-54"/>
      <use x="270.849609" xlink:href="#DejaVuSans-59"/>
     </g>
    </g>
   </g>
  </g>
  <g id="axes_2">
   <g id="matplotlib.axis_3">
    <g id="ytick_7">
     <g id="line2d_28">
      <defs>
       <path d="M 0 0 
L 3.5 0 
" id="m29647f2b2b" style="stroke:#000000;stroke-width:0.8;"/>
      </defs>
      <g>
       <use style="stroke:#000000;stroke-width:0.8;" x="412.99" xlink:href="#m29647f2b2b" y="271.503499"/>
      </g>
     </g>
     <g id="text_22">
      <!-- 0.8 -->
      <g transform="translate(419.99 275.302717)scale(0.1 -0.1)">
       <use xlink:href="#DejaVuSans-30"/>
       <use x="63.623047" xlink:href="#DejaVuSans-2e"/>
       <use x="95.410156" xlink:href="#DejaVuSans-38"/>
      </g>
     </g>
    </g>
    <g id="ytick_8">
     <g id="line2d_29">
      <g>
       <use style="stroke:#000000;stroke-width:0.8;" x="412.99" xlink:href="#m29647f2b2b" y="228.042475"/>
      </g>
     </g>
     <g id="text_23">
      <!-- 1.0 -->
      <g transform="translate(419.99 231.841694)scale(0.1 -0.1)">
       <use xlink:href="#DejaVuSans-31"/>
       <use x="63.623047" xlink:href="#DejaVuSans-2e"/>
       <use x="95.410156" xlink:href="#DejaVuSans-30"/>
      </g>
     </g>
    </g>
    <g id="ytick_9">
     <g id="line2d_30">
      <g>
       <use style="stroke:#000000;stroke-width:0.8;" x="412.99" xlink:href="#m29647f2b2b" y="184.581452"/>
      </g>
     </g>
     <g id="text_24">
      <!-- 1.2 -->
      <g transform="translate(419.99 188.38067)scale(0.1 -0.1)">
       <use xlink:href="#DejaVuSans-31"/>
       <use x="63.623047" xlink:href="#DejaVuSans-2e"/>
       <use x="95.410156" xlink:href="#DejaVuSans-32"/>
      </g>
     </g>
    </g>
    <g id="ytick_10">
     <g id="line2d_31">
      <g>
       <use style="stroke:#000000;stroke-width:0.8;" x="412.99" xlink:href="#m29647f2b2b" y="141.120428"/>
      </g>
     </g>
     <g id="text_25">
      <!-- 1.4 -->
      <g transform="translate(419.99 144.919647)scale(0.1 -0.1)">
       <use xlink:href="#DejaVuSans-31"/>
       <use x="63.623047" xlink:href="#DejaVuSans-2e"/>
       <use x="95.410156" xlink:href="#DejaVuSans-34"/>
      </g>
     </g>
    </g>
    <g id="ytick_11">
     <g id="line2d_32">
      <g>
       <use style="stroke:#000000;stroke-width:0.8;" x="412.99" xlink:href="#m29647f2b2b" y="97.659404"/>
      </g>
     </g>
     <g id="text_26">
      <!-- 1.6 -->
      <g transform="translate(419.99 101.458623)scale(0.1 -0.1)">
       <use xlink:href="#DejaVuSans-31"/>
       <use x="63.623047" xlink:href="#DejaVuSans-2e"/>
       <use x="95.410156" xlink:href="#DejaVuSans-36"/>
      </g>
     </g>
    </g>
    <g id="ytick_12">
     <g id="line2d_33">
      <g>
       <use style="stroke:#000000;stroke-width:0.8;" x="412.99" xlink:href="#m29647f2b2b" y="54.198381"/>
      </g>
     </g>
     <g id="text_27">
      <!-- 1.8 -->
      <g transform="translate(419.99 57.997599)scale(0.1 -0.1)">
       <use xlink:href="#DejaVuSans-31"/>
       <use x="63.623047" xlink:href="#DejaVuSans-2e"/>
       <use x="95.410156" xlink:href="#DejaVuSans-38"/>
      </g>
     </g>
    </g>
    <g id="text_28">
     <!-- Taux de HIT -->
     <g transform="translate(447.491562 191.819062)rotate(-90)scale(0.1 -0.1)">
      <defs>
       <path d="M 2194 1759 
Q 1497 1759 1228 1600 
Q 959 1441 959 1056 
Q 959 750 1161 570 
Q 1363 391 1709 391 
Q 2188 391 2477 730 
Q 2766 1069 2766 1631 
L 2766 1759 
L 2194 1759 
z
M 3341 1997 
L 3341 0 
L 2766 0 
L 2766 531 
Q 2569 213 2275 61 
Q 1981 -91 1556 -91 
Q 1019 -91 701 211 
Q 384 513 384 1019 
Q 384 1609 779 1909 
Q 1175 2209 1959 2209 
L 2766 2209 
L 2766 2266 
Q 2766 2663 2505 2880 
Q 2244 3097 1772 3097 
Q 1472 3097 1187 3025 
Q 903 2953 641 2809 
L 641 3341 
Q 956 3463 1253 3523 
Q 1550 3584 1831 3584 
Q 2591 3584 2966 3190 
Q 3341 2797 3341 1997 
z
" id="DejaVuSans-61" transform="scale(0.015625)"/>
       <path d="M 3513 3500 
L 2247 1797 
L 3578 0 
L 2900 0 
L 1881 1375 
L 863 0 
L 184 0 
L 1544 1831 
L 300 3500 
L 978 3500 
L 1906 2253 
L 2834 3500 
L 3513 3500 
z
" id="DejaVuSans-78" transform="scale(0.015625)"/>
      </defs>
      <use xlink:href="#DejaVuSans-54"/>
      <use x="44.583984" xlink:href="#DejaVuSans-61"/>
      <use x="105.863281" xlink:href="#DejaVuSans-75"/>
      <use x="169.242188" xlink:href="#DejaVuSans-78"/>
      <use x="228.421875" xlink:href="#DejaVuSans-20"/>
      <use x="260.208984" xlink:href="#DejaVuSans-64"/>
      <use x="323.685547" xlink:href="#DejaVuSans-65"/>
      <use x="385.208984" xlink:href="#DejaVuSans-20"/>
      <use x="416.996094" xlink:href="#DejaVuSans-48"/>
      <use x="492.191406" xlink:href="#DejaVuSans-49"/>
      <use x="521.683594" xlink:href="#DejaVuSans-54"/>
     </g>
    </g>
   </g>
   <g id="line2d_34">
    <path clip-path="url(#p697e6a724c)" d="M 64.323182 34.534545 
L 67.67736 290.825455 
L 71.031538 286.680329 
L 74.385716 284.972791 
L 77.739894 284.116295 
L 81.094073 283.555548 
L 84.448251 283.194367 
L 87.802429 282.890472 
L 91.156607 282.604565 
L 94.510785 282.412257 
L 97.864963 282.119117 
L 101.219141 281.957246 
L 104.57332 281.743239 
L 107.927498 277.61185 
L 111.281676 274.96474 
L 114.635854 275.348328 
L 117.990032 275.754749 
L 121.34421 276.284732 
L 124.698388 276.65892 
L 128.052567 276.948464 
L 131.406745 277.254098 
L 134.760923 277.47456 
L 138.115101 277.80602 
L 141.469279 277.857726 
L 144.823457 278.005042 
L 148.177635 278.155482 
L 151.531814 277.500953 
L 154.885992 273.896956 
L 158.24017 274.674364 
L 161.594348 275.249026 
L 164.948526 275.874906 
L 168.302704 276.397771 
L 171.656882 276.738345 
L 175.011061 277.057597 
L 178.365239 277.412628 
L 181.719417 277.641974 
L 185.073595 277.834054 
L 188.427773 277.918913 
L 191.781951 278.120603 
L 195.136129 278.215093 
L 198.490308 274.896839 
L 201.844486 274.38728 
L 205.198664 274.958122 
L 208.552842 275.608353 
L 211.90702 276.222767 
L 215.261198 276.593658 
L 218.615376 276.920974 
L 221.969555 277.286855 
L 225.323733 277.512644 
L 228.677911 277.797749 
L 232.032089 277.861732 
L 235.386267 278.078366 
L 238.740445 278.145346 
L 242.094624 276.765373 
L 245.448802 274.044688 
L 248.80298 274.736602 
L 252.157158 275.373882 
L 255.511336 275.95982 
L 258.865514 276.449778 
L 262.219692 276.804134 
L 265.573871 277.108948 
L 268.928049 277.439106 
L 272.282227 277.683385 
L 275.636405 277.842294 
L 278.990583 277.972831 
L 282.344761 278.118794 
L 285.698939 278.246703 
L 289.053118 274.225425 
L 292.407296 274.487921 
L 295.761474 275.077397 
L 299.115652 275.721398 
L 302.46983 276.243398 
L 305.824008 276.659213 
L 309.178186 276.995988 
L 312.532365 277.349939 
L 315.886543 277.56037 
L 319.240721 277.815112 
L 322.594899 277.858613 
L 325.949077 278.07409 
L 329.303255 278.185136 
L 332.657433 276.056287 
L 336.011612 274.169846 
L 339.36579 274.821975 
L 342.719968 275.454766 
L 346.074146 276.059915 
L 349.428324 276.527485 
L 352.782502 276.849815 
L 356.13668 277.172667 
L 359.490859 277.432691 
L 362.845037 277.769526 
L 366.199215 277.874013 
L 369.553393 277.936587 
L 372.907571 278.187144 
L 376.261749 278.016449 
L 379.615927 273.79855 
L 382.970106 274.588638 
L 386.324284 275.206887 
L 389.678462 275.798712 
L 393.03264 276.325171 
L 396.386818 276.726591 
" style="fill:none;stroke:#00ffff;stroke-linecap:square;stroke-width:1.5;"/>
   </g>
   <g id="patch_8">
    <path d="M 47.72 303.64 
L 47.72 21.72 
" style="fill:none;stroke:#000000;stroke-linecap:square;stroke-linejoin:miter;stroke-width:0.8;"/>
   </g>
   <g id="patch_9">
    <path d="M 412.99 303.64 
L 412.99 21.72 
" style="fill:none;stroke:#000000;stroke-linecap:square;stroke-linejoin:miter;stroke-width:0.8;"/>
   </g>
   <g id="patch_10">
    <path d="M 47.72 303.64 
L 412.99 303.64 
" style="fill:none;stroke:#000000;stroke-linecap:square;stroke-linejoin:miter;stroke-width:0.8;"/>
   </g>
   <g id="patch_11">
    <path d="M 47.72 21.72 
L 412.99 21.72 
" style="fill:none;stroke:#000000;stroke-linecap:square;stroke-linejoin:miter;stroke-width:0.8;"/>
   </g>
   <g id="legend_2">
    <g id="patch_12">
     <path d="M 357.411875 44.398125 
L 405.99 44.398125 
Q 407.99 44.398125 407.99 42.398125 
L 407.99 28.72 
Q 407.99 26.72 405.99 26.72 
L 357.411875 26.72 
Q 355.411875 26.72 355.411875 28.72 
L 355.411875 42.398125 
Q 355.411875 44.398125 357.411875 44.398125 
z
" style="fill:#ffffff;opacity:0.8;stroke:#cccccc;stroke-linejoin:miter;"/>
    </g>
    <g id="line2d_35">
     <path d="M 359.411875 34.818438 
L 379.411875 34.818438 
" style="fill:none;stroke:#00ffff;stroke-linecap:square;stroke-width:1.5;"/>
    </g>
    <g id="line2d_36"/>
    <g id="text_29">
     <!-- HIT -->
     <g transform="translate(387.411875 38.318438)scale(0.1 -0.1)">
      <use xlink:href="#DejaVuSans-48"/>
      <use x="75.195312" xlink:href="#DejaVuSans-49"/>
      <use x="104.6875" xlink:href="#DejaVuSans-54"/>
     </g>
    </g>
   </g>
  </g>
 </g>
 <defs>
  <clipPath id="p697e6a724c">
   <rect height="281.92" width="365.27" x="47.72" y="21.72"/>
  </clipPath>
 </defs>
</svg>
