<?xml version="1.0" encoding="utf-8" standalone="no"?>
<!DOCTYPE svg PUBLIC "-//W3C//DTD SVG 1.1//EN"
  "http://www.w3.org/Graphics/SVG/1.1/DTD/svg11.dtd">
<svg height="345.6pt" version="1.1" viewBox="0 0 460.8 345.6" width="460.8pt" xmlns="http://www.w3.org/2000/svg" xmlns:xlink="http://www.w3.org/1999/xlink">
 <metadata>
  <rdf:RDF xmlns:cc="http://creativecommons.org/ns#" xmlns:dc="http://purl.org/dc/elements/1.1/" xmlns:rdf="http://www.w3.org/1999/02/22-rdf-syntax-ns#">
   <cc:Work>
    <dc:type rdf:resource="http://purl.org/dc/dcmitype/StillImage"/>
    <dc:date>2021-08-07T10:11:43.396757</dc:date>
    <dc:format>image/svg+xml</dc:format>
    <dc:creator>
     <cc:Agent>
      <dc:title>Matplotlib v3.4.2, https://matplotlib.org/</dc:title>
     </cc:Agent>
    </dc:creator>
   </cc:Work>
  </rdf:RDF>
 </metadata>
 <defs>
  <style type="text/css">*{stroke-linecap:butt;stroke-linejoin:round;}</style>
 </defs>
 <g id="figure_1">
  <g id="patch_1">
   <path d="M 0 345.6 
L 460.8 345.6 
L 460.8 0 
L 0 0 
z
" style="fill:#ffffff;"/>
  </g>
  <g id="axes_1">
   <g id="patch_2">
    <path d="M 47.81 303.64 
L 412.99 303.64 
L 412.99 21.72 
L 47.81 21.72 
z
" style="fill:#ffffff;"/>
   </g>
   <g id="matplotlib.axis_1">
    <g id="xtick_1">
     <g id="line2d_1">
      <defs>
       <path d="M 0 0 
L 0 3.5 
" id="mcae8dd997f" style="stroke:#000000;stroke-width:0.8;"/>
      </defs>
      <g>
       <use style="stroke:#000000;stroke-width:0.8;" x="61.055739" xlink:href="#mcae8dd997f" y="303.64"/>
      </g>
     </g>
     <g id="text_1">
      <!-- 0.0 -->
      <g transform="translate(53.104177 318.238437)scale(0.1 -0.1)">
       <defs>
        <path d="M 2034 4250 
Q 1547 4250 1301 3770 
Q 1056 3291 1056 2328 
Q 1056 1369 1301 889 
Q 1547 409 2034 409 
Q 2525 409 2770 889 
Q 3016 1369 3016 2328 
Q 3016 3291 2770 3770 
Q 2525 4250 2034 4250 
z
M 2034 4750 
Q 2819 4750 3233 4129 
Q 3647 3509 3647 2328 
Q 3647 1150 3233 529 
Q 2819 -91 2034 -91 
Q 1250 -91 836 529 
Q 422 1150 422 2328 
Q 422 3509 836 4129 
Q 1250 4750 2034 4750 
z
" id="DejaVuSans-30" transform="scale(0.015625)"/>
        <path d="M 684 794 
L 1344 794 
L 1344 0 
L 684 0 
L 684 794 
z
" id="DejaVuSans-2e" transform="scale(0.015625)"/>
       </defs>
       <use xlink:href="#DejaVuSans-30"/>
       <use x="63.623047" xlink:href="#DejaVuSans-2e"/>
       <use x="95.410156" xlink:href="#DejaVuSans-30"/>
      </g>
     </g>
    </g>
    <g id="xtick_2">
     <g id="line2d_2">
      <g>
       <use style="stroke:#000000;stroke-width:0.8;" x="128.122773" xlink:href="#mcae8dd997f" y="303.64"/>
      </g>
     </g>
     <g id="text_2">
      <!-- 0.2 -->
      <g transform="translate(120.171211 318.238437)scale(0.1 -0.1)">
       <defs>
        <path d="M 1228 531 
L 3431 531 
L 3431 0 
L 469 0 
L 469 531 
Q 828 903 1448 1529 
Q 2069 2156 2228 2338 
Q 2531 2678 2651 2914 
Q 2772 3150 2772 3378 
Q 2772 3750 2511 3984 
Q 2250 4219 1831 4219 
Q 1534 4219 1204 4116 
Q 875 4013 500 3803 
L 500 4441 
Q 881 4594 1212 4672 
Q 1544 4750 1819 4750 
Q 2544 4750 2975 4387 
Q 3406 4025 3406 3419 
Q 3406 3131 3298 2873 
Q 3191 2616 2906 2266 
Q 2828 2175 2409 1742 
Q 1991 1309 1228 531 
z
" id="DejaVuSans-32" transform="scale(0.015625)"/>
       </defs>
       <use xlink:href="#DejaVuSans-30"/>
       <use x="63.623047" xlink:href="#DejaVuSans-2e"/>
       <use x="95.410156" xlink:href="#DejaVuSans-32"/>
      </g>
     </g>
    </g>
    <g id="xtick_3">
     <g id="line2d_3">
      <g>
       <use style="stroke:#000000;stroke-width:0.8;" x="195.189807" xlink:href="#mcae8dd997f" y="303.64"/>
      </g>
     </g>
     <g id="text_3">
      <!-- 0.4 -->
      <g transform="translate(187.238245 318.238437)scale(0.1 -0.1)">
       <defs>
        <path d="M 2419 4116 
L 825 1625 
L 2419 1625 
L 2419 4116 
z
M 2253 4666 
L 3047 4666 
L 3047 1625 
L 3713 1625 
L 3713 1100 
L 3047 1100 
L 3047 0 
L 2419 0 
L 2419 1100 
L 313 1100 
L 313 1709 
L 2253 4666 
z
" id="DejaVuSans-34" transform="scale(0.015625)"/>
       </defs>
       <use xlink:href="#DejaVuSans-30"/>
       <use x="63.623047" xlink:href="#DejaVuSans-2e"/>
       <use x="95.410156" xlink:href="#DejaVuSans-34"/>
      </g>
     </g>
    </g>
    <g id="xtick_4">
     <g id="line2d_4">
      <g>
       <use style="stroke:#000000;stroke-width:0.8;" x="262.256841" xlink:href="#mcae8dd997f" y="303.64"/>
      </g>
     </g>
     <g id="text_4">
      <!-- 0.6 -->
      <g transform="translate(254.305279 318.238437)scale(0.1 -0.1)">
       <defs>
        <path d="M 2113 2584 
Q 1688 2584 1439 2293 
Q 1191 2003 1191 1497 
Q 1191 994 1439 701 
Q 1688 409 2113 409 
Q 2538 409 2786 701 
Q 3034 994 3034 1497 
Q 3034 2003 2786 2293 
Q 2538 2584 2113 2584 
z
M 3366 4563 
L 3366 3988 
Q 3128 4100 2886 4159 
Q 2644 4219 2406 4219 
Q 1781 4219 1451 3797 
Q 1122 3375 1075 2522 
Q 1259 2794 1537 2939 
Q 1816 3084 2150 3084 
Q 2853 3084 3261 2657 
Q 3669 2231 3669 1497 
Q 3669 778 3244 343 
Q 2819 -91 2113 -91 
Q 1303 -91 875 529 
Q 447 1150 447 2328 
Q 447 3434 972 4092 
Q 1497 4750 2381 4750 
Q 2619 4750 2861 4703 
Q 3103 4656 3366 4563 
z
" id="DejaVuSans-36" transform="scale(0.015625)"/>
       </defs>
       <use xlink:href="#DejaVuSans-30"/>
       <use x="63.623047" xlink:href="#DejaVuSans-2e"/>
       <use x="95.410156" xlink:href="#DejaVuSans-36"/>
      </g>
     </g>
    </g>
    <g id="xtick_5">
     <g id="line2d_5">
      <g>
       <use style="stroke:#000000;stroke-width:0.8;" x="329.323875" xlink:href="#mcae8dd997f" y="303.64"/>
      </g>
     </g>
     <g id="text_5">
      <!-- 0.8 -->
      <g transform="translate(321.372313 318.238437)scale(0.1 -0.1)">
       <defs>
        <path d="M 2034 2216 
Q 1584 2216 1326 1975 
Q 1069 1734 1069 1313 
Q 1069 891 1326 650 
Q 1584 409 2034 409 
Q 2484 409 2743 651 
Q 3003 894 3003 1313 
Q 3003 1734 2745 1975 
Q 2488 2216 2034 2216 
z
M 1403 2484 
Q 997 2584 770 2862 
Q 544 3141 544 3541 
Q 544 4100 942 4425 
Q 1341 4750 2034 4750 
Q 2731 4750 3128 4425 
Q 3525 4100 3525 3541 
Q 3525 3141 3298 2862 
Q 3072 2584 2669 2484 
Q 3125 2378 3379 2068 
Q 3634 1759 3634 1313 
Q 3634 634 3220 271 
Q 2806 -91 2034 -91 
Q 1263 -91 848 271 
Q 434 634 434 1313 
Q 434 1759 690 2068 
Q 947 2378 1403 2484 
z
M 1172 3481 
Q 1172 3119 1398 2916 
Q 1625 2713 2034 2713 
Q 2441 2713 2670 2916 
Q 2900 3119 2900 3481 
Q 2900 3844 2670 4047 
Q 2441 4250 2034 4250 
Q 1625 4250 1398 4047 
Q 1172 3844 1172 3481 
z
" id="DejaVuSans-38" transform="scale(0.015625)"/>
       </defs>
       <use xlink:href="#DejaVuSans-30"/>
       <use x="63.623047" xlink:href="#DejaVuSans-2e"/>
       <use x="95.410156" xlink:href="#DejaVuSans-38"/>
      </g>
     </g>
    </g>
    <g id="xtick_6">
     <g id="line2d_6">
      <g>
       <use style="stroke:#000000;stroke-width:0.8;" x="396.390909" xlink:href="#mcae8dd997f" y="303.64"/>
      </g>
     </g>
     <g id="text_6">
      <!-- 1.0 -->
      <g transform="translate(388.439347 318.238437)scale(0.1 -0.1)">
       <defs>
        <path d="M 794 531 
L 1825 531 
L 1825 4091 
L 703 3866 
L 703 4441 
L 1819 4666 
L 2450 4666 
L 2450 531 
L 3481 531 
L 3481 0 
L 794 0 
L 794 531 
z
" id="DejaVuSans-31" transform="scale(0.015625)"/>
       </defs>
       <use xlink:href="#DejaVuSans-31"/>
       <use x="63.623047" xlink:href="#DejaVuSans-2e"/>
       <use x="95.410156" xlink:href="#DejaVuSans-30"/>
      </g>
     </g>
    </g>
    <g id="text_7">
     <!-- Requetes -->
     <g transform="translate(207.013281 331.916562)scale(0.1 -0.1)">
      <defs>
       <path d="M 2841 2188 
Q 3044 2119 3236 1894 
Q 3428 1669 3622 1275 
L 4263 0 
L 3584 0 
L 2988 1197 
Q 2756 1666 2539 1819 
Q 2322 1972 1947 1972 
L 1259 1972 
L 1259 0 
L 628 0 
L 628 4666 
L 2053 4666 
Q 2853 4666 3247 4331 
Q 3641 3997 3641 3322 
Q 3641 2881 3436 2590 
Q 3231 2300 2841 2188 
z
M 1259 4147 
L 1259 2491 
L 2053 2491 
Q 2509 2491 2742 2702 
Q 2975 2913 2975 3322 
Q 2975 3731 2742 3939 
Q 2509 4147 2053 4147 
L 1259 4147 
z
" id="DejaVuSans-52" transform="scale(0.015625)"/>
       <path d="M 3597 1894 
L 3597 1613 
L 953 1613 
Q 991 1019 1311 708 
Q 1631 397 2203 397 
Q 2534 397 2845 478 
Q 3156 559 3463 722 
L 3463 178 
Q 3153 47 2828 -22 
Q 2503 -91 2169 -91 
Q 1331 -91 842 396 
Q 353 884 353 1716 
Q 353 2575 817 3079 
Q 1281 3584 2069 3584 
Q 2775 3584 3186 3129 
Q 3597 2675 3597 1894 
z
M 3022 2063 
Q 3016 2534 2758 2815 
Q 2500 3097 2075 3097 
Q 1594 3097 1305 2825 
Q 1016 2553 972 2059 
L 3022 2063 
z
" id="DejaVuSans-65" transform="scale(0.015625)"/>
       <path d="M 947 1747 
Q 947 1113 1208 752 
Q 1469 391 1925 391 
Q 2381 391 2643 752 
Q 2906 1113 2906 1747 
Q 2906 2381 2643 2742 
Q 2381 3103 1925 3103 
Q 1469 3103 1208 2742 
Q 947 2381 947 1747 
z
M 2906 525 
Q 2725 213 2448 61 
Q 2172 -91 1784 -91 
Q 1150 -91 751 415 
Q 353 922 353 1747 
Q 353 2572 751 3078 
Q 1150 3584 1784 3584 
Q 2172 3584 2448 3432 
Q 2725 3281 2906 2969 
L 2906 3500 
L 3481 3500 
L 3481 -1331 
L 2906 -1331 
L 2906 525 
z
" id="DejaVuSans-71" transform="scale(0.015625)"/>
       <path d="M 544 1381 
L 544 3500 
L 1119 3500 
L 1119 1403 
Q 1119 906 1312 657 
Q 1506 409 1894 409 
Q 2359 409 2629 706 
Q 2900 1003 2900 1516 
L 2900 3500 
L 3475 3500 
L 3475 0 
L 2900 0 
L 2900 538 
Q 2691 219 2414 64 
Q 2138 -91 1772 -91 
Q 1169 -91 856 284 
Q 544 659 544 1381 
z
M 1991 3584 
L 1991 3584 
z
" id="DejaVuSans-75" transform="scale(0.015625)"/>
       <path d="M 1172 4494 
L 1172 3500 
L 2356 3500 
L 2356 3053 
L 1172 3053 
L 1172 1153 
Q 1172 725 1289 603 
Q 1406 481 1766 481 
L 2356 481 
L 2356 0 
L 1766 0 
Q 1100 0 847 248 
Q 594 497 594 1153 
L 594 3053 
L 172 3053 
L 172 3500 
L 594 3500 
L 594 4494 
L 1172 4494 
z
" id="DejaVuSans-74" transform="scale(0.015625)"/>
       <path d="M 2834 3397 
L 2834 2853 
Q 2591 2978 2328 3040 
Q 2066 3103 1784 3103 
Q 1356 3103 1142 2972 
Q 928 2841 928 2578 
Q 928 2378 1081 2264 
Q 1234 2150 1697 2047 
L 1894 2003 
Q 2506 1872 2764 1633 
Q 3022 1394 3022 966 
Q 3022 478 2636 193 
Q 2250 -91 1575 -91 
Q 1294 -91 989 -36 
Q 684 19 347 128 
L 347 722 
Q 666 556 975 473 
Q 1284 391 1588 391 
Q 1994 391 2212 530 
Q 2431 669 2431 922 
Q 2431 1156 2273 1281 
Q 2116 1406 1581 1522 
L 1381 1569 
Q 847 1681 609 1914 
Q 372 2147 372 2553 
Q 372 3047 722 3315 
Q 1072 3584 1716 3584 
Q 2034 3584 2315 3537 
Q 2597 3491 2834 3397 
z
" id="DejaVuSans-73" transform="scale(0.015625)"/>
      </defs>
      <use xlink:href="#DejaVuSans-52"/>
      <use x="64.982422" xlink:href="#DejaVuSans-65"/>
      <use x="126.505859" xlink:href="#DejaVuSans-71"/>
      <use x="189.982422" xlink:href="#DejaVuSans-75"/>
      <use x="253.361328" xlink:href="#DejaVuSans-65"/>
      <use x="314.884766" xlink:href="#DejaVuSans-74"/>
      <use x="354.09375" xlink:href="#DejaVuSans-65"/>
      <use x="415.617188" xlink:href="#DejaVuSans-73"/>
     </g>
    </g>
    <g id="text_8">
     <!-- 1e9 -->
     <g transform="translate(394.111875 330.916562)scale(0.1 -0.1)">
      <defs>
       <path d="M 703 97 
L 703 672 
Q 941 559 1184 500 
Q 1428 441 1663 441 
Q 2288 441 2617 861 
Q 2947 1281 2994 2138 
Q 2813 1869 2534 1725 
Q 2256 1581 1919 1581 
Q 1219 1581 811 2004 
Q 403 2428 403 3163 
Q 403 3881 828 4315 
Q 1253 4750 1959 4750 
Q 2769 4750 3195 4129 
Q 3622 3509 3622 2328 
Q 3622 1225 3098 567 
Q 2575 -91 1691 -91 
Q 1453 -91 1209 -44 
Q 966 3 703 97 
z
M 1959 2075 
Q 2384 2075 2632 2365 
Q 2881 2656 2881 3163 
Q 2881 3666 2632 3958 
Q 2384 4250 1959 4250 
Q 1534 4250 1286 3958 
Q 1038 3666 1038 3163 
Q 1038 2656 1286 2365 
Q 1534 2075 1959 2075 
z
" id="DejaVuSans-39" transform="scale(0.015625)"/>
      </defs>
      <use xlink:href="#DejaVuSans-31"/>
      <use x="63.623047" xlink:href="#DejaVuSans-65"/>
      <use x="125.146484" xlink:href="#DejaVuSans-39"/>
     </g>
    </g>
   </g>
   <g id="matplotlib.axis_2">
    <g id="ytick_1">
     <g id="line2d_7">
      <defs>
       <path d="M 0 0 
L -3.5 0 
" id="m96156a682c" style="stroke:#000000;stroke-width:0.8;"/>
      </defs>
      <g>
       <use style="stroke:#000000;stroke-width:0.8;" x="47.81" xlink:href="#m96156a682c" y="293.02251"/>
      </g>
     </g>
     <g id="text_9">
      <!-- 0.0 -->
      <g transform="translate(24.906875 296.821729)scale(0.1 -0.1)">
       <use xlink:href="#DejaVuSans-30"/>
       <use x="63.623047" xlink:href="#DejaVuSans-2e"/>
       <use x="95.410156" xlink:href="#DejaVuSans-30"/>
      </g>
     </g>
    </g>
    <g id="ytick_2">
     <g id="line2d_8">
      <g>
       <use style="stroke:#000000;stroke-width:0.8;" x="47.81" xlink:href="#m96156a682c" y="259.21905"/>
      </g>
     </g>
     <g id="text_10">
      <!-- 0.2 -->
      <g transform="translate(24.906875 263.018269)scale(0.1 -0.1)">
       <use xlink:href="#DejaVuSans-30"/>
       <use x="63.623047" xlink:href="#DejaVuSans-2e"/>
       <use x="95.410156" xlink:href="#DejaVuSans-32"/>
      </g>
     </g>
    </g>
    <g id="ytick_3">
     <g id="line2d_9">
      <g>
       <use style="stroke:#000000;stroke-width:0.8;" x="47.81" xlink:href="#m96156a682c" y="225.415589"/>
      </g>
     </g>
     <g id="text_11">
      <!-- 0.4 -->
      <g transform="translate(24.906875 229.214808)scale(0.1 -0.1)">
       <use xlink:href="#DejaVuSans-30"/>
       <use x="63.623047" xlink:href="#DejaVuSans-2e"/>
       <use x="95.410156" xlink:href="#DejaVuSans-34"/>
      </g>
     </g>
    </g>
    <g id="ytick_4">
     <g id="line2d_10">
      <g>
       <use style="stroke:#000000;stroke-width:0.8;" x="47.81" xlink:href="#m96156a682c" y="191.612128"/>
      </g>
     </g>
     <g id="text_12">
      <!-- 0.6 -->
      <g transform="translate(24.906875 195.411347)scale(0.1 -0.1)">
       <use xlink:href="#DejaVuSans-30"/>
       <use x="63.623047" xlink:href="#DejaVuSans-2e"/>
       <use x="95.410156" xlink:href="#DejaVuSans-36"/>
      </g>
     </g>
    </g>
    <g id="ytick_5">
     <g id="line2d_11">
      <g>
       <use style="stroke:#000000;stroke-width:0.8;" x="47.81" xlink:href="#m96156a682c" y="157.808668"/>
      </g>
     </g>
     <g id="text_13">
      <!-- 0.8 -->
      <g transform="translate(24.906875 161.607887)scale(0.1 -0.1)">
       <use xlink:href="#DejaVuSans-30"/>
       <use x="63.623047" xlink:href="#DejaVuSans-2e"/>
       <use x="95.410156" xlink:href="#DejaVuSans-38"/>
      </g>
     </g>
    </g>
    <g id="ytick_6">
     <g id="line2d_12">
      <g>
       <use style="stroke:#000000;stroke-width:0.8;" x="47.81" xlink:href="#m96156a682c" y="124.005207"/>
      </g>
     </g>
     <g id="text_14">
      <!-- 1.0 -->
      <g transform="translate(24.906875 127.804426)scale(0.1 -0.1)">
       <use xlink:href="#DejaVuSans-31"/>
       <use x="63.623047" xlink:href="#DejaVuSans-2e"/>
       <use x="95.410156" xlink:href="#DejaVuSans-30"/>
      </g>
     </g>
    </g>
    <g id="ytick_7">
     <g id="line2d_13">
      <g>
       <use style="stroke:#000000;stroke-width:0.8;" x="47.81" xlink:href="#m96156a682c" y="90.201746"/>
      </g>
     </g>
     <g id="text_15">
      <!-- 1.2 -->
      <g transform="translate(24.906875 94.000965)scale(0.1 -0.1)">
       <use xlink:href="#DejaVuSans-31"/>
       <use x="63.623047" xlink:href="#DejaVuSans-2e"/>
       <use x="95.410156" xlink:href="#DejaVuSans-32"/>
      </g>
     </g>
    </g>
    <g id="ytick_8">
     <g id="line2d_14">
      <g>
       <use style="stroke:#000000;stroke-width:0.8;" x="47.81" xlink:href="#m96156a682c" y="56.398286"/>
      </g>
     </g>
     <g id="text_16">
      <!-- 1.4 -->
      <g transform="translate(24.906875 60.197505)scale(0.1 -0.1)">
       <use xlink:href="#DejaVuSans-31"/>
       <use x="63.623047" xlink:href="#DejaVuSans-2e"/>
       <use x="95.410156" xlink:href="#DejaVuSans-34"/>
      </g>
     </g>
    </g>
    <g id="ytick_9">
     <g id="line2d_15">
      <g>
       <use style="stroke:#000000;stroke-width:0.8;" x="47.81" xlink:href="#m96156a682c" y="22.594825"/>
      </g>
     </g>
     <g id="text_17">
      <!-- 1.6 -->
      <g transform="translate(24.906875 26.394044)scale(0.1 -0.1)">
       <use xlink:href="#DejaVuSans-31"/>
       <use x="63.623047" xlink:href="#DejaVuSans-2e"/>
       <use x="95.410156" xlink:href="#DejaVuSans-36"/>
      </g>
     </g>
    </g>
    <g id="text_18">
     <!-- NB d'entrees -->
     <g transform="translate(18.827188 194.894844)rotate(-90)scale(0.1 -0.1)">
      <defs>
       <path d="M 628 4666 
L 1478 4666 
L 3547 763 
L 3547 4666 
L 4159 4666 
L 4159 0 
L 3309 0 
L 1241 3903 
L 1241 0 
L 628 0 
L 628 4666 
z
" id="DejaVuSans-4e" transform="scale(0.015625)"/>
       <path d="M 1259 2228 
L 1259 519 
L 2272 519 
Q 2781 519 3026 730 
Q 3272 941 3272 1375 
Q 3272 1813 3026 2020 
Q 2781 2228 2272 2228 
L 1259 2228 
z
M 1259 4147 
L 1259 2741 
L 2194 2741 
Q 2656 2741 2882 2914 
Q 3109 3088 3109 3444 
Q 3109 3797 2882 3972 
Q 2656 4147 2194 4147 
L 1259 4147 
z
M 628 4666 
L 2241 4666 
Q 2963 4666 3353 4366 
Q 3744 4066 3744 3513 
Q 3744 3084 3544 2831 
Q 3344 2578 2956 2516 
Q 3422 2416 3680 2098 
Q 3938 1781 3938 1306 
Q 3938 681 3513 340 
Q 3088 0 2303 0 
L 628 0 
L 628 4666 
z
" id="DejaVuSans-42" transform="scale(0.015625)"/>
       <path id="DejaVuSans-20" transform="scale(0.015625)"/>
       <path d="M 2906 2969 
L 2906 4863 
L 3481 4863 
L 3481 0 
L 2906 0 
L 2906 525 
Q 2725 213 2448 61 
Q 2172 -91 1784 -91 
Q 1150 -91 751 415 
Q 353 922 353 1747 
Q 353 2572 751 3078 
Q 1150 3584 1784 3584 
Q 2172 3584 2448 3432 
Q 2725 3281 2906 2969 
z
M 947 1747 
Q 947 1113 1208 752 
Q 1469 391 1925 391 
Q 2381 391 2643 752 
Q 2906 1113 2906 1747 
Q 2906 2381 2643 2742 
Q 2381 3103 1925 3103 
Q 1469 3103 1208 2742 
Q 947 2381 947 1747 
z
" id="DejaVuSans-64" transform="scale(0.015625)"/>
       <path d="M 1147 4666 
L 1147 2931 
L 616 2931 
L 616 4666 
L 1147 4666 
z
" id="DejaVuSans-27" transform="scale(0.015625)"/>
       <path d="M 3513 2113 
L 3513 0 
L 2938 0 
L 2938 2094 
Q 2938 2591 2744 2837 
Q 2550 3084 2163 3084 
Q 1697 3084 1428 2787 
Q 1159 2491 1159 1978 
L 1159 0 
L 581 0 
L 581 3500 
L 1159 3500 
L 1159 2956 
Q 1366 3272 1645 3428 
Q 1925 3584 2291 3584 
Q 2894 3584 3203 3211 
Q 3513 2838 3513 2113 
z
" id="DejaVuSans-6e" transform="scale(0.015625)"/>
       <path d="M 2631 2963 
Q 2534 3019 2420 3045 
Q 2306 3072 2169 3072 
Q 1681 3072 1420 2755 
Q 1159 2438 1159 1844 
L 1159 0 
L 581 0 
L 581 3500 
L 1159 3500 
L 1159 2956 
Q 1341 3275 1631 3429 
Q 1922 3584 2338 3584 
Q 2397 3584 2469 3576 
Q 2541 3569 2628 3553 
L 2631 2963 
z
" id="DejaVuSans-72" transform="scale(0.015625)"/>
      </defs>
      <use xlink:href="#DejaVuSans-4e"/>
      <use x="74.804688" xlink:href="#DejaVuSans-42"/>
      <use x="143.408203" xlink:href="#DejaVuSans-20"/>
      <use x="175.195312" xlink:href="#DejaVuSans-64"/>
      <use x="238.671875" xlink:href="#DejaVuSans-27"/>
      <use x="266.162109" xlink:href="#DejaVuSans-65"/>
      <use x="327.685547" xlink:href="#DejaVuSans-6e"/>
      <use x="391.064453" xlink:href="#DejaVuSans-74"/>
      <use x="430.273438" xlink:href="#DejaVuSans-72"/>
      <use x="469.136719" xlink:href="#DejaVuSans-65"/>
      <use x="530.660156" xlink:href="#DejaVuSans-65"/>
      <use x="592.183594" xlink:href="#DejaVuSans-73"/>
     </g>
    </g>
    <g id="text_19">
     <!-- 1e6 -->
     <g transform="translate(47.81 18.72)scale(0.1 -0.1)">
      <use xlink:href="#DejaVuSans-31"/>
      <use x="63.623047" xlink:href="#DejaVuSans-65"/>
      <use x="125.146484" xlink:href="#DejaVuSans-36"/>
     </g>
    </g>
   </g>
   <g id="line2d_16">
    <path clip-path="url(#p9300b5befd)" d="M 64.409091 179.080002 
L 67.762443 161.773814 
L 71.115794 156.973891 
L 74.469146 155.467609 
L 77.822498 155.110138 
L 81.175849 154.829231 
L 84.529201 154.744722 
L 87.882553 154.614241 
L 91.235904 154.828217 
L 94.589256 154.814188 
L 97.942608 154.694524 
L 101.29596 154.686749 
L 104.649311 154.600043 
L 108.002663 154.726299 
L 111.356015 154.745229 
L 114.709366 154.721567 
L 118.062718 154.704834 
L 121.41607 154.745567 
L 124.769421 154.741004 
L 128.122773 154.698918 
L 131.476125 154.673904 
L 134.829477 154.702299 
L 138.182828 154.736609 
L 141.53618 154.760779 
L 144.889532 154.664946 
L 148.242883 154.78292 
L 151.596235 154.731877 
L 154.949587 154.762807 
L 158.302938 154.699594 
L 161.65629 154.786807 
L 165.009642 154.694693 
L 168.362994 154.909176 
L 171.716345 154.694355 
L 175.069697 154.738976 
L 178.423049 154.618635 
L 181.7764 154.816047 
L 185.129752 154.807259 
L 188.483104 154.707369 
L 191.836455 154.766525 
L 195.189807 154.653115 
L 198.543159 154.740835 
L 201.896511 154.781061 
L 205.249862 154.707538 
L 208.603214 154.704834 
L 211.956566 154.779878 
L 215.309917 154.689453 
L 218.663269 154.684721 
L 222.016621 154.57317 
L 225.369972 154.799315 
L 228.723324 154.805737 
L 232.076676 154.696214 
L 235.430028 154.71937 
L 238.783379 154.836668 
L 242.136731 154.70213 
L 245.490083 154.813512 
L 248.843434 154.729173 
L 252.196786 154.784948 
L 255.550138 154.747257 
L 258.903489 154.913739 
L 262.256841 154.607818 
L 265.610193 154.669509 
L 268.963545 154.709905 
L 272.316896 154.787653 
L 275.670248 154.745905 
L 279.0236 154.764328 
L 282.376951 154.745567 
L 285.730303 154.66765 
L 289.083655 154.74844 
L 292.437006 154.799653 
L 295.790358 154.707707 
L 299.14371 154.716327 
L 302.497062 154.781737 
L 305.850413 154.677453 
L 309.203765 154.690975 
L 312.557117 154.558127 
L 315.910468 154.858302 
L 319.26382 154.83109 
L 322.617172 154.690637 
L 325.970523 154.708383 
L 329.323875 154.773793 
L 332.677227 154.697904 
L 336.030579 154.736102 
L 339.38393 154.670862 
L 342.737282 154.677284 
L 346.090634 154.744384 
L 349.443985 154.814526 
L 352.797337 154.698918 
L 356.150689 154.637565 
L 359.50404 154.652608 
L 362.857392 154.763483 
L 366.210744 154.836329 
L 369.564096 154.644157 
L 372.917447 154.785962 
L 376.270799 154.67796 
L 379.624151 154.749793 
L 382.977502 154.726299 
L 386.330854 154.718017 
L 389.684206 154.663087 
L 393.037557 154.875034 
L 396.390909 154.750638 
" style="fill:none;stroke:#1f77b4;stroke-linecap:square;stroke-width:1.5;"/>
   </g>
   <g id="line2d_17">
    <path clip-path="url(#p9300b5befd)" d="M 64.409091 226.463496 
L 67.762443 198.320594 
L 71.115794 184.878141 
L 74.469146 177.755583 
L 77.822498 174.277038 
L 81.175849 172.311705 
L 84.529201 171.111513 
L 87.882553 170.474317 
L 91.235904 170.151325 
L 94.589256 170.040788 
L 97.942608 169.933969 
L 101.29596 170.04569 
L 104.649311 169.983153 
L 108.002663 169.94073 
L 111.356015 169.778811 
L 114.709366 170.030985 
L 118.062718 169.650527 
L 121.41607 169.750585 
L 124.769421 169.873292 
L 128.122773 169.783375 
L 131.476125 169.694303 
L 134.829477 169.847263 
L 138.182828 170.056676 
L 141.53618 169.916898 
L 144.889532 169.965575 
L 148.242883 169.902701 
L 151.596235 169.891715 
L 154.949587 169.814643 
L 158.302938 169.907264 
L 161.65629 169.874137 
L 165.009642 169.714754 
L 168.362994 169.83577 
L 171.716345 169.880898 
L 175.069697 169.784727 
L 178.423049 169.775938 
L 181.7764 169.836615 
L 185.129752 169.796896 
L 188.483104 169.943265 
L 191.836455 170.011041 
L 195.189807 169.976223 
L 198.543159 169.886137 
L 201.896511 169.805009 
L 205.249862 169.958139 
L 208.603214 169.675542 
L 211.956566 169.745515 
L 215.309917 169.87701 
L 218.663269 169.811432 
L 222.016621 169.718472 
L 225.369972 169.801122 
L 228.723324 169.913518 
L 232.076676 169.922814 
L 235.430028 169.989576 
L 238.783379 169.867545 
L 242.136731 169.87701 
L 245.490083 169.802812 
L 248.843434 169.945631 
L 252.196786 169.79284 
L 255.550138 169.651372 
L 258.903489 169.882757 
L 262.256841 169.894588 
L 265.610193 169.733853 
L 268.963545 169.817347 
L 272.316896 169.90118 
L 275.670248 169.861123 
L 279.0236 169.94242 
L 282.376951 170.015774 
L 285.730303 169.869912 
L 289.083655 169.844221 
L 292.437006 169.845911 
L 295.790358 169.905067 
L 299.14371 169.69481 
L 302.497062 169.852334 
L 305.850413 169.90287 
L 309.203765 169.828502 
L 312.557117 169.752445 
L 315.910468 169.804502 
L 319.26382 169.882081 
L 322.617172 169.813629 
L 325.970523 169.967435 
L 329.323875 169.929575 
L 332.677227 169.918758 
L 336.030579 169.797403 
L 339.38393 169.900335 
L 342.737282 169.783882 
L 346.090634 169.666922 
L 349.443985 169.898476 
L 352.797337 169.765797 
L 356.150689 169.738078 
L 359.50404 169.903715 
L 362.857392 169.979604 
L 366.210744 169.842362 
L 369.564096 169.96473 
L 372.917447 169.956786 
L 376.270799 169.875827 
L 379.624151 169.846418 
L 382.977502 169.911997 
L 386.330854 169.975209 
L 389.684206 169.727261 
L 393.037557 169.834925 
L 396.390909 169.829347 
" style="fill:none;stroke:#ff7f0e;stroke-linecap:square;stroke-width:1.5;"/>
   </g>
   <g id="line2d_18">
    <path clip-path="url(#p9300b5befd)" d="M 64.409091 221.329596 
L 67.762443 186.180081 
L 71.115794 166.369563 
L 74.469146 154.692665 
L 77.822498 147.159226 
L 81.175849 142.519024 
L 84.529201 139.435473 
L 87.882553 137.386138 
L 91.235904 135.92042 
L 94.589256 135.090376 
L 97.942608 134.352446 
L 101.29596 133.752773 
L 104.649311 133.333948 
L 108.002663 133.028027 
L 111.356015 133.285271 
L 114.709366 133.11693 
L 118.062718 133.454119 
L 121.41607 133.171861 
L 124.769421 133.251806 
L 128.122773 133.27344 
L 131.476125 133.37671 
L 134.829477 133.323976 
L 138.182828 133.335638 
L 141.53618 133.354061 
L 144.889532 133.355413 
L 148.242883 133.141775 
L 151.596235 133.151071 
L 154.949587 133.160367 
L 158.302938 133.192481 
L 161.65629 133.186227 
L 165.009642 133.298455 
L 168.362994 133.09107 
L 171.716345 133.269046 
L 175.069697 133.201946 
L 178.423049 133.355751 
L 181.7764 133.229495 
L 185.129752 133.469162 
L 188.483104 133.334962 
L 191.836455 133.296257 
L 195.189807 133.16341 
L 198.543159 133.152086 
L 201.896511 133.303694 
L 205.249862 133.16341 
L 208.603214 133.438401 
L 211.956566 133.25975 
L 215.309917 133.282229 
L 218.663269 133.275299 
L 222.016621 133.40595 
L 225.369972 133.272257 
L 228.723324 133.378738 
L 232.076676 133.400879 
L 235.430028 133.348484 
L 238.783379 133.096648 
L 242.136731 133.102902 
L 245.490083 133.176424 
L 248.843434 133.150057 
L 252.196786 133.304877 
L 255.550138 133.217495 
L 258.903489 133.059633 
L 262.256841 133.267017 
L 265.610193 133.341216 
L 268.963545 133.367076 
L 272.316896 133.316032 
L 275.670248 133.40409 
L 279.0236 133.279863 
L 282.376951 133.2993 
L 285.730303 133.238284 
L 289.083655 133.172706 
L 292.437006 133.246735 
L 295.790358 133.224594 
L 299.14371 133.351695 
L 302.497062 133.212425 
L 305.850413 133.27513 
L 309.203765 133.292539 
L 312.557117 133.345103 
L 315.910468 133.239637 
L 319.26382 133.421499 
L 322.617172 133.393442 
L 325.970523 133.30268 
L 329.323875 133.153438 
L 332.677227 133.106282 
L 336.030579 133.250454 
L 339.38393 133.197551 
L 342.737282 133.345779 
L 346.090634 133.185382 
L 349.443985 133.129606 
L 352.797337 133.255186 
L 356.150689 133.39209 
L 359.50404 133.344765 
L 362.857392 133.346793 
L 366.210744 133.377555 
L 369.564096 133.391076 
L 372.917447 133.21834 
L 376.270799 133.201101 
L 379.624151 133.126902 
L 382.977502 133.215467 
L 386.330854 133.178114 
L 389.684206 133.293722 
L 393.037557 133.135015 
L 396.390909 133.232707 
" style="fill:none;stroke:#2ca02c;stroke-linecap:square;stroke-width:1.5;"/>
   </g>
   <g id="line2d_19">
    <path clip-path="url(#p9300b5befd)" d="M 64.409091 34.534545 
L 67.762443 101.489567 
L 71.115794 132.076628 
L 74.469146 147.783406 
L 77.822498 156.084522 
L 81.175849 160.869233 
L 84.529201 163.703653 
L 87.882553 165.363234 
L 91.235904 166.106234 
L 94.589256 166.395085 
L 97.942608 166.849741 
L 101.29596 166.938137 
L 104.649311 167.190987 
L 108.002663 167.285806 
L 111.356015 167.17155 
L 114.709366 167.11138 
L 118.062718 167.171381 
L 121.41607 167.312849 
L 124.769421 167.114761 
L 128.122773 167.225129 
L 131.476125 167.235946 
L 134.829477 167.107324 
L 138.182828 166.851939 
L 141.53618 166.949124 
L 144.889532 166.994927 
L 148.242883 167.153465 
L 151.596235 167.206199 
L 154.949587 167.243045 
L 158.302938 167.181522 
L 161.65629 167.13369 
L 165.009642 167.272961 
L 168.362994 167.144846 
L 171.716345 167.136564 
L 175.069697 167.255214 
L 178.423049 167.230537 
L 181.7764 167.098704 
L 185.129752 166.907545 
L 188.483104 166.995265 
L 191.836455 166.907038 
L 195.189807 167.188114 
L 198.543159 167.201804 
L 201.896511 167.091098 
L 205.249862 167.151775 
L 208.603214 167.162085 
L 211.956566 167.19572 
L 215.309917 167.132169 
L 218.663269 167.20941 
L 222.016621 167.283271 
L 225.369972 167.108169 
L 228.723324 166.882869 
L 232.076676 166.960955 
L 235.430028 166.923433 
L 238.783379 167.180001 
L 242.136731 167.29882 
L 245.490083 167.188114 
L 248.843434 167.156001 
L 252.196786 167.098197 
L 255.550138 167.364737 
L 258.903489 167.124733 
L 262.256841 167.211438 
L 265.610193 167.236284 
L 268.963545 167.086535 
L 272.316896 166.975997 
L 275.670248 166.969744 
L 279.0236 166.994251 
L 282.376951 166.920222 
L 285.730303 167.205016 
L 289.083655 167.215495 
L 292.437006 167.088563 
L 295.790358 167.143493 
L 299.14371 167.21803 
L 302.497062 167.134367 
L 305.850413 167.125409 
L 309.203765 167.168846 
L 312.557117 167.325187 
L 315.910468 167.078422 
L 319.26382 166.846192 
L 322.617172 167.083154 
L 325.970523 167.002364 
L 329.323875 167.124056 
L 332.677227 167.257918 
L 336.030579 167.196903 
L 339.38393 167.212114 
L 342.737282 167.173917 
L 346.090634 167.384174 
L 349.443985 167.138254 
L 352.797337 167.26096 
L 356.150689 167.213129 
L 359.50404 167.079774 
L 362.857392 166.890982 
L 366.210744 166.924616 
L 369.564096 166.980899 
L 372.917447 167.019773 
L 376.270799 167.225974 
L 379.624151 167.257749 
L 382.977502 167.127099 
L 386.330854 167.109521 
L 389.684206 167.296792 
L 393.037557 167.135888 
L 396.390909 167.16817 
" style="fill:none;stroke:#d62728;stroke-linecap:square;stroke-width:1.5;"/>
   </g>
   <g id="line2d_20">
    <path clip-path="url(#p9300b5befd)" d="M 64.409091 254.398676 
L 67.762443 268.04226 
L 71.115794 275.508092 
L 74.469146 280.107053 
L 77.822498 283.175393 
L 81.175849 285.277124 
L 84.529201 286.810956 
L 87.882553 287.968386 
L 91.235904 288.80012 
L 94.589256 289.465879 
L 97.942608 289.975636 
L 101.29596 290.382967 
L 104.649311 290.698185 
L 108.002663 290.825455 
L 111.356015 290.825455 
L 114.709366 290.825455 
L 118.062718 290.825455 
L 121.41607 290.825455 
L 124.769421 290.825455 
L 128.122773 290.825455 
L 131.476125 290.825455 
L 134.829477 290.825455 
L 138.182828 290.825455 
L 141.53618 290.825455 
L 144.889532 290.825455 
L 148.242883 290.825455 
L 151.596235 290.825455 
L 154.949587 290.825455 
L 158.302938 290.825455 
L 161.65629 290.825455 
L 165.009642 290.825455 
L 168.362994 290.825455 
L 171.716345 290.825455 
L 175.069697 290.825455 
L 178.423049 290.825455 
L 181.7764 290.825455 
L 185.129752 290.825455 
L 188.483104 290.825455 
L 191.836455 290.825455 
L 195.189807 290.825455 
L 198.543159 290.825455 
L 201.896511 290.825455 
L 205.249862 290.825455 
L 208.603214 290.825455 
L 211.956566 290.825455 
L 215.309917 290.825455 
L 218.663269 290.825455 
L 222.016621 290.825455 
L 225.369972 290.825455 
L 228.723324 290.825455 
L 232.076676 290.825455 
L 235.430028 290.825455 
L 238.783379 290.825455 
L 242.136731 290.825455 
L 245.490083 290.825455 
L 248.843434 290.825455 
L 252.196786 290.825455 
L 255.550138 290.825455 
L 258.903489 290.825455 
L 262.256841 290.825455 
L 265.610193 290.825455 
L 268.963545 290.825455 
L 272.316896 290.825455 
L 275.670248 290.825455 
L 279.0236 290.825455 
L 282.376951 290.825455 
L 285.730303 290.825455 
L 289.083655 290.825455 
L 292.437006 290.825455 
L 295.790358 290.825455 
L 299.14371 290.825455 
L 302.497062 290.825455 
L 305.850413 290.825455 
L 309.203765 290.825455 
L 312.557117 290.825455 
L 315.910468 290.825455 
L 319.26382 290.825455 
L 322.617172 290.825455 
L 325.970523 290.825455 
L 329.323875 290.825455 
L 332.677227 290.825455 
L 336.030579 290.825455 
L 339.38393 290.825455 
L 342.737282 290.825455 
L 346.090634 290.825455 
L 349.443985 290.825455 
L 352.797337 290.825455 
L 356.150689 290.825455 
L 359.50404 290.825455 
L 362.857392 290.825455 
L 366.210744 290.825455 
L 369.564096 290.825455 
L 372.917447 290.825455 
L 376.270799 290.825455 
L 379.624151 290.825455 
L 382.977502 290.825455 
L 386.330854 290.825455 
L 389.684206 290.825455 
L 393.037557 290.825455 
L 396.390909 290.825455 
" style="fill:none;stroke:#9467bd;stroke-linecap:square;stroke-width:1.5;"/>
   </g>
   <g id="patch_3">
    <path d="M 47.81 303.64 
L 47.81 21.72 
" style="fill:none;stroke:#000000;stroke-linecap:square;stroke-linejoin:miter;stroke-width:0.8;"/>
   </g>
   <g id="patch_4">
    <path d="M 412.99 303.64 
L 412.99 21.72 
" style="fill:none;stroke:#000000;stroke-linecap:square;stroke-linejoin:miter;stroke-width:0.8;"/>
   </g>
   <g id="patch_5">
    <path d="M 47.81 303.64 
L 412.99 303.64 
" style="fill:none;stroke:#000000;stroke-linecap:square;stroke-linejoin:miter;stroke-width:0.8;"/>
   </g>
   <g id="patch_6">
    <path d="M 47.81 21.72 
L 412.99 21.72 
" style="fill:none;stroke:#000000;stroke-linecap:square;stroke-linejoin:miter;stroke-width:0.8;"/>
   </g>
   <g id="legend_1">
    <g id="patch_7">
     <path d="M 340.797813 103.110625 
L 405.99 103.110625 
Q 407.99 103.110625 407.99 101.110625 
L 407.99 28.72 
Q 407.99 26.72 405.99 26.72 
L 340.797813 26.72 
Q 338.797813 26.72 338.797813 28.72 
L 338.797813 101.110625 
Q 338.797813 103.110625 340.797813 103.110625 
z
" style="fill:#ffffff;opacity:0.8;stroke:#cccccc;stroke-linejoin:miter;"/>
    </g>
    <g id="line2d_21">
     <path d="M 342.797813 34.818438 
L 362.797813 34.818438 
" style="fill:none;stroke:#1f77b4;stroke-linecap:square;stroke-width:1.5;"/>
    </g>
    <g id="line2d_22"/>
    <g id="text_20">
     <!-- HOT -->
     <g transform="translate(370.797813 38.318438)scale(0.1 -0.1)">
      <defs>
       <path d="M 628 4666 
L 1259 4666 
L 1259 2753 
L 3553 2753 
L 3553 4666 
L 4184 4666 
L 4184 0 
L 3553 0 
L 3553 2222 
L 1259 2222 
L 1259 0 
L 628 0 
L 628 4666 
z
" id="DejaVuSans-48" transform="scale(0.015625)"/>
       <path d="M 2522 4238 
Q 1834 4238 1429 3725 
Q 1025 3213 1025 2328 
Q 1025 1447 1429 934 
Q 1834 422 2522 422 
Q 3209 422 3611 934 
Q 4013 1447 4013 2328 
Q 4013 3213 3611 3725 
Q 3209 4238 2522 4238 
z
M 2522 4750 
Q 3503 4750 4090 4092 
Q 4678 3434 4678 2328 
Q 4678 1225 4090 567 
Q 3503 -91 2522 -91 
Q 1538 -91 948 565 
Q 359 1222 359 2328 
Q 359 3434 948 4092 
Q 1538 4750 2522 4750 
z
" id="DejaVuSans-4f" transform="scale(0.015625)"/>
       <path d="M -19 4666 
L 3928 4666 
L 3928 4134 
L 2272 4134 
L 2272 0 
L 1638 0 
L 1638 4134 
L -19 4134 
L -19 4666 
z
" id="DejaVuSans-54" transform="scale(0.015625)"/>
      </defs>
      <use xlink:href="#DejaVuSans-48"/>
      <use x="75.195312" xlink:href="#DejaVuSans-4f"/>
      <use x="153.90625" xlink:href="#DejaVuSans-54"/>
     </g>
    </g>
    <g id="line2d_23">
     <path d="M 342.797813 49.496563 
L 362.797813 49.496563 
" style="fill:none;stroke:#ff7f0e;stroke-linecap:square;stroke-width:1.5;"/>
    </g>
    <g id="line2d_24"/>
    <g id="text_21">
     <!-- WARM -->
     <g transform="translate(370.797813 52.996563)scale(0.1 -0.1)">
      <defs>
       <path d="M 213 4666 
L 850 4666 
L 1831 722 
L 2809 4666 
L 3519 4666 
L 4500 722 
L 5478 4666 
L 6119 4666 
L 4947 0 
L 4153 0 
L 3169 4050 
L 2175 0 
L 1381 0 
L 213 4666 
z
" id="DejaVuSans-57" transform="scale(0.015625)"/>
       <path d="M 2188 4044 
L 1331 1722 
L 3047 1722 
L 2188 4044 
z
M 1831 4666 
L 2547 4666 
L 4325 0 
L 3669 0 
L 3244 1197 
L 1141 1197 
L 716 0 
L 50 0 
L 1831 4666 
z
" id="DejaVuSans-41" transform="scale(0.015625)"/>
       <path d="M 628 4666 
L 1569 4666 
L 2759 1491 
L 3956 4666 
L 4897 4666 
L 4897 0 
L 4281 0 
L 4281 4097 
L 3078 897 
L 2444 897 
L 1241 4097 
L 1241 0 
L 628 0 
L 628 4666 
z
" id="DejaVuSans-4d" transform="scale(0.015625)"/>
      </defs>
      <use xlink:href="#DejaVuSans-57"/>
      <use x="93.376953" xlink:href="#DejaVuSans-41"/>
      <use x="161.785156" xlink:href="#DejaVuSans-52"/>
      <use x="231.267578" xlink:href="#DejaVuSans-4d"/>
     </g>
    </g>
    <g id="line2d_25">
     <path d="M 342.797813 64.174688 
L 362.797813 64.174688 
" style="fill:none;stroke:#2ca02c;stroke-linecap:square;stroke-width:1.5;"/>
    </g>
    <g id="line2d_26"/>
    <g id="text_22">
     <!-- MILD -->
     <g transform="translate(370.797813 67.674688)scale(0.1 -0.1)">
      <defs>
       <path d="M 628 4666 
L 1259 4666 
L 1259 0 
L 628 0 
L 628 4666 
z
" id="DejaVuSans-49" transform="scale(0.015625)"/>
       <path d="M 628 4666 
L 1259 4666 
L 1259 531 
L 3531 531 
L 3531 0 
L 628 0 
L 628 4666 
z
" id="DejaVuSans-4c" transform="scale(0.015625)"/>
       <path d="M 1259 4147 
L 1259 519 
L 2022 519 
Q 2988 519 3436 956 
Q 3884 1394 3884 2338 
Q 3884 3275 3436 3711 
Q 2988 4147 2022 4147 
L 1259 4147 
z
M 628 4666 
L 1925 4666 
Q 3281 4666 3915 4102 
Q 4550 3538 4550 2338 
Q 4550 1131 3912 565 
Q 3275 0 1925 0 
L 628 0 
L 628 4666 
z
" id="DejaVuSans-44" transform="scale(0.015625)"/>
      </defs>
      <use xlink:href="#DejaVuSans-4d"/>
      <use x="86.279297" xlink:href="#DejaVuSans-49"/>
      <use x="115.771484" xlink:href="#DejaVuSans-4c"/>
      <use x="171.484375" xlink:href="#DejaVuSans-44"/>
     </g>
    </g>
    <g id="line2d_27">
     <path d="M 342.797813 78.852813 
L 362.797813 78.852813 
" style="fill:none;stroke:#d62728;stroke-linecap:square;stroke-width:1.5;"/>
    </g>
    <g id="line2d_28"/>
    <g id="text_23">
     <!-- COLD -->
     <g transform="translate(370.797813 82.352813)scale(0.1 -0.1)">
      <defs>
       <path d="M 4122 4306 
L 4122 3641 
Q 3803 3938 3442 4084 
Q 3081 4231 2675 4231 
Q 1875 4231 1450 3742 
Q 1025 3253 1025 2328 
Q 1025 1406 1450 917 
Q 1875 428 2675 428 
Q 3081 428 3442 575 
Q 3803 722 4122 1019 
L 4122 359 
Q 3791 134 3420 21 
Q 3050 -91 2638 -91 
Q 1578 -91 968 557 
Q 359 1206 359 2328 
Q 359 3453 968 4101 
Q 1578 4750 2638 4750 
Q 3056 4750 3426 4639 
Q 3797 4528 4122 4306 
z
" id="DejaVuSans-43" transform="scale(0.015625)"/>
      </defs>
      <use xlink:href="#DejaVuSans-43"/>
      <use x="69.824219" xlink:href="#DejaVuSans-4f"/>
      <use x="148.535156" xlink:href="#DejaVuSans-4c"/>
      <use x="204.248047" xlink:href="#DejaVuSans-44"/>
     </g>
    </g>
    <g id="line2d_29">
     <path d="M 342.797813 93.530938 
L 362.797813 93.530938 
" style="fill:none;stroke:#9467bd;stroke-linecap:square;stroke-width:1.5;"/>
    </g>
    <g id="line2d_30"/>
    <g id="text_24">
     <!-- EMPTY -->
     <g transform="translate(370.797813 97.030938)scale(0.1 -0.1)">
      <defs>
       <path d="M 628 4666 
L 3578 4666 
L 3578 4134 
L 1259 4134 
L 1259 2753 
L 3481 2753 
L 3481 2222 
L 1259 2222 
L 1259 531 
L 3634 531 
L 3634 0 
L 628 0 
L 628 4666 
z
" id="DejaVuSans-45" transform="scale(0.015625)"/>
       <path d="M 1259 4147 
L 1259 2394 
L 2053 2394 
Q 2494 2394 2734 2622 
Q 2975 2850 2975 3272 
Q 2975 3691 2734 3919 
Q 2494 4147 2053 4147 
L 1259 4147 
z
M 628 4666 
L 2053 4666 
Q 2838 4666 3239 4311 
Q 3641 3956 3641 3272 
Q 3641 2581 3239 2228 
Q 2838 1875 2053 1875 
L 1259 1875 
L 1259 0 
L 628 0 
L 628 4666 
z
" id="DejaVuSans-50" transform="scale(0.015625)"/>
       <path d="M -13 4666 
L 666 4666 
L 1959 2747 
L 3244 4666 
L 3922 4666 
L 2272 2222 
L 2272 0 
L 1638 0 
L 1638 2222 
L -13 4666 
z
" id="DejaVuSans-59" transform="scale(0.015625)"/>
      </defs>
      <use xlink:href="#DejaVuSans-45"/>
      <use x="63.183594" xlink:href="#DejaVuSans-4d"/>
      <use x="149.462891" xlink:href="#DejaVuSans-50"/>
      <use x="209.765625" xlink:href="#DejaVuSans-54"/>
      <use x="270.849609" xlink:href="#DejaVuSans-59"/>
     </g>
    </g>
   </g>
  </g>
  <g id="axes_2">
   <g id="matplotlib.axis_3">
    <g id="ytick_10">
     <g id="line2d_31">
      <defs>
       <path d="M 0 0 
L 3.5 0 
" id="m2b45bc35a6" style="stroke:#000000;stroke-width:0.8;"/>
      </defs>
      <g>
       <use style="stroke:#000000;stroke-width:0.8;" x="412.99" xlink:href="#m2b45bc35a6" y="260.330924"/>
      </g>
     </g>
     <g id="text_25">
      <!-- 0.8 -->
      <g transform="translate(419.99 264.130143)scale(0.1 -0.1)">
       <use xlink:href="#DejaVuSans-30"/>
       <use x="63.623047" xlink:href="#DejaVuSans-2e"/>
       <use x="95.410156" xlink:href="#DejaVuSans-38"/>
      </g>
     </g>
    </g>
    <g id="ytick_11">
     <g id="line2d_32">
      <g>
       <use style="stroke:#000000;stroke-width:0.8;" x="412.99" xlink:href="#m2b45bc35a6" y="210.284801"/>
      </g>
     </g>
     <g id="text_26">
      <!-- 1.0 -->
      <g transform="translate(419.99 214.08402)scale(0.1 -0.1)">
       <use xlink:href="#DejaVuSans-31"/>
       <use x="63.623047" xlink:href="#DejaVuSans-2e"/>
       <use x="95.410156" xlink:href="#DejaVuSans-30"/>
      </g>
     </g>
    </g>
    <g id="ytick_12">
     <g id="line2d_33">
      <g>
       <use style="stroke:#000000;stroke-width:0.8;" x="412.99" xlink:href="#m2b45bc35a6" y="160.238679"/>
      </g>
     </g>
     <g id="text_27">
      <!-- 1.2 -->
      <g transform="translate(419.99 164.037897)scale(0.1 -0.1)">
       <use xlink:href="#DejaVuSans-31"/>
       <use x="63.623047" xlink:href="#DejaVuSans-2e"/>
       <use x="95.410156" xlink:href="#DejaVuSans-32"/>
      </g>
     </g>
    </g>
    <g id="ytick_13">
     <g id="line2d_34">
      <g>
       <use style="stroke:#000000;stroke-width:0.8;" x="412.99" xlink:href="#m2b45bc35a6" y="110.192556"/>
      </g>
     </g>
     <g id="text_28">
      <!-- 1.4 -->
      <g transform="translate(419.99 113.991775)scale(0.1 -0.1)">
       <use xlink:href="#DejaVuSans-31"/>
       <use x="63.623047" xlink:href="#DejaVuSans-2e"/>
       <use x="95.410156" xlink:href="#DejaVuSans-34"/>
      </g>
     </g>
    </g>
    <g id="ytick_14">
     <g id="line2d_35">
      <g>
       <use style="stroke:#000000;stroke-width:0.8;" x="412.99" xlink:href="#m2b45bc35a6" y="60.146434"/>
      </g>
     </g>
     <g id="text_29">
      <!-- 1.6 -->
      <g transform="translate(419.99 63.945652)scale(0.1 -0.1)">
       <use xlink:href="#DejaVuSans-31"/>
       <use x="63.623047" xlink:href="#DejaVuSans-2e"/>
       <use x="95.410156" xlink:href="#DejaVuSans-36"/>
      </g>
     </g>
    </g>
    <g id="text_30">
     <!-- Taux de HIT -->
     <g transform="translate(447.491563 191.819062)rotate(-90)scale(0.1 -0.1)">
      <defs>
       <path d="M 2194 1759 
Q 1497 1759 1228 1600 
Q 959 1441 959 1056 
Q 959 750 1161 570 
Q 1363 391 1709 391 
Q 2188 391 2477 730 
Q 2766 1069 2766 1631 
L 2766 1759 
L 2194 1759 
z
M 3341 1997 
L 3341 0 
L 2766 0 
L 2766 531 
Q 2569 213 2275 61 
Q 1981 -91 1556 -91 
Q 1019 -91 701 211 
Q 384 513 384 1019 
Q 384 1609 779 1909 
Q 1175 2209 1959 2209 
L 2766 2209 
L 2766 2266 
Q 2766 2663 2505 2880 
Q 2244 3097 1772 3097 
Q 1472 3097 1187 3025 
Q 903 2953 641 2809 
L 641 3341 
Q 956 3463 1253 3523 
Q 1550 3584 1831 3584 
Q 2591 3584 2966 3190 
Q 3341 2797 3341 1997 
z
" id="DejaVuSans-61" transform="scale(0.015625)"/>
       <path d="M 3513 3500 
L 2247 1797 
L 3578 0 
L 2900 0 
L 1881 1375 
L 863 0 
L 184 0 
L 1544 1831 
L 300 3500 
L 978 3500 
L 1906 2253 
L 2834 3500 
L 3513 3500 
z
" id="DejaVuSans-78" transform="scale(0.015625)"/>
      </defs>
      <use xlink:href="#DejaVuSans-54"/>
      <use x="44.583984" xlink:href="#DejaVuSans-61"/>
      <use x="105.863281" xlink:href="#DejaVuSans-75"/>
      <use x="169.242188" xlink:href="#DejaVuSans-78"/>
      <use x="228.421875" xlink:href="#DejaVuSans-20"/>
      <use x="260.208984" xlink:href="#DejaVuSans-64"/>
      <use x="323.685547" xlink:href="#DejaVuSans-65"/>
      <use x="385.208984" xlink:href="#DejaVuSans-20"/>
      <use x="416.996094" xlink:href="#DejaVuSans-48"/>
      <use x="492.191406" xlink:href="#DejaVuSans-49"/>
      <use x="521.683594" xlink:href="#DejaVuSans-54"/>
     </g>
    </g>
   </g>
   <g id="line2d_36">
    <path clip-path="url(#p9300b5befd)" d="M 64.409091 34.534545 
L 67.762443 290.825455 
L 71.115794 288.108675 
L 74.469146 287.279813 
L 77.822498 286.961713 
L 81.175849 286.801295 
L 84.529201 286.753644 
L 87.882553 286.792549 
L 91.235904 286.726007 
L 94.589256 286.744602 
L 97.942608 286.572594 
L 101.29596 286.674114 
L 104.649311 286.624497 
L 108.002663 286.686137 
L 111.356015 286.734152 
L 114.709366 286.675692 
L 118.062718 286.673475 
L 121.41607 286.656806 
L 124.769421 286.718416 
L 128.122773 286.710953 
L 131.476125 286.630805 
L 134.829477 286.69023 
L 138.182828 286.797157 
L 141.53618 286.560963 
L 144.889532 286.586655 
L 148.242883 286.62812 
L 151.596235 286.598416 
L 154.949587 286.700165 
L 158.302938 286.732105 
L 161.65629 286.643336 
L 165.009642 286.661282 
L 168.362994 286.71654 
L 171.716345 286.690102 
L 175.069697 286.645638 
L 178.423049 286.724002 
L 181.7764 286.684304 
L 185.129752 286.720932 
L 188.483104 286.551335 
L 191.836455 286.619979 
L 195.189807 286.586399 
L 198.543159 286.68537 
L 201.896511 286.754966 
L 205.249862 286.621855 
L 208.603214 286.664778 
L 211.956566 286.695262 
L 215.309917 286.693428 
L 218.663269 286.662476 
L 222.016621 286.693812 
L 225.369972 286.706774 
L 228.723324 286.759573 
L 232.076676 286.546436 
L 235.430028 286.625818 
L 238.783379 286.583417 
L 242.136731 286.617465 
L 245.490083 286.744943 
L 248.843434 286.676971 
L 252.196786 286.689719 
L 255.550138 286.653481 
L 258.903489 286.675223 
L 262.256841 286.738247 
L 265.610193 286.638733 
L 268.963545 286.686691 
L 272.316896 286.719226 
L 275.670248 286.680765 
L 279.0236 286.592876 
L 282.376951 286.590873 
L 285.730303 286.589808 
L 289.083655 286.698928 
L 292.437006 286.742128 
L 295.790358 286.624881 
L 299.14371 286.686137 
L 302.497062 286.646363 
L 305.850413 286.709887 
L 309.203765 286.670022 
L 312.557117 286.758037 
L 315.910468 286.677909 
L 319.26382 286.727755 
L 322.617172 286.532379 
L 325.970523 286.601867 
L 329.323875 286.60387 
L 332.677227 286.642739 
L 336.030579 286.748995 
L 339.38393 286.664522 
L 342.737282 286.660046 
L 346.090634 286.666952 
L 349.443985 286.706305 
L 352.797337 286.736967 
L 356.150689 286.613587 
L 359.50404 286.676416 
L 362.857392 286.791653 
L 366.210744 286.643848 
L 369.564096 286.514106 
L 372.917447 286.676203 
L 376.270799 286.556958 
L 379.624151 286.714876 
L 382.977502 286.731167 
L 386.330854 286.645553 
L 389.684206 286.677866 
L 393.037557 286.654078 
L 396.390909 286.71283 
" style="fill:none;stroke:#00ffff;stroke-linecap:square;stroke-width:1.5;"/>
   </g>
   <g id="patch_8">
    <path d="M 47.81 303.64 
L 47.81 21.72 
" style="fill:none;stroke:#000000;stroke-linecap:square;stroke-linejoin:miter;stroke-width:0.8;"/>
   </g>
   <g id="patch_9">
    <path d="M 412.99 303.64 
L 412.99 21.72 
" style="fill:none;stroke:#000000;stroke-linecap:square;stroke-linejoin:miter;stroke-width:0.8;"/>
   </g>
   <g id="patch_10">
    <path d="M 47.81 303.64 
L 412.99 303.64 
" style="fill:none;stroke:#000000;stroke-linecap:square;stroke-linejoin:miter;stroke-width:0.8;"/>
   </g>
   <g id="patch_11">
    <path d="M 47.81 21.72 
L 412.99 21.72 
" style="fill:none;stroke:#000000;stroke-linecap:square;stroke-linejoin:miter;stroke-width:0.8;"/>
   </g>
   <g id="legend_2">
    <g id="patch_12">
     <path d="M 357.411875 44.398125 
L 405.99 44.398125 
Q 407.99 44.398125 407.99 42.398125 
L 407.99 28.72 
Q 407.99 26.72 405.99 26.72 
L 357.411875 26.72 
Q 355.411875 26.72 355.411875 28.72 
L 355.411875 42.398125 
Q 355.411875 44.398125 357.411875 44.398125 
z
" style="fill:#ffffff;opacity:0.8;stroke:#cccccc;stroke-linejoin:miter;"/>
    </g>
    <g id="line2d_37">
     <path d="M 359.411875 34.818438 
L 379.411875 34.818438 
" style="fill:none;stroke:#00ffff;stroke-linecap:square;stroke-width:1.5;"/>
    </g>
    <g id="line2d_38"/>
    <g id="text_31">
     <!-- HIT -->
     <g transform="translate(387.411875 38.318438)scale(0.1 -0.1)">
      <use xlink:href="#DejaVuSans-48"/>
      <use x="75.195312" xlink:href="#DejaVuSans-49"/>
      <use x="104.6875" xlink:href="#DejaVuSans-54"/>
     </g>
    </g>
   </g>
  </g>
 </g>
 <defs>
  <clipPath id="p9300b5befd">
   <rect height="281.92" width="365.18" x="47.81" y="21.72"/>
  </clipPath>
 </defs>
</svg>
