<?xml version="1.0" encoding="utf-8" standalone="no"?>
<!DOCTYPE svg PUBLIC "-//W3C//DTD SVG 1.1//EN"
  "http://www.w3.org/Graphics/SVG/1.1/DTD/svg11.dtd">
<svg height="345.6pt" version="1.1" viewBox="0 0 460.8 345.6" width="460.8pt" xmlns="http://www.w3.org/2000/svg" xmlns:xlink="http://www.w3.org/1999/xlink">
 <metadata>
  <rdf:RDF xmlns:cc="http://creativecommons.org/ns#" xmlns:dc="http://purl.org/dc/elements/1.1/" xmlns:rdf="http://www.w3.org/1999/02/22-rdf-syntax-ns#">
   <cc:Work>
    <dc:type rdf:resource="http://purl.org/dc/dcmitype/StillImage"/>
    <dc:date>2021-07-21T22:34:32.486444</dc:date>
    <dc:format>image/svg+xml</dc:format>
    <dc:creator>
     <cc:Agent>
      <dc:title>Matplotlib v3.4.2, https://matplotlib.org/</dc:title>
     </cc:Agent>
    </dc:creator>
   </cc:Work>
  </rdf:RDF>
 </metadata>
 <defs>
  <style type="text/css">*{stroke-linecap:butt;stroke-linejoin:round;}</style>
 </defs>
 <g id="figure_1">
  <g id="patch_1">
   <path d="M 0 345.6 
L 460.8 345.6 
L 460.8 0 
L 0 0 
z
" style="fill:#ffffff;"/>
  </g>
  <g id="axes_1">
   <g id="patch_2">
    <path d="M 57.6 307.584 
L 414.72 307.584 
L 414.72 41.472 
L 57.6 41.472 
z
" style="fill:#ffffff;"/>
   </g>
   <g id="matplotlib.axis_1">
    <g id="xtick_1">
     <g id="line2d_1">
      <defs>
       <path d="M 0 0 
L 0 3.5 
" id="m8ef8d8068d" style="stroke:#000000;stroke-width:0.8;"/>
      </defs>
      <g>
       <use style="stroke:#000000;stroke-width:0.8;" x="73.182117" xlink:href="#m8ef8d8068d" y="307.584"/>
      </g>
     </g>
     <g id="text_1">
      <!-- 0 -->
      <g transform="translate(70.000867 322.182437)scale(0.1 -0.1)">
       <defs>
        <path d="M 2034 4250 
Q 1547 4250 1301 3770 
Q 1056 3291 1056 2328 
Q 1056 1369 1301 889 
Q 1547 409 2034 409 
Q 2525 409 2770 889 
Q 3016 1369 3016 2328 
Q 3016 3291 2770 3770 
Q 2525 4250 2034 4250 
z
M 2034 4750 
Q 2819 4750 3233 4129 
Q 3647 3509 3647 2328 
Q 3647 1150 3233 529 
Q 2819 -91 2034 -91 
Q 1250 -91 836 529 
Q 422 1150 422 2328 
Q 422 3509 836 4129 
Q 1250 4750 2034 4750 
z
" id="DejaVuSans-30" transform="scale(0.015625)"/>
       </defs>
       <use xlink:href="#DejaVuSans-30"/>
      </g>
     </g>
    </g>
    <g id="xtick_2">
     <g id="line2d_2">
      <g>
       <use style="stroke:#000000;stroke-width:0.8;" x="138.243148" xlink:href="#m8ef8d8068d" y="307.584"/>
      </g>
     </g>
     <g id="text_2">
      <!-- 1 -->
      <g transform="translate(135.061898 322.182437)scale(0.1 -0.1)">
       <defs>
        <path d="M 794 531 
L 1825 531 
L 1825 4091 
L 703 3866 
L 703 4441 
L 1819 4666 
L 2450 4666 
L 2450 531 
L 3481 531 
L 3481 0 
L 794 0 
L 794 531 
z
" id="DejaVuSans-31" transform="scale(0.015625)"/>
       </defs>
       <use xlink:href="#DejaVuSans-31"/>
      </g>
     </g>
    </g>
    <g id="xtick_3">
     <g id="line2d_3">
      <g>
       <use style="stroke:#000000;stroke-width:0.8;" x="203.304179" xlink:href="#m8ef8d8068d" y="307.584"/>
      </g>
     </g>
     <g id="text_3">
      <!-- 2 -->
      <g transform="translate(200.122929 322.182437)scale(0.1 -0.1)">
       <defs>
        <path d="M 1228 531 
L 3431 531 
L 3431 0 
L 469 0 
L 469 531 
Q 828 903 1448 1529 
Q 2069 2156 2228 2338 
Q 2531 2678 2651 2914 
Q 2772 3150 2772 3378 
Q 2772 3750 2511 3984 
Q 2250 4219 1831 4219 
Q 1534 4219 1204 4116 
Q 875 4013 500 3803 
L 500 4441 
Q 881 4594 1212 4672 
Q 1544 4750 1819 4750 
Q 2544 4750 2975 4387 
Q 3406 4025 3406 3419 
Q 3406 3131 3298 2873 
Q 3191 2616 2906 2266 
Q 2828 2175 2409 1742 
Q 1991 1309 1228 531 
z
" id="DejaVuSans-32" transform="scale(0.015625)"/>
       </defs>
       <use xlink:href="#DejaVuSans-32"/>
      </g>
     </g>
    </g>
    <g id="xtick_4">
     <g id="line2d_4">
      <g>
       <use style="stroke:#000000;stroke-width:0.8;" x="268.36521" xlink:href="#m8ef8d8068d" y="307.584"/>
      </g>
     </g>
     <g id="text_4">
      <!-- 3 -->
      <g transform="translate(265.18396 322.182437)scale(0.1 -0.1)">
       <defs>
        <path d="M 2597 2516 
Q 3050 2419 3304 2112 
Q 3559 1806 3559 1356 
Q 3559 666 3084 287 
Q 2609 -91 1734 -91 
Q 1441 -91 1130 -33 
Q 819 25 488 141 
L 488 750 
Q 750 597 1062 519 
Q 1375 441 1716 441 
Q 2309 441 2620 675 
Q 2931 909 2931 1356 
Q 2931 1769 2642 2001 
Q 2353 2234 1838 2234 
L 1294 2234 
L 1294 2753 
L 1863 2753 
Q 2328 2753 2575 2939 
Q 2822 3125 2822 3475 
Q 2822 3834 2567 4026 
Q 2313 4219 1838 4219 
Q 1578 4219 1281 4162 
Q 984 4106 628 3988 
L 628 4550 
Q 988 4650 1302 4700 
Q 1616 4750 1894 4750 
Q 2613 4750 3031 4423 
Q 3450 4097 3450 3541 
Q 3450 3153 3228 2886 
Q 3006 2619 2597 2516 
z
" id="DejaVuSans-33" transform="scale(0.015625)"/>
       </defs>
       <use xlink:href="#DejaVuSans-33"/>
      </g>
     </g>
    </g>
    <g id="xtick_5">
     <g id="line2d_5">
      <g>
       <use style="stroke:#000000;stroke-width:0.8;" x="333.426242" xlink:href="#m8ef8d8068d" y="307.584"/>
      </g>
     </g>
     <g id="text_5">
      <!-- 4 -->
      <g transform="translate(330.244992 322.182437)scale(0.1 -0.1)">
       <defs>
        <path d="M 2419 4116 
L 825 1625 
L 2419 1625 
L 2419 4116 
z
M 2253 4666 
L 3047 4666 
L 3047 1625 
L 3713 1625 
L 3713 1100 
L 3047 1100 
L 3047 0 
L 2419 0 
L 2419 1100 
L 313 1100 
L 313 1709 
L 2253 4666 
z
" id="DejaVuSans-34" transform="scale(0.015625)"/>
       </defs>
       <use xlink:href="#DejaVuSans-34"/>
      </g>
     </g>
    </g>
    <g id="xtick_6">
     <g id="line2d_6">
      <g>
       <use style="stroke:#000000;stroke-width:0.8;" x="398.487273" xlink:href="#m8ef8d8068d" y="307.584"/>
      </g>
     </g>
     <g id="text_6">
      <!-- 5 -->
      <g transform="translate(395.306023 322.182437)scale(0.1 -0.1)">
       <defs>
        <path d="M 691 4666 
L 3169 4666 
L 3169 4134 
L 1269 4134 
L 1269 2991 
Q 1406 3038 1543 3061 
Q 1681 3084 1819 3084 
Q 2600 3084 3056 2656 
Q 3513 2228 3513 1497 
Q 3513 744 3044 326 
Q 2575 -91 1722 -91 
Q 1428 -91 1123 -41 
Q 819 9 494 109 
L 494 744 
Q 775 591 1075 516 
Q 1375 441 1709 441 
Q 2250 441 2565 725 
Q 2881 1009 2881 1497 
Q 2881 1984 2565 2268 
Q 2250 2553 1709 2553 
Q 1456 2553 1204 2497 
Q 953 2441 691 2322 
L 691 4666 
z
" id="DejaVuSans-35" transform="scale(0.015625)"/>
       </defs>
       <use xlink:href="#DejaVuSans-35"/>
      </g>
     </g>
    </g>
    <g id="text_7">
     <!-- Requetes -->
     <g transform="translate(212.773281 335.860562)scale(0.1 -0.1)">
      <defs>
       <path d="M 2841 2188 
Q 3044 2119 3236 1894 
Q 3428 1669 3622 1275 
L 4263 0 
L 3584 0 
L 2988 1197 
Q 2756 1666 2539 1819 
Q 2322 1972 1947 1972 
L 1259 1972 
L 1259 0 
L 628 0 
L 628 4666 
L 2053 4666 
Q 2853 4666 3247 4331 
Q 3641 3997 3641 3322 
Q 3641 2881 3436 2590 
Q 3231 2300 2841 2188 
z
M 1259 4147 
L 1259 2491 
L 2053 2491 
Q 2509 2491 2742 2702 
Q 2975 2913 2975 3322 
Q 2975 3731 2742 3939 
Q 2509 4147 2053 4147 
L 1259 4147 
z
" id="DejaVuSans-52" transform="scale(0.015625)"/>
       <path d="M 3597 1894 
L 3597 1613 
L 953 1613 
Q 991 1019 1311 708 
Q 1631 397 2203 397 
Q 2534 397 2845 478 
Q 3156 559 3463 722 
L 3463 178 
Q 3153 47 2828 -22 
Q 2503 -91 2169 -91 
Q 1331 -91 842 396 
Q 353 884 353 1716 
Q 353 2575 817 3079 
Q 1281 3584 2069 3584 
Q 2775 3584 3186 3129 
Q 3597 2675 3597 1894 
z
M 3022 2063 
Q 3016 2534 2758 2815 
Q 2500 3097 2075 3097 
Q 1594 3097 1305 2825 
Q 1016 2553 972 2059 
L 3022 2063 
z
" id="DejaVuSans-65" transform="scale(0.015625)"/>
       <path d="M 947 1747 
Q 947 1113 1208 752 
Q 1469 391 1925 391 
Q 2381 391 2643 752 
Q 2906 1113 2906 1747 
Q 2906 2381 2643 2742 
Q 2381 3103 1925 3103 
Q 1469 3103 1208 2742 
Q 947 2381 947 1747 
z
M 2906 525 
Q 2725 213 2448 61 
Q 2172 -91 1784 -91 
Q 1150 -91 751 415 
Q 353 922 353 1747 
Q 353 2572 751 3078 
Q 1150 3584 1784 3584 
Q 2172 3584 2448 3432 
Q 2725 3281 2906 2969 
L 2906 3500 
L 3481 3500 
L 3481 -1331 
L 2906 -1331 
L 2906 525 
z
" id="DejaVuSans-71" transform="scale(0.015625)"/>
       <path d="M 544 1381 
L 544 3500 
L 1119 3500 
L 1119 1403 
Q 1119 906 1312 657 
Q 1506 409 1894 409 
Q 2359 409 2629 706 
Q 2900 1003 2900 1516 
L 2900 3500 
L 3475 3500 
L 3475 0 
L 2900 0 
L 2900 538 
Q 2691 219 2414 64 
Q 2138 -91 1772 -91 
Q 1169 -91 856 284 
Q 544 659 544 1381 
z
M 1991 3584 
L 1991 3584 
z
" id="DejaVuSans-75" transform="scale(0.015625)"/>
       <path d="M 1172 4494 
L 1172 3500 
L 2356 3500 
L 2356 3053 
L 1172 3053 
L 1172 1153 
Q 1172 725 1289 603 
Q 1406 481 1766 481 
L 2356 481 
L 2356 0 
L 1766 0 
Q 1100 0 847 248 
Q 594 497 594 1153 
L 594 3053 
L 172 3053 
L 172 3500 
L 594 3500 
L 594 4494 
L 1172 4494 
z
" id="DejaVuSans-74" transform="scale(0.015625)"/>
       <path d="M 2834 3397 
L 2834 2853 
Q 2591 2978 2328 3040 
Q 2066 3103 1784 3103 
Q 1356 3103 1142 2972 
Q 928 2841 928 2578 
Q 928 2378 1081 2264 
Q 1234 2150 1697 2047 
L 1894 2003 
Q 2506 1872 2764 1633 
Q 3022 1394 3022 966 
Q 3022 478 2636 193 
Q 2250 -91 1575 -91 
Q 1294 -91 989 -36 
Q 684 19 347 128 
L 347 722 
Q 666 556 975 473 
Q 1284 391 1588 391 
Q 1994 391 2212 530 
Q 2431 669 2431 922 
Q 2431 1156 2273 1281 
Q 2116 1406 1581 1522 
L 1381 1569 
Q 847 1681 609 1914 
Q 372 2147 372 2553 
Q 372 3047 722 3315 
Q 1072 3584 1716 3584 
Q 2034 3584 2315 3537 
Q 2597 3491 2834 3397 
z
" id="DejaVuSans-73" transform="scale(0.015625)"/>
      </defs>
      <use xlink:href="#DejaVuSans-52"/>
      <use x="64.982422" xlink:href="#DejaVuSans-65"/>
      <use x="126.505859" xlink:href="#DejaVuSans-71"/>
      <use x="189.982422" xlink:href="#DejaVuSans-75"/>
      <use x="253.361328" xlink:href="#DejaVuSans-65"/>
      <use x="314.884766" xlink:href="#DejaVuSans-74"/>
      <use x="354.09375" xlink:href="#DejaVuSans-65"/>
      <use x="415.617188" xlink:href="#DejaVuSans-73"/>
     </g>
    </g>
    <g id="text_8">
     <!-- 1e8 -->
     <g transform="translate(395.841875 334.860562)scale(0.1 -0.1)">
      <defs>
       <path d="M 2034 2216 
Q 1584 2216 1326 1975 
Q 1069 1734 1069 1313 
Q 1069 891 1326 650 
Q 1584 409 2034 409 
Q 2484 409 2743 651 
Q 3003 894 3003 1313 
Q 3003 1734 2745 1975 
Q 2488 2216 2034 2216 
z
M 1403 2484 
Q 997 2584 770 2862 
Q 544 3141 544 3541 
Q 544 4100 942 4425 
Q 1341 4750 2034 4750 
Q 2731 4750 3128 4425 
Q 3525 4100 3525 3541 
Q 3525 3141 3298 2862 
Q 3072 2584 2669 2484 
Q 3125 2378 3379 2068 
Q 3634 1759 3634 1313 
Q 3634 634 3220 271 
Q 2806 -91 2034 -91 
Q 1263 -91 848 271 
Q 434 634 434 1313 
Q 434 1759 690 2068 
Q 947 2378 1403 2484 
z
M 1172 3481 
Q 1172 3119 1398 2916 
Q 1625 2713 2034 2713 
Q 2441 2713 2670 2916 
Q 2900 3119 2900 3481 
Q 2900 3844 2670 4047 
Q 2441 4250 2034 4250 
Q 1625 4250 1398 4047 
Q 1172 3844 1172 3481 
z
" id="DejaVuSans-38" transform="scale(0.015625)"/>
      </defs>
      <use xlink:href="#DejaVuSans-31"/>
      <use x="63.623047" xlink:href="#DejaVuSans-65"/>
      <use x="125.146484" xlink:href="#DejaVuSans-38"/>
     </g>
    </g>
   </g>
   <g id="matplotlib.axis_2">
    <g id="ytick_1">
     <g id="line2d_7">
      <defs>
       <path d="M 0 0 
L -3.5 0 
" id="m809ca97f2e" style="stroke:#000000;stroke-width:0.8;"/>
      </defs>
      <g>
       <use style="stroke:#000000;stroke-width:0.8;" x="57.6" xlink:href="#m809ca97f2e" y="279.154437"/>
      </g>
     </g>
     <g id="text_9">
      <!-- 100000 -->
      <g transform="translate(12.425 282.953656)scale(0.1 -0.1)">
       <use xlink:href="#DejaVuSans-31"/>
       <use x="63.623047" xlink:href="#DejaVuSans-30"/>
       <use x="127.246094" xlink:href="#DejaVuSans-30"/>
       <use x="190.869141" xlink:href="#DejaVuSans-30"/>
       <use x="254.492188" xlink:href="#DejaVuSans-30"/>
       <use x="318.115234" xlink:href="#DejaVuSans-30"/>
      </g>
     </g>
    </g>
    <g id="ytick_2">
     <g id="line2d_8">
      <g>
       <use style="stroke:#000000;stroke-width:0.8;" x="57.6" xlink:href="#m809ca97f2e" y="247.923317"/>
      </g>
     </g>
     <g id="text_10">
      <!-- 200000 -->
      <g transform="translate(12.425 251.722536)scale(0.1 -0.1)">
       <use xlink:href="#DejaVuSans-32"/>
       <use x="63.623047" xlink:href="#DejaVuSans-30"/>
       <use x="127.246094" xlink:href="#DejaVuSans-30"/>
       <use x="190.869141" xlink:href="#DejaVuSans-30"/>
       <use x="254.492188" xlink:href="#DejaVuSans-30"/>
       <use x="318.115234" xlink:href="#DejaVuSans-30"/>
      </g>
     </g>
    </g>
    <g id="ytick_3">
     <g id="line2d_9">
      <g>
       <use style="stroke:#000000;stroke-width:0.8;" x="57.6" xlink:href="#m809ca97f2e" y="216.692198"/>
      </g>
     </g>
     <g id="text_11">
      <!-- 300000 -->
      <g transform="translate(12.425 220.491416)scale(0.1 -0.1)">
       <use xlink:href="#DejaVuSans-33"/>
       <use x="63.623047" xlink:href="#DejaVuSans-30"/>
       <use x="127.246094" xlink:href="#DejaVuSans-30"/>
       <use x="190.869141" xlink:href="#DejaVuSans-30"/>
       <use x="254.492188" xlink:href="#DejaVuSans-30"/>
       <use x="318.115234" xlink:href="#DejaVuSans-30"/>
      </g>
     </g>
    </g>
    <g id="ytick_4">
     <g id="line2d_10">
      <g>
       <use style="stroke:#000000;stroke-width:0.8;" x="57.6" xlink:href="#m809ca97f2e" y="185.461078"/>
      </g>
     </g>
     <g id="text_12">
      <!-- 400000 -->
      <g transform="translate(12.425 189.260297)scale(0.1 -0.1)">
       <use xlink:href="#DejaVuSans-34"/>
       <use x="63.623047" xlink:href="#DejaVuSans-30"/>
       <use x="127.246094" xlink:href="#DejaVuSans-30"/>
       <use x="190.869141" xlink:href="#DejaVuSans-30"/>
       <use x="254.492188" xlink:href="#DejaVuSans-30"/>
       <use x="318.115234" xlink:href="#DejaVuSans-30"/>
      </g>
     </g>
    </g>
    <g id="ytick_5">
     <g id="line2d_11">
      <g>
       <use style="stroke:#000000;stroke-width:0.8;" x="57.6" xlink:href="#m809ca97f2e" y="154.229958"/>
      </g>
     </g>
     <g id="text_13">
      <!-- 500000 -->
      <g transform="translate(12.425 158.029177)scale(0.1 -0.1)">
       <use xlink:href="#DejaVuSans-35"/>
       <use x="63.623047" xlink:href="#DejaVuSans-30"/>
       <use x="127.246094" xlink:href="#DejaVuSans-30"/>
       <use x="190.869141" xlink:href="#DejaVuSans-30"/>
       <use x="254.492188" xlink:href="#DejaVuSans-30"/>
       <use x="318.115234" xlink:href="#DejaVuSans-30"/>
      </g>
     </g>
    </g>
    <g id="ytick_6">
     <g id="line2d_12">
      <g>
       <use style="stroke:#000000;stroke-width:0.8;" x="57.6" xlink:href="#m809ca97f2e" y="122.998839"/>
      </g>
     </g>
     <g id="text_14">
      <!-- 600000 -->
      <g transform="translate(12.425 126.798058)scale(0.1 -0.1)">
       <defs>
        <path d="M 2113 2584 
Q 1688 2584 1439 2293 
Q 1191 2003 1191 1497 
Q 1191 994 1439 701 
Q 1688 409 2113 409 
Q 2538 409 2786 701 
Q 3034 994 3034 1497 
Q 3034 2003 2786 2293 
Q 2538 2584 2113 2584 
z
M 3366 4563 
L 3366 3988 
Q 3128 4100 2886 4159 
Q 2644 4219 2406 4219 
Q 1781 4219 1451 3797 
Q 1122 3375 1075 2522 
Q 1259 2794 1537 2939 
Q 1816 3084 2150 3084 
Q 2853 3084 3261 2657 
Q 3669 2231 3669 1497 
Q 3669 778 3244 343 
Q 2819 -91 2113 -91 
Q 1303 -91 875 529 
Q 447 1150 447 2328 
Q 447 3434 972 4092 
Q 1497 4750 2381 4750 
Q 2619 4750 2861 4703 
Q 3103 4656 3366 4563 
z
" id="DejaVuSans-36" transform="scale(0.015625)"/>
       </defs>
       <use xlink:href="#DejaVuSans-36"/>
       <use x="63.623047" xlink:href="#DejaVuSans-30"/>
       <use x="127.246094" xlink:href="#DejaVuSans-30"/>
       <use x="190.869141" xlink:href="#DejaVuSans-30"/>
       <use x="254.492188" xlink:href="#DejaVuSans-30"/>
       <use x="318.115234" xlink:href="#DejaVuSans-30"/>
      </g>
     </g>
    </g>
    <g id="ytick_7">
     <g id="line2d_13">
      <g>
       <use style="stroke:#000000;stroke-width:0.8;" x="57.6" xlink:href="#m809ca97f2e" y="91.767719"/>
      </g>
     </g>
     <g id="text_15">
      <!-- 700000 -->
      <g transform="translate(12.425 95.566938)scale(0.1 -0.1)">
       <defs>
        <path d="M 525 4666 
L 3525 4666 
L 3525 4397 
L 1831 0 
L 1172 0 
L 2766 4134 
L 525 4134 
L 525 4666 
z
" id="DejaVuSans-37" transform="scale(0.015625)"/>
       </defs>
       <use xlink:href="#DejaVuSans-37"/>
       <use x="63.623047" xlink:href="#DejaVuSans-30"/>
       <use x="127.246094" xlink:href="#DejaVuSans-30"/>
       <use x="190.869141" xlink:href="#DejaVuSans-30"/>
       <use x="254.492188" xlink:href="#DejaVuSans-30"/>
       <use x="318.115234" xlink:href="#DejaVuSans-30"/>
      </g>
     </g>
    </g>
    <g id="ytick_8">
     <g id="line2d_14">
      <g>
       <use style="stroke:#000000;stroke-width:0.8;" x="57.6" xlink:href="#m809ca97f2e" y="60.5366"/>
      </g>
     </g>
     <g id="text_16">
      <!-- 800000 -->
      <g transform="translate(12.425 64.335818)scale(0.1 -0.1)">
       <use xlink:href="#DejaVuSans-38"/>
       <use x="63.623047" xlink:href="#DejaVuSans-30"/>
       <use x="127.246094" xlink:href="#DejaVuSans-30"/>
       <use x="190.869141" xlink:href="#DejaVuSans-30"/>
       <use x="254.492188" xlink:href="#DejaVuSans-30"/>
       <use x="318.115234" xlink:href="#DejaVuSans-30"/>
      </g>
     </g>
    </g>
    <g id="text_17">
     <!-- NB d'entrees -->
     <g transform="translate(6.345312 206.742844)rotate(-90)scale(0.1 -0.1)">
      <defs>
       <path d="M 628 4666 
L 1478 4666 
L 3547 763 
L 3547 4666 
L 4159 4666 
L 4159 0 
L 3309 0 
L 1241 3903 
L 1241 0 
L 628 0 
L 628 4666 
z
" id="DejaVuSans-4e" transform="scale(0.015625)"/>
       <path d="M 1259 2228 
L 1259 519 
L 2272 519 
Q 2781 519 3026 730 
Q 3272 941 3272 1375 
Q 3272 1813 3026 2020 
Q 2781 2228 2272 2228 
L 1259 2228 
z
M 1259 4147 
L 1259 2741 
L 2194 2741 
Q 2656 2741 2882 2914 
Q 3109 3088 3109 3444 
Q 3109 3797 2882 3972 
Q 2656 4147 2194 4147 
L 1259 4147 
z
M 628 4666 
L 2241 4666 
Q 2963 4666 3353 4366 
Q 3744 4066 3744 3513 
Q 3744 3084 3544 2831 
Q 3344 2578 2956 2516 
Q 3422 2416 3680 2098 
Q 3938 1781 3938 1306 
Q 3938 681 3513 340 
Q 3088 0 2303 0 
L 628 0 
L 628 4666 
z
" id="DejaVuSans-42" transform="scale(0.015625)"/>
       <path id="DejaVuSans-20" transform="scale(0.015625)"/>
       <path d="M 2906 2969 
L 2906 4863 
L 3481 4863 
L 3481 0 
L 2906 0 
L 2906 525 
Q 2725 213 2448 61 
Q 2172 -91 1784 -91 
Q 1150 -91 751 415 
Q 353 922 353 1747 
Q 353 2572 751 3078 
Q 1150 3584 1784 3584 
Q 2172 3584 2448 3432 
Q 2725 3281 2906 2969 
z
M 947 1747 
Q 947 1113 1208 752 
Q 1469 391 1925 391 
Q 2381 391 2643 752 
Q 2906 1113 2906 1747 
Q 2906 2381 2643 2742 
Q 2381 3103 1925 3103 
Q 1469 3103 1208 2742 
Q 947 2381 947 1747 
z
" id="DejaVuSans-64" transform="scale(0.015625)"/>
       <path d="M 1147 4666 
L 1147 2931 
L 616 2931 
L 616 4666 
L 1147 4666 
z
" id="DejaVuSans-27" transform="scale(0.015625)"/>
       <path d="M 3513 2113 
L 3513 0 
L 2938 0 
L 2938 2094 
Q 2938 2591 2744 2837 
Q 2550 3084 2163 3084 
Q 1697 3084 1428 2787 
Q 1159 2491 1159 1978 
L 1159 0 
L 581 0 
L 581 3500 
L 1159 3500 
L 1159 2956 
Q 1366 3272 1645 3428 
Q 1925 3584 2291 3584 
Q 2894 3584 3203 3211 
Q 3513 2838 3513 2113 
z
" id="DejaVuSans-6e" transform="scale(0.015625)"/>
       <path d="M 2631 2963 
Q 2534 3019 2420 3045 
Q 2306 3072 2169 3072 
Q 1681 3072 1420 2755 
Q 1159 2438 1159 1844 
L 1159 0 
L 581 0 
L 581 3500 
L 1159 3500 
L 1159 2956 
Q 1341 3275 1631 3429 
Q 1922 3584 2338 3584 
Q 2397 3584 2469 3576 
Q 2541 3569 2628 3553 
L 2631 2963 
z
" id="DejaVuSans-72" transform="scale(0.015625)"/>
      </defs>
      <use xlink:href="#DejaVuSans-4e"/>
      <use x="74.804688" xlink:href="#DejaVuSans-42"/>
      <use x="143.408203" xlink:href="#DejaVuSans-20"/>
      <use x="175.195312" xlink:href="#DejaVuSans-64"/>
      <use x="238.671875" xlink:href="#DejaVuSans-27"/>
      <use x="266.162109" xlink:href="#DejaVuSans-65"/>
      <use x="327.685547" xlink:href="#DejaVuSans-6e"/>
      <use x="391.064453" xlink:href="#DejaVuSans-74"/>
      <use x="430.273438" xlink:href="#DejaVuSans-72"/>
      <use x="469.136719" xlink:href="#DejaVuSans-65"/>
      <use x="530.660156" xlink:href="#DejaVuSans-65"/>
      <use x="592.183594" xlink:href="#DejaVuSans-73"/>
     </g>
    </g>
   </g>
   <g id="line2d_15">
    <path clip-path="url(#p7ce2e7a4d5)" d="M 73.832727 53.81129 
L 74.483338 54.007422 
L 75.133948 53.818161 
L 75.784558 53.778498 
L 77.085779 53.933092 
L 77.736389 53.951206 
L 78.386999 53.826594 
L 79.03761 54.03553 
L 79.68822 53.916539 
L 80.33883 53.999926 
L 80.989441 53.953704 
L 81.640051 53.770378 
L 82.290661 53.907795 
L 83.591882 53.81129 
L 84.242492 54.038965 
L 87.495544 53.662006 
L 88.796764 53.923098 
L 90.748595 53.835026 
L 91.399206 53.983686 
L 92.049816 53.904671 
L 93.351037 53.980875 
L 94.001647 53.879687 
L 94.652257 54.001488 
L 95.302868 53.628276 
L 96.604088 53.959638 
L 97.254698 53.831591 
L 97.905309 54.045524 
L 100.50775 53.897176 
L 101.808971 54.040215 
L 102.459581 53.693237 
L 103.760802 54.118292 
L 105.062022 53.794426 
L 105.712633 54.237283 
L 107.013853 53.744768 
L 107.664463 54.035218 
L 108.965684 53.819723 
L 109.616294 53.843458 
L 110.266905 53.994929 
L 111.568125 53.702294 
L 112.218736 53.905921 
L 114.170567 53.950269 
L 114.821177 54.038653 
L 115.471787 53.836588 
L 116.122398 53.969632 
L 117.423618 53.829404 
L 118.724839 54.053644 
L 119.375449 53.796612 
L 120.026059 53.91123 
L 122.628501 53.84908 
L 123.279111 53.94777 
L 123.929721 53.907482 
L 124.580332 54.047398 
L 125.881552 53.912792 
L 127.182773 53.973068 
L 127.833383 53.66794 
L 129.134604 53.789116 
L 129.785214 54.151085 
L 131.737045 54.017103 
L 132.387655 53.712288 
L 133.038266 53.990557 
L 133.688876 53.919038 
L 134.339486 54.006797 
L 134.990097 53.939026 
L 135.640707 54.101115 
L 136.941927 53.712912 
L 137.592538 54.083626 
L 138.243148 53.725405 
L 138.893758 53.927158 
L 139.544369 53.685429 
L 140.194979 53.687615 
L 140.845589 54.003986 
L 141.4962 53.917476 
L 142.14681 53.712912 
L 142.79742 53.861885 
L 143.448031 53.802858 
L 144.098641 53.918725 
L 145.399862 53.796299 
L 146.050472 54.083001 
L 146.701082 53.812852 
L 147.351692 53.664192 
L 148.652913 54.010545 
L 149.303523 54.045524 
L 149.954134 53.707915 
L 150.604744 53.891242 
L 153.857796 53.8572 
L 154.508406 53.99774 
L 155.159016 53.63827 
L 155.809627 53.976191 
L 156.460237 53.68418 
L 157.110847 53.780996 
L 157.761457 53.714162 
L 158.412068 53.991806 
L 159.062678 53.842209 
L 161.665119 53.96932 
L 162.96634 53.691988 
L 163.61695 53.921849 
L 164.267561 53.887182 
L 164.918171 53.983374 
L 165.568781 53.842834 
L 166.219392 53.9815 
L 170.773664 53.866882 
L 171.424274 53.897176 
L 172.074884 54.068947 
L 173.376105 53.813789 
L 174.026715 53.865945 
L 174.677326 53.597045 
L 175.978546 53.835026 
L 176.629156 53.969008 
L 177.930377 53.946521 
L 178.580987 53.844083 
L 179.231598 53.973068 
L 181.183429 53.881873 
L 181.834039 53.967446 
L 182.484649 53.701982 
L 183.78587 54.012419 
L 184.43648 53.781933 
L 185.087091 54.059578 
L 186.388311 53.875002 
L 187.038921 53.981812 
L 187.689532 53.757885 
L 188.340142 53.992743 
L 188.990752 53.998677 
L 189.641363 53.729153 
L 190.942583 54.041151 
L 191.593194 53.878437 
L 192.243804 53.860636 
L 192.894414 54.122977 
L 193.545025 54.121103 
L 194.195635 53.821909 
L 194.846245 54.12204 
L 195.496856 53.718222 
L 196.798076 53.909981 
L 198.099297 53.928407 
L 198.749907 53.731339 
L 200.051128 53.959014 
L 200.701738 53.791615 
L 201.352348 53.955891 
L 202.002959 53.988995 
L 202.653569 53.908732 
L 203.304179 53.943398 
L 203.95479 53.777249 
L 205.906621 53.975566 
L 209.159672 53.776312 
L 209.810282 53.990245 
L 210.460893 53.789429 
L 211.762113 54.118292 
L 212.412724 53.925284 
L 213.713944 53.875002 
L 214.364555 54.092683 
L 215.015165 53.74227 
L 215.665775 53.669189 
L 216.316385 53.89905 
L 218.268216 54.205739 
L 218.918827 54.058641 
L 219.569437 53.694174 
L 220.220047 53.979314 
L 220.870658 53.902485 
L 222.171878 54.01117 
L 223.473099 53.89093 
L 224.123709 53.785369 
L 224.77432 54.103614 
L 225.42493 53.77475 
L 226.07554 53.84908 
L 227.376761 53.710726 
L 228.027371 53.852203 
L 228.677981 54.133596 
L 229.328592 53.637333 
L 229.979202 53.854077 
L 230.629812 53.7329 
L 231.280423 54.002113 
L 231.931033 53.698858 
L 233.232254 54.028971 
L 235.184085 53.784119 
L 235.834695 53.986185 
L 236.485305 53.995554 
L 237.786526 53.806293 
L 239.087746 53.896239 
L 239.738357 53.782558 
L 240.388967 53.930281 
L 241.039577 53.798798 
L 241.690188 53.962761 
L 242.340798 53.721657 
L 242.991408 54.009608 
L 243.642019 53.686991 
L 246.24446 53.883434 
L 247.54568 53.850329 
L 248.196291 54.01804 
L 249.497511 53.834089 
L 250.148122 53.754762 
L 253.401173 53.940275 
L 255.353004 53.922473 
L 256.003615 53.944647 
L 257.304835 53.846269 
L 258.606056 53.862822 
L 259.256666 54.184815 
L 259.907276 53.827218 
L 261.208497 53.82472 
L 262.509718 53.648889 
L 263.810938 53.958389 
L 265.112159 53.904359 
L 269.666431 53.857512 
L 270.317041 53.714162 
L 270.967652 53.884996 
L 272.919483 54.016167 
L 273.570093 53.865945 
L 274.220703 53.91935 
L 274.871314 53.729777 
L 275.521924 53.986809 
L 276.172534 54.064575 
L 276.823144 53.797549 
L 277.473755 53.777873 
L 278.124365 54.077692 
L 278.774975 54.014605 
L 279.425586 53.723843 
L 280.076196 54.119229 
L 280.726806 53.993368 
L 281.377417 54.087998 
L 282.028027 53.914978 
L 283.329248 53.810978 
L 284.630468 53.890617 
L 286.582299 53.803483 
L 287.232909 54.038028 
L 287.88352 53.756011 
L 289.835351 54.08144 
L 290.485961 53.814101 
L 291.787182 53.807543 
L 292.437792 54.028347 
L 294.389623 53.840023 
L 295.040233 53.996179 
L 296.341454 53.786618 
L 296.992064 53.945897 
L 297.642674 53.759447 
L 298.943895 54.086124 
L 299.594505 53.912792 
L 300.895726 53.869693 
L 301.546336 54.107986 
L 302.196947 53.758822 
L 302.847557 53.704792 
L 304.799388 54.109235 
L 305.449998 54.242904 
L 306.751219 53.785056 
L 307.401829 53.806918 
L 308.052439 54.009608 
L 309.35366 53.962137 
L 310.654881 53.985872 
L 311.305491 53.76663 
L 311.956101 54.005236 
L 313.257322 53.771627 
L 313.907932 53.878125 
L 314.558543 53.712288 
L 315.209153 53.702918 
L 315.859763 54.166701 
L 316.510373 53.65045 
L 317.160984 53.869693 
L 317.811594 53.74227 
L 318.462204 54.066761 
L 319.112815 53.727591 
L 319.763425 53.741957 
L 320.414035 53.991182 
L 321.064646 54.039278 
L 321.715256 53.71666 
L 322.365866 53.74102 
L 323.016477 53.939026 
L 323.667087 53.99774 
L 324.968308 53.77069 
L 325.618918 53.887807 
L 328.221359 53.826594 
L 328.871969 54.026473 
L 329.52258 53.701045 
L 330.17319 53.967758 
L 330.8238 53.74633 
L 331.474411 53.706666 
L 332.125021 53.898113 
L 334.076852 53.799735 
L 335.378073 54.016791 
L 336.028683 53.869068 
L 336.679293 53.859074 
L 337.329903 53.718534 
L 339.281734 53.985248 
L 339.932345 53.897801 
L 342.534786 53.994929 
L 343.185396 53.870942 
L 343.836007 53.942461 
L 345.787837 53.816912 
L 346.438448 54.197307 
L 347.089058 53.867194 
L 348.390279 53.765693 
L 349.691499 53.716036 
L 350.34211 53.876251 
L 350.99272 53.884684 
L 351.64333 54.011794 
L 352.944551 53.833152 
L 353.595161 53.986809 
L 354.245772 53.902485 
L 355.546992 54.024599 
L 356.197602 53.753513 
L 356.848213 54.104551 
L 357.498823 53.568 
L 358.800044 53.964323 
L 360.101264 53.943086 
L 360.751875 54.036779 
L 362.053095 53.768504 
L 362.703706 54.091121 
L 363.354316 53.927158 
L 365.306147 53.942773 
L 365.956757 54.046148 
L 366.607367 53.817224 
L 367.908588 54.14765 
L 369.209809 53.939026 
L 371.81225 53.856888 
L 374.414691 53.915915 
L 375.065302 53.708228 
L 375.715912 53.893428 
L 376.366522 53.917476 
L 377.017132 54.098929 
L 377.667743 53.831278 
L 378.318353 53.91935 
L 378.968963 53.829717 
L 380.270184 54.037716 
L 380.920794 53.880936 
L 384.173846 53.801921 
L 384.824456 53.928719 
L 385.475066 53.820347 
L 386.125677 54.046773 
L 386.776287 54.039278 
L 387.426897 53.906545 
L 388.077508 53.914665 
L 388.728118 54.037716 
L 390.029339 53.648576 
L 391.98117 54.170761 
L 393.28239 54.054893 
L 393.933001 53.874065 
L 395.234221 53.892804 
L 395.884831 54.065824 
L 397.186052 53.871566 
L 397.836662 54.125163 
L 398.487273 53.782558 
L 398.487273 53.782558 
" style="fill:none;stroke:#1f77b4;stroke-linecap:square;stroke-width:1.5;"/>
   </g>
   <g id="line2d_16">
    <path clip-path="url(#p7ce2e7a4d5)" d="M 73.832727 290.195887 
L 74.483338 290.071275 
L 77.736389 290.170902 
L 78.386999 289.982891 
L 80.989441 290.010374 
L 81.640051 290.199322 
L 83.591882 290.047851 
L 84.893103 290.102506 
L 86.194323 290.224307 
L 86.844934 290.129677 
L 87.495544 290.251166 
L 89.447375 290.12468 
L 90.097985 290.225556 
L 90.748595 290.069713 
L 91.399206 290.171527 
L 92.049816 290.073461 
L 93.351037 290.084704 
L 95.953478 290.162782 
L 96.604088 289.922302 
L 97.254698 290.113749 
L 97.905309 290.053473 
L 99.206529 290.159971 
L 99.85714 290.069713 
L 100.50775 290.169028 
L 101.15836 290.028176 
L 101.808971 290.040668 
L 102.459581 290.203382 
L 103.110191 290.243983 
L 103.760802 289.891383 
L 104.411412 290.242421 
L 105.062022 290.198073 
L 105.712633 290.001629 
L 109.616294 290.1328 
L 110.266905 289.984764 
L 110.917515 290.164968 
L 113.519956 290.075647 
L 116.773008 290.10313 
L 118.074228 290.106566 
L 118.724839 290.039107 
L 119.375449 290.199635 
L 120.026059 289.994134 
L 121.32728 290.130614 
L 121.97789 290.050662 
L 123.279111 290.05035 
L 124.580332 290.021617 
L 125.881552 290.186517 
L 127.182773 289.999755 
L 127.833383 290.318625 
L 130.435824 289.887948 
L 131.086435 290.011311 
L 131.737045 289.960092 
L 132.387655 290.269592 
L 133.038266 290.119371 
L 134.339486 290.102818 
L 134.990097 290.126554 
L 135.640707 290.021617 
L 136.291317 290.109689 
L 138.893758 289.961966 
L 139.544369 290.159971 
L 140.194979 290.169653 
L 140.845589 290.005377 
L 142.14681 290.166217 
L 144.098641 290.10032 
L 145.399862 290.180271 
L 146.050472 290.063467 
L 146.701082 290.17059 
L 151.255354 290.126866 
L 151.905965 290.21931 
L 153.207185 290.101881 
L 153.857796 290.17059 
L 154.508406 290.087515 
L 155.159016 290.23961 
L 155.809627 290.079707 
L 157.110847 290.134049 
L 159.062678 290.127178 
L 162.31573 290.10844 
L 164.267561 290.208067 
L 166.219392 289.926362 
L 166.870002 290.094386 
L 168.171222 290.05441 
L 169.472443 290.132488 
L 170.773664 290.057533 
L 171.424274 290.124992 
L 172.074884 290.054722 
L 173.376105 290.258974 
L 174.026715 290.088139 
L 174.677326 290.275838 
L 175.327936 290.145917 
L 175.978546 290.18683 
L 176.629156 290.109689 
L 177.279767 290.232115 
L 177.930377 289.980704 
L 178.580987 290.194013 
L 179.882208 290.120307 
L 181.834039 290.036296 
L 182.484649 290.173713 
L 183.13526 290.124055 
L 183.78587 289.952909 
L 184.43648 290.104692 
L 185.087091 290.033485 
L 186.388311 290.248355 
L 187.038921 289.966963 
L 187.689532 290.215562 
L 188.990752 290.00038 
L 189.641363 290.199635 
L 190.291973 290.176836 
L 190.942583 289.92605 
L 191.593194 290.220247 
L 194.846245 290.052536 
L 195.496856 290.21931 
L 196.798076 290.089076 
L 197.448686 290.031611 
L 198.749907 290.14498 
L 201.352348 290.052536 
L 202.653569 290.035047 
L 203.95479 290.123743 
L 205.906621 290.048164 
L 206.557231 290.152788 
L 207.858451 290.059719 
L 209.159672 290.176211 
L 209.810282 290.014434 
L 211.111503 290.036608 
L 211.762113 289.986951 
L 213.063334 290.198385 
L 214.364555 289.975707 
L 215.015165 290.21931 
L 215.665775 290.2977 
L 216.316385 290.131238 
L 216.966996 290.101569 
L 217.617606 289.906374 
L 218.268216 290.004752 
L 218.918827 289.948536 
L 219.569437 290.218061 
L 220.220047 290.133425 
L 220.870658 290.177773 
L 221.521268 290.070962 
L 222.822489 290.105004 
L 223.473099 290.013809 
L 224.123709 290.127178 
L 224.77432 290.013809 
L 225.42493 290.205568 
L 226.07554 289.981017 
L 226.72615 290.114998 
L 228.027371 290.089076 
L 228.677981 290.006626 
L 229.328592 290.204007 
L 229.979202 290.111563 
L 230.629812 290.155286 
L 231.280423 290.071587 
L 232.581643 290.191202 
L 233.232254 290.065653 
L 234.533474 290.141857 
L 235.834695 290.049413 
L 236.485305 290.154349 
L 238.437136 290.079395 
L 239.738357 290.200259 
L 240.388967 290.067527 
L 241.039577 290.17465 
L 241.690188 290.098133 
L 242.340798 290.237112 
L 242.991408 290.041917 
L 243.642019 290.175899 
L 246.89507 290.078458 
L 247.54568 290.213064 
L 248.196291 290.035983 
L 248.846901 290.17871 
L 250.148122 290.14904 
L 250.798732 290.237424 
L 254.051784 290.05441 
L 254.702394 290.097196 
L 255.353004 290.020993 
L 256.654225 290.102818 
L 259.256666 290.074398 
L 260.557887 290.263658 
L 261.208497 290.128428 
L 261.859107 290.210565 
L 265.112159 290.080019 
L 265.762769 290.167154 
L 267.7146 290.014746 
L 268.36521 290.14498 
L 269.015821 290.032236 
L 270.317041 290.224307 
L 270.967652 290.019119 
L 271.618262 289.978206 
L 272.268872 290.108127 
L 272.919483 290.102193 
L 273.570093 290.22743 
L 274.220703 289.967587 
L 274.871314 290.219935 
L 276.172534 290.021617 
L 276.823144 290.179647 
L 277.473755 290.178085 
L 278.124365 290.025365 
L 279.425586 290.24898 
L 280.076196 290.047227 
L 280.726806 290.088764 
L 281.377417 289.977894 
L 282.678637 290.168091 
L 283.329248 290.229929 
L 284.630468 290.017557 
L 285.281079 290.133112 
L 289.18474 290.11125 
L 289.835351 289.927299 
L 290.485961 290.177148 
L 291.136571 290.048788 
L 291.787182 290.148728 
L 292.437792 290.017245 
L 293.739013 290.118434 
L 295.040233 290.039731 
L 295.690844 289.976957 
L 296.341454 290.26522 
L 296.992064 289.96665 
L 297.642674 290.10719 
L 298.943895 289.950098 
L 299.594505 290.165593 
L 300.895726 290.091263 
L 301.546336 290.021617 
L 302.847557 290.282397 
L 304.148778 290.040356 
L 305.449998 289.979767 
L 306.100608 289.923551 
L 306.751219 290.158097 
L 307.401829 290.203382 
L 308.70305 290.117184 
L 310.00427 290.14092 
L 310.654881 289.977581 
L 311.305491 290.152163 
L 311.956101 290.059407 
L 312.606712 290.127803 
L 313.907932 290.045665 
L 314.558543 290.190265 
L 315.859763 289.997881 
L 316.510373 290.180271 
L 317.811594 290.110626 
L 318.462204 290.030362 
L 319.763425 290.249604 
L 320.414035 290.048788 
L 322.365866 290.122806 
L 323.016477 290.007563 
L 324.317697 290.150914 
L 325.618918 290.10438 
L 326.920138 290.19495 
L 327.570749 290.092199 
L 328.221359 290.210565 
L 328.871969 290.046914 
L 329.52258 290.28552 
L 330.17319 290.019431 
L 331.474411 290.20307 
L 332.125021 290.091887 
L 332.775631 290.178085 
L 335.378073 290.024116 
L 336.028683 290.210878 
L 337.329903 290.141232 
L 339.281734 290.165905 
L 341.233565 290.035671 
L 343.836007 290.111563 
L 347.089058 290.148415 
L 348.390279 290.248355 
L 349.040889 290.145917 
L 350.34211 290.164031 
L 351.64333 290.100007 
L 352.293941 290.185268 
L 354.245772 290.052848 
L 354.896382 290.129365 
L 356.848213 289.996632 
L 357.498823 290.292079 
L 358.800044 289.927611 
L 359.450654 290.109064 
L 365.306147 290.156223 
L 365.956757 290.031611 
L 366.607367 290.245857 
L 367.257978 290.075335 
L 369.209809 290.068152 
L 369.860419 290.209628 
L 372.46286 290.096884 
L 373.113471 290.209941 
L 373.764081 290.05441 
L 375.065302 290.207755 
L 375.715912 290.035359 
L 376.366522 290.10844 
L 377.017132 289.939792 
L 377.667743 290.132175 
L 378.318353 290.045353 
L 379.619574 290.095947 
L 380.920794 290.11656 
L 385.475066 290.081581 
L 386.125677 289.928548 
L 387.426897 290.129365 
L 389.378728 290.107503 
L 390.029339 290.320187 
L 391.98117 290.00444 
L 393.28239 289.968212 
L 394.583611 290.227118 
L 395.234221 290.106566 
L 397.186052 290.152163 
L 397.836662 289.966338 
L 398.487273 290.12468 
L 398.487273 290.12468 
" style="fill:none;stroke:#ff7f0e;stroke-linecap:square;stroke-width:1.5;"/>
   </g>
   <g id="line2d_17">
    <path clip-path="url(#p7ce2e7a4d5)" d="M 73.832727 289.832669 
L 74.483338 289.763023 
L 75.133948 289.931672 
L 75.784558 289.842351 
L 79.03761 289.946038 
L 80.33883 289.775828 
L 80.989441 289.981954 
L 82.941272 289.916993 
L 83.591882 290.020993 
L 84.242492 289.814243 
L 85.543713 289.825798 
L 89.447375 289.868585 
L 90.097985 289.829233 
L 90.748595 289.938542 
L 91.399206 289.808621 
L 92.049816 289.947599 
L 93.351037 289.865462 
L 95.302868 289.957593 
L 95.953478 289.887323 
L 96.604088 290.036296 
L 98.555919 289.761774 
L 99.206529 289.897005 
L 100.50775 289.784885 
L 101.15836 289.852344 
L 101.808971 289.777077 
L 102.459581 289.890134 
L 105.062022 289.873894 
L 105.712633 289.730855 
L 107.013853 289.953846 
L 107.664463 289.791131 
L 108.315074 289.940416 
L 109.616294 289.93417 
L 110.917515 289.881702 
L 111.568125 290.020368 
L 112.869346 289.849221 
L 113.519956 290.000692 
L 114.170567 289.786447 
L 115.471787 289.888573 
L 117.423618 290.004752 
L 118.074228 289.812056 
L 120.67667 289.890134 
L 121.32728 289.790195 
L 121.97789 289.953533 
L 125.881552 289.815492 
L 126.532163 289.852032 
L 127.182773 290.009437 
L 128.483993 289.781762 
L 129.134604 289.91387 
L 129.785214 289.722735 
L 130.435824 289.862026 
L 131.086435 289.807996 
L 132.387655 289.844537 
L 136.291317 289.849846 
L 136.941927 290.055034 
L 137.592538 289.798939 
L 138.243148 290.015371 
L 138.893758 289.879516 
L 140.194979 289.966338 
L 141.4962 289.834855 
L 142.14681 289.943852 
L 146.050472 289.764585 
L 146.701082 289.967587 
L 147.351692 290.051287 
L 149.303523 289.77208 
L 149.954134 289.984764 
L 150.604744 289.886074 
L 152.556575 289.953221 
L 154.508406 289.85984 
L 157.110847 289.935419 
L 158.412068 289.880452 
L 161.665119 289.782699 
L 162.31573 289.913245 
L 164.267561 289.846723 
L 166.219392 289.964464 
L 166.870002 289.848284 
L 170.773664 289.994134 
L 172.074884 289.77208 
L 175.327936 289.94229 
L 175.978546 289.797065 
L 176.629156 289.842038 
L 177.279767 289.76396 
L 177.930377 289.976644 
L 179.231598 289.881077 
L 184.43648 289.948536 
L 186.388311 289.793318 
L 187.689532 289.83142 
L 188.340142 289.768645 
L 190.291973 289.872957 
L 192.243804 289.832981 
L 192.894414 289.738663 
L 193.545025 289.76927 
L 194.195635 289.948849 
L 194.846245 289.740537 
L 195.496856 290.021305 
L 196.147466 289.905125 
L 200.701738 289.964152 
L 201.352348 289.800501 
L 202.002959 289.911996 
L 203.304179 289.883576 
L 203.95479 289.992885 
L 204.6054 289.981017 
L 205.25601 289.828297 
L 208.509062 289.907624 
L 209.159672 289.824549 
L 210.460893 290.008188 
L 211.111503 289.852344 
L 213.713944 289.892945 
L 215.015165 289.895756 
L 216.316385 289.846723 
L 218.268216 289.756465 
L 219.569437 289.918867 
L 220.220047 289.792693 
L 220.870658 289.950098 
L 222.171878 289.808933 
L 223.473099 289.958218 
L 224.123709 289.988824 
L 224.77432 289.798002 
L 225.42493 289.958218 
L 227.376761 289.939167 
L 228.027371 290.011935 
L 228.677981 289.803624 
L 229.328592 289.95447 
L 229.979202 289.907624 
L 230.629812 289.977269 
L 231.280423 289.806122 
L 231.931033 289.95853 
L 232.581643 289.960716 
L 233.232254 289.801438 
L 234.533474 290.039419 
L 236.485305 289.795504 
L 237.135915 289.944476 
L 239.087746 289.847035 
L 239.738357 289.985701 
L 241.039577 289.842351 
L 244.943239 289.918554 
L 250.798732 289.928861 
L 251.449342 289.787384 
L 253.401173 289.937605 
L 256.003615 289.913245 
L 258.606056 290.001942 
L 259.256666 289.70306 
L 259.907276 289.83954 
L 261.208497 289.848597 
L 262.509718 289.993197 
L 263.160328 289.81393 
L 271.618262 289.931984 
L 273.570093 289.792381 
L 274.220703 289.90169 
L 276.823144 289.848909 
L 277.473755 289.929485 
L 278.124365 289.803312 
L 279.425586 289.912308 
L 280.076196 289.713991 
L 281.377417 289.877954 
L 282.678637 289.909497 
L 283.329248 289.944164 
L 283.979858 289.85578 
L 284.630468 289.956344 
L 285.931689 289.844537 
L 286.582299 290.012872 
L 287.232909 289.824861 
L 287.88352 289.949786 
L 289.835351 289.818927 
L 291.136571 289.982578 
L 295.040233 289.82736 
L 295.690844 289.931672 
L 296.341454 289.800189 
L 297.642674 290.009125 
L 298.293285 289.851408 
L 302.196947 289.92605 
L 303.498167 289.838603 
L 304.148778 289.879203 
L 304.799388 289.688693 
L 307.401829 289.850471 
L 308.052439 289.906374 
L 308.70305 289.757714 
L 310.00427 289.902939 
L 313.257322 289.997569 
L 313.907932 289.838915 
L 314.558543 289.872957 
L 315.209153 290.079707 
L 315.859763 289.804561 
L 316.510373 289.936981 
L 317.160984 289.840164 
L 317.811594 290.029737 
L 318.462204 289.821738 
L 319.112815 289.870146 
L 319.763425 290.044728 
L 320.414035 289.815179 
L 321.064646 289.833918 
L 321.715256 290.038482 
L 324.317697 289.854531 
L 325.618918 289.925425 
L 326.269528 289.861401 
L 326.920138 289.997569 
L 328.221359 289.858278 
L 330.17319 289.879203 
L 330.8238 289.988512 
L 333.426242 289.818303 
L 334.727462 289.89638 
L 336.028683 289.802062 
L 341.233565 289.96384 
L 342.534786 289.801438 
L 343.185396 289.978831 
L 344.486617 289.929485 
L 345.787837 289.996008 
L 346.438448 289.783948 
L 348.390279 289.814867 
L 349.040889 289.964152 
L 351.64333 289.824236 
L 354.245772 289.95447 
L 354.896382 289.809558 
L 357.498823 289.934482 
L 360.101264 289.905125 
L 360.751875 289.707744 
L 361.402485 289.922302 
L 362.703706 289.714303 
L 363.354316 289.843287 
L 367.257978 289.849534 
L 367.908588 289.729918 
L 368.559198 289.861401 
L 369.860419 289.846098 
L 370.511029 289.989137 
L 371.16164 289.818615 
L 371.81225 289.997569 
L 373.113471 289.8233 
L 373.764081 289.985701 
L 374.414691 289.865774 
L 375.065302 289.982266 
L 376.366522 289.842975 
L 377.017132 289.824861 
L 377.667743 289.946038 
L 382.222015 289.846723 
L 382.872625 289.951035 
L 383.523236 289.786447 
L 384.173846 289.968212 
L 386.125677 289.815492 
L 386.776287 289.894506 
L 387.426897 289.793005 
L 389.378728 289.969461 
L 390.679949 289.835792 
L 391.330559 289.856717 
L 391.98117 289.669955 
L 392.63178 289.835792 
L 393.933001 289.940416 
L 394.583611 289.768333 
L 395.234221 289.955407 
L 395.884831 289.798315 
L 398.487273 289.966026 
L 398.487273 289.966026 
" style="fill:none;stroke:#2ca02c;stroke-linecap:square;stroke-width:1.5;"/>
   </g>
   <g id="line2d_18">
    <path clip-path="url(#p7ce2e7a4d5)" d="M 73.832727 295.391184 
L 75.784558 295.431472 
L 76.435169 295.24471 
L 77.736389 295.259701 
L 78.386999 295.480817 
L 79.03761 295.25283 
L 80.33883 295.404613 
L 80.989441 295.284998 
L 83.591882 295.350895 
L 84.242492 295.247208 
L 84.893103 295.399304 
L 85.543713 295.25158 
L 86.194323 295.410859 
L 89.447375 295.348085 
L 90.097985 295.215977 
L 90.748595 295.387748 
L 91.399206 295.267196 
L 94.001647 295.346835 
L 94.652257 295.292493 
L 95.302868 295.449273 
L 96.604088 295.312793 
L 100.50775 295.37994 
L 102.459581 295.444276 
L 103.110191 295.223472 
L 103.760802 295.360889 
L 104.411412 295.270944 
L 105.062022 295.364637 
L 105.712633 295.261262 
L 107.013853 295.456144 
L 107.664463 295.25158 
L 116.773008 295.330907 
L 117.423618 295.261262 
L 118.074228 295.388685 
L 118.724839 295.304361 
L 120.026059 295.445213 
L 121.32728 295.408361 
L 122.628501 295.362763 
L 123.279111 295.33122 
L 123.929721 295.452397 
L 124.580332 295.277815 
L 126.532163 295.347772 
L 127.182773 295.24877 
L 128.483993 295.453021 
L 129.785214 295.289682 
L 130.435824 295.369009 
L 131.086435 295.280313 
L 132.387655 295.404613 
L 133.688876 295.204109 
L 134.339486 295.351832 
L 135.640707 295.199737 
L 136.291317 295.350583 
L 136.941927 295.380565 
L 137.592538 295.255328 
L 138.893758 295.46239 
L 140.194979 295.407424 
L 140.845589 295.304361 
L 142.14681 295.408048 
L 143.448031 295.326535 
L 144.098641 295.398054 
L 145.399862 295.279376 
L 148.002303 295.365886 
L 149.303523 295.269694 
L 149.954134 295.412733 
L 153.207185 295.326847 
L 153.857796 295.388685 
L 154.508406 295.285935 
L 155.159016 295.447712 
L 155.809627 295.322475 
L 157.761457 295.411171 
L 158.412068 295.233466 
L 159.062678 295.405862 
L 160.363899 295.357766 
L 162.31573 295.394307 
L 162.96634 295.484252 
L 163.61695 295.241899 
L 164.267561 295.289058 
L 164.918171 295.216914 
L 165.568781 295.426162 
L 166.870002 295.337154 
L 175.978546 295.412108 
L 177.279767 295.267196 
L 178.580987 295.303112 
L 179.882208 295.282187 
L 180.532818 295.359015 
L 181.834039 295.319664 
L 182.484649 295.395556 
L 183.78587 295.298739 
L 184.43648 295.395868 
L 185.087091 295.24065 
L 187.038921 295.415544 
L 189.641363 295.449586 
L 190.291973 295.261262 
L 190.942583 295.367448 
L 191.593194 295.253454 
L 192.243804 295.344649 
L 193.545025 295.286247 
L 194.195635 295.402427 
L 195.496856 295.272193 
L 198.749907 295.407736 
L 199.400517 295.267821 
L 201.352348 295.422102 
L 202.002959 295.329034 
L 202.653569 295.408361 
L 203.304179 295.294992 
L 204.6054 295.311544 
L 206.557231 295.332157 
L 207.207841 295.455832 
L 208.509062 295.394619 
L 209.159672 295.453958 
L 209.810282 295.324037 
L 211.111503 295.415856 
L 211.762113 295.28937 
L 213.713944 295.352145 
L 214.364555 295.239713 
L 215.665775 295.443339 
L 216.966996 295.332157 
L 217.617606 295.413045 
L 218.268216 295.264073 
L 219.569437 295.399928 
L 220.870658 295.200674 
L 221.521268 295.326223 
L 222.822489 295.210355 
L 223.473099 295.368073 
L 225.42493 295.292493 
L 226.07554 295.459267 
L 227.376761 295.448649 
L 228.027371 295.277815 
L 228.677981 295.287184 
L 229.328592 295.435219 
L 230.629812 295.365574 
L 237.135915 295.332157 
L 237.786526 295.399304 
L 239.087746 295.311232 
L 239.738357 295.262511 
L 241.039577 295.415231 
L 241.690188 295.299364 
L 242.340798 295.403051 
L 243.642019 295.369009 
L 244.292629 295.340589 
L 244.943239 295.463952 
L 245.59385 295.243148 
L 246.24446 295.367136 
L 251.449342 295.339028 
L 252.099953 295.223785 
L 253.401173 295.370883 
L 259.256666 295.268758 
L 259.907276 295.345898 
L 260.557887 295.304673 
L 261.208497 295.429285 
L 266.413379 295.24877 
L 269.015821 295.348397 
L 270.967652 295.364637 
L 271.618262 295.40149 
L 272.268872 295.204421 
L 274.220703 295.442403 
L 278.774975 295.25158 
L 280.076196 295.350583 
L 283.329248 295.245959 
L 283.979858 295.362763 
L 291.787182 295.334343 
L 293.088402 295.335592 
L 296.341454 295.379003 
L 300.895726 295.340277 
L 301.546336 295.219412 
L 302.196947 295.394931 
L 304.799388 295.389934 
L 305.449998 295.253454 
L 306.100608 295.375568 
L 310.00427 295.237526 
L 311.305491 295.376817 
L 311.956101 295.259701 
L 313.257322 295.422415 
L 314.558543 295.45552 
L 315.859763 295.261887 
L 316.510373 295.463327 
L 317.160984 295.328097 
L 319.112815 295.437093 
L 319.763425 295.19474 
L 320.414035 295.37588 
L 321.064646 295.259701 
L 323.016477 295.367448 
L 323.667087 295.248457 
L 324.968308 295.419604 
L 326.269528 295.314043 
L 326.920138 295.240337 
L 327.570749 295.413045 
L 328.871969 295.302487 
L 329.52258 295.410547 
L 331.474411 295.38119 
L 332.775631 295.251893 
L 333.426242 295.398991 
L 336.028683 295.349022 
L 337.329903 295.443964 
L 339.281734 295.226908 
L 340.582955 295.443652 
L 341.233565 295.315917 
L 343.185396 295.299364 
L 343.836007 295.256577 
L 345.137227 295.421165 
L 346.438448 295.184746 
L 347.089058 295.443652 
L 347.739668 295.304049 
L 349.040889 295.412108 
L 355.546992 295.260637 
L 356.197602 295.436781 
L 356.848213 295.182247 
L 357.498823 295.436469 
L 360.101264 295.270007 
L 362.053095 295.4677 
L 362.703706 295.350271 
L 363.354316 295.426787 
L 364.004926 295.352457 
L 364.655537 295.405238 
L 365.956757 295.251893 
L 367.257978 295.354018 
L 368.559198 295.315604 
L 369.209809 295.369634 
L 370.511029 295.230343 
L 371.16164 295.37994 
L 375.065302 295.332781 
L 375.715912 295.411484 
L 377.667743 295.321538 
L 378.968963 295.369634 
L 379.619574 295.222535 
L 380.270184 295.352457 
L 384.173846 295.418355 
L 384.824456 295.283748 
L 386.125677 295.440216 
L 386.776287 295.216914 
L 387.426897 295.402114 
L 388.728118 295.281562 
L 390.679949 295.362763 
L 398.487273 295.357766 
L 398.487273 295.357766 
" style="fill:none;stroke:#d62728;stroke-linecap:square;stroke-width:1.5;"/>
   </g>
   <g id="patch_3">
    <path d="M 57.6 307.584 
L 57.6 41.472 
" style="fill:none;stroke:#000000;stroke-linecap:square;stroke-linejoin:miter;stroke-width:0.8;"/>
   </g>
   <g id="patch_4">
    <path d="M 414.72 307.584 
L 414.72 41.472 
" style="fill:none;stroke:#000000;stroke-linecap:square;stroke-linejoin:miter;stroke-width:0.8;"/>
   </g>
   <g id="patch_5">
    <path d="M 57.6 307.584 
L 414.72 307.584 
" style="fill:none;stroke:#000000;stroke-linecap:square;stroke-linejoin:miter;stroke-width:0.8;"/>
   </g>
   <g id="patch_6">
    <path d="M 57.6 41.472 
L 414.72 41.472 
" style="fill:none;stroke:#000000;stroke-linecap:square;stroke-linejoin:miter;stroke-width:0.8;"/>
   </g>
   <g id="legend_1">
    <g id="patch_7">
     <path d="M 343.965313 205.38425 
L 407.72 205.38425 
Q 409.72 205.38425 409.72 203.38425 
L 409.72 145.67175 
Q 409.72 143.67175 407.72 143.67175 
L 343.965313 143.67175 
Q 341.965313 143.67175 341.965313 145.67175 
L 341.965313 203.38425 
Q 341.965313 205.38425 343.965313 205.38425 
z
" style="fill:#ffffff;opacity:0.8;stroke:#cccccc;stroke-linejoin:miter;"/>
    </g>
    <g id="line2d_19">
     <path d="M 345.965313 151.770188 
L 365.965313 151.770188 
" style="fill:none;stroke:#1f77b4;stroke-linecap:square;stroke-width:1.5;"/>
    </g>
    <g id="line2d_20"/>
    <g id="text_18">
     <!-- HOT -->
     <g transform="translate(373.965313 155.270188)scale(0.1 -0.1)">
      <defs>
       <path d="M 628 4666 
L 1259 4666 
L 1259 2753 
L 3553 2753 
L 3553 4666 
L 4184 4666 
L 4184 0 
L 3553 0 
L 3553 2222 
L 1259 2222 
L 1259 0 
L 628 0 
L 628 4666 
z
" id="DejaVuSans-48" transform="scale(0.015625)"/>
       <path d="M 2522 4238 
Q 1834 4238 1429 3725 
Q 1025 3213 1025 2328 
Q 1025 1447 1429 934 
Q 1834 422 2522 422 
Q 3209 422 3611 934 
Q 4013 1447 4013 2328 
Q 4013 3213 3611 3725 
Q 3209 4238 2522 4238 
z
M 2522 4750 
Q 3503 4750 4090 4092 
Q 4678 3434 4678 2328 
Q 4678 1225 4090 567 
Q 3503 -91 2522 -91 
Q 1538 -91 948 565 
Q 359 1222 359 2328 
Q 359 3434 948 4092 
Q 1538 4750 2522 4750 
z
" id="DejaVuSans-4f" transform="scale(0.015625)"/>
       <path d="M -19 4666 
L 3928 4666 
L 3928 4134 
L 2272 4134 
L 2272 0 
L 1638 0 
L 1638 4134 
L -19 4134 
L -19 4666 
z
" id="DejaVuSans-54" transform="scale(0.015625)"/>
      </defs>
      <use xlink:href="#DejaVuSans-48"/>
      <use x="75.195312" xlink:href="#DejaVuSans-4f"/>
      <use x="153.90625" xlink:href="#DejaVuSans-54"/>
     </g>
    </g>
    <g id="line2d_21">
     <path d="M 345.965313 166.448313 
L 365.965313 166.448313 
" style="fill:none;stroke:#ff7f0e;stroke-linecap:square;stroke-width:1.5;"/>
    </g>
    <g id="line2d_22"/>
    <g id="text_19">
     <!-- WARM -->
     <g transform="translate(373.965313 169.948313)scale(0.1 -0.1)">
      <defs>
       <path d="M 213 4666 
L 850 4666 
L 1831 722 
L 2809 4666 
L 3519 4666 
L 4500 722 
L 5478 4666 
L 6119 4666 
L 4947 0 
L 4153 0 
L 3169 4050 
L 2175 0 
L 1381 0 
L 213 4666 
z
" id="DejaVuSans-57" transform="scale(0.015625)"/>
       <path d="M 2188 4044 
L 1331 1722 
L 3047 1722 
L 2188 4044 
z
M 1831 4666 
L 2547 4666 
L 4325 0 
L 3669 0 
L 3244 1197 
L 1141 1197 
L 716 0 
L 50 0 
L 1831 4666 
z
" id="DejaVuSans-41" transform="scale(0.015625)"/>
       <path d="M 628 4666 
L 1569 4666 
L 2759 1491 
L 3956 4666 
L 4897 4666 
L 4897 0 
L 4281 0 
L 4281 4097 
L 3078 897 
L 2444 897 
L 1241 4097 
L 1241 0 
L 628 0 
L 628 4666 
z
" id="DejaVuSans-4d" transform="scale(0.015625)"/>
      </defs>
      <use xlink:href="#DejaVuSans-57"/>
      <use x="93.376953" xlink:href="#DejaVuSans-41"/>
      <use x="161.785156" xlink:href="#DejaVuSans-52"/>
      <use x="231.267578" xlink:href="#DejaVuSans-4d"/>
     </g>
    </g>
    <g id="line2d_23">
     <path d="M 345.965313 181.126438 
L 365.965313 181.126438 
" style="fill:none;stroke:#2ca02c;stroke-linecap:square;stroke-width:1.5;"/>
    </g>
    <g id="line2d_24"/>
    <g id="text_20">
     <!-- MILD -->
     <g transform="translate(373.965313 184.626438)scale(0.1 -0.1)">
      <defs>
       <path d="M 628 4666 
L 1259 4666 
L 1259 0 
L 628 0 
L 628 4666 
z
" id="DejaVuSans-49" transform="scale(0.015625)"/>
       <path d="M 628 4666 
L 1259 4666 
L 1259 531 
L 3531 531 
L 3531 0 
L 628 0 
L 628 4666 
z
" id="DejaVuSans-4c" transform="scale(0.015625)"/>
       <path d="M 1259 4147 
L 1259 519 
L 2022 519 
Q 2988 519 3436 956 
Q 3884 1394 3884 2338 
Q 3884 3275 3436 3711 
Q 2988 4147 2022 4147 
L 1259 4147 
z
M 628 4666 
L 1925 4666 
Q 3281 4666 3915 4102 
Q 4550 3538 4550 2338 
Q 4550 1131 3912 565 
Q 3275 0 1925 0 
L 628 0 
L 628 4666 
z
" id="DejaVuSans-44" transform="scale(0.015625)"/>
      </defs>
      <use xlink:href="#DejaVuSans-4d"/>
      <use x="86.279297" xlink:href="#DejaVuSans-49"/>
      <use x="115.771484" xlink:href="#DejaVuSans-4c"/>
      <use x="171.484375" xlink:href="#DejaVuSans-44"/>
     </g>
    </g>
    <g id="line2d_25">
     <path d="M 345.965313 195.804563 
L 365.965313 195.804563 
" style="fill:none;stroke:#d62728;stroke-linecap:square;stroke-width:1.5;"/>
    </g>
    <g id="line2d_26"/>
    <g id="text_21">
     <!-- COLD -->
     <g transform="translate(373.965313 199.304563)scale(0.1 -0.1)">
      <defs>
       <path d="M 4122 4306 
L 4122 3641 
Q 3803 3938 3442 4084 
Q 3081 4231 2675 4231 
Q 1875 4231 1450 3742 
Q 1025 3253 1025 2328 
Q 1025 1406 1450 917 
Q 1875 428 2675 428 
Q 3081 428 3442 575 
Q 3803 722 4122 1019 
L 4122 359 
Q 3791 134 3420 21 
Q 3050 -91 2638 -91 
Q 1578 -91 968 557 
Q 359 1206 359 2328 
Q 359 3453 968 4101 
Q 1578 4750 2638 4750 
Q 3056 4750 3426 4639 
Q 3797 4528 4122 4306 
z
" id="DejaVuSans-43" transform="scale(0.015625)"/>
      </defs>
      <use xlink:href="#DejaVuSans-43"/>
      <use x="69.824219" xlink:href="#DejaVuSans-4f"/>
      <use x="148.535156" xlink:href="#DejaVuSans-4c"/>
      <use x="204.248047" xlink:href="#DejaVuSans-44"/>
     </g>
    </g>
   </g>
  </g>
 </g>
 <defs>
  <clipPath id="p7ce2e7a4d5">
   <rect height="266.112" width="357.12" x="57.6" y="41.472"/>
  </clipPath>
 </defs>
</svg>
